<?xml version="1.0" standalone="no"?>
<!DOCTYPE svg PUBLIC "-//W3C//DTD SVG 20010904//EN"
 "http://www.w3.org/TR/2001/REC-SVG-20010904/DTD/svg10.dtd">
<svg version="1.0" xmlns="http://www.w3.org/2000/svg"
 width="517.000000pt" height="517.000000pt" viewBox="0 0 517.000000 517.000000"
 preserveAspectRatio="xMidYMid meet">
<metadata>
Created by potrace 1.11, written by Peter Selinger 2001-2013
</metadata>
<g transform="translate(0.000000,517.000000) scale(0.100000,-0.100000)"
fill="#000000" stroke="none">
<path d="M2457 4879 c-55 -32 -104 -56 -109 -52 -6 3 -8 2 -5 -4 4 -6 -44 -39
-106 -73 -62 -35 -172 -99 -246 -142 -73 -43 -138 -75 -144 -71 -5 3 -7 2 -4
-4 3 -5 -92 -66 -211 -135 -119 -68 -320 -185 -447 -258 -126 -73 -235 -133
-242 -133 -7 0 -10 -3 -8 -6 2 -3 -103 -67 -233 -142 -131 -75 -326 -188 -434
-250 -109 -63 -198 -116 -198 -119 0 -3 25 -20 55 -38 32 -20 53 -38 49 -44
-4 -7 -2 -8 4 -4 12 7 52 -13 52 -27 0 -4 -5 -5 -12 -1 -7 4 -8 3 -4 -5 6 -9
11 -9 22 0 13 11 18 6 15 -14 -1 -4 5 -7 12 -5 19 4 137 -74 130 -85 -4 -6 0
-8 10 -4 10 4 20 0 25 -9 5 -9 13 -17 18 -17 5 -1 8 -4 7 -7 -1 -3 8 -7 20 -7
12 -1 23 -7 25 -13 2 -5 10 -10 18 -10 8 0 14 -4 14 -10 0 -5 7 -10 15 -10 7
0 19 -8 24 -17 6 -10 11 -14 11 -10 0 4 9 3 20 -3 11 -6 17 -16 14 -22 -5 -7
-2 -9 8 -5 9 3 25 -3 35 -13 11 -10 39 -28 62 -39 23 -12 50 -30 60 -39 10 -9
24 -18 32 -20 8 -2 15 -8 17 -13 2 -5 9 -9 16 -9 7 0 25 -11 40 -25 14 -13 26
-21 26 -17 0 4 7 -2 15 -12 8 -11 15 -17 15 -13 0 4 9 3 21 -3 12 -7 18 -18
15 -26 -3 -8 -1 -14 3 -14 5 0 11 5 13 10 2 6 13 2 25 -10 12 -11 27 -20 33
-20 6 0 8 -5 4 -12 -5 -7 -2 -9 9 -5 9 3 25 -3 39 -16 13 -12 26 -22 29 -22
15 0 97 -59 93 -67 -3 -4 2 -5 10 -2 9 3 16 1 16 -5 0 -6 4 -11 9 -11 14 0
131 -71 131 -79 0 -4 17 -15 38 -24 21 -9 47 -25 57 -34 11 -10 32 -24 48 -30
15 -7 27 -17 27 -23 0 -6 4 -9 8 -6 5 3 18 -2 28 -12 11 -9 36 -26 56 -36 21
-10 35 -23 31 -29 -3 -6 -1 -7 4 -4 6 4 26 -4 44 -18 19 -13 44 -29 57 -35 13
-5 21 -14 18 -18 -2 -4 4 -9 15 -9 27 -2 51 -22 42 -36 -3 -5 -2 -8 3 -5 15 9
56 -11 48 -23 -5 -8 -3 -9 6 -4 8 5 20 -1 32 -16 11 -13 17 -18 13 -11 -10 18
21 2 52 -27 13 -12 26 -22 30 -24 5 -1 7 -4 6 -7 -1 -3 7 -7 18 -7 19 -2 52
-27 44 -35 -2 -2 5 -4 16 -5 25 -2 81 -42 74 -53 -3 -4 4 -6 15 -3 12 3 22 -1
26 -11 3 -9 10 -14 14 -11 4 2 19 -6 33 -19 14 -13 28 -21 31 -18 3 3 6 -2 6
-11 0 -9 4 -19 10 -22 6 -4 7 1 3 11 -6 15 -4 15 20 -1 15 -9 27 -22 27 -27 0
-5 4 -6 10 -3 6 3 10 1 10 -4 0 -6 5 -11 10 -11 22 0 80 -45 75 -59 -4 -10 -2
-11 7 -3 9 7 18 7 31 -2 19 -15 24 -31 5 -20 -6 4 -8 3 -4 -4 7 -12 47 -3 87
19 13 7 27 12 32 11 4 -1 7 2 7 8 0 19 54 39 74 28 13 -7 17 -7 12 0 -3 6 -3
12 1 15 5 2 2 2 -4 1 -24 -6 -13 11 17 28 17 9 30 13 30 9 0 -5 10 -11 23 -14
21 -6 21 -5 3 8 -21 16 -13 35 15 35 13 0 18 4 13 13 -4 6 -4 9 0 5 5 -4 17 2
29 13 11 10 26 19 31 19 6 0 4 -5 -4 -11 -13 -9 -13 -10 2 -6 9 3 19 1 22 -6
3 -7 3 0 -1 16 -4 22 -2 26 11 21 9 -3 13 -11 9 -18 -3 -6 -3 -8 2 -4 4 4 16
3 26 -2 15 -8 17 -7 14 10 -3 15 2 20 16 20 13 0 18 -4 13 -12 -4 -7 -3 -8 5
-4 6 4 9 11 6 16 -5 8 12 25 27 25 3 0 10 4 15 9 5 5 3 6 -4 2 -7 -4 -13 -3
-13 2 0 16 13 22 26 11 10 -9 15 -7 20 5 3 9 10 13 15 10 5 -3 6 3 2 13 -6 15
-4 16 9 5 13 -10 18 -10 24 -1 4 8 3 9 -4 5 -7 -4 -12 -3 -12 2 0 17 13 22 28
9 13 -10 14 -9 2 9 -13 21 -13 21 -32 2 -10 -10 -23 -16 -28 -13 -6 3 -7 -1
-4 -10 4 -10 2 -14 -7 -10 -17 6 -32 -4 -47 -30 -6 -11 -12 -14 -12 -7 0 6 -5
12 -11 12 -8 0 -8 -5 1 -15 10 -12 9 -16 -4 -20 -9 -3 -23 -7 -32 -10 -8 -3
-12 -9 -9 -15 10 -16 -11 -12 -25 5 -10 12 -10 15 4 15 9 0 16 5 16 11 0 6 9
9 19 6 14 -3 18 -1 14 9 -3 8 3 17 13 21 11 3 34 18 52 31 17 13 32 22 32 18
0 -3 9 2 20 12 12 9 25 18 30 18 6 1 15 2 21 3 5 0 8 5 5 10 -6 9 15 21 46 27
20 4 20 -15 0 -31 -11 -8 -9 -11 6 -11 13 0 18 7 17 23 0 12 -4 25 -8 29 -4 5
9 16 29 26 21 10 38 17 39 15 1 -1 8 -11 14 -22 12 -19 10 -9 -4 27 -5 14 -2
18 12 18 10 0 24 -5 29 -10 7 -7 11 -6 11 4 0 8 -4 13 -8 10 -4 -2 -10 0 -14
6 -3 5 1 10 9 10 9 0 16 3 16 8 0 4 14 15 30 24 17 9 30 13 30 8 0 -11 25 -7
27 5 1 6 -1 12 -4 15 -4 3 -3 -1 2 -9 6 -10 4 -12 -5 -6 -10 6 -7 12 11 26 13
9 27 15 31 13 3 -2 9 0 13 6 4 6 11 7 17 4 7 -4 8 -2 4 5 -4 6 0 14 10 18 11
4 23 -2 35 -18 23 -30 25 -17 2 19 -9 15 -13 24 -8 20 4 -4 14 0 22 10 8 9 11
11 7 3 -4 -9 -3 -12 4 -7 6 3 13 2 17 -4 3 -5 -1 -10 -9 -10 -9 0 -16 -4 -16
-10 0 -5 7 -6 17 -3 12 5 14 3 8 -7 -5 -9 -4 -11 4 -6 6 4 9 11 6 15 -6 11 30
43 38 34 4 -3 7 -1 7 5 0 17 -15 15 -30 -3 -7 -8 -16 -12 -21 -9 -11 6 -12 24
-1 23 21 -4 32 2 26 14 -4 6 -4 9 1 5 5 -5 15 1 22 12 8 11 18 18 23 15 5 -3
16 3 26 12 20 20 59 29 48 11 -4 -7 -3 -8 5 -4 9 6 9 11 -1 24 -10 12 -10 14
0 8 7 -4 12 -2 12 4 0 6 4 9 10 5 5 -3 7 -13 4 -23 -5 -14 -4 -14 4 -3 6 8 7
21 4 30 -5 14 -4 14 11 2 15 -12 17 -12 11 2 -7 19 78 72 103 63 13 -5 14 -4
3 9 -11 13 -10 14 5 9 12 -5 16 -4 12 3 -4 6 9 20 29 32 41 24 48 26 38 9 -4
-7 6 2 22 20 16 18 36 34 45 35 9 2 24 11 33 20 10 9 22 15 27 12 5 -4 9 -1 9
4 0 6 4 11 10 11 14 0 -9 -48 -26 -54 -16 -6 -19 10 -4 17 6 3 5 4 -2 3 -7 -2
-13 -10 -13 -20 0 -9 -7 -21 -15 -26 -9 -6 -10 -10 -3 -10 6 0 15 5 19 11 4 8
9 7 16 -2 8 -11 9 -10 4 4 -3 9 -1 18 4 18 6 1 16 2 23 3 7 1 11 15 10 39 -2
32 0 37 13 27 8 -7 14 -9 14 -4 0 5 4 2 10 -6 5 -8 12 -11 17 -7 9 9 -17 28
-29 21 -4 -3 -8 0 -8 6 0 7 15 10 40 7 33 -3 38 -2 28 10 -8 10 -13 11 -18 2
-6 -8 -9 -8 -14 0 -7 10 5 15 31 12 6 -1 15 4 19 10 5 8 2 10 -7 5 -8 -4 -5 0
5 8 15 12 22 13 34 4 11 -10 17 -9 26 3 6 9 19 15 28 13 14 -2 16 1 8 16 -15
28 -11 37 6 15 16 -20 16 -20 10 1 -5 16 0 26 19 38 14 9 25 14 25 11 0 -3 9
3 21 14 12 11 34 25 50 31 16 7 29 16 29 21 0 14 48 11 53 -3 4 -10 6 -10 6 0
1 7 -6 15 -15 19 -12 4 -13 8 -3 14 8 4 18 1 26 -9 11 -14 13 -14 12 -2 -3 33
2 45 11 25 8 -19 9 -19 9 2 1 12 5 25 11 28 6 3 8 -2 5 -12 -3 -10 0 -8 6 5 7
12 21 22 32 22 11 0 17 3 14 7 -4 3 1 12 11 19 21 16 32 17 32 3 0 -5 -4 -8
-9 -4 -5 3 -13 0 -17 -7 -4 -7 -4 -10 1 -6 4 4 13 1 19 -8 10 -13 12 -10 14
17 2 18 4 34 6 36 7 7 35 -10 30 -18 -3 -5 -9 -7 -13 -5 -4 3 -8 -1 -8 -9 0
-10 4 -12 12 -5 7 5 14 7 18 4 3 -3 4 1 3 10 -1 8 -5 19 -9 22 -15 15 -6 26
10 13 14 -12 16 -12 8 0 -6 11 -4 13 10 7 15 -5 16 -4 5 9 -15 18 0 20 19 3
11 -11 13 -10 8 3 -7 21 11 39 31 32 10 -4 13 -2 8 5 -7 11 5 16 31 13 6 -1
15 4 19 10 5 8 2 10 -7 5 -8 -4 0 4 16 18 17 14 54 38 82 53 29 16 53 33 53
40 0 6 -27 26 -60 45 -33 18 -60 36 -60 40 0 5 -7 8 -15 8 -8 0 -15 4 -15 8 0
5 -6 9 -12 9 -26 1 -228 125 -222 135 4 7 2 8 -4 4 -12 -7 -112 43 -112 57 0
4 -5 7 -11 7 -23 0 -189 103 -182 113 3 6 1 7 -5 3 -14 -9 -93 34 -86 45 3 5
-2 6 -10 3 -9 -3 -16 -1 -16 5 0 6 -6 10 -12 9 -7 -2 -12 3 -10 10 1 8 -2 10
-8 7 -6 -4 -28 4 -48 17 -20 13 -54 32 -74 43 -20 10 -34 23 -31 28 3 6 2 7
-4 4 -13 -8 -126 57 -116 67 4 4 3 6 -2 5 -17 -5 -55 12 -55 23 0 6 -3 8 -6 5
-4 -4 -19 2 -33 12 -14 10 -34 21 -43 24 -10 4 -18 11 -18 17 0 6 -4 8 -10 5
-5 -3 -10 -2 -10 3 0 5 -6 9 -12 9 -17 0 -88 43 -88 52 0 4 -6 8 -13 8 -16 0
-107 53 -107 62 0 4 -6 8 -12 8 -12 0 -126 64 -353 197 -38 22 -71 44 -73 48
-2 5 -9 8 -16 8 -7 0 -22 9 -34 20 -12 12 -22 18 -22 15 0 -4 -19 4 -42 18
-24 13 -77 43 -118 67 -41 23 -76 47 -78 51 -2 5 -8 9 -14 9 -6 0 -57 27 -115
60 -57 33 -112 60 -121 59 -9 0 -61 -27 -115 -60z m129 -424 c4 -8 10 -15 16
-15 5 0 6 5 2 12 -4 6 9 2 29 -11 20 -12 50 -29 67 -37 16 -9 30 -18 30 -20 0
-3 -5 -2 -12 2 -7 4 -8 3 -4 -4 4 -6 13 -9 21 -5 8 3 15 1 15 -4 0 -5 18 -17
41 -27 49 -22 172 -95 180 -108 3 -5 9 -9 13 -9 3 1 19 -5 34 -13 92 -49 117
-66 114 -76 -1 -6 2 -9 8 -5 13 8 52 -19 42 -30 -4 -5 -1 -5 6 -1 7 4 24 0 38
-9 15 -9 51 -31 83 -48 31 -16 58 -33 61 -37 3 -3 20 -12 38 -19 17 -8 32 -17
32 -22 0 -5 7 -9 15 -9 8 0 15 -5 15 -11 0 -5 5 -7 10 -4 6 3 10 1 10 -4 0 -6
6 -10 13 -8 6 1 11 -3 10 -10 -2 -7 3 -10 11 -7 8 3 23 -3 34 -14 11 -11 23
-18 26 -15 3 4 6 1 6 -5 0 -7 5 -11 12 -9 7 1 12 -3 13 -10 0 -6 4 -15 9 -20
5 -5 6 -3 2 5 -4 6 -2 12 3 12 6 0 11 -5 11 -11 0 -5 4 -8 8 -5 5 3 25 -6 45
-19 20 -14 40 -25 46 -25 5 0 11 -3 13 -7 2 -5 29 -21 61 -38 32 -16 66 -37
75 -46 9 -8 22 -16 27 -17 6 -1 17 -8 27 -16 9 -8 20 -11 24 -8 4 4 4 -2 0
-13 -5 -15 -4 -17 4 -8 9 8 27 2 74 -25 33 -19 67 -43 74 -51 8 -9 11 -10 7
-4 -5 11 90 -41 105 -57 3 -3 17 -11 33 -17 15 -7 27 -16 27 -20 -1 -7 -74
-55 -520 -338 -85 -54 -222 -142 -305 -195 -82 -53 -213 -136 -290 -185 -77
-48 -183 -116 -235 -150 -309 -201 -398 -252 -374 -213 4 7 3 8 -4 4 -14 -8
-112 54 -112 71 0 7 -6 10 -12 8 -17 -7 -130 69 -121 80 5 4 2 5 -4 1 -15 -8
-116 57 -106 68 4 4 1 4 -8 1 -8 -3 -24 2 -34 12 -11 10 -32 24 -47 32 -16 8
-28 18 -28 23 0 5 -4 7 -9 3 -6 -3 -14 3 -20 12 -6 10 -11 14 -11 10 0 -8 -91
50 -101 66 -3 5 -10 9 -15 10 -5 1 -8 6 -6 10 1 5 -2 6 -7 3 -13 -9 -112 55
-104 67 3 6 1 7 -6 3 -14 -9 -112 54 -104 67 3 6 1 7 -5 3 -6 -4 -39 11 -72
34 -34 22 -63 40 -65 40 -9 0 -110 73 -110 80 0 5 -4 12 -9 17 -5 5 -6 3 -2
-4 4 -7 5 -13 2 -13 -6 0 -139 82 -146 90 -3 4 -24 18 -48 32 -23 13 -39 28
-35 33 5 4 3 5 -3 2 -6 -4 -33 8 -60 25 -27 17 -71 46 -99 63 -167 106 -195
125 -195 131 0 4 7 1 16 -7 13 -11 15 -11 12 2 -1 7 1 15 6 16 5 1 12 5 15 10
10 15 81 55 81 46 0 -4 6 -1 13 7 24 31 83 58 102 47 13 -7 16 -6 10 3 -5 9
-2 10 14 5 15 -5 21 -2 21 9 0 9 -5 16 -11 16 -5 0 -7 -4 -4 -10 4 -6 -1 -7
-12 -3 -14 6 -13 9 12 19 17 7 33 10 38 7 4 -2 7 3 7 11 0 10 6 13 17 9 11 -4
14 -3 9 5 -5 8 -1 10 11 5 10 -3 15 -3 11 2 -14 15 25 34 47 22 18 -9 19 -9 6
6 -12 16 -9 19 15 16 3 0 13 8 21 18 14 17 14 17 9 0 -3 -10 -2 -16 3 -12 5 3
12 -1 15 -7 3 -7 3 1 -1 17 -5 29 -5 29 10 10 16 -20 16 -20 12 2 -3 16 3 26
18 34 21 10 21 10 3 -5 -11 -9 -15 -16 -8 -16 7 0 17 9 24 20 17 27 27 25 21
-2 -3 -13 -3 -20 0 -17 4 3 9 16 11 30 7 36 7 36 15 15 4 -11 18 -21 32 -23
18 -2 20 -1 9 6 -8 5 -18 7 -22 5 -4 -3 -8 5 -8 17 0 21 1 22 20 4 19 -17 20
-17 41 9 17 21 24 25 30 14 7 -10 9 -10 9 -1 0 7 3 12 8 12 4 -1 14 -1 22 0
13 1 13 2 0 11 -9 5 -19 5 -27 -2 -10 -8 -13 -6 -13 5 0 13 21 29 42 31 4 1
16 9 27 18 12 10 23 13 26 8 4 -7 13 -7 24 0 10 5 21 7 25 5 3 -3 3 -2 0 3 -8
10 -28 9 -37 -3 -6 -6 -7 -5 -5 3 2 8 8 14 13 14 6 0 22 9 37 19 34 25 50 24
19 -1 -18 -15 -19 -20 -7 -20 9 0 16 5 16 11 0 5 5 7 10 4 6 -4 10 -3 9 2 -4
21 2 43 12 43 5 0 26 11 46 25 20 13 40 22 45 19 4 -3 8 0 8 5 0 13 61 40 74
33 4 -2 2 -9 -5 -14 -11 -8 -11 -9 1 -5 9 2 14 13 12 25 -4 29 6 28 19 0 9
-21 9 -21 4 4 -4 21 -2 26 9 22 8 -3 17 0 22 7 5 8 3 10 -7 4 -8 -5 -11 -4 -6
1 5 5 10 7 11 4 1 -3 10 3 20 12 9 9 23 15 32 11 9 -3 14 0 12 8 -2 9 4 13 16
11 12 -2 16 1 10 9 -5 8 -3 10 5 5 7 -5 10 -15 7 -23 -3 -8 -1 -11 5 -8 5 4 9
14 8 23 -3 32 1 35 21 17 11 -10 20 -13 20 -7 0 7 -4 12 -10 12 -16 0 -12 17
6 24 8 3 12 2 9 -3 -3 -5 0 -13 7 -17 7 -4 10 -4 6 1 -4 4 -3 16 3 26 9 18 12
18 42 4 26 -13 29 -13 13 -1 -10 8 -15 20 -11 26 4 7 10 8 14 4 3 -5 15 -16
25 -24 19 -15 19 -14 2 13 -17 24 -15 32 7 28 4 0 7 3 7 7 0 5 18 18 40 31 22
12 40 19 40 15 0 -4 9 2 20 14 19 20 22 21 44 6 27 -17 46 -3 26 21 -6 8 -7
16 -2 19 10 6 27 -22 23 -38 -1 -5 4 -4 12 2 8 7 18 8 22 4 5 -4 5 -1 1 6 -4
7 -2 12 5 12 7 0 9 3 6 6 -4 4 -13 1 -22 -6 -8 -7 -15 -10 -15 -7 0 3 -3 13
-6 21 -5 12 -2 15 12 9 10 -3 15 -2 11 3 -3 5 10 19 28 31 20 13 37 19 40 13
8 -13 25 -13 25 1 0 5 -4 7 -10 4 -5 -3 -10 -1 -10 4 0 16 20 13 26 -4z m-148
-93 c2 -7 -2 -10 -12 -6 -9 3 -16 11 -16 16 0 13 23 5 28 -10z m-918 -527
c-18 -19 -26 -22 -32 -13 -4 8 -2 14 7 16 8 2 15 8 15 13 0 5 8 9 17 9 14 0
12 -4 -7 -25z m2840 -836 c0 -6 -5 -7 -10 -4 -6 3 -13 -1 -16 -9 -8 -21 -24
-21 -24 0 0 8 4 13 9 10 5 -3 12 1 15 10 6 16 26 11 26 -7z m-1270 -829 c0 -5
-2 -10 -4 -10 -3 0 -8 5 -11 10 -3 6 -1 10 4 10 6 0 11 -4 11 -10z"/>
<path d="M2523 4433 c-13 -8 -23 -19 -23 -24 0 -14 24 -11 46 6 19 15 19 15
-1 8 -18 -6 -18 -5 -6 10 16 21 13 21 -16 0z"/>
<path d="M2616 4431 c-9 -15 23 -36 35 -24 8 8 6 11 -7 10 -11 -1 -18 4 -16
11 2 14 -4 16 -12 3z"/>
<path d="M2666 4392 c-3 -4 4 -9 15 -9 23 -2 25 3 4 10 -8 4 -16 3 -19 -1z"/>
<path d="M2383 4345 c-3 -9 -3 -18 -1 -21 3 -3 8 4 11 16 6 23 -1 27 -10 5z"/>
<path d="M2411 4324 c0 -11 3 -14 6 -6 3 7 2 16 -1 19 -3 4 -6 -2 -5 -13z"/>
<path d="M2450 4329 c0 -5 5 -7 10 -4 6 3 10 8 10 11 0 2 -4 4 -10 4 -5 0 -10
-5 -10 -11z"/>
<path d="M2780 4336 c0 -2 8 -10 18 -17 15 -13 16 -12 3 4 -13 16 -21 21 -21
13z"/>
<path d="M2318 4312 c-16 -9 -28 -20 -28 -24 0 -13 8 -9 36 17 31 29 29 31 -8
7z"/>
<path d="M2359 4318 c-5 -18 -6 -39 -2 -34 4 3 11 2 17 -4 8 -6 12 -2 13 13 2
17 0 19 -7 7 -9 -14 -14 -7 -11 13 1 6 -8 11 -10 5z"/>
<path d="M2270 4259 c0 -5 5 -7 10 -4 6 3 10 8 10 11 0 2 -4 4 -10 4 -5 0 -10
-5 -10 -11z"/>
<path d="M2910 4230 c0 -5 5 -10 11 -10 5 0 7 5 4 10 -3 6 -8 10 -11 10 -2 0
-4 -4 -4 -10z"/>
<path d="M2980 4210 c-9 -6 -10 -10 -3 -10 6 0 15 5 18 10 8 12 4 12 -15 0z"/>
<path d="M3057 4165 c-4 -8 -1 -17 6 -21 7 -4 9 -4 5 1 -4 4 -3 14 3 22 7 8 8
13 1 13 -5 0 -12 -7 -15 -15z"/>
<path d="M2135 4161 c-3 -5 -2 -12 3 -15 5 -3 9 1 9 9 0 17 -3 19 -12 6z"/>
<path d="M3080 4156 c0 -2 7 -7 16 -10 8 -3 12 -2 9 4 -6 10 -25 14 -25 6z"/>
<path d="M2015 4122 c-3 -8 -1 -20 5 -26 7 -7 11 -7 10 -1 -4 20 0 36 8 31 4
-2 14 -1 21 3 9 6 5 9 -12 9 -14 0 -28 -7 -32 -16z"/>
<path d="M2060 4110 c-9 -6 -10 -10 -3 -10 6 0 15 5 18 10 8 12 4 12 -15 0z"/>
<path d="M1980 4096 c0 -2 7 -7 16 -10 8 -3 12 -2 9 4 -6 10 -25 14 -25 6z"/>
<path d="M1987 4069 c7 -7 15 -10 18 -7 3 3 -2 9 -12 12 -14 6 -15 5 -6 -5z"/>
<path d="M1895 4060 c-3 -6 1 -13 9 -16 9 -3 14 -10 11 -14 -3 -5 0 -12 6 -16
8 -4 9 -3 5 4 -4 7 -1 12 6 12 7 1 3 6 -10 13 -12 7 -19 16 -16 20 4 4 5 7 1
7 -3 0 -9 -5 -12 -10z"/>
<path d="M3235 4059 c-4 -6 -5 -12 -2 -15 2 -3 7 2 10 11 7 17 1 20 -8 4z"/>
<path d="M1818 4019 c-16 -11 -28 -25 -28 -29 0 -5 12 2 26 15 15 14 31 22 37
18 6 -3 7 -1 3 5 -9 15 -6 15 -38 -9z"/>
<path d="M1870 4031 c0 -6 4 -12 8 -15 5 -3 9 1 9 9 0 8 -4 15 -9 15 -4 0 -8
-4 -8 -9z"/>
<path d="M3316 4011 c8 -8 43 -8 38 0 -2 4 -13 7 -24 6 -10 -1 -17 -3 -14 -6z"/>
<path d="M1830 4000 c-11 -7 -11 -10 -2 -10 8 0 10 -5 6 -12 -4 -7 -3 -9 1 -5
7 6 17 37 12 37 -1 0 -9 -5 -17 -10z"/>
<path d="M1890 3989 c0 -5 5 -7 10 -4 6 3 10 8 10 11 0 2 -4 4 -10 4 -5 0 -10
-5 -10 -11z"/>
<path d="M1766 3973 c-6 -14 -5 -15 5 -6 7 7 10 15 7 18 -3 3 -9 -2 -12 -12z"/>
<path d="M1790 3949 c0 -5 5 -7 10 -4 6 3 10 8 10 11 0 2 -4 4 -10 4 -5 0 -10
-5 -10 -11z"/>
<path d="M1634 3902 c4 -7 2 -21 -5 -30 -12 -15 -11 -15 6 0 16 15 17 20 6 30
-11 11 -13 10 -7 0z"/>
<path d="M1690 3906 c0 -2 8 -10 18 -17 15 -13 16 -12 3 4 -13 16 -21 21 -21
13z"/>
<path d="M1605 3890 c-4 -6 -11 -7 -17 -4 -7 4 -8 2 -4 -4 10 -16 23 -15 30 3
6 17 0 20 -9 5z"/>
<path d="M3526 3888 c3 -5 10 -6 15 -3 13 9 11 12 -6 12 -8 0 -12 -4 -9 -9z"/>
<path d="M1526 3812 c-3 -5 1 -9 9 -9 8 0 15 4 15 9 0 4 -4 8 -9 8 -6 0 -12
-4 -15 -8z"/>
<path d="M1446 3767 c3 -10 9 -15 12 -12 3 3 0 11 -7 18 -10 9 -11 8 -5 -6z"/>
<path d="M1390 3740 c-6 -11 -8 -20 -6 -20 3 0 10 9 16 20 6 11 8 20 6 20 -3
0 -10 -9 -16 -20z"/>
<path d="M1415 3739 c-4 -6 -5 -12 -2 -15 2 -3 7 2 10 11 7 17 1 20 -8 4z"/>
<path d="M1439 3723 c-13 -16 -12 -17 4 -4 9 7 17 15 17 17 0 8 -8 3 -21 -13z"/>
<path d="M3805 3730 c-3 -6 1 -7 9 -4 18 7 21 14 7 14 -6 0 -13 -4 -16 -10z"/>
<path d="M1304 3706 c11 -9 24 -16 30 -16 12 0 7 5 -24 19 -24 11 -24 11 -6
-3z"/>
<path d="M1250 3690 c0 -5 5 -10 11 -10 5 0 7 5 4 10 -3 6 -8 10 -11 10 -2 0
-4 -4 -4 -10z"/>
<path d="M1275 3669 c-11 -16 -1 -19 13 -3 7 8 8 14 3 14 -5 0 -13 -5 -16 -11z"/>
<path d="M1233 3663 c-17 -6 -17 -20 0 -20 8 0 14 6 14 14 0 7 -1 13 -1 12 -1
0 -7 -3 -13 -6z"/>
<path d="M1186 3632 c-3 -5 1 -9 9 -9 8 0 15 4 15 9 0 4 -4 8 -9 8 -6 0 -12
-4 -15 -8z"/>
<path d="M3930 3636 c0 -2 7 -7 16 -10 8 -3 12 -2 9 4 -6 10 -25 14 -25 6z"/>
<path d="M1062 3583 c-6 -2 -9 -10 -5 -16 4 -6 0 -8 -10 -4 -11 4 -20 -1 -27
-13 -8 -16 -6 -21 12 -30 20 -9 21 -9 7 2 -19 15 -14 39 7 31 7 -3 17 2 20 11
4 11 13 15 28 11 17 -5 18 -4 6 4 -16 12 -19 12 -38 4z"/>
<path d="M4075 3579 c-4 -6 -5 -12 -2 -15 2 -3 7 2 10 11 7 17 1 20 -8 4z"/>
<path d="M1066 3545 c-11 -8 -16 -15 -10 -15 5 0 18 7 28 15 11 8 16 15 10 15
-5 0 -18 -7 -28 -15z"/>
<path d="M964 3524 c-18 -14 -18 -15 4 -4 12 6 22 13 22 15 0 8 -5 6 -26 -11z"/>
<path d="M990 3510 c0 -5 5 -10 10 -10 6 0 10 5 10 10 0 6 -4 10 -10 10 -5 0
-10 -4 -10 -10z"/>
<path d="M926 3502 c-2 -4 -1 -14 3 -21 6 -10 10 -9 14 3 6 16 -8 32 -17 18z"/>
<path d="M960 3496 c0 -2 7 -7 16 -10 8 -3 12 -2 9 4 -6 10 -25 14 -25 6z"/>
<path d="M1015 3490 c-3 -6 1 -7 9 -4 18 7 21 14 7 14 -6 0 -13 -4 -16 -10z"/>
<path d="M907 3466 c-3 -8 -2 -18 3 -21 13 -8 20 9 11 24 -6 10 -10 9 -14 -3z"/>
<path d="M950 3469 c0 -5 5 -7 10 -4 6 3 10 8 10 11 0 2 -4 4 -10 4 -5 0 -10
-5 -10 -11z"/>
<path d="M4255 3470 c3 -5 8 -10 11 -10 2 0 4 5 4 10 0 6 -5 10 -11 10 -5 0
-7 -4 -4 -10z"/>
<path d="M935 3441 c-6 -11 13 -26 22 -17 4 3 1 6 -6 6 -7 0 -9 5 -6 10 3 6 4
10 1 10 -3 0 -7 -4 -11 -9z"/>
<path d="M2750 4866 c0 -2 8 -10 18 -17 15 -13 16 -12 3 4 -13 16 -21 21 -21
13z"/>
<path d="M4994 3413 c-16 -15 -31 -26 -34 -24 -2 1 -6 -3 -8 -11 -2 -9 0 -8 7
2 6 8 11 11 11 5 0 -5 7 -1 15 9 8 11 15 16 15 12 0 -4 7 0 16 9 28 28 9 26
-22 -2z"/>
<path d="M5056 3423 c-6 -14 -5 -15 5 -6 7 7 10 15 7 18 -3 3 -9 -2 -12 -12z"/>
<path d="M5014 3376 c1 -8 5 -18 8 -22 4 -3 5 1 4 10 -1 8 -5 18 -8 22 -4 3
-5 -1 -4 -10z"/>
<path d="M4930 3340 c-6 -11 -8 -20 -6 -20 3 0 10 9 16 20 6 11 8 20 6 20 -3
0 -10 -9 -16 -20z"/>
<path d="M4901 3334 c0 -11 3 -14 6 -6 3 7 2 16 -1 19 -3 4 -6 -2 -5 -13z"/>
<path d="M4861 3324 c0 -11 3 -14 6 -6 3 7 2 16 -1 19 -3 4 -6 -2 -5 -13z"/>
<path d="M4950 3336 c0 -2 7 -7 16 -10 8 -3 12 -2 9 4 -6 10 -25 14 -25 6z"/>
<path d="M356 3272 c-3 -5 1 -9 9 -9 8 0 12 4 9 9 -3 4 -7 8 -9 8 -2 0 -6 -4
-9 -8z"/>
<path d="M4815 3270 c-3 -6 1 -7 9 -4 18 7 21 14 7 14 -6 0 -13 -4 -16 -10z"/>
<path d="M4695 3206 c-23 -12 -35 -27 -35 -40 0 -6 6 -3 13 5 6 8 21 21 31 29
18 14 18 13 12 -10 -6 -22 -5 -23 5 -7 15 25 -1 38 -26 23z"/>
<path d="M4767 3209 c7 -7 15 -10 18 -7 3 3 -2 9 -12 12 -14 6 -15 5 -6 -5z"/>
<path d="M4620 3141 c0 -6 4 -13 10 -16 6 -3 7 1 4 9 -7 18 -14 21 -14 7z"/>
<path d="M4548 3123 c7 -3 16 -2 19 1 4 3 -2 6 -13 5 -11 0 -14 -3 -6 -6z"/>
<path d="M4596 3097 c3 -10 9 -15 12 -12 3 3 0 11 -7 18 -10 9 -11 8 -5 -6z"/>
<path d="M4464 3078 c-24 -19 -24 -39 -1 -37 9 0 9 2 0 6 -10 3 -10 7 0 18 8
9 16 10 25 3 9 -8 11 -7 6 7 -5 12 -4 16 4 11 6 -3 13 -3 16 2 10 16 -26 9
-50 -10z"/>
<path d="M4415 3050 c-3 -5 -1 -10 4 -10 6 0 11 5 11 10 0 6 -2 10 -4 10 -3 0
-8 -4 -11 -10z"/>
<path d="M4397 3029 c7 -7 15 -10 18 -7 3 3 -2 9 -12 12 -14 6 -15 5 -6 -5z"/>
<path d="M4515 3030 c-3 -5 -1 -10 4 -10 6 0 11 5 11 10 0 6 -2 10 -4 10 -3 0
-8 -4 -11 -10z"/>
<path d="M4436 3017 c3 -10 9 -15 12 -12 3 3 0 11 -7 18 -10 9 -11 8 -5 -6z"/>
<path d="M4400 2990 c-12 -7 -10 -9 7 -7 12 0 19 5 17 9 -6 10 -6 10 -24 -2z"/>
<path d="M870 2949 c0 -5 5 -7 10 -4 6 3 10 8 10 11 0 2 -4 4 -10 4 -5 0 -10
-5 -10 -11z"/>
<path d="M4294 2952 c3 -5 0 -13 -6 -15 -9 -4 -10 -6 -1 -6 17 -1 25 16 12 25
-7 4 -9 3 -5 -4z"/>
<path d="M4190 2870 c0 -5 5 -10 11 -10 5 0 7 5 4 10 -3 6 -8 10 -11 10 -2 0
-4 -4 -4 -10z"/>
<path d="M355 2804 c-49 -30 -134 -79 -187 -110 -54 -30 -98 -57 -98 -59 0 -2
16 -13 36 -25 25 -16 33 -27 29 -39 -5 -12 -3 -13 6 -4 9 9 17 8 35 -4 13 -8
21 -20 17 -26 -3 -6 -1 -7 5 -3 12 7 112 -51 112 -65 0 -6 4 -8 10 -4 5 3 18
-3 30 -15 11 -11 22 -19 25 -17 2 1 13 -5 23 -13 10 -8 32 -23 48 -32 16 -9
29 -21 29 -27 0 -5 4 -13 9 -18 5 -5 6 -3 2 5 -11 19 8 14 32 -8 12 -11 25
-21 29 -23 5 -1 7 -4 6 -7 -1 -3 8 -7 20 -7 12 -1 23 -7 25 -13 2 -5 10 -10
18 -10 8 0 14 -4 14 -10 0 -5 6 -10 14 -10 7 0 21 -10 30 -22 9 -13 14 -17 11
-10 -3 6 10 3 29 -9 20 -12 36 -25 36 -29 0 -4 11 -11 25 -14 14 -4 23 -10 21
-15 -3 -5 2 -8 11 -7 10 0 18 -4 18 -11 0 -6 4 -15 9 -20 5 -5 6 -3 2 5 -4 6
-2 12 3 12 6 0 11 -7 11 -15 0 -8 6 -12 13 -9 7 2 22 -5 34 -16 12 -11 25 -20
29 -20 7 0 119 -72 142 -91 7 -5 10 -14 8 -18 -3 -4 1 -8 9 -8 8 0 12 4 8 9
-3 5 11 -1 30 -13 19 -13 33 -28 30 -33 -4 -5 -2 -6 4 -3 13 8 106 -50 99 -61
-3 -5 5 -8 17 -8 16 1 21 -4 19 -16 -2 -10 2 -18 8 -18 6 0 8 4 5 10 -3 5 -1
10 5 10 7 0 14 -9 17 -21 3 -12 9 -16 12 -10 4 6 17 1 34 -15 15 -14 27 -22
27 -19 0 3 9 1 20 -5 11 -6 17 -16 14 -22 -4 -7 -3 -8 4 -4 13 8 64 -22 58
-33 -3 -4 5 -8 17 -8 12 -1 30 -12 40 -25 10 -13 16 -17 12 -10 -9 16 82 -40
119 -76 17 -15 26 -20 22 -12 -4 8 -1 7 7 -3 9 -10 19 -19 24 -19 17 -1 53
-21 53 -30 0 -4 5 -8 10 -8 10 0 98 -56 128 -80 6 -6 12 -8 12 -5 0 2 9 -3 19
-12 11 -9 18 -20 15 -24 -2 -4 5 -5 16 -2 11 3 20 0 20 -6 0 -6 7 -11 15 -11
7 0 19 -8 24 -17 6 -10 11 -13 11 -8 0 7 3 7 8 0 4 -5 25 -20 47 -32 22 -13
38 -28 37 -35 -2 -7 0 -10 3 -6 10 9 65 -19 65 -33 0 -6 5 -7 10 -4 7 4 9 -3
6 -20 -3 -15 -2 -24 2 -20 4 3 7 11 7 16 0 18 12 13 95 -41 47 -30 97 -61 113
-68 15 -8 27 -18 27 -22 0 -4 9 -10 21 -13 12 -3 18 -10 14 -16 -4 -7 0 -8 11
-4 13 5 15 3 9 -7 -6 -10 -4 -12 7 -7 9 3 20 1 26 -5 8 -8 26 -1 64 25 29 21
58 37 63 37 6 0 4 -4 -4 -9 -9 -6 -5 -8 14 -8 14 0 29 6 32 13 3 8 10 11 16 7
6 -3 7 -1 3 6 -4 6 -12 9 -17 6 -5 -4 -9 -2 -9 3 0 17 13 22 28 9 13 -9 14 -9
8 1 -4 7 -2 12 4 12 6 0 8 5 4 12 -4 7 -3 8 4 4 7 -4 12 -3 12 3 0 6 7 8 15 4
10 -3 15 0 13 8 -2 7 3 13 10 14 7 0 16 5 20 10 19 27 42 37 57 25 8 -6 20
-10 27 -7 8 4 7 6 -4 6 -26 1 -22 20 7 33 14 6 25 15 25 19 0 5 7 5 17 2 10
-4 14 -2 9 5 -3 6 -1 14 5 18 7 4 9 3 6 -3 -4 -6 -1 -13 7 -16 9 -4 12 0 10
11 -3 12 13 27 56 52 33 19 60 40 60 45 0 6 5 3 10 -5 8 -13 10 -12 10 3 0 17
6 20 50 19 17 -1 19 1 7 4 -25 8 -3 34 29 34 12 0 26 4 29 10 4 6 -1 7 -12 4
-15 -6 -15 -4 2 9 23 18 47 5 27 -15 -15 -15 -15 -28 -1 -28 5 0 8 3 5 8 -5 9
22 48 32 44 3 -2 8 2 10 10 2 8 0 9 -5 3 -11 -14 -33 -17 -33 -5 0 5 6 10 13
10 8 0 22 9 32 20 10 11 20 18 23 16 2 -3 24 11 48 29 38 29 48 33 71 24 14
-5 28 -8 30 -5 3 2 -5 7 -16 11 -12 3 -19 11 -16 16 4 5 15 4 28 -3 19 -10 20
-9 10 4 -15 18 2 39 25 31 10 -4 13 -2 8 5 -5 8 -2 10 8 6 11 -4 16 0 16 11 0
9 5 13 10 10 6 -4 8 -10 6 -14 -3 -4 1 -8 9 -8 12 0 12 3 3 15 -10 11 -8 13 7
10 10 -1 20 4 22 12 4 12 3 12 -5 1 -7 -9 -12 -10 -16 -2 -6 10 0 13 21 10 3
0 10 6 15 15 5 9 16 16 24 16 12 0 13 -4 4 -22 -11 -22 -11 -22 5 -3 8 11 14
24 11 30 -2 6 5 17 16 24 11 7 17 8 13 2 -3 -6 -1 -11 4 -11 6 0 11 7 11 15 0
13 4 14 23 4 20 -11 21 -11 8 4 -11 14 -11 18 5 24 11 3 22 11 26 17 4 6 9 4
14 -7 3 -9 11 -17 17 -17 7 0 7 4 -1 12 -17 17 -15 28 4 28 9 0 12 -5 8 -12
-4 -7 -4 -10 1 -6 4 4 13 3 20 -2 8 -7 12 -5 12 5 0 8 -4 12 -8 10 -4 -3 -10
2 -13 11 -4 10 0 15 12 13 30 -3 42 1 42 12 0 8 -5 8 -15 -1 -10 -9 -15 -9
-15 -1 0 6 4 11 9 11 5 0 38 20 74 45 37 25 70 45 75 45 5 0 17 9 27 20 12 14
22 17 29 10 6 -6 4 -16 -7 -28 -15 -16 -15 -19 -2 -19 8 0 13 3 10 5 -3 3 0
11 6 19 9 9 15 10 25 3 9 -9 12 -7 10 7 -2 10 -10 17 -20 15 -9 -2 -16 1 -16
6 0 11 27 25 50 26 8 1 21 5 29 10 11 7 13 5 7 -10 -5 -14 -4 -16 5 -7 17 17
1 37 -17 22 -8 -6 -14 -7 -14 -3 0 5 9 15 20 22 16 10 20 10 20 0 0 -7 6 -4
12 7 17 31 29 35 57 18 21 -12 23 -12 9 0 -10 8 -18 16 -18 19 0 7 80 60 95
62 6 1 22 12 35 24 16 15 33 21 50 18 18 -2 27 1 27 10 0 10 -4 11 -14 3 -8
-7 -13 -8 -13 -1 0 5 6 12 13 14 17 7 38 -2 32 -13 -4 -5 1 -6 10 -3 14 6 14
7 -1 18 -14 11 -11 15 25 39 23 15 41 24 41 20 0 -5 5 -1 10 9 10 16 50 14 50
-3 0 -5 5 -9 10 -9 18 0 10 19 -11 25 -19 6 -19 8 -3 20 10 7 25 10 33 7 9 -3
12 -1 7 6 -6 11 31 38 47 34 4 -1 7 3 7 8 0 6 5 10 11 10 5 0 7 -6 3 -12 -4
-7 -4 -10 1 -6 4 4 15 2 24 -4 13 -10 14 -10 4 2 -19 20 -16 41 4 33 11 -4 14
-3 9 5 -4 7 4 17 21 24 15 7 30 15 33 18 20 20 52 30 70 20 17 -9 19 -8 13 7
-3 10 -3 15 2 11 10 -9 35 10 35 25 0 6 -7 2 -15 -9 -8 -10 -15 -15 -15 -10 0
5 -7 3 -15 -4 -8 -7 -15 -8 -15 -3 0 9 45 36 63 37 4 1 11 6 15 11 11 17 72
57 72 48 0 -4 5 0 11 10 5 9 15 17 20 17 6 0 7 -5 3 -12 -4 -7 -3 -8 5 -4 6 4
9 12 6 17 -4 5 -1 9 4 9 23 0 9 21 -29 42 -27 16 -38 28 -34 38 4 11 2 12 -6
4 -9 -9 -26 -3 -68 22 -31 19 -60 34 -65 34 -4 0 -6 4 -3 8 3 5 0 9 -7 9 -7 0
-44 19 -84 42 -40 22 -78 41 -85 41 -7 0 -95 -53 -195 -118 -192 -123 -591
-378 -903 -577 -102 -65 -214 -137 -250 -160 -168 -111 -573 -365 -580 -365
-5 0 -10 -4 -12 -9 -1 -5 -40 -32 -85 -61 l-83 -52 -37 23 c-21 13 -39 27 -41
31 -2 4 -8 8 -13 8 -19 0 -79 47 -71 55 4 5 1 5 -7 0 -9 -5 -19 -2 -28 10 -7
11 -13 16 -13 12 0 -8 -232 140 -241 154 -3 6 -10 10 -15 10 -17 -1 -426 264
-419 271 3 2 -1 5 -8 5 -17 0 -197 113 -197 124 0 5 -3 8 -7 7 -13 -3 -73 32
-73 42 0 6 -3 9 -7 8 -17 -3 -42 15 -36 26 3 6 3 8 -2 4 -13 -12 -66 25 -60
41 4 11 2 11 -8 3 -10 -9 -18 -7 -33 6 -11 9 -37 27 -59 39 -22 13 -39 28 -37
34 1 6 -2 8 -7 5 -5 -4 -17 2 -27 11 -10 10 -19 17 -21 16 -8 -6 -32 10 -27
18 3 5 2 8 -3 7 -14 -4 -53 13 -53 23 0 5 -4 9 -9 9 -15 0 -111 62 -111 71 0
5 -3 8 -7 7 -14 -5 -152 86 -146 96 4 5 2 6 -4 3 -13 -8 -65 27 -56 38 5 4 3
5 -4 1 -7 -3 -57 23 -113 59 -55 36 -108 65 -118 64 -9 0 -57 -25 -107 -55z
m2375 -1705 c0 -5 -4 -9 -10 -9 -5 0 -10 7 -10 16 0 8 5 12 10 9 6 -3 10 -10
10 -16z"/>
<path d="M4054 2819 c-9 -15 12 -17 30 -4 17 13 17 14 -4 12 -12 -1 -24 -5
-26 -8z"/>
<path d="M4036 2783 c-6 -14 -5 -15 5 -6 7 7 10 15 7 18 -3 3 -9 -2 -12 -12z"/>
<path d="M4070 2780 c-9 -6 -10 -10 -3 -10 6 0 15 5 18 10 8 12 4 12 -15 0z"/>
<path d="M3979 2769 c-7 -5 -9 -9 -4 -10 6 0 20 -2 33 -3 27 -3 28 0 4 13 -11
6 -24 6 -33 0z"/>
<path d="M3956 2747 c3 -10 9 -15 12 -12 3 3 0 11 -7 18 -10 9 -11 8 -5 -6z"/>
<path d="M3979 2723 c-12 -16 -12 -17 2 -6 9 7 20 9 24 5 5 -4 5 -1 1 6 -9 16
-11 15 -27 -5z"/>
<path d="M3910 2710 c0 -5 5 -10 11 -10 5 0 7 5 4 10 -3 6 -8 10 -11 10 -2 0
-4 -4 -4 -10z"/>
<path d="M3892 2686 c1 -14 5 -23 9 -20 7 4 0 44 -7 44 -2 0 -3 -11 -2 -24z"/>
<path d="M3862 2684 c-7 -8 -8 -14 -3 -14 10 0 25 19 20 25 -2 1 -10 -3 -17
-11z"/>
<path d="M1315 2671 c-3 -5 -2 -12 3 -15 5 -3 9 1 9 9 0 17 -3 19 -12 6z"/>
<path d="M3844 2652 c4 -3 14 -7 22 -8 9 -1 13 0 10 4 -4 3 -14 7 -22 8 -9 1
-13 0 -10 -4z"/>
<path d="M1335 2630 c3 -5 8 -10 11 -10 2 0 4 5 4 10 0 6 -5 10 -11 10 -5 0
-7 -4 -4 -10z"/>
<path d="M3726 2605 c-3 -8 0 -17 6 -21 6 -4 8 -3 4 4 -3 5 -1 12 6 14 8 3 9
6 1 11 -6 4 -13 0 -17 -8z"/>
<path d="M3770 2589 c0 -5 5 -7 10 -4 6 3 10 8 10 11 0 2 -4 4 -10 4 -5 0 -10
-5 -10 -11z"/>
<path d="M3674 2579 c-3 -5 -1 -16 4 -26 9 -14 10 -14 17 6 4 12 11 19 18 15
7 -4 8 -3 4 1 -11 13 -36 15 -43 4z"/>
<path d="M5004 2565 c-4 -8 -10 -12 -15 -9 -5 3 -9 1 -9 -5 0 -5 9 -9 19 -8
12 1 17 6 13 16 -4 10 -1 12 8 6 9 -5 11 -4 6 3 -10 16 -15 15 -22 -3z"/>
<path d="M210 2510 c0 -5 5 -10 11 -10 5 0 7 5 4 10 -3 6 -8 10 -11 10 -2 0
-4 -4 -4 -10z"/>
<path d="M3650 2509 c0 -5 5 -7 10 -4 6 3 10 8 10 11 0 2 -4 4 -10 4 -5 0 -10
-5 -10 -11z"/>
<path d="M4953 2513 c4 -6 2 -13 -5 -15 -8 -3 -6 -6 4 -10 17 -7 19 15 3 29
-4 4 -5 3 -2 -4z"/>
<path d="M3540 2483 c0 -5 10 -18 23 -29 l22 -19 -20 25 c-11 14 -21 27 -22
29 -2 2 -3 0 -3 -6z"/>
<path d="M1586 2468 c3 -5 10 -6 15 -3 13 9 11 12 -6 12 -8 0 -12 -4 -9 -9z"/>
<path d="M4953 2455 c0 -8 4 -12 9 -9 5 3 6 10 3 15 -9 13 -12 11 -12 -6z"/>
<path d="M3475 2449 c-2 -3 13 -5 35 -5 21 1 36 4 34 8 -5 8 -64 6 -69 -3z"/>
<path d="M4850 2450 c0 -5 5 -10 10 -10 6 0 10 5 10 10 0 6 -4 10 -10 10 -5 0
-10 -4 -10 -10z"/>
<path d="M313 2435 c0 -8 4 -12 9 -9 5 3 6 10 3 15 -9 13 -12 11 -12 -6z"/>
<path d="M4817 2433 c-9 -8 12 -33 27 -33 6 0 3 5 -8 11 -15 9 -16 13 -5 20 8
5 9 9 3 9 -6 0 -14 -3 -17 -7z"/>
<path d="M3480 2425 c0 -5 5 -17 10 -25 5 -8 10 -10 10 -5 0 6 -5 17 -10 25
-5 8 -10 11 -10 5z"/>
<path d="M4777 2423 c-10 -10 -8 -23 4 -23 5 0 8 4 5 9 -4 5 0 12 6 14 7 3 8
6 2 6 -6 1 -14 -2 -17 -6z"/>
<path d="M1710 2416 c0 -2 9 -6 20 -9 11 -3 18 -1 14 4 -5 9 -34 13 -34 5z"/>
<path d="M3412 2401 c5 -16 35 -24 43 -11 3 5 -3 7 -12 6 -10 -2 -22 2 -26 8
-6 7 -7 6 -5 -3z"/>
<path d="M1696 2383 c-6 -14 -5 -15 5 -6 7 7 10 15 7 18 -3 3 -9 -2 -12 -12z"/>
<path d="M3385 2389 c-4 -6 -5 -12 -2 -15 2 -3 7 2 10 11 7 17 1 20 -8 4z"/>
<path d="M3391 2357 c-13 -21 -12 -21 5 -5 10 10 16 20 13 22 -3 3 -11 -5 -18
-17z"/>
<path d="M3459 2363 c-13 -16 -12 -17 4 -4 16 13 21 21 13 21 -2 0 -10 -8 -17
-17z"/>
<path d="M4669 2356 c-16 -12 -19 -31 -6 -40 4 -3 5 -3 2 0 -2 4 0 15 6 26 8
15 13 17 25 7 8 -7 14 -7 14 -1 0 16 -24 21 -41 8z"/>
<path d="M1839 2348 c-5 -18 -6 -38 -1 -34 7 8 12 36 6 36 -2 0 -4 -1 -5 -2z"/>
<path d="M4687 2329 c7 -7 15 -10 18 -7 3 3 -2 9 -12 12 -14 6 -15 5 -6 -5z"/>
<path d="M4616 2322 c-3 -5 1 -9 9 -9 8 0 12 4 9 9 -3 4 -7 8 -9 8 -2 0 -6 -4
-9 -8z"/>
<path d="M3294 2312 c3 -5 0 -13 -6 -15 -9 -4 -10 -6 -1 -6 17 -1 25 16 12 25
-7 4 -9 3 -5 -4z"/>
<path d="M4567 2286 c-3 -8 4 -22 16 -33 l22 -18 -19 23 c-20 23 -10 31 14 10
8 -7 6 -3 -4 10 -22 26 -22 26 -29 8z"/>
<path d="M3195 2270 c-3 -5 -1 -10 4 -10 6 0 11 5 11 10 0 6 -2 10 -4 10 -3 0
-8 -4 -11 -10z"/>
<path d="M4537 2273 c-3 -5 4 -15 16 -23 21 -12 21 -12 7 6 -8 10 -15 20 -16
22 -1 2 -4 -1 -7 -5z"/>
<path d="M4506 2251 c-3 -4 1 -17 9 -27 15 -18 15 -18 8 1 -6 18 -5 18 10 6 9
-7 17 -9 17 -5 0 13 -38 35 -44 25z"/>
<path d="M3170 2230 c0 -5 5 -10 11 -10 5 0 7 5 4 10 -3 6 -8 10 -11 10 -2 0
-4 -4 -4 -10z"/>
<path d="M4389 2168 c-14 -26 -20 -70 -8 -63 4 3 6 13 4 23 -1 9 4 25 13 35 8
9 13 20 9 23 -3 3 -11 -5 -18 -18z"/>
<path d="M2056 2172 c-3 -4 4 -9 15 -9 23 -2 25 3 4 10 -8 4 -16 3 -19 -1z"/>
<path d="M4430 2166 c4 -4 16 -4 26 2 16 9 14 10 -8 9 -15 -1 -23 -6 -18 -11z"/>
<path d="M4495 2170 c3 -5 8 -10 11 -10 2 0 4 5 4 10 0 6 -5 10 -11 10 -5 0
-7 -4 -4 -10z"/>
<path d="M4460 2150 c-8 -5 -10 -10 -5 -10 6 0 17 5 25 10 8 5 11 10 5 10 -5
0 -17 -5 -25 -10z"/>
<path d="M4346 2137 c3 -10 9 -15 12 -12 3 3 0 11 -7 18 -10 9 -11 8 -5 -6z"/>
<path d="M4320 2125 c0 -9 -6 -12 -15 -9 -8 4 -15 1 -15 -5 0 -6 -8 -11 -17
-12 -13 0 -11 -3 6 -10 13 -5 26 -7 29 -4 3 3 0 5 -7 5 -7 0 -10 4 -6 9 3 6
14 8 24 6 14 -3 18 1 14 16 -6 23 -13 25 -13 4z"/>
<path d="M4220 2059 c-7 -11 -9 -23 -6 -27 3 -3 6 0 6 6 0 6 9 9 20 7 12 -2
18 0 15 6 -4 5 -11 6 -17 3 -7 -5 -9 -1 -5 9 9 24 0 21 -13 -4z"/>
<path d="M2895 2050 c-3 -5 -1 -10 4 -10 6 0 11 5 11 10 0 6 -2 10 -4 10 -3 0
-8 -4 -11 -10z"/>
<path d="M2946 2051 c9 -9 34 -9 34 -1 0 5 -9 8 -20 7 -10 -1 -17 -3 -14 -6z"/>
<path d="M2859 2038 c-5 -16 -4 -50 1 -53 4 -3 7 6 6 18 -1 12 3 25 9 29 6 5
6 8 -2 8 -7 0 -13 -1 -14 -2z"/>
<path d="M4196 2003 c-6 -14 -5 -15 5 -6 7 7 10 15 7 18 -3 3 -9 -2 -12 -12z"/>
<path d="M289 1909 c-95 -56 -185 -108 -198 -116 l-24 -15 32 -20 c17 -11 31
-24 31 -30 0 -5 3 -7 8 -4 13 8 45 -22 36 -35 -4 -7 -3 -10 4 -5 5 3 12 3 15
-1 2 -5 2 -2 1 5 -2 8 4 7 21 -4 15 -10 22 -23 20 -35 -2 -11 0 -17 6 -14 5 4
7 11 4 16 -4 5 -1 9 5 9 6 0 13 -7 16 -15 4 -8 10 -13 14 -10 5 3 11 1 15 -4
3 -5 -3 -14 -12 -20 -10 -6 -13 -10 -8 -11 6 0 16 4 24 9 15 10 84 -25 76 -38
-2 -4 2 -8 10 -8 17 0 125 -65 125 -75 0 -4 6 -8 13 -8 7 0 23 -9 35 -20 12
-11 25 -21 29 -23 5 -1 7 -5 5 -10 -1 -4 1 -6 5 -6 20 3 34 -2 28 -11 -3 -5 0
-7 9 -4 9 3 26 -4 39 -18 14 -12 31 -24 38 -26 8 -2 15 -8 17 -13 2 -5 9 -9
16 -9 7 0 21 -8 32 -19 11 -10 30 -21 41 -25 10 -3 28 -14 39 -25 11 -10 33
-24 49 -32 21 -10 29 -21 27 -34 -2 -15 -1 -17 6 -6 12 18 52 -3 52 -27 0 -11
3 -13 8 -5 5 8 26 -1 70 -30 45 -29 59 -43 50 -49 -9 -6 -5 -7 10 -3 13 4 23
2 23 -4 3 -26 4 -30 11 -37 4 -3 6 3 3 15 -3 18 4 16 58 -21 34 -23 69 -49 77
-58 11 -12 12 -12 5 -1 -6 10 0 8 16 -4 15 -11 25 -23 22 -27 -2 -4 2 -5 10
-2 8 3 21 -2 30 -10 9 -9 20 -16 26 -16 6 0 11 -4 11 -10 0 -5 6 -10 13 -10 8
0 19 -10 25 -22 6 -13 11 -17 11 -11 1 15 101 -43 101 -58 0 -5 3 -8 8 -7 13
4 53 -23 47 -32 -3 -6 1 -7 9 -4 15 6 22 -11 17 -39 -1 -5 3 -6 8 -2 6 3 7 13
4 23 -5 14 -4 15 8 6 8 -6 41 -28 74 -50 33 -21 63 -43 67 -48 3 -5 14 -11 24
-12 10 -2 27 -13 37 -26 10 -13 15 -16 11 -8 -6 13 -4 12 12 -1 10 -9 47 -33
82 -53 63 -38 76 -50 45 -40 -17 5 -17 5 0 -6 9 -6 22 -8 27 -5 6 3 13 -1 16
-9 3 -9 10 -14 14 -11 5 3 14 -1 22 -8 7 -7 21 -16 32 -20 12 -5 16 -13 12
-23 -5 -14 -4 -15 8 -5 8 7 16 8 18 4 1 -4 21 -18 43 -30 22 -12 39 -29 39
-38 -1 -8 2 -12 7 -9 16 9 49 -7 50 -24 0 -10 3 -12 6 -5 3 8 8 9 16 3 7 -6
48 -33 92 -61 44 -29 86 -59 93 -68 10 -12 12 -13 7 -1 -4 8 1 6 9 -4 9 -11
16 -16 16 -12 0 5 6 3 14 -3 10 -8 22 -5 50 14 20 13 36 20 36 15 0 -6 4 -10
10 -10 5 0 7 6 4 14 -3 8 12 23 40 40 25 15 49 26 52 25 4 0 11 6 16 15 10 19
38 10 39 -13 0 -10 2 -12 6 -3 3 7 -1 19 -7 27 -15 18 1 20 19 3 10 -11 14 -9
22 5 6 9 16 14 22 11 7 -4 9 -4 5 1 -11 11 12 36 25 28 6 -4 7 -1 3 6 -8 13
-34 -4 -63 -39 -8 -10 -12 -11 -13 -3 0 7 15 24 34 38 32 25 36 25 58 11 23
-15 24 -14 25 7 0 12 -1 16 -4 10 -3 -7 -9 -13 -14 -13 -6 0 -5 8 1 20 6 11
15 18 21 15 5 -4 9 0 10 7 0 7 4 4 9 -7 8 -20 9 -19 9 1 1 25 26 50 35 35 4
-5 -1 -12 -9 -14 -11 -4 -10 -4 2 -3 11 1 17 9 15 18 -1 9 3 20 9 24 8 4 9 3
5 -4 -5 -8 -2 -10 8 -6 9 3 13 11 9 17 -3 5 -1 7 4 4 6 -4 14 0 17 9 3 8 10
13 15 9 6 -3 13 1 18 8 11 20 58 48 66 41 4 -4 9 1 13 10 3 9 12 16 18 16 7 0
21 8 32 17 23 22 50 27 59 13 3 -5 11 -10 17 -10 5 0 0 9 -13 20 -13 10 -19
19 -13 20 5 0 16 -6 23 -12 10 -11 11 -10 6 3 -3 9 2 22 11 30 12 9 15 10 10
2 -4 -8 -2 -13 5 -13 10 0 10 -3 1 -12 -7 -7 -12 -17 -12 -23 0 -5 5 -2 11 8
6 10 15 14 22 10 7 -4 5 1 -3 12 -14 16 -13 17 7 11 15 -5 25 -1 36 14 7 11
17 17 22 12 5 -4 5 -2 1 5 -8 14 -36 6 -33 -9 1 -6 -4 -13 -12 -16 -8 -3 -11
0 -7 7 5 7 1 9 -11 6 -10 -3 -8 0 5 6 12 7 22 16 22 21 0 5 5 6 10 3 6 -3 10
-1 10 6 0 8 9 5 23 -7 12 -10 16 -12 10 -4 -7 8 -13 17 -13 21 0 11 47 16 67
7 17 -9 17 -8 -1 6 -10 8 -24 13 -30 10 -6 -3 0 3 14 14 26 22 45 19 36 -4 -3
-7 -1 -16 3 -18 5 -3 8 5 8 17 1 41 3 48 13 42 6 -4 8 -10 5 -15 -3 -4 2 -11
10 -14 13 -4 13 -2 5 14 -13 25 -13 30 5 30 8 0 15 5 15 10 0 6 3 9 8 8 4 -2
18 7 31 19 19 18 27 20 42 10 16 -10 21 -9 29 3 5 8 10 20 10 25 -1 6 -5 2
-11 -7 -5 -10 -15 -18 -21 -18 -6 0 -3 9 7 20 10 11 20 18 23 16 2 -3 16 6 30
19 14 13 32 21 40 17 10 -3 13 -1 8 6 -4 7 -1 12 8 12 19 0 30 -17 14 -23 -7
-2 -9 -8 -5 -13 5 -5 13 -1 18 8 5 10 15 15 22 12 8 -3 18 6 25 20 12 28 5 41
-15 25 -7 -7 -13 -7 -13 -2 0 9 35 29 53 31 5 0 15 8 22 18 7 10 20 19 30 20
10 2 22 10 27 19 5 8 14 13 19 9 6 -3 17 3 25 14 9 14 21 19 31 15 10 -4 14
-2 9 5 -3 6 -2 13 4 17 5 3 10 1 10 -4 0 -6 8 -11 18 -11 14 0 15 2 2 10 -12
7 -12 12 -2 22 8 8 12 8 12 1 0 -6 7 -13 15 -17 8 -3 14 0 12 6 -1 7 3 12 10
13 6 0 14 3 18 7 9 9 -16 5 -32 -5 -7 -5 -13 -5 -12 0 0 10 113 83 128 83 7 0
9 -5 5 -12 -5 -7 -3 -8 5 -4 7 5 10 15 7 23 -5 11 -1 14 12 11 11 -3 30 4 43
15 l24 19 -27 -16 c-16 -9 -28 -13 -28 -8 0 5 12 15 28 23 15 8 29 17 32 20
10 13 56 33 68 31 6 -2 12 4 12 11 0 14 27 32 43 29 4 -1 7 3 7 10 0 6 3 9 6
6 3 -4 1 -15 -5 -25 -7 -15 -7 -20 4 -20 7 0 11 7 7 15 -4 11 0 14 16 10 15
-4 19 -2 15 8 -3 8 -9 11 -14 8 -5 -3 -9 -2 -9 3 1 12 50 46 50 34 0 -6 9 -15
19 -21 15 -7 19 -7 17 5 -1 8 -6 18 -11 22 -4 4 -5 2 -1 -4 4 -7 2 -13 -3 -13
-19 0 -12 28 9 35 11 3 20 10 20 15 0 4 10 6 23 3 18 -4 19 -3 7 6 -13 9 -13
11 2 11 9 0 18 3 20 8 2 4 18 17 35 30 26 18 31 19 26 5 -4 -11 -3 -14 5 -9 7
4 12 14 12 23 0 9 3 13 7 10 3 -4 12 1 20 11 8 9 12 13 10 7 -3 -6 11 -10 31
-11 21 -1 29 1 19 3 -10 3 -14 9 -10 16 4 7 -1 6 -10 -2 -9 -7 -17 -9 -17 -3
0 17 32 23 48 10 14 -12 14 -10 2 12 -7 14 -9 22 -5 18 4 -4 14 0 22 10 10 11
12 12 8 2 -4 -9 -1 -8 8 3 14 17 15 17 22 0 5 -10 7 -21 7 -25 -1 -5 2 -8 7
-8 6 0 9 9 8 19 0 11 -5 17 -9 15 -4 -3 -8 1 -8 8 0 11 64 63 79 63 9 1 65 39
73 50 4 5 8 6 8 1 0 -6 6 -2 13 9 9 12 19 15 28 10 8 -5 11 -5 7 0 -4 4 -3 14
3 22 9 10 8 13 -3 13 -8 0 -24 9 -36 20 -12 12 -22 18 -22 15 0 -3 -13 2 -29
11 -17 10 -27 22 -24 27 3 6 1 7 -5 3 -13 -8 -122 53 -122 67 0 4 -4 6 -8 3
-5 -3 -31 10 -59 28 -27 18 -58 36 -68 39 -13 6 -69 -25 -207 -113 -104 -66
-194 -118 -200 -114 -7 4 -8 3 -4 -4 8 -13 -28 -35 -39 -24 -5 4 -6 2 -2 -3 6
-11 -490 -331 -510 -329 -7 1 -11 -2 -10 -6 1 -5 -124 -89 -278 -187 -154 -99
-399 -255 -544 -348 -145 -92 -270 -168 -277 -168 -8 0 -12 -2 -9 -5 2 -3 -7
-13 -20 -24 -23 -18 -26 -18 -50 -2 -14 9 -25 20 -25 23 0 4 -6 8 -12 8 -11 0
-131 74 -163 100 -5 4 -22 14 -37 22 -15 8 -25 18 -22 23 3 5 2 8 -3 7 -10 -3
-49 15 -88 41 -16 11 -42 26 -57 35 -19 10 -26 21 -22 33 5 13 4 14 -4 4 -7
-11 -31 0 -110 52 -55 36 -107 69 -116 72 -9 3 -13 11 -9 17 3 5 1 7 -4 4 -6
-4 -21 1 -34 11 -13 10 -52 35 -86 56 -35 21 -63 42 -63 47 0 5 -3 8 -7 7 -15
-5 -92 45 -86 55 3 6 2 7 -3 4 -9 -5 -186 101 -221 132 -7 6 -17 11 -23 11 -5
0 -10 5 -10 10 0 6 -6 10 -13 10 -7 0 -23 9 -35 20 -12 12 -22 17 -22 13 0 -4
-7 1 -16 12 -8 11 -18 20 -22 19 -9 -1 -85 46 -93 58 -3 5 -10 10 -15 11 -5 1
-8 6 -6 10 1 5 -2 6 -7 3 -14 -9 -142 74 -134 87 3 6 1 7 -5 3 -13 -8 -218
121 -214 135 1 6 -4 9 -11 7 -19 -4 -217 124 -210 136 4 5 1 6 -6 2 -6 -4 -23
2 -37 13 -15 12 -30 21 -33 21 -4 0 -86 -45 -182 -101z m3563 -956 c-13 -22
-39 -25 -46 -6 -5 12 -1 14 14 10 11 -3 23 -1 26 4 10 16 15 9 6 -8z"/>
<path d="M4127 1999 c7 -7 15 -10 18 -7 3 3 -2 9 -12 12 -14 6 -15 5 -6 -5z"/>
<path d="M2770 1990 c0 -5 5 -10 11 -10 5 0 7 5 4 10 -3 6 -8 10 -11 10 -2 0
-4 -4 -4 -10z"/>
<path d="M2886 1992 c-3 -5 1 -9 9 -9 8 0 12 4 9 9 -3 4 -7 8 -9 8 -2 0 -6 -4
-9 -8z"/>
<path d="M2806 1968 c3 -5 10 -6 15 -3 13 9 11 12 -6 12 -8 0 -12 -4 -9 -9z"/>
<path d="M4052 1955 c-11 -13 -22 -22 -25 -18 -3 3 -13 -1 -21 -8 -35 -32 -44
-37 -52 -31 -5 4 -2 -1 5 -10 14 -18 27 -25 17 -9 -3 5 1 14 8 20 11 10 16 8
24 -5 8 -15 9 -15 15 0 5 11 3 15 -4 10 -7 -4 -10 -1 -7 7 3 8 12 13 22 11 9
-2 16 3 16 9 0 7 7 21 17 31 9 10 13 18 10 18 -3 0 -14 -11 -25 -25z"/>
<path d="M2708 1943 c7 -3 16 -2 19 1 4 3 -2 6 -13 5 -11 0 -14 -3 -6 -6z"/>
<path d="M2673 1933 c4 -3 1 -13 -6 -22 -11 -14 -10 -14 6 -2 20 15 22 31 5
31 -6 0 -8 -3 -5 -7z"/>
<path d="M2635 1910 c-3 -5 -1 -10 4 -10 6 0 11 5 11 10 0 6 -2 10 -4 10 -3 0
-8 -4 -11 -10z"/>
<path d="M2708 1913 c7 -3 16 -2 19 1 4 3 -2 6 -13 5 -11 0 -14 -3 -6 -6z"/>
<path d="M1190 1896 c0 -2 7 -7 16 -10 8 -3 12 -2 9 4 -6 10 -25 14 -25 6z"/>
<path d="M2611 1884 c0 -11 3 -14 6 -6 3 7 2 16 -1 19 -3 4 -6 -2 -5 -13z"/>
<path d="M3935 1870 c3 -5 8 -10 11 -10 2 0 4 5 4 10 0 6 -5 10 -11 10 -5 0
-7 -4 -4 -10z"/>
<path d="M3922 1846 c7 -8 15 -12 17 -11 5 6 -10 25 -20 25 -5 0 -4 -6 3 -14z"/>
<path d="M3955 1850 c-3 -5 -1 -10 4 -10 6 0 11 5 11 10 0 6 -2 10 -4 10 -3 0
-8 -4 -11 -10z"/>
<path d="M3906 1788 c3 -5 10 -6 15 -3 13 9 11 12 -6 12 -8 0 -12 -4 -9 -9z"/>
<path d="M3781 1781 c-8 -5 -9 -11 -3 -15 5 -3 12 1 16 9 6 17 6 18 -13 6z"/>
<path d="M3775 1739 c-4 -6 -5 -12 -2 -15 2 -3 7 2 10 11 7 17 1 20 -8 4z"/>
<path d="M3740 1729 c0 -5 5 -7 10 -4 6 3 10 8 10 11 0 2 -4 4 -10 4 -5 0 -10
-5 -10 -11z"/>
<path d="M5010 1705 c-7 -9 -10 -18 -6 -22 3 -3 6 -1 6 6 0 7 5 9 12 5 6 -4 8
-3 4 4 -3 5 0 13 6 15 8 4 9 6 2 6 -6 1 -17 -6 -24 -14z"/>
<path d="M4965 1665 c-18 -34 -19 -35 -39 -18 l-21 18 20 -23 c17 -21 21 -21
31 -8 6 9 14 12 18 8 4 -4 7 -2 5 3 -1 6 1 18 6 28 14 33 -1 27 -20 -8z"/>
<path d="M3636 1665 c-9 -26 -7 -32 5 -12 6 10 9 21 6 23 -2 3 -7 -2 -11 -11z"/>
<path d="M4935 1670 c-3 -5 -1 -10 4 -10 6 0 11 5 11 10 0 6 -2 10 -4 10 -3 0
-8 -4 -11 -10z"/>
<path d="M4895 1630 c3 -5 8 -10 11 -10 2 0 4 5 4 10 0 6 -5 10 -11 10 -5 0
-7 -4 -4 -10z"/>
<path d="M3523 1609 c11 -7 23 -7 28 -2 5 5 -3 9 -19 11 -24 1 -25 0 -9 -9z"/>
<path d="M4912 1611 c-11 -7 -11 -9 0 -14 9 -3 15 1 15 9 0 8 -1 14 -1 14 -1
0 -7 -4 -14 -9z"/>
<path d="M3455 1570 c6 -10 4 -12 -8 -7 -10 3 -17 2 -17 -2 0 -5 6 -11 14 -14
17 -7 30 20 14 29 -7 5 -8 2 -3 -6z"/>
<path d="M4853 1565 c0 -7 6 -11 14 -8 7 3 13 6 13 8 0 2 -6 5 -13 8 -8 3 -14
-1 -14 -8z"/>
<path d="M3473 1545 c-3 -9 -3 -19 1 -22 3 -4 6 1 6 10 0 8 6 18 13 20 9 4 9
6 -1 6 -7 1 -15 -6 -19 -14z"/>
<path d="M3416 1535 c10 -8 23 -15 28 -15 6 0 1 7 -10 15 -10 8 -23 15 -28 15
-6 0 -1 -7 10 -15z"/>
<path d="M435 1520 c-3 -5 -1 -10 4 -10 6 0 11 5 11 10 0 6 -2 10 -4 10 -3 0
-8 -4 -11 -10z"/>
<path d="M3388 1523 c6 -2 10 -9 7 -14 -4 -5 2 -6 12 -2 14 5 13 0 -7 -23
l-25 -29 28 25 c26 23 27 25 11 37 -10 7 -23 13 -28 12 -6 0 -5 -3 2 -6z"/>
<path d="M3346 1503 c-6 -14 -5 -15 5 -6 7 7 10 15 7 18 -3 3 -9 -2 -12 -12z"/>
<path d="M4719 1513 c0 -5 -2 -16 -4 -26 -2 -11 -1 -16 3 -13 8 8 14 46 7 46
-3 0 -5 -3 -6 -7z"/>
<path d="M1813 1495 c0 -8 4 -12 9 -9 5 3 6 10 3 15 -9 13 -12 11 -12 -6z"/>
<path d="M3371 1494 c0 -11 3 -14 6 -6 3 7 2 16 -1 19 -3 4 -6 -2 -5 -13z"/>
<path d="M4665 1490 c-3 -5 -1 -10 4 -10 6 0 11 5 11 10 0 6 -2 10 -4 10 -3 0
-8 -4 -11 -10z"/>
<path d="M4635 1470 c-3 -5 -1 -10 4 -10 6 0 11 5 11 10 0 6 -2 10 -4 10 -3 0
-8 -4 -11 -10z"/>
<path d="M3355 1459 c-4 -6 -5 -12 -2 -15 2 -3 7 2 10 11 7 17 1 20 -8 4z"/>
<path d="M4655 1450 c-3 -6 1 -7 9 -4 18 7 21 14 7 14 -6 0 -13 -4 -16 -10z"/>
<path d="M4576 1431 c-3 -4 0 -13 6 -21 8 -12 9 -11 4 4 -5 13 -2 17 9 13 8
-4 16 -3 19 1 3 4 -4 8 -14 9 -11 1 -22 -2 -24 -6z"/>
<path d="M4506 1391 c-4 -5 -2 -12 3 -15 5 -4 12 -2 15 3 4 5 2 12 -3 15 -5 4
-12 2 -15 -3z"/>
<path d="M3091 1340 c-13 -11 -19 -20 -14 -20 6 0 18 9 28 20 23 25 17 25 -14
0z"/>
<path d="M3135 1330 c3 -5 8 -10 11 -10 2 0 4 5 4 10 0 6 -5 10 -11 10 -5 0
-7 -4 -4 -10z"/>
<path d="M4420 1330 c0 -5 5 -10 10 -10 6 0 10 5 10 10 0 6 -4 10 -10 10 -5 0
-10 -4 -10 -10z"/>
<path d="M3039 1308 c-8 -7 -12 -12 -10 -11 2 2 10 -2 18 -9 11 -9 12 -7 7 7
-6 14 -4 16 6 10 9 -5 11 -4 6 3 -9 15 -9 15 -27 0z"/>
<path d="M3106 1308 c3 -5 10 -6 15 -3 13 9 11 12 -6 12 -8 0 -12 -4 -9 -9z"/>
<path d="M4450 1309 c0 -5 5 -7 10 -4 6 3 10 8 10 11 0 2 -4 4 -10 4 -5 0 -10
-5 -10 -11z"/>
<path d="M4386 1293 c12 -12 16 -12 28 0 12 12 10 14 -14 14 -24 0 -26 -2 -14
-14z"/>
<path d="M4350 1293 c0 -6 8 -14 17 -17 14 -6 15 -9 4 -15 -8 -5 -9 -11 -3
-15 19 -12 20 22 1 40 -10 9 -19 12 -19 7z"/>
<path d="M3030 1271 c0 -6 4 -13 10 -16 6 -3 7 1 4 9 -7 18 -14 21 -14 7z"/>
<path d="M4330 1270 c0 -5 5 -10 11 -10 5 0 7 5 4 10 -3 6 -8 10 -11 10 -2 0
-4 -4 -4 -10z"/>
<path d="M2149 1253 c-13 -16 -12 -17 4 -4 16 13 21 21 13 21 -2 0 -10 -8 -17
-17z"/>
<path d="M2175 1250 c-3 -5 -1 -10 4 -10 6 0 11 5 11 10 0 6 -2 10 -4 10 -3 0
-8 -4 -11 -10z"/>
<path d="M2966 1245 c4 -8 8 -15 10 -15 2 0 4 7 4 15 0 8 -4 15 -10 15 -5 0
-7 -7 -4 -15z"/>
<path d="M2990 1249 c0 -5 5 -7 10 -4 6 3 10 8 10 11 0 2 -4 4 -10 4 -5 0 -10
-5 -10 -11z"/>
<path d="M2937 1243 c-3 -5 4 -15 16 -23 21 -12 21 -12 7 6 -8 10 -15 20 -16
22 -1 2 -4 -1 -7 -5z"/>
<path d="M4304 1234 c-18 -14 -18 -15 4 -4 12 6 28 8 34 4 7 -4 8 -3 4 4 -10
16 -18 15 -42 -4z"/>
<path d="M911 1214 c0 -11 3 -14 6 -6 3 7 2 16 -1 19 -3 4 -6 -2 -5 -13z"/>
<path d="M2995 1221 c-3 -5 -2 -12 3 -15 5 -3 9 1 9 9 0 17 -3 19 -12 6z"/>
<path d="M2866 1198 c-8 -12 -13 -25 -10 -29 6 -10 40 -6 51 6 5 4 3 5 -4 2
-6 -4 -14 -1 -16 5 -4 10 -6 10 -6 1 -1 -7 -6 -13 -11 -13 -7 0 -7 7 0 21 9
16 14 18 26 8 8 -6 16 -10 19 -8 2 3 -5 10 -15 17 -16 10 -22 8 -34 -10z"/>
<path d="M2930 1189 c0 -5 5 -7 10 -4 6 3 10 8 10 11 0 2 -4 4 -10 4 -5 0 -10
-5 -10 -11z"/>
<path d="M4185 1183 c-5 -15 -4 -16 6 -5 18 17 29 15 23 -5 -5 -15 -4 -15 4
-3 6 8 8 18 6 22 -9 14 -32 9 -39 -9z"/>
<path d="M2310 1179 c0 -5 -4 -8 -9 -4 -5 3 -12 1 -15 -4 -4 -5 2 -8 11 -7 15
3 33 26 19 26 -3 0 -6 -5 -6 -11z"/>
<path d="M4270 1169 c0 -5 5 -7 10 -4 6 3 10 8 10 11 0 2 -4 4 -10 4 -5 0 -10
-5 -10 -11z"/>
<path d="M4150 1166 c0 -2 7 -7 16 -10 8 -3 12 -2 9 4 -6 10 -25 14 -25 6z"/>
<path d="M1015 1151 c-3 -5 -2 -12 3 -15 5 -3 9 1 9 9 0 17 -3 19 -12 6z"/>
<path d="M1860 1150 c-9 -6 -10 -10 -3 -10 6 0 15 5 18 10 8 12 4 12 -15 0z"/>
<path d="M2830 1150 c0 -6 4 -9 9 -6 5 4 12 1 14 -4 3 -6 4 -5 3 2 -3 15 -26
23 -26 8z"/>
<path d="M2798 1133 c7 -3 16 -2 19 1 4 3 -2 6 -13 5 -11 0 -14 -3 -6 -6z"/>
<path d="M4159 1123 c-13 -16 -12 -17 4 -4 9 7 17 15 17 17 0 8 -8 3 -21 -13z"/>
<path d="M2390 1126 c0 -2 8 -10 18 -17 15 -13 16 -12 3 4 -13 16 -21 21 -21
13z"/>
<path d="M2833 1115 c0 -8 4 -12 9 -9 5 3 6 10 3 15 -9 13 -12 11 -12 -6z"/>
<path d="M2773 1107 c-3 -6 -1 -7 5 -3 11 6 16 -6 13 -26 -2 -13 6 -9 20 9 12
14 12 16 0 8 -11 -6 -13 -4 -9 7 7 16 -19 21 -29 5z"/>
<path d="M4015 1079 c-4 -6 -5 -12 -2 -15 2 -3 7 2 10 11 7 17 1 20 -8 4z"/>
<path d="M1966 1072 c-3 -5 1 -9 9 -9 8 0 12 4 9 9 -3 4 -7 8 -9 8 -2 0 -6 -4
-9 -8z"/>
<path d="M2647 1066 c-16 -13 -16 -14 -1 -20 9 -4 19 -4 22 -1 3 3 0 5 -7 5
-7 0 -9 5 -6 10 4 6 11 7 17 4 7 -4 8 -2 4 4 -9 14 -7 14 -29 -2z"/>
<path d="M4031 1062 c-7 -14 -6 -19 4 -19 8 0 11 5 8 10 -3 5 1 13 8 18 10 6
10 9 2 9 -7 0 -17 -8 -22 -18z"/>
<path d="M3967 1046 c-4 -10 -1 -13 8 -9 8 3 12 9 9 14 -7 12 -11 11 -17 -5z"/>
<path d="M2735 1041 c-3 -5 -2 -12 3 -15 5 -3 9 1 9 9 0 17 -3 19 -12 6z"/>
<path d="M2553 1015 c0 -8 4 -12 9 -9 5 3 6 10 3 15 -9 13 -12 11 -12 -6z"/>
<path d="M3919 1023 c-1 -1 -2 -9 -3 -15 0 -7 -10 -13 -20 -13 -14 0 -20 -8
-20 -27 -1 -14 2 -24 6 -22 4 3 8 11 8 19 0 7 8 16 18 19 24 8 45 43 26 43 -8
0 -15 -2 -15 -4z"/>
<path d="M3993 1015 c0 -8 4 -15 9 -15 4 0 8 4 8 9 0 6 -4 12 -8 15 -5 3 -9
-1 -9 -9z"/>
<path d="M3750 910 c0 -5 9 -14 20 -20 11 -6 20 -9 20 -8 0 2 -9 11 -20 21
-11 9 -20 13 -20 7z"/>
<path d="M3721 882 c-7 -14 -6 -19 4 -19 7 0 11 7 7 15 -4 11 -1 13 8 7 9 -5
11 -4 6 3 -10 16 -14 15 -25 -6z"/>
<path d="M3626 829 c-13 -19 -12 -49 1 -49 3 0 3 6 0 14 -3 7 1 23 9 35 8 11
13 21 10 21 -3 0 -12 -10 -20 -21z"/>
<path d="M3646 813 c-6 -14 -5 -15 5 -6 7 7 10 15 7 18 -3 3 -9 -2 -12 -12z"/>
<path d="M3694 819 c-3 -6 -2 -15 3 -20 5 -5 9 -1 9 11 0 23 -2 24 -12 9z"/>
<path d="M3575 791 c-3 -5 0 -13 6 -17 8 -5 9 -3 4 6 -6 10 -4 12 9 7 10 -4
15 -3 11 3 -8 13 -22 13 -30 1z"/>
<path d="M3547 729 c7 -7 15 -10 18 -7 3 3 -2 9 -12 12 -14 6 -15 5 -6 -5z"/>
<path d="M3471 694 c0 -11 3 -14 6 -6 3 7 2 16 -1 19 -3 4 -6 -2 -5 -13z"/>
<path d="M1777 659 c7 -7 15 -10 18 -7 3 3 -2 9 -12 12 -14 6 -15 5 -6 -5z"/>
<path d="M3350 606 c0 -2 8 -10 18 -17 15 -13 16 -12 3 4 -13 16 -21 21 -21
13z"/>
<path d="M3268 583 c10 -4 10 -8 0 -20 -15 -19 -19 -41 -8 -48 5 -3 7 3 5 12
-3 21 13 45 25 38 5 -3 12 0 16 6 4 8 3 9 -4 5 -7 -4 -12 -2 -12 3 0 6 -8 11
-17 10 -12 0 -13 -2 -5 -6z"/>
<path d="M1890 569 c0 -5 5 -7 10 -4 6 3 10 8 10 11 0 2 -4 4 -10 4 -5 0 -10
-5 -10 -11z"/>
<path d="M3230 570 c-13 -8 -12 -10 3 -10 9 0 17 5 17 10 0 12 -1 12 -20 0z"/>
<path d="M3212 544 c10 -10 20 -16 22 -13 3 3 -5 11 -17 18 -21 13 -21 12 -5
-5z"/>
<path d="M3160 531 c0 -5 7 -12 16 -15 14 -5 15 -4 4 9 -14 17 -20 19 -20 6z"/>
<path d="M3126 511 c-3 -5 6 -8 20 -8 19 0 22 2 13 8 -18 11 -26 11 -33 0z"/>
<path d="M3110 479 c0 -5 -6 -7 -12 -3 -7 4 -9 3 -5 -1 13 -15 36 -14 30 1 -6
17 -13 18 -13 3z"/>
<path d="M3070 450 c0 -5 5 -10 10 -10 6 0 10 5 10 10 0 6 -4 10 -10 10 -5 0
-10 -4 -10 -10z"/>
<path d="M3140 450 c-9 -6 -10 -10 -3 -10 6 0 15 5 18 10 8 12 4 12 -15 0z"/>
<path d="M3030 409 c0 -5 5 -7 10 -4 6 3 10 8 10 11 0 2 -4 4 -10 4 -5 0 -10
-5 -10 -11z"/>
<path d="M2990 390 c0 -5 5 -10 11 -10 5 0 7 5 4 10 -3 6 -8 10 -11 10 -2 0
-4 -4 -4 -10z"/>
<path d="M2910 316 c0 -2 7 -7 16 -10 8 -3 12 -2 9 4 -6 10 -25 14 -25 6z"/>
<path d="M2775 281 c-3 -12 -11 -21 -16 -21 -6 0 -7 5 -3 12 4 7 3 8 -4 4 -15
-9 -5 -33 13 -33 8 0 13 3 13 6 -1 3 2 14 7 24 4 10 5 20 2 23 -3 3 -8 -4 -12
-15z"/>
<path d="M2717 254 c-3 -4 1 -13 9 -21 19 -20 26 -13 10 9 -7 10 -16 15 -19
12z"/>
<path d="M2681 231 c-8 -5 -9 -11 -3 -15 5 -3 12 1 16 9 6 17 6 18 -13 6z"/>
<path d="M2706 214 c-4 -9 -4 -19 -1 -22 3 -3 5 0 5 7 0 7 4 9 10 6 6 -3 7 1
4 9 -8 20 -10 20 -18 0z"/>
<path d="M2630 190 c0 -5 5 -10 11 -10 5 0 7 5 4 10 -3 6 -8 10 -11 10 -2 0
-4 -4 -4 -10z"/>
<path d="M2672 191 c-11 -6 -10 -10 4 -15 9 -3 19 -4 22 -1 3 3 0 5 -7 5 -7 0
-9 5 -6 10 7 12 4 12 -13 1z"/>
<path d="M2607 169 c7 -7 15 -10 18 -7 3 3 -2 9 -12 12 -14 6 -15 5 -6 -5z"/>
</g>
</svg>
