<?xml version="1.0" encoding="utf-8"?>
<!-- Generated by IcoMoon.io -->
<!DOCTYPE svg PUBLIC "-//W3C//DTD SVG 1.1//EN" "http://www.w3.org/Graphics/SVG/1.1/DTD/svg11.dtd">
<svg version="1.1" xmlns="http://www.w3.org/2000/svg" xmlns:xlink="http://www.w3.org/1999/xlink" width="16" height="16" viewBox="0 0 16 16">
<path fill="#000000" d="M16 10.985l-1.545 1.030-2.955-4.015h-4.5v-1h4v-2h-4v-1l-2-0.5v6.5h5.5l3.268 4.357 3.119-2.079z"></path>
<path fill="#000000" d="M8 1.5c0 0.828-0.672 1.5-1.5 1.5s-1.5-0.672-1.5-1.5c0-0.828 0.672-1.5 1.5-1.5s1.5 0.672 1.5 1.5z"></path>
<path fill="#000000" d="M10.609 12.349c-0.903 1.3-2.407 2.151-4.109 2.151-2.761 0-5-2.239-5-5 0-1.937 1.101-3.616 2.711-4.446l-0.978-1.174c-1.933 1.126-3.233 3.221-3.233 5.62 0 3.59 2.91 6.5 6.5 6.5 2.096 0 3.96-0.992 5.148-2.532l-1.039-1.119z"></path>
</svg>
