<?xml version="1.0" encoding="utf-8"?>
<!-- Generated by IcoMoon.io -->
<!DOCTYPE svg PUBLIC "-//W3C//DTD SVG 1.1//EN" "http://www.w3.org/Graphics/SVG/1.1/DTD/svg11.dtd">
<svg version="1.1" xmlns="http://www.w3.org/2000/svg" xmlns:xlink="http://www.w3.org/1999/xlink" width="16" height="16" viewBox="0 0 16 16">
<path fill="#000000" d="M14.5 4h-13c-0.275 0-0.5 0.225-0.5 0.5v11c0 0.275 0.225 0.5 0.5 0.5h13c0.275 0 0.5-0.225 0.5-0.5v-11c0-0.275-0.225-0.5-0.5-0.5zM12 12.5c0 0.828-0.895 1.5-2 1.5s-2-0.672-2-1.5 0.895-1.5 2-1.5c0.364 0 0.706 0.073 1 0.201v-2.915l-4 1.429v3.786c0 0.828-0.895 1.5-2 1.5s-2-0.672-2-1.5 0.895-1.5 2-1.5c0.364 0 0.706 0.073 1 0.201v-4.201l6-2v6.5z"></path>
<path fill="#000000" d="M13.5 3h-11c-0.276 0-0.5-0.224-0.5-0.5s0.224-0.5 0.5-0.5h11c0.276 0 0.5 0.224 0.5 0.5s-0.224 0.5-0.5 0.5z"></path>
<path fill="#000000" d="M12.5 1h-9c-0.276 0-0.5-0.224-0.5-0.5s0.224-0.5 0.5-0.5h9c0.276 0 0.5 0.224 0.5 0.5s-0.224 0.5-0.5 0.5z"></path>
</svg>
