<?xml version="1.0" encoding="utf-8"?>
<!-- Generated by IcoMoon.io -->
<!DOCTYPE svg PUBLIC "-//W3C//DTD SVG 1.1//EN" "http://www.w3.org/Graphics/SVG/1.1/DTD/svg11.dtd">
<svg version="1.1" xmlns="http://www.w3.org/2000/svg" xmlns:xlink="http://www.w3.org/1999/xlink" width="16" height="16" viewBox="0 0 16 16">
<path fill="#000000" d="M12.992 7.090c-0.942-0.328-1.966 0.383-1.992 1.384-0.019 0.352 0.34 0.619 0.672 0.496 0.276-0.102 0.274-0.312 0.332-0.549 0.059-0.239 0.238-0.423 0.495-0.427 0.173 0.005 0.51 0.126 0.51 0.493 0.002 0.625-0.382 1.205-0.97 1.431-0.252 0.097-0.547 0.132-0.814 0.077-0.378-0.065-0.57-0.288-0.859-0.475-0.169-0.155-0.365-0.293-0.59-0.409-1.661-0.856-3.973 0.382-3.777 2.375 0.025 0.352 0.414 0.572 0.729 0.412 0.233-0.119 0.241-0.325 0.296-0.546 0.169-0.68 0.748-1.206 1.475-1.172 0.262 0.003 0.681 0.174 0.906 0.412 0.368 0.387 0.396 0.889 0.335 1.388-0.202 1.645-1.518 3.067-3.241 3.029-2.721-0.029-3.824-3.624-2.291-5.608 0.507-0.656 1.228-1.103 2.020-1.331 0.284-0.082 0.647-0.023 0.8-0.335 0.136-0.277-0.027-0.618-0.327-0.688-0.682-0.235-1.28-0.379-1.774-0.958-0.38-0.446-0.59-1.004-0.6-1.588 0.016-1.146 0.917-2.23 2.171-2.346-0.004 0-0.008-0-0.013-0 1.388-0.064 2.518 0.957 2.592 2.345 0-0.006 0-0.012 0.001-0.017 0.009 0.327-0.236 0.609-0.576 0.604-0.1-0.003-0.179-0.036-0.271-0.081-0.385-0.249-0.079-0.702-0.402-0.977-0.337-0.286-0.869-0.014-0.833 0.427-0.005 0.386 0.196 0.79 0.47 1.052 0.79 0.754 2.175 0.397 2.422-0.718 0.366-1.752-1.146-3.492-2.776-3.858-1.327-0.298-2.736 0.193-3.603 1.244-0.948 1.149-1.111 2.826-0.366 4.122 0.236 0.413 0.557 0.775 0.934 1.060-1.466 0.73-2.512 2.32-2.557 4.001-0.060 2.269 1.64 4.082 3.807 4.525 1.979 0.404 4.168-0.377 5.256-2.125 0.513-0.824 0.752-1.874 0.568-2.804 0.606 0.086 1.239-0.053 1.752-0.403 1.072-0.732 1.738-2.886 0.090-3.46v0z"></path>
</svg>
