<?xml version="1.0" encoding="utf-8"?>
<!-- Generated by IcoMoon.io -->
<!DOCTYPE svg PUBLIC "-//W3C//DTD SVG 1.1//EN" "http://www.w3.org/Graphics/SVG/1.1/DTD/svg11.dtd">
<svg version="1.1" xmlns="http://www.w3.org/2000/svg" xmlns:xlink="http://www.w3.org/1999/xlink" width="16" height="16" viewBox="0 0 16 16">
<path fill="#000000" d="M16 8l-8-8v5h-8l-0 6h8v5l8-8zM13.625 8.961l-0.25 0.25v-2.422l0.25 0.25v1.922zM13.875 7.289l0.25 0.25v0.922l-0.25 0.25v-1.422zM13.125 9.461l-0.25 0.25v-3.422l0.25 0.25v2.922zM12.625 9.961l-0.25 0.25v-4.422l0.25 0.25v3.922zM12.125 10.461l-0.25 0.25v-5.422l0.25 0.25v4.922zM11.625 10.961l-0.25 0.25v-6.422l0.25 0.25v5.922zM11.125 11.461l-0.25 0.25v-7.422l0.25 0.25v6.922zM10.625 11.961l-0.25 0.25v-8.422l0.25 0.25v7.922zM10.125 12.461l-0.25 0.25v-9.422l0.25 0.25v8.922zM9.625 12.961l-0.25 0.25v-10.422l0.25 0.25v9.922zM14.375 8.211v-0.422l0.211 0.211-0.211 0.211zM8.625 6v4h-0.25v-4h0.25zM8.125 6v4h-0.25v-4h0.25zM7.625 6v4h-0.25v-4h0.25zM7.125 6v4h-0.25v-4h0.25zM6.625 6v4h-0.25v-4h0.25zM6.125 6v4h-0.25v-4h0.25zM5.625 6v4h-0.25v-4h0.25zM5.125 6v4h-0.25v-4h0.25zM4.625 6v4h-0.25v-4h0.25zM4.125 6v4h-0.25v-4h0.25zM3.625 6v4h-0.25v-4h0.25zM3.125 6v4h-0.25v-4h0.25zM2.625 6v4h-0.25v-4h0.25zM2.125 6v4h-0.25v-4h0.25zM1.625 6v4h-0.25v-4h0.25zM1 6h0.125v4h-0.125l0-4zM9 10h-0.125v-4h0.125v-3.586l0.125 0.125v10.922l-0.125 0.125v-3.586z"></path>
</svg>
