<?xml version="1.0" encoding="utf-8"?>
<!-- Generated by IcoMoon.io -->
<!DOCTYPE svg PUBLIC "-//W3C//DTD SVG 1.1//EN" "http://www.w3.org/Graphics/SVG/1.1/DTD/svg11.dtd">
<svg version="1.1" xmlns="http://www.w3.org/2000/svg" xmlns:xlink="http://www.w3.org/1999/xlink" width="16" height="16" viewBox="0 0 16 16">
<path fill="#000000" d="M8 0l-8 8h5v8l6 0v-8h5l-8-8zM8.961 2.375l0.25 0.25h-2.422l0.25-0.25h1.922zM7.289 2.125l0.25-0.25h0.922l0.25 0.25h-1.422zM9.461 2.875l0.25 0.25h-3.422l0.25-0.25h2.922zM9.961 3.375l0.25 0.25h-4.422l0.25-0.25h3.922zM10.461 3.875l0.25 0.25h-5.422l0.25-0.25h4.922zM10.961 4.375l0.25 0.25h-6.422l0.25-0.25h5.922zM11.461 4.875l0.25 0.25h-7.422l0.25-0.25h6.922zM11.961 5.375l0.25 0.25h-8.422l0.25-0.25h7.922zM12.461 5.875l0.25 0.25h-9.422l0.25-0.25h8.922zM12.961 6.375l0.25 0.25h-10.422l0.25-0.25h9.922zM8.211 1.625h-0.422l0.211-0.211 0.211 0.211zM6 7.375h4v0.25h-4v-0.25zM6 7.875h4v0.25h-4v-0.25zM6 8.375h4v0.25h-4v-0.25zM6 8.875h4v0.25h-4v-0.25zM6 9.375h4v0.25h-4v-0.25zM6 9.875h4v0.25h-4v-0.25zM6 10.375h4v0.25h-4v-0.25zM6 10.875h4v0.25h-4v-0.25zM6 11.375h4v0.25h-4v-0.25zM6 11.875h4v0.25h-4v-0.25zM6 12.375h4v0.25h-4v-0.25zM6 12.875h4v0.25h-4v-0.25zM6 13.375h4v0.25h-4v-0.25zM6 13.875h4v0.25h-4v-0.25zM6 14.375h4v0.25h-4v-0.25zM6 15v-0.125h4v0.125l-4-0zM10 7v0.125h-4v-0.125h-3.586l0.125-0.125h10.922l0.125 0.125h-3.586z"></path>
</svg>
