<?xml version="1.0" encoding="utf-8"?>
<!-- Generated by IcoMoon.io -->
<!DOCTYPE svg PUBLIC "-//W3C//DTD SVG 1.1//EN" "http://www.w3.org/Graphics/SVG/1.1/DTD/svg11.dtd">
<svg version="1.1" xmlns="http://www.w3.org/2000/svg" xmlns:xlink="http://www.w3.org/1999/xlink" width="16" height="16" viewBox="0 0 16 16">
<path fill="#000000" d="M0 8l8 8v-5h8l0-6h-8v-5l-8 8zM2.375 7.039l0.25-0.25v2.422l-0.25-0.25v-1.922zM2.125 8.711l-0.25-0.25v-0.922l0.25-0.25v1.422zM2.875 6.539l0.25-0.25v3.422l-0.25-0.25v-2.922zM3.375 6.039l0.25-0.25v4.422l-0.25-0.25v-3.922zM3.875 5.539l0.25-0.25v5.422l-0.25-0.25v-4.922zM4.375 5.039l0.25-0.25v6.422l-0.25-0.25v-5.922zM4.875 4.539l0.25-0.25v7.422l-0.25-0.25v-6.922zM5.375 4.039l0.25-0.25v8.422l-0.25-0.25v-7.922zM5.875 3.539l0.25-0.25v9.422l-0.25-0.25v-8.922zM6.375 3.039l0.25-0.25v10.422l-0.25-0.25v-9.922zM1.625 7.789v0.422l-0.211-0.211 0.211-0.211zM7.375 10v-4h0.25v4h-0.25zM7.875 10v-4h0.25v4h-0.25zM8.375 10v-4h0.25v4h-0.25zM8.875 10v-4h0.25v4h-0.25zM9.375 10v-4h0.25v4h-0.25zM9.875 10v-4h0.25v4h-0.25zM10.375 10v-4h0.25v4h-0.25zM10.875 10v-4h0.25v4h-0.25zM11.375 10v-4h0.25v4h-0.25zM11.875 10v-4h0.25v4h-0.25zM12.375 10v-4h0.25v4h-0.25zM12.875 10v-4h0.25v4h-0.25zM13.375 10v-4h0.25v4h-0.25zM13.875 10v-4h0.25v4h-0.25zM14.375 10v-4h0.25v4h-0.25zM15 10h-0.125v-4h0.125l-0 4zM7 6h0.125v4h-0.125v3.586l-0.125-0.125v-10.922l0.125-0.125v3.586z"></path>
</svg>
