<?xml version="1.0" encoding="utf-8"?>
<!-- Generated by IcoMoon.io -->
<!DOCTYPE svg PUBLIC "-//W3C//DTD SVG 1.1//EN" "http://www.w3.org/Graphics/SVG/1.1/DTD/svg11.dtd">
<svg version="1.1" xmlns="http://www.w3.org/2000/svg" xmlns:xlink="http://www.w3.org/1999/xlink" width="16" height="16" viewBox="0 0 16 16">
<path fill="#000000" d="M11 3v-0.5c0-1.381-1.119-2.5-2.5-2.5-0.563 0-1.082 0.186-1.5 0.5-0.418-0.314-0.937-0.5-1.5-0.5-1.381 0-2.5 1.119-2.5 2.5v1.7l-2 0.3v10.5h2l1 1 10-1.5v-10.5l-3-1zM2 13.125v-0.25h1v0.25h-1zM3 13.375v0.25h-1v-0.25h1zM2 12.625v-0.25h1v0.25h-1zM2 12.125v-0.25h1v0.25h-1zM2 11.625v-0.25h1v0.25h-1zM2 11.125v-0.25h1v0.25h-1zM2 10.625v-0.25h1v0.25h-1zM2 10.125v-0.25h1v0.25h-1zM2 9.625v-0.25h1v0.25h-1zM2 9.125v-0.25h1v0.25h-1zM2 8.625v-0.25h1v0.25h-1zM2 8.125v-0.25h1v0.25h-1zM2 7.625v-0.25h1v0.25h-1zM2 7.125v-0.25h1v0.25h-1zM2 6.625v-0.25h1v0.25h-1zM2 6.125v-0.25h1v0.25h-1zM2 5.625v-0.25h1v0.25h-1zM2 14v-0.125h1v0.125h-1zM11.875 5.33l0.25-0.037v8.478l-0.25 0.037v-8.478zM11.625 13.845l-0.25 0.037v-8.478l0.25-0.037v8.478zM12.375 5.255l0.25-0.037v8.478l-0.25 0.037v-8.478zM11.125 5.442v8.478l-0.25 0.037v-8.478l0.25-0.037zM7.875 5.93l0.25-0.037v8.478l-0.25 0.037v-8.478zM7.625 14.445l-0.25 0.037v-8.478l0.25-0.037v8.478zM8.375 5.855l0.25-0.037v8.478l-0.25 0.037v-8.478zM8.875 5.78l0.25-0.037v8.478l-0.25 0.037v-8.478zM9.375 5.705l0.25-0.037v8.478l-0.25 0.037v-8.478zM9.875 5.63l0.25-0.037v8.478l-0.25 0.037v-8.478zM10.375 5.555l0.25-0.037v8.478l-0.25 0.037v-8.478zM8.5 1c0.827 0 1.5 0.673 1.5 1.5v0.65l-2 0.3v-0.95c0-0.454-0.122-0.88-0.333-1.247 0.239-0.16 0.525-0.253 0.833-0.253zM7.125 6.042v8.478l-0.25 0.037v-8.478l0.25-0.037zM5.625 6.267v8.478l-0.25 0.037v-8.478l0.25-0.037zM5.875 6.23l0.25-0.037v8.478l-0.25 0.037v-8.478zM6.375 6.155l0.25-0.037v8.478l-0.25 0.037v-8.478zM4 2.5c0-0.827 0.673-1.5 1.5-1.5 0.308 0 0.595 0.093 0.833 0.253-0.212 0.367-0.333 0.792-0.333 1.247v1.25l-2 0.3v-1.55zM5 6.361l0.125-0.019v8.478l-0.125 0.019v-8.478zM13 13.639l-0.125 0.019v-8.478l0.125-0.019v8.478z"></path>
</svg>
