<?xml version="1.0" encoding="utf-8"?>
<!-- Generated by IcoMoon.io -->
<!DOCTYPE svg PUBLIC "-//W3C//DTD SVG 1.1//EN" "http://www.w3.org/Graphics/SVG/1.1/DTD/svg11.dtd">
<svg version="1.1" xmlns="http://www.w3.org/2000/svg" xmlns:xlink="http://www.w3.org/1999/xlink" width="16" height="16" viewBox="0 0 16 16">
<path fill="#000000" d="M12.012 13.737c0-0-0-0-0-0-0.001-0.001-0.002-0.002-0.004-0.004-0-0-0-0-0-0-0.004-0.004-0.007-0.008-0.011-0.012-0-0-0-0-0-0-0.001-0.001-0.002-0.002-0.003-0.004-0-0-0-0-0-0-0.003-0.003-0.005-0.005-0.007-0.008-0-0-0-0-0.001-0.001s-0.002-0.002-0.003-0.003c-0-0-0.001-0.001-0.001-0.001s-0.002-0.002-0.003-0.003c-0-0-0-0-0-0-0.001-0.001-0.002-0.003-0.004-0.004-0-0-0-0-0.001-0.001s-0.002-0.002-0.003-0.003c-0-0-0.001-0.001-0.001-0.001s-0.002-0.002-0.003-0.003c-0-0-0.001-0.001-0.001-0.001s-0.002-0.003-0.004-0.004h-0c-0.001-0.001-0.002-0.003-0.003-0.004s-0.001-0.001-0.001-0.001c-0.001-0.001-0.002-0.002-0.003-0.003s-0.001-0.001-0.001-0.001-0.002-0.002-0.003-0.003c-0-0-0.001-0.001-0.001-0.001-0.001-0.001-0.002-0.002-0.003-0.004-0-0-0.001-0.001-0.001-0.001s-0.002-0.002-0.002-0.003c-0-0.001-0.001-0.001-0.001-0.002s-0.001-0.002-0.002-0.002c-0.001-0.001-0.001-0.001-0.001-0.002s-0.002-0.002-0.002-0.003c-0-0-0.001-0.001-0.001-0.001s-0.002-0.002-0.003-0.003c-0.001-0.001-0.001-0.001-0.002-0.002s-0.001-0.001-0.002-0.002-0.001-0.001-0.002-0.002-0.001-0.001-0.002-0.002-0.001-0.001-0.002-0.002-0.001-0.001-0.002-0.002-0.002-0.002-0.003-0.004c-0-0-0.001-0.001-0.001-0.001s-0.001-0.002-0.002-0.002c-0-0-0.001-0.001-0.001-0.001s-0.001-0.002-0.002-0.002c-0-0-0.001-0.001-0.001-0.001-0.002-0.003-0.005-0.005-0.007-0.008-0-0-0.001-0.001-0.001-0.001s-0.002-0.002-0.002-0.003c-0-0-0.001-0.001-0.001-0.001s-0.002-0.002-0.002-0.003-0.004-0.004-0.006-0.006l-0-0c-0.001-0.001-0.002-0.002-0.003-0.003s-0-0.001-0.001-0.001c-0.001-0.001-0.002-0.002-0.003-0.003l-0-0c-0.003-0.003-0.006-0.006-0.008-0.010-0-0-0-0-0-0s-0.002-0.002-0.003-0.003c-0-0-0-0-0-0.001-0.004-0.004-0.008-0.009-0.011-0.013l-0-0c-0.034-0.038-0.067-0.077-0.1-0.117l0.208-0.175c-0.194-0.234-0.374-0.48-0.538-0.737l-0.253 0.17c-0.053-0.079-0.104-0.158-0.154-0.239l-0-0c-0.001-0.001-0.001-0.002-0.002-0.003s-0-0-0-0.001c-0.003-0.005-0.006-0.009-0.009-0.014-0-0-0-0.001-0.001-0.001s-0.001-0.002-0.002-0.003c-0-0-0.001-0.001-0.001-0.001-0.001-0.002-0.002-0.004-0.004-0.006-0-0-0-0-0-0s-0.001-0.002-0.002-0.003c-0-0.001-0.001-0.001-0.001-0.002s-0.001-0.002-0.001-0.002c-0-0.001-0.001-0.001-0.001-0.002s-0.001-0.002-0.001-0.002-0.001-0.002-0.002-0.002-0.001-0.002-0.002-0.003c-0-0.001-0.001-0.002-0.001-0.002s-0.001-0.001-0.001-0.002-0.001-0.002-0.001-0.002-0.001-0.001-0.001-0.002-0.001-0.002-0.002-0.003c-0-0-0.001-0.001-0.001-0.001s-0.002-0.003-0.003-0.004c-0-0.001-0.001-0.001-0.001-0.002s-0.001-0.002-0.002-0.003c-0-0-0.001-0.001-0.001-0.001s-0.001-0.002-0.002-0.003c-0-0-0.001-0.001-0.001-0.001-0.001-0.001-0.002-0.003-0.003-0.005 0-0-0-0-0-0-0.001-0.001-0.002-0.003-0.003-0.004-0-0-0-0.001-0.001-0.001s-0.002-0.002-0.002-0.004c-0-0-0-0.001-0.001-0.001-0.001-0.001-0.002-0.003-0.003-0.005s-0.002-0.003-0.003-0.005c-0-0-0-0-0-0-0.001-0.001-0.002-0.003-0.003-0.004-0-0-0-0-0-0.001-0.003-0.005-0.006-0.010-0.008-0.014-0-0-0-0-0-0-0.001-0.002-0.002-0.003-0.003-0.005-0-0-0-0-0-0-0.003-0.005-0.006-0.010-0.008-0.014-0-0-0-0-0-0-0.115-0.195-0.221-0.395-0.318-0.6l0.294-0.139c-0.111-0.243-0.208-0.494-0.293-0.751l-0.308 0.107c-0.067-0.193-0.126-0.389-0.177-0.589 0-0 0-0-0-0-0.001-0.006-0.003-0.011-0.004-0.017 0-0 0-0-0-0-0.001-0.006-0.003-0.011-0.004-0.017-0-0-0-0-0-0-0.001-0.006-0.003-0.011-0.004-0.017 0-0-0-0-0-0-0.001-0.006-0.003-0.011-0.004-0.017 0-0-0-0-0-0-0.001-0.002-0.001-0.003-0.001-0.005 0-0 0-0-0-0-0.001-0.004-0.002-0.007-0.003-0.011 0-0-0-0-0-0-0-0.002-0.001-0.004-0.001-0.005-0-0-0-0-0-0-0.001-0.004-0.002-0.007-0.003-0.011 0-0-0-0-0-0-0-0.002-0.001-0.003-0.001-0.005-0-0-0-0-0-0-0.001-0.006-0.003-0.011-0.004-0.017-0-0-0-0-0-0-0.001-0.006-0.003-0.011-0.004-0.017 0-0-0-0-0-0-0.001-0.006-0.003-0.011-0.004-0.017-0-0-0-0-0-0-0.001-0.006-0.003-0.011-0.004-0.017-0-0-0-0-0-0-0.001-0.006-0.003-0.011-0.004-0.017-0-0-0-0-0-0-0.023-0.101-0.044-0.203-0.063-0.306l0.333-0.061c-0.044-0.252-0.076-0.509-0.094-0.769l-0.269 0.020v-1.111l0.269 0.020c0.018-0.26 0.050-0.517 0.094-0.769l-0.333-0.061c0.019-0.103 0.040-0.205 0.063-0.306 0-0 0-0 0-0 0.001-0.006 0.003-0.011 0.004-0.017 0-0 0-0 0-0 0.001-0.006 0.003-0.011 0.004-0.017 0-0 0-0 0-0 0.001-0.006 0.003-0.011 0.004-0.017 0-0 0-0 0-0 0.001-0.006 0.003-0.011 0.004-0.017 0-0 0-0 0-0 0.001-0.006 0.003-0.011 0.004-0.017 0-0 0-0 0-0 0.001-0.002 0.001-0.003 0.001-0.005 0-0 0-0 0-0 0.001-0.004 0.002-0.007 0.003-0.011 0-0 0-0 0-0 0-0.002 0.001-0.004 0.001-0.005 0 0 0-0 0-0 0.001-0.004 0.002-0.007 0.003-0.011 0-0 0-0 0-0 0.001-0.002 0.001-0.003 0.001-0.005 0-0 0-0 0-0 0.001-0.006 0.003-0.011 0.004-0.017 0-0 0-0 0-0 0.001-0.006 0.003-0.011 0.004-0.017 0-0 0-0 0-0 0.001-0.006 0.003-0.011 0.004-0.017 0 0 0-0 0-0 0.001-0.006 0.003-0.011 0.004-0.017 0-0 0-0 0-0 0.051-0.2 0.11-0.396 0.177-0.589l0.308 0.107c0.084-0.257 0.182-0.507 0.293-0.751l-0.294-0.139c0.097-0.205 0.203-0.406 0.318-0.6 0-0 0-0 0-0 0.003-0.005 0.006-0.010 0.008-0.014 0-0 0-0 0-0 0.001-0.002 0.002-0.003 0.003-0.005 0-0 0-0 0-0 0.003-0.005 0.006-0.010 0.008-0.014 0-0 0-0 0-0.001 0.001-0.001 0.002-0.003 0.003-0.004 0-0 0-0 0-0 0.001-0.002 0.002-0.003 0.003-0.005v0c0.001-0.001 0.002-0.003 0.003-0.005 0-0 0-0.001 0.001-0.001s0.002-0.003 0.002-0.004c0-0 0-0.001 0.001-0.001 0.001-0.001 0.002-0.003 0.003-0.004 0-0 0-0 0-0 0.001-0.001 0.002-0.003 0.003-0.004 0-0 0-0.001 0.001-0.001s0.001-0.002 0.002-0.003c0-0 0.001-0.001 0.001-0.001s0.001-0.002 0.002-0.003c0-0 0.001-0.001 0.001-0.001s0.002-0.003 0.003-0.004c0-0 0.001-0.001 0.001-0.001s0.001-0.002 0.002-0.003c0-0.001 0.001-0.001 0.001-0.002s0.001-0.002 0.001-0.002c0-0.001 0.001-0.001 0.001-0.002s0.001-0.002 0.001-0.002 0.001-0.002 0.002-0.003 0.001-0.002 0.002-0.003 0.001-0.002 0.001-0.002 0.001-0.001 0.001-0.002 0.001-0.002 0.001-0.002c0-0.001 0.001-0.001 0.001-0.002s0.001-0.002 0.002-0.003c0-0 0-0 0-0 0.001-0.002 0.002-0.004 0.004-0.006 0-0 0.001-0.001 0.001-0.001s0.001-0.002 0.002-0.003c0-0 0-0.001 0.001-0.001 0.003-0.005 0.006-0.009 0.009-0.014 0-0 0-0 0-0.001s0.001-0.002 0.002-0.003l0-0c0.050-0.081 0.102-0.16 0.154-0.239l0.253 0.17c0.165-0.257 0.345-0.503 0.538-0.737l-0.208-0.175c0.033-0.039 0.066-0.078 0.1-0.117l0-0c0.004-0.004 0.008-0.009 0.011-0.013 0-0 0-0 0-0s0.002-0.002 0.003-0.003c0-0 0-0 0-0 0.003-0.003 0.006-0.006 0.008-0.010l0-0c0.001-0.001 0.002-0.002 0.003-0.003s0-0.001 0.001-0.001c0.001-0.001 0.002-0.002 0.003-0.003l0-0c0.002-0.002 0.004-0.004 0.006-0.006 0.001-0.001 0.002-0.002 0.002-0.003s0.001-0.001 0.001-0.001 0.002-0.002 0.002-0.003c0-0 0.001-0.001 0.001-0.001 0.002-0.003 0.005-0.006 0.007-0.008 0-0 0.001-0.001 0.001-0.001s0.001-0.002 0.002-0.002c0-0 0.001-0.001 0.001-0.001s0.001-0.002 0.002-0.002c0-0 0.001-0.001 0.001-0.001s0.002-0.002 0.003-0.004c0.001-0.001 0.001-0.001 0.002-0.002s0.001-0.001 0.002-0.002 0.001-0.001 0.002-0.002 0.001-0.001 0.002-0.002 0.001-0.001 0.002-0.002 0.001-0.001 0.002-0.002 0.002-0.002 0.003-0.003c0-0 0.001-0.001 0.001-0.001s0.002-0.002 0.002-0.003c0.001-0.001 0.001-0.001 0.001-0.002s0.001-0.002 0.002-0.002c0-0.001 0.001-0.001 0.001-0.002s0.002-0.002 0.002-0.003c0-0 0.001-0.001 0.001-0.001 0.001-0.001 0.002-0.002 0.003-0.004 0-0 0.001-0.001 0.001-0.001s0.002-0.002 0.003-0.003c0-0 0.001-0.001 0.001-0.001s0.002-0.002 0.003-0.003c0-0 0.001-0.001 0.001-0.001s0.002-0.003 0.003-0.004h0c0.001-0.001 0.002-0.003 0.004-0.004s0.001-0.001 0.001-0.001c0.001-0.001 0.002-0.002 0.003-0.003s0.001-0.001 0.001-0.001c0.001-0.001 0.002-0.002 0.003-0.003s0-0 0.001-0.001c0.001-0.001 0.002-0.003 0.004-0.004 0-0 0-0 0-0s0.002-0.002 0.003-0.003c0-0 0.001-0.001 0.001-0.001s0.002-0.002 0.003-0.003c0-0 0-0 0.001-0.001 0.003-0.003 0.005-0.005 0.007-0.008 0-0 0-0 0-0 0.001-0.001 0.002-0.002 0.003-0.004 0-0 0-0 0-0 0.004-0.004 0.007-0.008 0.011-0.012 0-0 0-0 0-0 0.001-0.001 0.002-0.002 0.004-0.004 0-0 0-0 0-0 0.134-0.144 0.273-0.282 0.418-0.415-1.318-1.151-3.043-1.848-4.93-1.848s-3.612 0.697-4.93 1.848c0.145 0.133 0.284 0.271 0.418 0.415 0 0 0 0 0 0 0.001 0.001 0.002 0.002 0.004 0.004 0 0 0 0 0 0 0.004 0.004 0.007 0.008 0.011 0.012 0 0 0 0 0 0 0.001 0.001 0.002 0.002 0.003 0.004 0 0 0 0 0 0 0.003 0.003 0.005 0.005 0.007 0.008 0 0 0 0 0.001 0.001s0.002 0.002 0.003 0.003c0 0 0.001 0.001 0.001 0.001s0.002 0.002 0.003 0.003c0 0 0 0 0 0 0.001 0.001 0.002 0.003 0.004 0.004 0 0 0 0 0.001 0.001s0.002 0.002 0.003 0.003c0 0 0.001 0.001 0.001 0.001s0.002 0.002 0.003 0.003c0 0 0.001 0.001 0.001 0.001s0.002 0.003 0.003 0.004v0c0.001 0.001 0.002 0.003 0.003 0.004s0.001 0.001 0.001 0.001c0.001 0.001 0.002 0.002 0.003 0.003s0.001 0.001 0.001 0.001 0.002 0.002 0.003 0.003c0 0 0.001 0.001 0.001 0.001 0.001 0.001 0.002 0.002 0.003 0.004 0 0 0.001 0.001 0.001 0.001s0.002 0.002 0.002 0.003c0 0.001 0.001 0.001 0.001 0.002s0.001 0.002 0.002 0.002c0.001 0.001 0.001 0.001 0.001 0.002s0.002 0.002 0.002 0.003c0 0 0.001 0.001 0.001 0.001s0.002 0.002 0.003 0.003c0.001 0.001 0.001 0.001 0.002 0.002s0.001 0.001 0.002 0.002 0.001 0.001 0.002 0.002 0.001 0.001 0.002 0.002 0.001 0.001 0.002 0.002 0.001 0.001 0.002 0.002 0.002 0.002 0.003 0.004c0 0 0.001 0.001 0.001 0.001s0.001 0.002 0.002 0.002c0 0 0.001 0.001 0.001 0.001s0.001 0.002 0.002 0.002c0 0 0.001 0.001 0.001 0.001 0.002 0.003 0.005 0.006 0.007 0.008 0 0 0.001 0.001 0.001 0.001s0.002 0.002 0.002 0.003c0 0 0.001 0.001 0.001 0.001s0.002 0.002 0.002 0.003v0c0.002 0.002 0.004 0.004 0.006 0.006l0 0c0.001 0.001 0.002 0.002 0.003 0.003s0 0 0.001 0.001c0.001 0.001 0.002 0.002 0.003 0.003l0 0c0.003 0.003 0.006 0.006 0.008 0.010 0 0 0 0 0 0s0.002 0.002 0.003 0.003c0 0 0 0 0 0 0.004 0.004 0.008 0.009 0.011 0.013l0 0c0.034 0.038 0.067 0.077 0.1 0.117l-0.208 0.175c0.194 0.234 0.374 0.48 0.538 0.737l0.253-0.17c0.053 0.079 0.104 0.158 0.154 0.239l0 0c0.001 0.001 0.001 0.002 0.002 0.003s0 0 0 0.001c0.003 0.005 0.006 0.009 0.009 0.014 0 0 0 0.001 0.001 0.001s0.001 0.002 0.002 0.003c0 0 0.001 0.001 0.001 0.001 0.001 0.002 0.002 0.004 0.004 0.006 0 0 0 0 0 0s0.001 0.002 0.002 0.003c0 0.001 0.001 0.001 0.001 0.002s0.001 0.002 0.002 0.002c0 0.001 0.001 0.001 0.001 0.002s0.001 0.002 0.001 0.002 0.001 0.002 0.002 0.003 0.001 0.002 0.002 0.003c0 0.001 0.001 0.002 0.001 0.002s0.001 0.001 0.001 0.002 0.001 0.002 0.001 0.002 0.001 0.001 0.001 0.002 0.001 0.002 0.002 0.003c0 0 0.001 0.001 0.001 0.001s0.002 0.003 0.003 0.004c0 0 0.001 0.001 0.001 0.001s0.001 0.002 0.002 0.003c0 0 0.001 0.001 0.001 0.001s0.001 0.002 0.002 0.003c0 0 0 0.001 0.001 0.001s0.002 0.003 0.003 0.004c0 0 0 0 0 0 0.001 0.001 0.002 0.003 0.003 0.004 0 0 0 0.001 0.001 0.001s0.002 0.003 0.002 0.004c0 0 0 0.001 0.001 0.001 0.001 0.001 0.002 0.003 0.003 0.005v0c0.001 0.002 0.002 0.003 0.003 0.005 0 0 0 0 0 0 0.001 0.001 0.002 0.003 0.003 0.004 0 0 0 0 0 0.001 0.003 0.005 0.006 0.010 0.008 0.014 0 0 0 0 0 0 0.001 0.002 0.002 0.003 0.003 0.005 0 0 0 0 0 0 0.003 0.005 0.006 0.010 0.009 0.014 0 0 0 0 0 0 0.115 0.195 0.221 0.395 0.318 0.6l-0.294 0.139c0.111 0.244 0.208 0.494 0.293 0.751l0.308-0.107c0.067 0.193 0.126 0.389 0.177 0.589 0 0 0 0 0 0 0.001 0.006 0.003 0.011 0.004 0.017 0 0 0 0 0 0 0.001 0.006 0.003 0.011 0.004 0.017 0 0 0 0 0 0 0.001 0.006 0.003 0.011 0.004 0.017 0 0 0 0 0 0 0.001 0.006 0.003 0.011 0.004 0.017 0 0 0 0 0 0 0 0.002 0.001 0.003 0.001 0.005 0 0 0 0 0 0 0.001 0.004 0.002 0.007 0.003 0.011 0 0 0 0 0 0 0 0.002 0.001 0.004 0.001 0.005 0 0 0 0 0 0 0.001 0.004 0.002 0.007 0.003 0.011 0 0 0 0 0 0 0 0.002 0.001 0.003 0.001 0.005 0 0 0 0 0 0 0.001 0.006 0.003 0.011 0.004 0.017 0 0 0 0 0 0 0.001 0.006 0.003 0.011 0.004 0.017 0 0 0 0 0 0 0.001 0.006 0.003 0.011 0.004 0.017 0 0 0 0 0 0 0.001 0.006 0.003 0.011 0.004 0.017 0 0 0 0 0 0 0.001 0.006 0.003 0.011 0.004 0.017 0 0 0 0 0 0 0.023 0.101 0.044 0.203 0.063 0.306l-0.333 0.061c0.044 0.252 0.076 0.509 0.094 0.769l0.269-0.020v1.111l-0.269-0.020c-0.018 0.26-0.050 0.517-0.094 0.769l0.333 0.061c-0.019 0.103-0.040 0.205-0.063 0.306 0 0-0 0-0 0-0.001 0.006-0.003 0.011-0.004 0.017 0 0-0 0-0 0-0.001 0.006-0.003 0.011-0.004 0.017 0 0-0 0-0 0-0.001 0.006-0.003 0.011-0.004 0.017 0 0-0 0-0 0-0.001 0.006-0.003 0.011-0.004 0.017-0 0-0 0-0 0-0.001 0.006-0.003 0.011-0.004 0.017-0 0-0 0-0 0-0 0.002-0.001 0.003-0.001 0.005-0 0-0 0-0 0-0.001 0.004-0.002 0.007-0.003 0.011-0 0-0 0-0 0-0 0.002-0.001 0.004-0.001 0.005 0 0 0 0 0 0-0.001 0.004-0.002 0.007-0.003 0.011 0 0-0 0-0 0-0 0.002-0.001 0.003-0.001 0.005-0 0-0 0-0 0-0.001 0.006-0.003 0.011-0.004 0.017 0 0-0 0-0 0-0.001 0.006-0.003 0.011-0.004 0.017-0 0-0 0-0 0-0.001 0.006-0.003 0.011-0.004 0.017 0 0 0 0 0 0-0.001 0.006-0.003 0.011-0.004 0.017 0 0-0 0-0 0-0.051 0.2-0.11 0.396-0.177 0.589l-0.308-0.107c-0.084 0.257-0.182 0.507-0.293 0.751l0.294 0.139c-0.097 0.206-0.203 0.406-0.318 0.6-0 0-0 0-0 0-0.003 0.005-0.006 0.010-0.009 0.014-0 0-0 0-0 0-0.001 0.002-0.002 0.003-0.003 0.005-0 0-0 0-0 0-0.003 0.005-0.006 0.010-0.008 0.014-0 0-0 0-0 0.001-0.001 0.001-0.002 0.003-0.003 0.004-0 0-0 0-0 0-0.001 0.002-0.002 0.003-0.003 0.005s-0.002 0.003-0.003 0.005c-0 0-0 0.001-0.001 0.001s-0.002 0.003-0.002 0.004c-0 0-0 0.001-0.001 0.001-0.001 0.001-0.002 0.003-0.003 0.004 0 0-0 0-0 0-0.001 0.001-0.002 0.003-0.003 0.005-0 0-0 0.001-0.001 0.001s-0.001 0.002-0.002 0.003c-0 0.001-0.001 0.001-0.001 0.001s-0.001 0.002-0.002 0.003c-0 0.001-0.001 0.001-0.001 0.002s-0.002 0.003-0.003 0.004c-0 0-0.001 0.001-0.001 0.001s-0.001 0.002-0.002 0.003c-0 0.001-0.001 0.001-0.001 0.002s-0.001 0.002-0.001 0.002-0.001 0.001-0.001 0.002-0.001 0.002-0.001 0.002-0.001 0.002-0.002 0.003-0.001 0.002-0.002 0.002-0.001 0.002-0.001 0.002-0.001 0.001-0.001 0.002-0.001 0.002-0.002 0.002-0.001 0.001-0.001 0.002-0.001 0.002-0.002 0.003c-0 0-0 0-0 0-0.001 0.002-0.002 0.004-0.004 0.006-0 0-0.001 0.001-0.001 0.001s-0.001 0.002-0.002 0.003c-0 0-0 0.001-0.001 0.001-0.003 0.005-0.006 0.009-0.009 0.014-0 0-0 0-0 0.001s-0.001 0.002-0.002 0.003l-0 0c-0.050 0.081-0.102 0.161-0.154 0.239l-0.253-0.17c-0.165 0.257-0.345 0.503-0.538 0.737l0.208 0.175c-0.033 0.039-0.066 0.078-0.1 0.117l-0 0c-0.004 0.004-0.008 0.009-0.011 0.013-0 0-0 0-0 0.001s-0.002 0.002-0.003 0.003c-0 0-0 0-0 0-0.003 0.003-0.006 0.006-0.008 0.010l-0 0c-0.001 0.001-0.002 0.002-0.003 0.003s-0 0.001-0.001 0.001c-0.001 0.001-0.002 0.002-0.003 0.003l-0 0c-0.002 0.002-0.004 0.004-0.006 0.006v0c-0.001 0.001-0.002 0.002-0.002 0.003s-0.001 0.001-0.001 0.001-0.002 0.002-0.002 0.003c-0 0-0.001 0.001-0.001 0.001-0.002 0.003-0.005 0.005-0.007 0.008-0 0-0.001 0.001-0.001 0.001s-0.001 0.002-0.002 0.002c-0 0-0.001 0.001-0.001 0.001s-0.001 0.002-0.002 0.002c-0 0-0.001 0.001-0.001 0.001s-0.002 0.002-0.003 0.004c-0.001 0.001-0.001 0.001-0.002 0.002s-0.001 0.001-0.002 0.002-0.001 0.001-0.002 0.002-0.001 0.001-0.002 0.002-0.001 0.001-0.002 0.002-0.001 0.001-0.002 0.002-0.002 0.002-0.003 0.003c-0 0-0.001 0.001-0.001 0.001s-0.002 0.002-0.002 0.003c-0.001 0.001-0.001 0.001-0.001 0.002s-0.001 0.002-0.002 0.002c-0 0.001-0.001 0.001-0.001 0.002s-0.002 0.002-0.002 0.003c-0 0-0.001 0.001-0.001 0.001s-0.002 0.002-0.003 0.004c-0 0-0.001 0.001-0.001 0.001s-0.002 0.002-0.003 0.003c-0 0-0.001 0.001-0.001 0.001s-0.002 0.002-0.003 0.003c-0 0-0.001 0.001-0.001 0.001s-0.002 0.003-0.003 0.004v0c-0.001 0.001-0.002 0.003-0.003 0.004s-0.001 0.001-0.001 0.001c-0.001 0.001-0.002 0.002-0.003 0.003s-0.001 0.001-0.001 0.001c-0.001 0.001-0.002 0.002-0.003 0.003s-0 0-0.001 0.001c-0.001 0.001-0.002 0.003-0.004 0.004-0 0-0 0-0 0s-0.002 0.002-0.003 0.003c-0 0-0.001 0.001-0.001 0.001s-0.002 0.002-0.003 0.003c-0 0-0 0-0.001 0.001-0.003 0.003-0.005 0.005-0.007 0.008-0 0-0 0-0 0-0.001 0.001-0.002 0.002-0.003 0.004-0 0-0 0-0 0-0.004 0.004-0.007 0.008-0.011 0.012-0 0-0 0-0 0-0.001 0.001-0.002 0.002-0.004 0.004-0 0-0 0-0 0-0.134 0.144-0.273 0.282-0.418 0.415 1.318 1.151 3.043 1.848 4.93 1.848s3.612-0.697 4.93-1.848c-0.145-0.133-0.284-0.271-0.418-0.415zM3.153 12.264l-0.266-0.179c0.178-0.264 0.337-0.543 0.472-0.83l0.271 0.128c0.024-0.053 0.047-0.105 0.069-0.159 0.075-0.178 0.143-0.359 0.203-0.541l-0.283-0.098c0.104-0.3 0.186-0.61 0.243-0.923l0.282 0.052c0.041-0.236 0.070-0.475 0.087-0.716l-0.281-0.021c0.012-0.158 0.017-0.318 0.017-0.478s-0.005-0.32-0.017-0.478l0.281-0.021c-0.017-0.241-0.046-0.48-0.087-0.716l-0.282 0.052c-0.058-0.312-0.139-0.623-0.243-0.923l0.283-0.098c-0.060-0.183-0.127-0.363-0.203-0.542-0.023-0.053-0.046-0.106-0.070-0.159l-0.271 0.128c-0.136-0.287-0.295-0.566-0.472-0.83l0.266-0.179c-0.154-0.241-0.323-0.472-0.506-0.694l-0.27 0.228c-0.184-0.219-0.385-0.427-0.598-0.619-1.11 1.308-1.78 3-1.78 4.85s0.67 3.542 1.78 4.85c0.212-0.193 0.413-0.401 0.598-0.62l0.27 0.228c0.183-0.221 0.352-0.453 0.506-0.694zM13.22 3.65c-0.212 0.193-0.413 0.401-0.598 0.62l-0.27-0.228c-0.183 0.221-0.352 0.453-0.506 0.694l0.266 0.179c-0.178 0.264-0.337 0.543-0.472 0.83l-0.271-0.128c-0.024 0.053-0.047 0.105-0.069 0.159-0.075 0.178-0.143 0.359-0.203 0.542l0.283 0.098c-0.104 0.3-0.186 0.61-0.243 0.923l-0.282-0.052c-0.041 0.236-0.070 0.475-0.087 0.716l0.281 0.021c-0.012 0.158-0.017 0.318-0.017 0.478s0.005 0.32 0.017 0.478l-0.281 0.021c0.017 0.241 0.046 0.48 0.087 0.716l0.282-0.052c0.057 0.312 0.139 0.623 0.243 0.923l-0.283 0.098c0.060 0.183 0.127 0.363 0.203 0.541 0.023 0.053 0.046 0.106 0.069 0.159l0.271-0.128c0.136 0.287 0.295 0.566 0.472 0.83l-0.266 0.179c0.154 0.241 0.323 0.472 0.506 0.694l0.27-0.228c0.184 0.219 0.385 0.427 0.598 0.62 1.11-1.308 1.78-3 1.78-4.85s-0.67-3.542-1.78-4.85z"></path>
</svg>
