<?xml version="1.0" encoding="utf-8"?>
<!-- Generated by IcoMoon.io -->
<!DOCTYPE svg PUBLIC "-//W3C//DTD SVG 1.1//EN" "http://www.w3.org/Graphics/SVG/1.1/DTD/svg11.dtd">
<svg version="1.1" xmlns="http://www.w3.org/2000/svg" xmlns:xlink="http://www.w3.org/1999/xlink" width="17" height="16" viewBox="0 0 17 16">
<path fill="#000000" d="M16.5 7h-1v4h1c0.276 0 0.5-0.224 0.5-0.5v-3c0-0.276-0.224-0.5-0.5-0.5z"></path>
<path fill="#000000" d="M14 4h-3.622l-0.491 1h4.113v8h-5.774l-0.813 1h6.587c0.55 0 1-0.45 1-1v-8c0-0.55-0.45-1-1-1z"></path>
<path fill="#000000" d="M4.935 13h-3.935v-8h5.719l0.8-1h-6.519c-0.55 0-1 0.45-1 1v8c0 0.55 0.45 1 1 1h3.414l0.521-1z"></path>
<path fill="#000000" d="M11 8h-3.7l2.7-5.5-6 7.5h3.625l-3.125 6z"></path>
</svg>
