<?xml version="1.0" encoding="utf-8"?>
<!-- Generated by IcoMoon.io -->
<!DOCTYPE svg PUBLIC "-//W3C//DTD SVG 1.1//EN" "http://www.w3.org/Graphics/SVG/1.1/DTD/svg11.dtd">
<svg version="1.1" xmlns="http://www.w3.org/2000/svg" xmlns:xlink="http://www.w3.org/1999/xlink" width="16" height="16" viewBox="0 0 16 16">
<path fill="#000000" d="M15 5c-0.552 0-1 0.448-1 1v3h-10.5c-0.828 0-1.5-0.672-1.5-1.5v-4.5c0-0.552-0.448-1-1-1s-1 0.448-1 1v10h2v-2h12v2h2v-7c0-0.552-0.448-1-1-1z"></path>
<path fill="#000000" d="M5.5 6.75c0 0.966-0.784 1.75-1.75 1.75s-1.75-0.784-1.75-1.75c0-0.966 0.784-1.75 1.75-1.75s1.75 0.784 1.75 1.75z"></path>
<path fill="#000000" d="M12.5 6h-5c-0.828 0-1.5 0.672-1.5 1.5v1h8v-1c0-0.828-0.672-1.5-1.5-1.5z"></path>
</svg>
