<?xml version="1.0" encoding="utf-8"?>
<!-- Generated by IcoMoon.io -->
<!DOCTYPE svg PUBLIC "-//W3C//DTD SVG 1.1//EN" "http://www.w3.org/Graphics/SVG/1.1/DTD/svg11.dtd">
<svg version="1.1" xmlns="http://www.w3.org/2000/svg" xmlns:xlink="http://www.w3.org/1999/xlink" width="16" height="16" viewBox="0 0 16 16">
<path fill="#000000" d="M15 2.5c0-1.381-3.358-2.5-7.5-2.5s-7.5 1.119-7.5 2.5c0 0.098 0.017 0.194 0.050 0.288l1.943 11.212c0 1.105 2.464 2 5.504 2s5.504-0.895 5.504-2l1.95-11.21c0.033-0.095 0.050-0.192 0.050-0.29zM2.944 1.679c1.257-0.357 2.875-0.554 4.556-0.554s3.299 0.197 4.556 0.554c1.078 0.306 1.584 0.645 1.763 0.821-0.179 0.176-0.686 0.515-1.763 0.821-1.257 0.357-2.875 0.554-4.556 0.554s-3.299-0.197-4.556-0.554c-1.078-0.306-1.584-0.645-1.763-0.821 0.179-0.176 0.686-0.515 1.763-0.821z"></path>
</svg>
