<?xml version="1.0" encoding="utf-8"?>
<!-- Generated by IcoMoon.io -->
<!DOCTYPE svg PUBLIC "-//W3C//DTD SVG 1.1//EN" "http://www.w3.org/Graphics/SVG/1.1/DTD/svg11.dtd">
<svg version="1.1" xmlns="http://www.w3.org/2000/svg" xmlns:xlink="http://www.w3.org/1999/xlink" width="16" height="16" viewBox="0 0 16 16">
<path fill="#000000" d="M7.5 0c-4.142 0-7.5 1.119-7.5 2.5 0 0.098 0.017 0.194 0.050 0.288l1.943 11.212c0 1.105 2.464 2 5.504 2s5.504-0.895 5.504-2l1.95-11.21c0.033-0.095 0.050-0.192 0.050-0.29 0-1.381-3.358-2.5-7.5-2.5zM13.575 4.125h-0.376c0.143-0.056 0.278-0.113 0.406-0.173l-0.030 0.173zM11.492 12.625c-0.24-0.092-0.504-0.176-0.788-0.25h1.436l-0.043 0.25h-0.605zM2.896 12.625l-0.043-0.25h1.435c-0.284 0.074-0.548 0.158-0.788 0.25h-0.605zM9.414 12.125c-0.597-0.081-1.243-0.125-1.918-0.125s-1.32 0.044-1.918 0.125h-2.769l-0.043-0.25h9.461l-0.043 0.25h-2.77zM2.723 11.625l-0.043-0.25h9.635l-0.043 0.25h-9.548zM2.636 11.125l-0.043-0.25h9.808l-0.043 0.25h-9.722zM2.55 10.625l-0.043-0.25h9.982l-0.043 0.25h-9.895zM2.463 10.125l-0.043-0.25h10.156l-0.043 0.25h-10.069zM2.377 9.625l-0.043-0.25h10.329l-0.043 0.25h-10.242zM2.29 9.125l-0.043-0.25h10.503l-0.043 0.25h-10.416zM2.203 8.625l-0.043-0.25h10.676l-0.043 0.25h-10.59zM2.117 8.125l-0.043-0.25h10.85l-0.043 0.25h-10.763zM2.030 7.625l-0.043-0.25h11.024l-0.043 0.25h-10.937zM1.943 7.125l-0.043-0.25h11.197l-0.043 0.25h-11.111zM1.857 6.625l-0.043-0.25h11.371l-0.043 0.25h-11.284zM1.77 6.125l-0.043-0.25h11.544l-0.043 0.25h-11.458zM1.683 5.625l-0.043-0.25h11.718l-0.043 0.25h-11.631zM1.597 5.125l-0.043-0.25h3.601c0.738 0.081 1.526 0.125 2.346 0.125s1.608-0.044 2.346-0.125h3.599l-0.043 0.25h-11.805zM1.393 3.952c0.128 0.060 0.264 0.118 0.407 0.173h-0.377l-0.030-0.173zM2.54 4.375c0.314 0.092 0.651 0.176 1.009 0.25h-2.039l-0.043-0.25h1.073zM11.451 4.625c0.357-0.074 0.695-0.158 1.009-0.25h1.072l-0.043 0.25h-2.037zM2.944 1.679c1.257-0.357 2.875-0.554 4.556-0.554s3.299 0.197 4.556 0.554c1.078 0.306 1.584 0.645 1.763 0.821-0.179 0.176-0.686 0.515-1.763 0.821-1.257 0.357-2.875 0.554-4.556 0.554s-3.299-0.197-4.556-0.554c-1.078-0.306-1.584-0.645-1.763-0.821 0.179-0.176 0.686-0.515 1.763-0.821z"></path>
</svg>
