<?xml version="1.0" encoding="utf-8"?>
<!-- Generated by IcoMoon.io -->
<!DOCTYPE svg PUBLIC "-//W3C//DTD SVG 1.1//EN" "http://www.w3.org/Graphics/SVG/1.1/DTD/svg11.dtd">
<svg version="1.1" xmlns="http://www.w3.org/2000/svg" xmlns:xlink="http://www.w3.org/1999/xlink" width="16" height="16" viewBox="0 0 16 16">
<path fill="#000000" d="M16 1v0.414l-0.586 0.586 0.586 0.586v0.414h-1v1h-0.414l-0.586-0.586-0.586 0.586h-0.414v-1h-1v-0.012c-0.203-0.007-0.397-0.048-0.583-0.124-0.463-0.189-0.78-0.548-1.087-0.895-0.302-0.342-0.588-0.665-0.988-0.799-0.505-0.168-1.207-0.298-1.677 0.041-0.223 0.16-0.391 0.427-0.503 0.788h0.088c0.412 0 0.75 0.337 0.75 0.75v0.424c2.867 0.677 5 3.252 5 6.326 0 3.59-2.91 6.5-6.5 6.5s-6.5-2.91-6.5-6.5c0-3.074 2.133-5.649 5-6.326v-0.424c0-0.413 0.338-0.75 0.75-0.75h0.378c0.163-0.724 0.481-1.259 0.952-1.599 0.644-0.464 1.536-0.526 2.578-0.179 0.656 0.218 1.062 0.679 1.421 1.085 0.474 0.537 0.742 0.839 1.414 0.6l-0.494-0.494v-0.414h1v-1h0.414l0.586 0.586 0.586-0.586h0.414v1h1z"></path>
</svg>
