<?xml version="1.0" encoding="utf-8"?>
<!-- Generated by IcoMoon.io -->
<!DOCTYPE svg PUBLIC "-//W3C//DTD SVG 1.1//EN" "http://www.w3.org/Graphics/SVG/1.1/DTD/svg11.dtd">
<svg version="1.1" xmlns="http://www.w3.org/2000/svg" xmlns:xlink="http://www.w3.org/1999/xlink" width="16" height="16" viewBox="0 0 16 16">
<path fill="#000000" d="M6 5.5l5 3-5 3v-6z"></path>
<path fill="#000000" d="M8 15.231c-0.151 0-0.294-0.068-0.389-0.186-0.588-0.729-2.257-1.544-3.611-1.544-1.306 0-2.498 0.472-3.111 1.232-0.133 0.165-0.356 0.228-0.556 0.157s-0.334-0.26-0.334-0.471v-10.5c0-0.114 0.039-0.225 0.111-0.314 0.798-0.989 2.289-1.604 3.889-1.604 1.457 0 3.092 0.728 4 1.519 0.908-0.791 2.543-1.519 4-1.519 1.601 0 3.091 0.615 3.889 1.604 0.072 0.089 0.111 0.2 0.111 0.314v10.5c0 0.212-0.134 0.401-0.334 0.471s-0.423 0.007-0.556-0.157c-0.613-0.76-1.805-1.232-3.111-1.232-1.353 0-3.023 0.815-3.611 1.544-0.095 0.118-0.238 0.186-0.389 0.186zM4 12.5c1.457 0 3.092 0.728 4 1.519 0.908-0.791 2.543-1.519 4-1.519 1.121 0 2.187 0.301 3 0.822v-9.217c-0.639-0.685-1.769-1.104-3-1.104-1.353 0-3.023 0.815-3.611 1.545-0.095 0.118-0.238 0.186-0.389 0.186s-0.294-0.068-0.389-0.186c-0.588-0.729-2.258-1.545-3.611-1.545-1.231 0-2.361 0.42-3 1.104v9.217c0.813-0.52 1.879-0.822 3-0.822z"></path>
</svg>
