<?xml version="1.0" encoding="utf-8"?>
<!-- Generated by IcoMoon.io -->
<!DOCTYPE svg PUBLIC "-//W3C//DTD SVG 1.1//EN" "http://www.w3.org/Graphics/SVG/1.1/DTD/svg11.dtd">
<svg version="1.1" xmlns="http://www.w3.org/2000/svg" xmlns:xlink="http://www.w3.org/1999/xlink" width="16" height="16" viewBox="0 0 16 16">
<path fill="#000000" d="M12 4.5c0-0.827-0.673-1.5-1.5-1.5-0.276 0-0.5-0.224-0.5-0.5v-2c0-0.276-0.224-0.5-0.5-0.5h-3c-0.276 0-0.5 0.224-0.5 0.5v2c0 0.276-0.224 0.5-0.5 0.5-0.827 0-1.5 0.673-1.5 1.5v1c0 0.384 0.145 0.734 0.383 1-0.238 0.266-0.383 0.616-0.383 1v1c0 0.384 0.145 0.734 0.383 1-0.238 0.266-0.383 0.616-0.383 1v1c0 0.384 0.145 0.734 0.383 1-0.238 0.266-0.383 0.616-0.383 1v1c0 0.827 0.673 1.5 1.5 1.5h5c0.827 0 1.5-0.673 1.5-1.5v-1c0-0.384-0.145-0.734-0.383-1 0.238-0.266 0.383-0.616 0.383-1v-1c0-0.384-0.145-0.734-0.383-1 0.238-0.266 0.383-0.616 0.383-1v-1c0-0.384-0.145-0.734-0.383-1 0.238-0.266 0.383-0.616 0.383-1v-1zM11 5.5c0 0.276-0.224 0.5-0.5 0.5s-0.5 0.224-0.5 0.5 0.224 0.5 0.5 0.5c0.276 0 0.5 0.224 0.5 0.5v1c0 0.276-0.224 0.5-0.5 0.5s-0.5 0.224-0.5 0.5 0.224 0.5 0.5 0.5c0.276 0 0.5 0.224 0.5 0.5v1c0 0.276-0.224 0.5-0.5 0.5s-0.5 0.224-0.5 0.5 0.224 0.5 0.5 0.5c0.276 0 0.5 0.224 0.5 0.5v1c0 0.276-0.224 0.5-0.5 0.5h-5c-0.276 0-0.5-0.224-0.5-0.5v-1c0-0.276 0.224-0.5 0.5-0.5s0.5-0.224 0.5-0.5-0.224-0.5-0.5-0.5c-0.276 0-0.5-0.224-0.5-0.5v-1c0-0.276 0.224-0.5 0.5-0.5s0.5-0.224 0.5-0.5-0.224-0.5-0.5-0.5c-0.276 0-0.5-0.224-0.5-0.5v-1c0-0.276 0.224-0.5 0.5-0.5s0.5-0.224 0.5-0.5-0.224-0.5-0.5-0.5c-0.276 0-0.5-0.224-0.5-0.5v-1c0-0.276 0.224-0.5 0.5-0.5 0.827 0 1.5-0.673 1.5-1.5v-0.5h2v0.5c0 0.827 0.673 1.5 1.5 1.5 0.276 0 0.5 0.224 0.5 0.5v1z"></path>
</svg>
