<?xml version="1.0" encoding="utf-8"?>
<!-- Generated by IcoMoon.io -->
<!DOCTYPE svg PUBLIC "-//W3C//DTD SVG 1.1//EN" "http://www.w3.org/Graphics/SVG/1.1/DTD/svg11.dtd">
<svg version="1.1" xmlns="http://www.w3.org/2000/svg" xmlns:xlink="http://www.w3.org/1999/xlink" width="16" height="16" viewBox="0 0 16 16">
<path fill="#000000" d="M9 5v-4h0.25c0.137 0 0.25-0.113 0.25-0.25v-0.5c0-0.138-0.113-0.25-0.25-0.25h-2.5c-0.138 0-0.25 0.113-0.25 0.25v0.5c0 0.137 0.112 0.25 0.25 0.25h0.25v4c0 1.588-2 2-2 3.508v6.992c0 0.276 0.224 0.5 0.5 0.5h5c0.276 0 0.5-0.224 0.5-0.5v-6.992c0-1.508-2-1.92-2-3.508zM10 14.745c-0.531 0.158-1.232 0.255-2 0.255s-1.469-0.096-2-0.255v-5c0.531 0.158 1.232 0.255 2 0.255s1.469-0.096 2-0.255v5z"></path>
</svg>
