<?xml version="1.0" encoding="utf-8"?>
<!-- Generated by IcoMoon.io -->
<!DOCTYPE svg PUBLIC "-//W3C//DTD SVG 1.1//EN" "http://www.w3.org/Graphics/SVG/1.1/DTD/svg11.dtd">
<svg version="1.1" xmlns="http://www.w3.org/2000/svg" xmlns:xlink="http://www.w3.org/1999/xlink" width="16" height="16" viewBox="0 0 16 16">
<path fill="#000000" d="M15.853 0.854c0.091-0.091 0.147-0.216 0.147-0.354 0-0.276-0.224-0.5-0.5-0.5-2.356 0-4.47 0.275-6.284 0.818-1.94 0.58-3.598 1.484-4.926 2.686-0.014 0.012-0.027 0.025-0.041 0.037l-2.542-2.542h0.793c0.276 0 0.5-0.224 0.5-0.5s-0.224-0.5-0.5-0.5h-2.5v2.5c0 0.276 0.224 0.5 0.5 0.5s0.5-0.224 0.5-0.5v-0.793l2.542 2.542c-1.038 1.139-1.854 2.512-2.434 4.095-0.736 2.011-1.109 4.418-1.109 7.156 0 0.276 0.224 0.5 0.5 0.5 0.138 0 0.263-0.056 0.354-0.147l7.146-7.146 3 3v2l2 2v-2.707h2.707l-2-2h-2l-3-3 7.146-7.146zM10.204 2.242c1.336-0.624 2.682-1.015 4.015-1.168l-6.219 6.219-2.1-2.1c1.295-1.222 2.774-2.237 4.304-2.951zM1.074 14.219c0.153-1.333 0.544-2.679 1.168-4.015 0.714-1.53 1.729-3.008 2.951-4.304l2.1 2.1-6.219 6.219z"></path>
</svg>
