<?xml version="1.0" encoding="utf-8"?>
<!-- Generated by IcoMoon.io -->
<!DOCTYPE svg PUBLIC "-//W3C//DTD SVG 1.1//EN" "http://www.w3.org/Graphics/SVG/1.1/DTD/svg11.dtd">
<svg version="1.1" xmlns="http://www.w3.org/2000/svg" xmlns:xlink="http://www.w3.org/1999/xlink" width="16" height="16" viewBox="0 0 16 16">
<path fill="#000000" d="M14.373 6.654c-0.328-0.693-0.668-1.41-0.668-2.32 0-0.362 0.055-0.782 0.113-1.228 0.132-1.012 0.268-2.059-0.245-2.663-0.165-0.195-0.382-0.326-0.646-0.392v-0.051h-0.383c-0.010 0-0.019 0-0.029 0.001h-0c-0.009-0-0.019-0.001-0.029-0.001l-0.383 0.001v0.050c-0.264 0.066-0.481 0.198-0.646 0.392-0.513 0.604-0.377 1.651-0.245 2.663 0.058 0.445 0.113 0.866 0.113 1.228 0 0.91-0.339 1.627-0.668 2.32-0.272 0.574-0.551 1.164-0.633 1.849-0.121-0.308-0.262-0.605-0.401-0.898-0.375-0.792-0.763-1.611-0.763-2.651 0-0.413 0.063-0.894 0.129-1.403 0.151-1.157 0.306-2.354-0.28-3.043-0.189-0.222-0.436-0.372-0.739-0.448v-0.058h-0.438c-0.011 0-0.022 0-0.033 0.001h-0c-0.011-0-0.022-0.001-0.033-0.001l-0.438 0.001v0.057c-0.302 0.076-0.55 0.226-0.739 0.448-0.586 0.69-0.43 1.886-0.28 3.043 0.066 0.509 0.129 0.99 0.129 1.403 0 1.040-0.388 1.859-0.763 2.651-0.13 0.275-0.262 0.552-0.378 0.84-0.090-0.66-0.362-1.233-0.626-1.791-0.328-0.693-0.668-1.41-0.668-2.32 0-0.362 0.055-0.782 0.113-1.228 0.132-1.012 0.268-2.059-0.245-2.663-0.165-0.195-0.382-0.326-0.646-0.392v-0.051h-0.383c-0.010 0-0.019 0-0.029 0.001h-0c-0.010-0-0.019-0.001-0.029-0.001l-0.383 0.001v0.050c-0.264 0.066-0.481 0.198-0.646 0.392-0.513 0.604-0.377 1.651-0.245 2.663 0.058 0.445 0.113 0.866 0.113 1.228 0 0.91-0.339 1.627-0.668 2.32-0.323 0.682-0.657 1.388-0.657 2.247 0 1.666 0.705 3.824 0.895 4.254 0.183 0.416 0.645 0.714 1.224 0.811v0.034h0.383c0.004 0 0.009-0 0.013-0s0.009 0 0.013 0l0.383-0.001v-0.033c0.579-0.096 1.041-0.395 1.224-0.811 0.102-0.233 0.355-0.97 0.566-1.861 0.207 1.643 0.77 3.341 0.946 3.74 0.209 0.475 0.737 0.817 1.399 0.927v0.039h0.438c0.005 0 0.010-0 0.015-0s0.010 0 0.015 0l0.438-0.001v-0.038c0.662-0.11 1.19-0.451 1.399-0.927 0.179-0.406 0.759-2.157 0.956-3.827 0.215 0.93 0.481 1.707 0.587 1.947 0.183 0.416 0.645 0.714 1.224 0.811v0.034h0.383c0.004 0 0.009-0 0.013-0s0.009 0 0.013 0l0.383-0.001v-0.033c0.58-0.096 1.041-0.395 1.224-0.811 0.19-0.431 0.895-2.589 0.895-4.254 0-0.859-0.334-1.565-0.658-2.247zM6.958 1.073c0.068-0.079 0.195-0.186 0.524-0.197l0.014-0 0.005 0 0.004-0 0.015 0c0.328 0.011 0.456 0.118 0.524 0.197 0.283 0.333 0.23 1.131 0.134 1.927h-1.354c-0.096-0.796-0.149-1.594 0.134-1.927zM7.986 5h-0.971c0-0.016 0.001-0.031 0.001-0.047 0-0.3-0.028-0.624-0.066-0.953h1.102c-0.038 0.329-0.066 0.654-0.066 0.953-0 0.016 0 0.031 0.001 0.047zM8.551 14.682c-0.092 0.209-0.488 0.435-1.042 0.442l-0.010 0-0.010-0c-0.553-0.007-0.95-0.233-1.042-0.442-0.193-0.439-0.949-2.77-0.949-4.509 0-0.785 0.324-1.469 0.667-2.194 0.277-0.585 0.58-1.225 0.738-1.979h1.189c0.158 0.754 0.461 1.394 0.738 1.979 0.343 0.724 0.667 1.409 0.667 2.194 0 1.739-0.756 4.071-0.949 4.509z"></path>
</svg>
