<?xml version="1.0" encoding="utf-8"?>
<!-- Generated by IcoMoon.io -->
<!DOCTYPE svg PUBLIC "-//W3C//DTD SVG 1.1//EN" "http://www.w3.org/Graphics/SVG/1.1/DTD/svg11.dtd">
<svg version="1.1" xmlns="http://www.w3.org/2000/svg" xmlns:xlink="http://www.w3.org/1999/xlink" width="16" height="16" viewBox="0 0 16 16">
<path fill="#000000" d="M3.414 10h3.586v-1h2v1h3.586l3.414-3.414v-1.586c0-0.55-0.45-1-1-1h-3l-2-2h-4l-2 2h-3c-0.55 0-1 0.45-1 1v1.586l3.414 3.414zM6.414 3h3.172l1 1h-5.172l1-1zM13 11h-4v1h-2v-1h-4l-3-3v6c0 0.55 0.45 1 1 1h14c0.55 0 1-0.45 1-1v-6l-3 3z"></path>
</svg>
