<?xml version="1.0" encoding="utf-8"?>
<!-- Generated by IcoMoon.io -->
<!DOCTYPE svg PUBLIC "-//W3C//DTD SVG 1.1//EN" "http://www.w3.org/Graphics/SVG/1.1/DTD/svg11.dtd">
<svg version="1.1" xmlns="http://www.w3.org/2000/svg" xmlns:xlink="http://www.w3.org/1999/xlink" width="16" height="16" viewBox="0 0 16 16">
<path fill="#000000" d="M8 6.594c-0.775 0-1.406 0.631-1.406 1.406s0.631 1.406 1.406 1.406c0.775 0 1.406-0.631 1.406-1.406s-0.631-1.406-1.406-1.406zM8 5v0c1.657 0 3 1.343 3 3s-1.343 3-3 3c-1.657 0-3-1.343-3-3s1.343-3 3-3zM14.707 13.293c0.391 0.391 0.391 1.024 0 1.414s-1.024 0.391-1.414 0l-2-2c-0.391-0.391-0.391-1.024 0-1.414s1.024-0.391 1.414 0l2 2zM4.707 3.293c0.391 0.391 0.391 1.024 0 1.414s-1.024 0.391-1.414 0l-2-2c-0.391-0.391-0.391-1.024 0-1.414s1.024-0.391 1.414 0l2 2zM13.293 1.293c0.391-0.391 1.024-0.391 1.414 0s0.391 1.024 0 1.414l-2 2c-0.391 0.391-1.024 0.391-1.414 0s-0.391-1.024 0-1.414l2-2zM3.293 11.293c0.391-0.391 1.024-0.391 1.414 0s0.391 1.024 0 1.414l-2 2c-0.391 0.391-1.024 0.391-1.414 0s-0.391-1.024 0-1.414l2-2zM8 0c0.552 0 1 0.448 1 1v2c0 0.552-0.448 1-1 1s-1-0.448-1-1v-2c0-0.552 0.448-1 1-1zM8 12c0.552 0 1 0.448 1 1v2c0 0.552-0.448 1-1 1s-1-0.448-1-1v-2c0-0.552 0.448-1 1-1zM0 8c0-0.552 0.448-1 1-1h2c0.552 0 1 0.448 1 1s-0.448 1-1 1h-2c-0.552 0-1-0.448-1-1zM12 8c0-0.552 0.448-1 1-1h2c0.552 0 1 0.448 1 1s-0.448 1-1 1h-2c-0.552 0-1-0.448-1-1z"></path>
</svg>
