<?xml version="1.0" encoding="utf-8"?>
<!-- Generated by IcoMoon.io -->
<!DOCTYPE svg PUBLIC "-//W3C//DTD SVG 1.1//EN" "http://www.w3.org/Graphics/SVG/1.1/DTD/svg11.dtd">
<svg version="1.1" xmlns="http://www.w3.org/2000/svg" xmlns:xlink="http://www.w3.org/1999/xlink" width="16" height="16" viewBox="0 0 16 16">
<path fill="#000000" d="M15.707 0.293c-0.39-0.391-1.024-0.391-1.414 0l-3.75 3.75-1.043-1.043-2 1.738-7.101 2.161c-0.237 0.072-0.399 0.291-0.399 0.538v0.5c0 2.154 0.839 4.178 2.361 5.701s3.547 2.361 5.701 2.361h0.5c0.248 0 0.466-0.162 0.538-0.399l2.161-7.101 1.738-2-1.043-1.043 3.75-3.75c0.391-0.391 0.391-1.024 0-1.414zM8.146 14.875h-0.083c-0.832 0-1.641-0.146-2.398-0.424l2.336-5.451-3.876 4.651c-0.343-0.237-0.667-0.507-0.967-0.808s-0.57-0.625-0.808-0.967l4.651-3.876-5.451 2.336c-0.279-0.758-0.424-1.567-0.424-2.398v-0.083l7.277-2.215 1.959 1.959-2.215 7.277z"></path>
</svg>
