<?xml version="1.0" encoding="utf-8"?>
<!-- Generated by IcoMoon.io -->
<!DOCTYPE svg PUBLIC "-//W3C//DTD SVG 1.1//EN" "http://www.w3.org/Graphics/SVG/1.1/DTD/svg11.dtd">
<svg version="1.1" xmlns="http://www.w3.org/2000/svg" xmlns:xlink="http://www.w3.org/1999/xlink" width="16" height="16" viewBox="0 0 16 16">
<path fill="#000000" d="M8 3.188c0.561 0 1.084 0.165 1.523 0.449l-3.887 3.887c-0.284-0.439-0.449-0.962-0.449-1.523 0-1.551 1.262-2.813 2.813-2.813zM6.477 8.363l3.887-3.887c0.284 0.439 0.449 0.962 0.449 1.523 0 1.551-1.262 2.812-2.813 2.812-0.561 0-1.084-0.165-1.523-0.449zM14.5 0h-13c-0.825 0-1.5 0.675-1.5 1.5v9c0 0.825 0.675 1.5 1.5 1.5h2.5v4l4.8-4h5.7c0.825 0 1.5-0.675 1.5-1.5v-9c0-0.825-0.675-1.5-1.5-1.5zM8 10c-2.209 0-4-1.791-4-4s1.791-4 4-4 4 1.791 4 4-1.791 4-4 4z"></path>
</svg>
