<?xml version="1.0" encoding="utf-8"?>
<!-- Generated by IcoMoon.io -->
<!DOCTYPE svg PUBLIC "-//W3C//DTD SVG 1.1//EN" "http://www.w3.org/Graphics/SVG/1.1/DTD/svg11.dtd">
<svg version="1.1" xmlns="http://www.w3.org/2000/svg" xmlns:xlink="http://www.w3.org/1999/xlink" width="16" height="16" viewBox="0 0 16 16">
<path fill="#000000" d="M13.063 1h-10.125c-1.616 0-2.938 1.322-2.938 2.938v11.063l3-3h10.063c1.616 0 2.938-1.322 2.938-2.938v-5.125c0-1.616-1.322-2.938-2.938-2.938zM14 3.938v0.188h-12v-0.188c0-0.021 0.001-0.042 0.002-0.063h11.995c0.001 0.021 0.002 0.042 0.002 0.063zM13.998 9.125h-11.998v-0.25h12v0.188c0 0.021-0.001 0.042-0.002 0.063zM2 10v-0.125h11.522c-0.137 0.079-0.294 0.125-0.46 0.125h-11.063zM2 9.625v-0.25h11.944c-0.033 0.090-0.080 0.174-0.138 0.25h-11.806zM2 8.625v-0.25h12v0.25h-12zM2 8.125v-0.25h12v0.25h-12zM2 7.625v-0.25h12v0.25h-12zM2 7.125v-0.25h12v0.25h-12zM2 6.625v-0.25h12v0.25h-12zM2 6.125v-0.25h12v0.25h-12zM2 5.625v-0.25h12v0.25h-12zM2 5.125v-0.25h12v0.25h-12zM2 4.625v-0.25h12v0.25h-12zM13.063 3c0.166 0 0.323 0.046 0.46 0.125h-11.044c0.137-0.079 0.294-0.125 0.46-0.125h10.125zM13.806 3.375c0.058 0.076 0.105 0.16 0.138 0.25h-11.888c0.033-0.090 0.080-0.174 0.138-0.25h11.613z"></path>
</svg>
