<?xml version="1.0" encoding="utf-8"?>
<!-- Generated by IcoMoon.io -->
<!DOCTYPE svg PUBLIC "-//W3C//DTD SVG 1.1//EN" "http://www.w3.org/Graphics/SVG/1.1/DTD/svg11.dtd">
<svg version="1.1" xmlns="http://www.w3.org/2000/svg" xmlns:xlink="http://www.w3.org/1999/xlink" width="16" height="16" viewBox="0 0 16 16">
<path fill="#000000" d="M14.5 0h-13c-0.825 0-1.5 0.675-1.5 1.5v9c0 0.825 0.675 1.5 1.5 1.5h2.5v4l4.8-4h5.7c0.825 0 1.5-0.675 1.5-1.5v-9c0-0.825-0.675-1.5-1.5-1.5zM7 9h-3c-1.1 0-2-0.9-2-2v-1c0-1.1 0.9-2 2-2h3v1h-3c-0.265 0-0.515 0.105-0.705 0.295s-0.295 0.441-0.295 0.705v1c0 0.265 0.105 0.515 0.295 0.705s0.441 0.295 0.705 0.295h3v1zM6 7v-1h4v1h-4zM14 7c0 1.1-0.9 2-2 2h-3v-1h3c0.265 0 0.515-0.105 0.705-0.295s0.295-0.441 0.295-0.705v-1c0-0.265-0.105-0.515-0.295-0.705s-0.44-0.295-0.705-0.295h-3v-1h3c1.1 0 2 0.9 2 2v1z"></path>
</svg>
