<?xml version="1.0" encoding="utf-8"?>
<!-- Generated by IcoMoon.io -->
<!DOCTYPE svg PUBLIC "-//W3C//DTD SVG 1.1//EN" "http://www.w3.org/Graphics/SVG/1.1/DTD/svg11.dtd">
<svg version="1.1" xmlns="http://www.w3.org/2000/svg" xmlns:xlink="http://www.w3.org/1999/xlink" width="16" height="16" viewBox="0 0 16 16">
<path fill="#000000" d="M14.5 5h-0.5v-1.5c0-0.828-0.672-1.5-1.5-1.5s-1.5 0.672-1.5 1.5v3c0 0.271-0.229 0.5-0.5 0.5h-1.5v-5.5c0-0.828-0.672-1.5-1.5-1.5s-1.5 0.672-1.5 1.5v1.5h-0.5c-0.276 0-0.5 0.224-0.5 0.5s0.224 0.5 0.5 0.5h0.5v5h-1.5c-0.271 0-0.5-0.229-0.5-0.5v-1c0-0.828-0.672-1.5-1.5-1.5s-1.5 0.672-1.5 1.5v1c0 1.93 1.57 3.5 3.5 3.5h1.5v4h3v-3h0.5c0.276 0 0.5-0.224 0.5-0.5s-0.224-0.5-0.5-0.5h-0.5v-2h1.5c1.93 0 3.5-1.57 3.5-3.5v-0.5h0.5c0.276 0 0.5-0.224 0.5-0.5s-0.224-0.5-0.5-0.5z"></path>
</svg>
