<?xml version="1.0" encoding="utf-8"?>
<!-- Generated by IcoMoon.io -->
<!DOCTYPE svg PUBLIC "-//W3C//DTD SVG 1.1//EN" "http://www.w3.org/Graphics/SVG/1.1/DTD/svg11.dtd">
<svg version="1.1" xmlns="http://www.w3.org/2000/svg" xmlns:xlink="http://www.w3.org/1999/xlink" width="16" height="16" viewBox="0 0 16 16">
<path fill="#000000" d="M9 5.019v-1.519c0-0.275-0.225-0.5-0.5-0.5h-1c-0.275 0-0.5 0.225-0.5 0.5v1.519c-3.946 0.154-7 1.206-7 2.481v6c0 1.381 3.582 2.5 8 2.5s8-1.119 8-2.5v-6c0-1.275-3.054-2.327-7-2.481zM1.672 7.275c0.379-0.199 0.898-0.388 1.501-0.545 1.085-0.283 2.417-0.463 3.827-0.522v1.292c0 0.275 0.225 0.5 0.5 0.5h1c0.275 0 0.5-0.225 0.5-0.5v-1.292c1.41 0.058 2.741 0.238 3.827 0.522 0.603 0.157 1.122 0.346 1.501 0.545 0.167 0.088 0.283 0.165 0.362 0.225-0.079 0.061-0.195 0.137-0.362 0.225-0.379 0.199-0.898 0.388-1.501 0.545-1.339 0.35-3.053 0.542-4.827 0.542s-3.488-0.193-4.827-0.542c-0.603-0.157-1.122-0.346-1.501-0.545-0.167-0.088-0.283-0.165-0.362-0.225 0.079-0.061 0.195-0.137 0.362-0.225zM15 11.93c-1.365 0.769-3.988 1.289-7 1.289s-5.635-0.52-7-1.289v-1.406c1.365 0.769 3.988 1.289 7 1.289s5.635-0.52 7-1.289v1.406zM8 2.5c-0.552 0-1-0.448-1-1 0-0.020 0.001-0.039 0.002-0.058 0.038-0.961 0.998-1.442 0.998-1.442s0.96 0.481 0.998 1.442c0.001 0.019 0.002 0.039 0.002 0.058 0 0.552-0.448 1-1 1z"></path>
</svg>
