<?xml version="1.0" encoding="utf-8"?>
<!-- Generated by IcoMoon.io -->
<!DOCTYPE svg PUBLIC "-//W3C//DTD SVG 1.1//EN" "http://www.w3.org/Graphics/SVG/1.1/DTD/svg11.dtd">
<svg version="1.1" xmlns="http://www.w3.org/2000/svg" xmlns:xlink="http://www.w3.org/1999/xlink" width="16" height="16" viewBox="0 0 16 16">
<path fill="#000000" d="M12 0h-8c-0.55 0-1 0.45-1 1v14c0 0.55 0.45 1 1 1h8c0.55 0 1-0.45 1-1v-14c0-0.55-0.45-1-1-1zM6 15h-2v-2h2v2zM6 12h-2v-2h2v2zM6 9h-2v-2h2v2zM9 15h-2v-2h2v2zM9 12h-2v-2h2v2zM9 9h-2v-2h2v2zM12 15h-2v-2h2v2zM12 12h-2v-2h2v2zM12 9h-2v-2h2v2zM12 6h-8v-5h8v5z"></path>
</svg>
