<?xml version="1.0" encoding="utf-8"?>
<!-- Generated by IcoMoon.io -->
<!DOCTYPE svg PUBLIC "-//W3C//DTD SVG 1.1//EN" "http://www.w3.org/Graphics/SVG/1.1/DTD/svg11.dtd">
<svg version="1.1" xmlns="http://www.w3.org/2000/svg" xmlns:xlink="http://www.w3.org/1999/xlink" width="16" height="16" viewBox="0 0 16 16">
<path fill="#000000" d="M13 3h-1v2h-3v-2h-3v2h-3v-2h-1c-0.55 0-1 0.45-1 1v11c0 0.55 0.45 1 1 1h11c0.55 0 1-0.45 1-1v-11c0-0.55-0.45-1-1-1zM4 15h-1.998c-0.001-0.001-0.001-0.001-0.002-0.002v-1.998h2v2zM4 12h-2v-2h2v2zM4 9h-2v-2h2v2zM7 15h-2v-2h2v2zM7 12h-2v-2h2v2zM7 9h-2v-2h2v2zM10 15h-2v-2h2v2zM10 12h-2v-2h2v2zM10 9h-2v-2h2v2zM13 14.998c-0.001 0.001-0.001 0.001-0.002 0.002h-1.998v-2h2v1.998zM13 12h-2v-2h2v2zM13 9h-2v-2h2v2zM5 2c0-0.276-0.224-0.5-0.5-0.5s-0.5 0.224-0.5 0.5v2h1v-2zM11 2c0-0.276-0.224-0.5-0.5-0.5s-0.5 0.224-0.5 0.5v2h1v-2z"></path>
</svg>
