<?xml version="1.0" encoding="utf-8"?>
<!-- Generated by IcoMoon.io -->
<!DOCTYPE svg PUBLIC "-//W3C//DTD SVG 1.1//EN" "http://www.w3.org/Graphics/SVG/1.1/DTD/svg11.dtd">
<svg version="1.1" xmlns="http://www.w3.org/2000/svg" xmlns:xlink="http://www.w3.org/1999/xlink" width="16" height="16" viewBox="0 0 16 16">
<path fill="#000000" d="M15 8h-1c0-0.082-0.010-0.163-0.030-0.243l-1-4c-0.111-0.445-0.511-0.757-0.97-0.757h-8c-0.459 0-0.859 0.312-0.97 0.757l-1 4c-0.020 0.079-0.030 0.161-0.030 0.243h-1c-0.552 0-1 0.448-1 1v4c0 0.552 0.448 1 1 1h1v1c0 0.552 0.448 1 1 1s1-0.448 1-1v-1h8v1c0 0.552 0.448 1 1 1s1-0.448 1-1v-1h1c0.552 0 1-0.448 1-1v-4c0-0.552-0.448-1-1-1zM3 12c-0.552 0-1-0.448-1-1s0.448-1 1-1 1 0.448 1 1-0.448 1-1 1zM4.031 8l0.75-3h6.438l0.75 3h-7.938zM13 12c-0.552 0-1-0.448-1-1s0.448-1 1-1 1 0.448 1 1-0.448 1-1 1z"></path>
<path fill="#000000" d="M10.5 2l-0.515-1.621c-0.056-0.223-0.256-0.379-0.485-0.379h-3c-0.229 0-0.429 0.156-0.485 0.379l-0.515 1.621h5z"></path>
</svg>
