<?xml version="1.0" encoding="utf-8"?>
<!-- Generated by IcoMoon.io -->
<!DOCTYPE svg PUBLIC "-//W3C//DTD SVG 1.1//EN" "http://www.w3.org/Graphics/SVG/1.1/DTD/svg11.dtd">
<svg version="1.1" xmlns="http://www.w3.org/2000/svg" xmlns:xlink="http://www.w3.org/1999/xlink" width="16" height="16" viewBox="0 0 16 16">
<path fill="#000000" d="M15.275 3.038c-0.531-0.152-1.085 0.156-1.236 0.687l-0.078 0.275h-9.327l-0.141-1.124c-0.063-0.5-0.488-0.876-0.992-0.876h-2.5c-0.552 0-1 0.448-1 1s0.448 1 1 1h1.617l0.89 7.124c0.063 0.5 0.488 0.876 0.992 0.876h8.5c0.446 0 0.839-0.296 0.962-0.725l2-7c0.152-0.531-0.156-1.085-0.687-1.236zM8 8v-1h2v1h-2zM10 9v1h-2v-1h2zM8 6v-1h2v1h-2zM4.758 5h2.242v1h-2.117l-0.125-1zM5.008 7h1.992v1h-1.867l-0.125-1zM5.258 9h1.742v1h-1.617l-0.125-1zM12.246 10h-1.246v-1h1.531l-0.286 1zM12.817 8h-1.817v-1h2.103l-0.286 1zM13.389 6h-2.389v-1h2.674l-0.286 1zM4 14.5c0-0.828 0.672-1.5 1.5-1.5s1.5 0.672 1.5 1.5c0 0.828-0.672 1.5-1.5 1.5s-1.5-0.672-1.5-1.5zM10 14.5c0-0.828 0.672-1.5 1.5-1.5s1.5 0.672 1.5 1.5c0 0.828-0.672 1.5-1.5 1.5s-1.5-0.672-1.5-1.5z"></path>
</svg>
