<?xml version="1.0" encoding="utf-8"?>
<!-- Generated by IcoMoon.io -->
<!DOCTYPE svg PUBLIC "-//W3C//DTD SVG 1.1//EN" "http://www.w3.org/Graphics/SVG/1.1/DTD/svg11.dtd">
<svg version="1.1" xmlns="http://www.w3.org/2000/svg" xmlns:xlink="http://www.w3.org/1999/xlink" width="16" height="16" viewBox="0 0 16 16">
<path fill="#000000" d="M14.5 0h-13c-0.825 0-1.5 0.675-1.5 1.5v13c0 0.825 0.675 1.5 1.5 1.5h13c0.825 0 1.5-0.675 1.5-1.5v-13c0-0.825-0.675-1.5-1.5-1.5zM14 14h-12v-12h12v12zM5 12h6c0.55 0 1-0.45 1-1v-6c0-0.55-0.45-1-1-1h-6c-0.55 0-1 0.45-1 1v6c0 0.55 0.45 1 1 1zM5 10.875h6v0.123c-0.001 0.001-0.001 0.001-0.002 0.002h-5.996c-0.001-0.001-0.001-0.001-0.002-0.002v-0.123zM5.002 5h5.996c0.001 0.001 0.001 0.001 0.002 0.002v0.123h-6v-0.123c0.001-0.001 0.001-0.001 0.002-0.002zM11 5.375v0.25h-6v-0.25h6zM11 5.875v0.25h-6v-0.25h6zM11 6.375v0.25h-6v-0.25h6zM11 6.875v0.25h-6v-0.25h6zM11 7.375v0.25h-6v-0.25h6zM11 7.875v0.25h-6v-0.25h6zM11 8.375v0.25h-6v-0.25h6zM11 8.875v0.25h-6v-0.25h6zM11 9.375v0.25h-6v-0.25h6zM11 9.875v0.25h-6v-0.25h6zM11 10.375v0.25h-6v-0.25h6z"></path>
</svg>
