<?xml version="1.0" encoding="utf-8"?>
<!-- Generated by IcoMoon.io -->
<!DOCTYPE svg PUBLIC "-//W3C//DTD SVG 1.1//EN" "http://www.w3.org/Graphics/SVG/1.1/DTD/svg11.dtd">
<svg version="1.1" xmlns="http://www.w3.org/2000/svg" xmlns:xlink="http://www.w3.org/1999/xlink" width="16" height="16" viewBox="0 0 16 16">
<path fill="#000000" d="M13 6c-1.111 0-2.080 0.604-2.599 1.501-1.043-0.305-2.026-0.688-2.939-1.149-1.219-0.616-2.317-1.369-3.264-2.238-1.212-1.113-1.939-2.219-2.198-2.728v-0.385c0-0.552-0.448-1-1-1s-1 0.448-1 1 0.448 1 1 1c0.006 0 0.013-0 0.019-0 0.117 1.618 0.765 3.819 1.719 5.781 0.587 1.208 1.248 2.255 1.965 3.11 0.026 0.031 0.051 0.061 0.077 0.091-0.484 0.533-0.78 1.241-0.78 2.018 0 1.657 1.343 3 3 3s3-1.343 3-3-1.343-3-3-3c-0.52 0-1.009 0.132-1.435 0.365-0.689-0.796-1.342-1.816-1.928-3.021-0.599-1.233-1.077-2.59-1.359-3.797 0.325 0.391 0.722 0.82 1.2 1.263 1.015 0.94 2.191 1.752 3.497 2.416 0.958 0.486 1.987 0.892 3.077 1.215-0.034 0.181-0.052 0.368-0.052 0.56 0 1.657 1.343 3 3 3s3-1.343 3-3-1.343-3-3-3z"></path>
</svg>
