<?xml version="1.0" encoding="utf-8"?>
<!-- Generated by IcoMoon.io -->
<!DOCTYPE svg PUBLIC "-//W3C//DTD SVG 1.1//EN" "http://www.w3.org/Graphics/SVG/1.1/DTD/svg11.dtd">
<svg version="1.1" xmlns="http://www.w3.org/2000/svg" xmlns:xlink="http://www.w3.org/1999/xlink" width="16" height="16" viewBox="0 0 16 16">
<path fill="#000000" d="M15.22 4.148c-0.527-0.527-1.252-0.78-2.055-0.78-1.076 0-2.294 0.455-3.368 1.314-0.254-0.778-0.726-1.367-1.297-1.588v-1.095h1.5v-1h-1.5v-1h-1v1h-1.5v1h1.5v1.095c-0.571 0.22-1.043 0.809-1.297 1.588-1.074-0.859-2.291-1.314-3.368-1.314-0.803 0-1.527 0.253-2.055 0.78-1.367 1.367-0.892 4.058 1.061 6.010 0.365 0.365 0.756 0.678 1.159 0.937v1.465c1.37 0.275 3.108 0.439 5 0.439s3.63-0.164 5-0.439v-1.465c0.403-0.259 0.794-0.572 1.159-0.937 1.953-1.953 2.427-4.644 1.061-6.010zM2.548 5.916c0.017-0.011 0.107-0.048 0.287-0.048h0c0.498 0 1.369 0.29 2.188 1.109 0.54 0.54 0.927 1.193 1.061 1.791 0.096 0.427 0.024 0.648-0 0.683-0.017 0.011-0.107 0.048-0.287 0.048-0.498 0-1.369-0.29-2.188-1.109-0.54-0.54-0.927-1.193-1.061-1.792-0.096-0.427-0.024-0.648 0-0.683zM13.452 6.6c-0.134 0.598-0.521 1.251-1.061 1.791-0.819 0.819-1.69 1.109-2.188 1.109-0.18 0-0.27-0.037-0.287-0.048-0.024-0.035-0.096-0.256-0-0.683 0.134-0.598 0.521-1.251 1.061-1.792 0.819-0.819 1.69-1.109 2.188-1.109 0.18 0 0.27 0.037 0.287 0.048 0.024 0.035 0.096 0.256 0 0.683zM3 14.088v1.473c1.37 0.275 3.108 0.439 5 0.439s3.63-0.164 5-0.439v-1.473c-1.466 0.27-3.187 0.412-5 0.412s-3.534-0.142-5-0.412z"></path>
</svg>
