<?xml version="1.0" encoding="utf-8"?>
<!-- Generated by IcoMoon.io -->
<!DOCTYPE svg PUBLIC "-//W3C//DTD SVG 1.1//EN" "http://www.w3.org/Graphics/SVG/1.1/DTD/svg11.dtd">
<svg version="1.1" xmlns="http://www.w3.org/2000/svg" xmlns:xlink="http://www.w3.org/1999/xlink" width="16" height="16" viewBox="0 0 16 16">
<path fill="#000000" d="M12.4 12h-9.8c0.463 1.141 2.481 2 4.9 2s4.437-0.859 4.9-2zM0 16h1.406c0-0.040 0.044-0.175 0.174-0.314s0.257-0.186 0.295-0.186h4.219c0.835-0.016 1.406-0.984 1.406-1.5 0 0-4.688 0-5.625 0s-1.875 1-1.875 2zM13.125 14c-0.938 0-5.625 0-5.625 0 0 0.516 0.571 1.484 1.406 1.5h4.219c0.038 0 0.164 0.047 0.295 0.186s0.174 0.274 0.174 0.314h1.406c0-1-0.938-2-1.875-2zM7.5 11h4.9c-0.203-0.5-0.705-0.946-1.409-1.29 0.324-0.438 0.509-1.001 0.509-1.71 0-2.515-1.827-4.15-3.105-4.746 0.512-0.305 0.855-0.864 0.855-1.504 0-0.967-0.784-1.75-1.75-1.75s-1.75 0.783-1.75 1.75c0 0.639 0.343 1.198 0.855 1.504-1.278 0.597-3.105 2.232-3.105 4.746 0 0.71 0.185 1.273 0.509 1.71-0.704 0.343-1.206 0.789-1.409 1.29h4.9c0 0 0 0 0 0zM5 7v-1h2v-2h1v2h2v1h-2v2h-1v-2h-2z"></path>
</svg>
