<?xml version="1.0" encoding="utf-8"?>
<!-- Generated by IcoMoon.io -->
<!DOCTYPE svg PUBLIC "-//W3C//DTD SVG 1.1//EN" "http://www.w3.org/Graphics/SVG/1.1/DTD/svg11.dtd">
<svg version="1.1" xmlns="http://www.w3.org/2000/svg" xmlns:xlink="http://www.w3.org/1999/xlink" width="16" height="16" viewBox="0 0 16 16">
<path fill="#000000" d="M11.5 9.937c0.318-0.574 0.5-1.234 0.5-1.937 0-1.614-0.956-3.005-2.333-3.637 0.511-0.458 0.833-1.123 0.833-1.863 0-1.381-1.119-2.5-2.5-2.5s-2.5 1.119-2.5 2.5c0 0.74 0.322 1.405 0.833 1.863-1.377 0.632-2.333 2.023-2.333 3.637 0 0.703 0.181 1.363 0.5 1.937-2.092 1.21-3.5 3.472-3.5 6.063h14c0-2.591-1.408-4.853-3.5-6.063z"></path>
</svg>
