<?xml version="1.0" encoding="utf-8"?>
<!-- Generated by IcoMoon.io -->
<!DOCTYPE svg PUBLIC "-//W3C//DTD SVG 1.1//EN" "http://www.w3.org/Graphics/SVG/1.1/DTD/svg11.dtd">
<svg version="1.1" xmlns="http://www.w3.org/2000/svg" xmlns:xlink="http://www.w3.org/1999/xlink" width="16" height="16" viewBox="0 0 16 16">
<path fill="#000000" d="M15.5 4h-0.5v-1.5c0-0.276-0.224-0.5-0.5-0.5h-1.5v-1.5c0-0.276-0.224-0.5-0.5-0.5s-0.5 0.224-0.5 0.5v1.5h-1.5c-0.276 0-0.5 0.224-0.5 0.5v1.5h-0.5c-0.276 0-0.5 0.224-0.5 0.5v2.5h3c0.552 0 1 0.448 1 1v7h-1v-6.5c0-0.276-0.224-0.5-0.5-0.5h-6c-0.276 0-0.5 0.224-0.5 0.5v6.5h-1v-7c0-0.552 0.448-1 1-1h2v-4.5c0-0.276-0.224-0.5-0.5-0.5h-6c-0.276 0-0.5 0.224-0.5 0.5v13c0 0.276 0.224 0.5 0.5 0.5h15c0.276 0 0.5-0.224 0.5-0.5v-11c0-0.276-0.224-0.5-0.5-0.5zM11 6h-1v-1h1v1zM5 3h1v1h-1v-1zM5 5h1v1h-1v-1zM3 3h1v1h-1v-1zM2 12h-1v-1h1v1zM2 10h-1v-1h1v1zM2 8h-1v-1h1v1zM2 6h-1v-1h1v1zM2 4h-1v-1h1v1zM3 5h1v1h-1v-1zM11 15h-5v-6h5v6zM13 6h-1v-1h1v1zM15 12h-1v-2h1v2zM15 9h-1v-2h1v2zM15 6h-1v-1h1v1z"></path>
<path fill="#000000" d="M7 10h1v1h-1v-1z"></path>
<path fill="#000000" d="M9 10h1v1h-1v-1z"></path>
<path fill="#000000" d="M7 12h1v1h-1v-1z"></path>
<path fill="#000000" d="M9 12h1v1h-1v-1z"></path>
</svg>
