<?xml version="1.0" encoding="utf-8"?>
<!-- Generated by IcoMoon.io -->
<!DOCTYPE svg PUBLIC "-//W3C//DTD SVG 1.1//EN" "http://www.w3.org/Graphics/SVG/1.1/DTD/svg11.dtd">
<svg version="1.1" xmlns="http://www.w3.org/2000/svg" xmlns:xlink="http://www.w3.org/1999/xlink" width="16" height="16" viewBox="0 0 16 16">
<path fill="#000000" d="M9.893 16h-3.786l-0.381-2.288c-0.052-0.021-0.105-0.043-0.157-0.065l-1.887 1.348-2.677-2.677 1.346-1.884c-0.023-0.053-0.045-0.107-0.067-0.161l-2.283-0.381v-3.786l2.277-0.38c0.022-0.056 0.045-0.112 0.069-0.167l-1.342-1.878 2.677-2.677 1.875 1.339c0.057-0.025 0.114-0.048 0.172-0.071l0.379-2.272h3.786l0.379 2.272c0.058 0.023 0.115 0.047 0.172 0.071l1.875-1.339 2.677 2.677-1.342 1.878c0.024 0.055 0.047 0.111 0.069 0.167l2.277 0.38v3.786l-2.283 0.381c-0.022 0.054-0.044 0.108-0.067 0.161l1.346 1.884-2.677 2.677-1.887-1.348c-0.052 0.022-0.104 0.044-0.157 0.065l-0.381 2.288zM7.113 14.813h1.774l0.332-1.991 0.34-0.113c0.228-0.075 0.453-0.169 0.668-0.277l0.32-0.161 1.642 1.173 1.254-1.254-1.171-1.64 0.162-0.321c0.109-0.216 0.203-0.442 0.279-0.672l0.113-0.34 1.985-0.331v-1.774l-1.981-0.33-0.112-0.341c-0.076-0.232-0.17-0.46-0.28-0.678l-0.161-0.32 1.167-1.633-1.254-1.254-1.631 1.165-0.321-0.162c-0.219-0.111-0.448-0.206-0.681-0.283l-0.341-0.112-0.329-1.976h-1.774l-0.329 1.976-0.341 0.112c-0.233 0.077-0.462 0.172-0.681 0.283l-0.321 0.162-1.631-1.165-1.255 1.255 1.167 1.633-0.161 0.32c-0.11 0.218-0.204 0.446-0.28 0.678l-0.112 0.341-1.981 0.33v1.774l1.985 0.331 0.113 0.34c0.076 0.23 0.17 0.456 0.279 0.672l0.162 0.321-1.171 1.64 1.255 1.254 1.642-1.173 0.32 0.161c0.215 0.108 0.44 0.201 0.668 0.277l0.34 0.113 0.332 1.991zM8.5 6h-1c-0.825 0-1.5 0.675-1.5 1.5v1c0 0.825 0.675 1.5 1.5 1.5h1c0.825 0 1.5-0.675 1.5-1.5v-1c0-0.825-0.675-1.5-1.5-1.5zM9 8.5c0 0.275-0.225 0.5-0.5 0.5h-1c-0.275 0-0.5-0.225-0.5-0.5v-1c0-0.275 0.225-0.5 0.5-0.5h1c0.275 0 0.5 0.225 0.5 0.5v1z"></path>
</svg>
