<?xml version="1.0" encoding="utf-8"?>
<!-- Generated by IcoMoon.io -->
<!DOCTYPE svg PUBLIC "-//W3C//DTD SVG 1.1//EN" "http://www.w3.org/Graphics/SVG/1.1/DTD/svg11.dtd">
<svg version="1.1" xmlns="http://www.w3.org/2000/svg" xmlns:xlink="http://www.w3.org/1999/xlink" width="16" height="16" viewBox="0 0 16 16">
<path fill="#000000" d="M16 6.5l-3.527-0.353 2.245-2.743-2.121-2.121-2.743 2.245-0.353-3.527h-3l-0.353 3.527-2.743-2.245-2.121 2.121 2.245 2.743-3.527 0.353v3l3.527 0.353-2.245 2.743 2.121 2.121 2.743-2.245 0.353 3.527h3l0.353-3.527 2.743 2.245 2.121-2.121-2.245-2.743 3.527-0.353v-3zM8 11c-1.657 0-3-1.343-3-3s1.343-3 3-3 3 1.343 3 3-1.343 3-3 3z"></path>
</svg>
