<?xml version="1.0" encoding="utf-8"?>
<!-- Generated by IcoMoon.io -->
<!DOCTYPE svg PUBLIC "-//W3C//DTD SVG 1.1//EN" "http://www.w3.org/Graphics/SVG/1.1/DTD/svg11.dtd">
<svg version="1.1" xmlns="http://www.w3.org/2000/svg" xmlns:xlink="http://www.w3.org/1999/xlink" width="16" height="16" viewBox="0 0 16 16">
<path fill="#000000" d="M11.5 11h-11c-0.276 0-0.5 0.224-0.5 0.5v3c0 0.276 0.224 0.5 0.5 0.5h11c0.276 0 0.5-0.224 0.5-0.5v-3c0-0.276-0.224-0.5-0.5-0.5zM10 14c-0.552 0-1-0.448-1-1s0.448-1 1-1 1 0.448 1 1-0.448 1-1 1z"></path>
<path fill="#000000" d="M12 10.581v-7.081c0-0.276-0.224-0.5-0.5-0.5h-3c-0.276 0-0.5 0.224-0.5 0.5v3.081l4 4z"></path>
<path fill="#000000" d="M15.698 4.646l-2.698-1.302v8.042l2.931-6.072c0.12-0.249 0.016-0.548-0.233-0.668z"></path>
<path fill="#000000" d="M9.828 10l-5.132-5.132c-0.195-0.195-0.512-0.195-0.707 0l-2.121 2.121c-0.195 0.195-0.195 0.512 0 0.707l2.303 2.303h5.657z"></path>
</svg>
