<?xml version="1.0" encoding="utf-8"?>
<!-- Generated by IcoMoon.io -->
<!DOCTYPE svg PUBLIC "-//W3C//DTD SVG 1.1//EN" "http://www.w3.org/Graphics/SVG/1.1/DTD/svg11.dtd">
<svg version="1.1" xmlns="http://www.w3.org/2000/svg" xmlns:xlink="http://www.w3.org/1999/xlink" width="16" height="16" viewBox="0 0 16 16">
<path fill="#000000" d="M12 2c-0.526 0-1.046 0.104-1.528 0.303-0.541-0.786-1.448-1.303-2.472-1.303s-1.931 0.517-2.472 1.303c-0.482-0.199-1.002-0.303-1.528-0.303-2.206 0-4 1.794-4 4 0 1.957 0.875 2.832 1.646 3.604 0.726 0.726 1.354 1.354 1.354 2.896v3c0 0.276 0.224 0.5 0.5 0.5h9c0.276 0 0.5-0.224 0.5-0.5v-3c0-1.543 0.627-2.17 1.354-2.896 0.772-0.772 1.646-1.646 1.646-3.604 0-2.206-1.794-4-4-4zM12 15h-8v-2h8v2zM13.646 8.896c-0.703 0.703-1.491 1.491-1.626 3.104h-8.041c-0.135-1.613-0.923-2.401-1.626-3.104-0.726-0.726-1.354-1.354-1.354-2.896 0-1.654 1.346-3 3-3 0.039 0 0.177 0.006 0.179 0.006 0.821 0.058 0.821 0.526 0.821 0.994v0.5c0 0.276 0.224 0.5 0.5 0.5s0.5-0.224 0.5-0.5v-0.5c0-1.103 0.897-2 2-2s2 0.897 2 2v0.5c0 0.276 0.224 0.5 0.5 0.5s0.5-0.224 0.5-0.5v-0.5c0-0.468 0-0.936 0.821-0.994 0.002-0 0.14-0.006 0.179-0.006 1.654 0 3 1.346 3 3 0 1.543-0.627 2.17-1.354 2.896z"></path>
</svg>
