<?xml version="1.0" encoding="utf-8"?>
<!-- Generated by IcoMoon.io -->
<!DOCTYPE svg PUBLIC "-//W3C//DTD SVG 1.1//EN" "http://www.w3.org/Graphics/SVG/1.1/DTD/svg11.dtd">
<svg version="1.1" xmlns="http://www.w3.org/2000/svg" xmlns:xlink="http://www.w3.org/1999/xlink" width="16" height="16" viewBox="0 0 16 16">
<path fill="#000000" d="M13.5 2h-1v1h0.5v8h-4v4h-6v-12h0.5v-1h-1c-0.275 0-0.5 0.225-0.5 0.5v13c0 0.275 0.225 0.5 0.5 0.5h7.875l3.625-3.625v-9.875c0-0.275-0.225-0.5-0.5-0.5zM10 15v-3h3l-3 3zM12 2h-2v-1c0-0.55-0.45-1-1-1h-2c-0.55 0-1 0.45-1 1v1h-2v2h8v-2zM9 2h-2v-0.998c0.001-0.001 0.001-0.001 0.002-0.002h1.996c0.001 0.001 0.001 0.001 0.002 0.002v0.998z"></path>
</svg>
