<?xml version="1.0" encoding="utf-8"?>
<!-- Generated by IcoMoon.io -->
<!DOCTYPE svg PUBLIC "-//W3C//DTD SVG 1.1//EN" "http://www.w3.org/Graphics/SVG/1.1/DTD/svg11.dtd">
<svg version="1.1" xmlns="http://www.w3.org/2000/svg" xmlns:xlink="http://www.w3.org/1999/xlink" width="17" height="16" viewBox="0 0 17 16">
<path fill="#000000" d="M14.063 7h-13.563c-0.276 0-0.5 0.224-0.5 0.5 0 1.525 0.311 3.020 0.899 4.324 0.578 1.282 1.407 2.346 2.397 3.078 0.086 0.064 0.19 0.098 0.297 0.098h-2.094c-0.276 0-0.5 0.224-0.5 0.5s0.224 0.5 0.5 0.5h10c0.276 0 0.5-0.224 0.5-0.5s-0.224-0.5-0.5-0.5h-2.094c0.107 0 0.211-0.034 0.297-0.098 0.911-0.674 1.686-1.63 2.254-2.777h0.105c1.584 0 2.539-0.553 3.061-1.017 0.627-0.557 1.001-1.322 1.001-2.045 0-1.137-0.925-2.063-2.063-2.063zM14.376 10.267c-0.337 0.299-0.939 0.65-1.945 0.72 0.309-0.902 0.496-1.871 0.551-2.862h1.080c0.517 0 0.938 0.421 0.938 0.938 0 0.314-0.164 0.796-0.624 1.205z"></path>
<path fill="#000000" d="M4.5 6c-0.276 0-0.5-0.224-0.5-0.5v-2c0-0.276 0.224-0.5 0.5-0.5s0.5 0.224 0.5 0.5v2c0 0.276-0.224 0.5-0.5 0.5z"></path>
<path fill="#000000" d="M6.5 6c-0.276 0-0.5-0.224-0.5-0.5v-4c0-0.276 0.224-0.5 0.5-0.5s0.5 0.224 0.5 0.5v4c0 0.276-0.224 0.5-0.5 0.5z"></path>
<path fill="#000000" d="M8.5 6c-0.276 0-0.5-0.224-0.5-0.5v-2c0-0.276 0.224-0.5 0.5-0.5s0.5 0.224 0.5 0.5v2c0 0.276-0.224 0.5-0.5 0.5z"></path>
</svg>
