<?xml version="1.0" encoding="utf-8"?>
<!-- Generated by IcoMoon.io -->
<!DOCTYPE svg PUBLIC "-//W3C//DTD SVG 1.1//EN" "http://www.w3.org/Graphics/SVG/1.1/DTD/svg11.dtd">
<svg version="1.1" xmlns="http://www.w3.org/2000/svg" xmlns:xlink="http://www.w3.org/1999/xlink" width="16" height="16" viewBox="0 0 16 16">
<path fill="#000000" d="M16 8.414l-1.414-1.414-2.086 2.086-2.086-2.086-1.414 1.414 2.086 2.086-2.086 2.086 1.414 1.414 2.086-2.086 2.086 2.086 1.414-1.414-2.086-2.086z"></path>
<path fill="#000000" d="M8 13.421c-0.752 0.173-1.611 0.266-2.5 0.266-1.242 0-2.429-0.181-3.342-0.51-0.763-0.275-1.074-0.562-1.158-0.677v-2.594c0.995 0.643 2.64 1.062 4.5 1.062 0.9 0 1.75-0.098 2.5-0.273v-1.306c-0.752 0.173-1.611 0.266-2.5 0.266-1.242 0-2.429-0.181-3.342-0.51-0.762-0.275-1.074-0.562-1.158-0.677v-2.531c0.995 0.643 2.64 1.062 4.5 1.062 3.038 0 5.5-1.119 5.5-2.5s-2.462-2.5-5.5-2.5-5.5 1.119-5.5 2.5v8c0 1.381 2.462 2.5 5.5 2.5 0.9 0 1.75-0.098 2.5-0.273v-1.306zM2.402 3.823c0.846-0.329 1.946-0.51 3.098-0.51s2.252 0.181 3.098 0.51c0.707 0.275 0.995 0.562 1.074 0.677-0.078 0.115-0.367 0.402-1.074 0.677-0.846 0.329-1.946 0.51-3.098 0.51s-2.252-0.181-3.098-0.51c-0.707-0.275-0.996-0.562-1.074-0.677 0.078-0.115 0.367-0.402 1.074-0.677z"></path>
</svg>
