<?xml version="1.0" encoding="utf-8"?>
<!-- Generated by IcoMoon.io -->
<!DOCTYPE svg PUBLIC "-//W3C//DTD SVG 1.1//EN" "http://www.w3.org/Graphics/SVG/1.1/DTD/svg11.dtd">
<svg version="1.1" xmlns="http://www.w3.org/2000/svg" xmlns:xlink="http://www.w3.org/1999/xlink" width="16" height="16" viewBox="0 0 16 16">
<path fill="#000000" d="M6 9l-1.5 1.5 4 4 7.5-8.5-1-1-6.5 6z"></path>
<path fill="#000000" d="M2.158 13.177c-0.763-0.275-1.074-0.562-1.158-0.677v-2.594c0.717 0.463 1.771 0.81 3 0.968v-1.31c-0.679-0.085-1.307-0.226-1.842-0.419-0.762-0.275-1.074-0.562-1.158-0.677v-2.531c0.995 0.643 2.64 1.062 4.5 1.062s3.505-0.42 4.5-1.062v2.062l1-0.923v-2.576c0-1.381-2.462-2.5-5.5-2.5s-5.5 1.119-5.5 2.5v8c0 1.381 2.462 2.5 5.5 2.5 0.169 0 0.335-0.004 0.5-0.010v-1.312c-0.165 0.007-0.332 0.010-0.5 0.010-1.242 0-2.429-0.181-3.342-0.51zM2.402 3.823c0.846-0.329 1.946-0.51 3.098-0.51s2.252 0.181 3.098 0.51c0.707 0.275 0.995 0.562 1.074 0.677-0.078 0.115-0.367 0.402-1.074 0.677-0.846 0.329-1.946 0.51-3.098 0.51s-2.252-0.181-3.098-0.51c-0.707-0.275-0.996-0.562-1.074-0.677 0.078-0.115 0.367-0.402 1.074-0.677z"></path>
</svg>
