<?xml version="1.0" encoding="utf-8"?>
<!-- Generated by IcoMoon.io -->
<!DOCTYPE svg PUBLIC "-//W3C//DTD SVG 1.1//EN" "http://www.w3.org/Graphics/SVG/1.1/DTD/svg11.dtd">
<svg version="1.1" xmlns="http://www.w3.org/2000/svg" xmlns:xlink="http://www.w3.org/1999/xlink" width="16" height="16" viewBox="0 0 16 16">
<path fill="#000000" d="M6.5 7c1.378 0 2.5 1.121 2.5 2.5s-1.122 2.5-2.5 2.5-2.5-1.121-2.5-2.5 1.122-2.5 2.5-2.5zM6.5 6c-1.933 0-3.5 1.567-3.5 3.5s1.567 3.5 3.5 3.5c1.933 0 3.5-1.567 3.5-3.5s-1.567-3.5-3.5-3.5v0z"></path>
<path fill="#000000" d="M6.5 5c-0.276 0-0.5-0.224-0.5-0.5v-1c0-0.276 0.224-0.5 0.5-0.5s0.5 0.224 0.5 0.5v1c0 0.276-0.224 0.5-0.5 0.5z"></path>
<path fill="#000000" d="M6.5 16c-0.276 0-0.5-0.224-0.5-0.5v-1c0-0.276 0.224-0.5 0.5-0.5s0.5 0.224 0.5 0.5v1c0 0.276-0.224 0.5-0.5 0.5z"></path>
<path fill="#000000" d="M2 9.5c0 0.276-0.224 0.5-0.5 0.5h-1c-0.276 0-0.5-0.224-0.5-0.5s0.224-0.5 0.5-0.5h1c0.276 0 0.5 0.224 0.5 0.5z"></path>
<path fill="#000000" d="M13 9.5c0 0.276-0.224 0.5-0.5 0.5h-1c-0.276 0-0.5-0.224-0.5-0.5s0.224-0.5 0.5-0.5h1c0.276 0 0.5 0.224 0.5 0.5z"></path>
<path fill="#000000" d="M3.318 6.318c-0.195 0.195-0.512 0.195-0.707 0l-0.707-0.707c-0.195-0.195-0.195-0.512 0-0.707s0.512-0.195 0.707 0l0.707 0.707c0.195 0.195 0.195 0.512 0 0.707z"></path>
<path fill="#000000" d="M11.096 14.096c-0.195 0.195-0.512 0.195-0.707 0l-0.707-0.707c-0.195-0.195-0.195-0.512 0-0.707s0.512-0.195 0.707 0l0.707 0.707c0.195 0.195 0.195 0.512 0 0.707z"></path>
<path fill="#000000" d="M3.318 12.682c0.195 0.195 0.195 0.512 0 0.707l-0.707 0.707c-0.195 0.195-0.512 0.195-0.707 0s-0.195-0.512 0-0.707l0.707-0.707c0.195-0.195 0.512-0.195 0.707 0z"></path>
<path fill="#000000" d="M12.702 4.798c-0.997-0.997-1.308-2.402-0.912-3.583-1.336 0.493-2.29 1.777-2.29 3.285 0 1.933 1.567 3.5 3.5 3.5 1.507 0 2.792-0.953 3.285-2.29-1.181 0.396-2.586 0.084-3.583-0.912z"></path>
</svg>
