<?xml version="1.0" encoding="utf-8"?>
<!-- Generated by IcoMoon.io -->
<!DOCTYPE svg PUBLIC "-//W3C//DTD SVG 1.1//EN" "http://www.w3.org/Graphics/SVG/1.1/DTD/svg11.dtd">
<svg version="1.1" xmlns="http://www.w3.org/2000/svg" xmlns:xlink="http://www.w3.org/1999/xlink" width="21" height="16" viewBox="0 0 21 16">
<path fill="#000000" d="M8.5 16h9.5c0.172 0 0.333-0.089 0.424-0.235l2.5-4c0.143-0.229 0.078-0.531-0.147-0.681l-1.5-1c-0.213-0.142-0.498-0.1-0.661 0.096l-1.616 1.939v-7.619c0-0.276-0.224-0.5-0.5-0.5h-2c-0.276 0-0.5 0.224-0.5 0.5v3.11l-5.621 1.405c-0.223 0.056-0.379 0.256-0.379 0.485v6c0 0.276 0.224 0.5 0.5 0.5zM17.723 15h-8.723v-5.11l1-0.25v2.86c0 0.276 0.224 0.5 0.5 0.5s0.5-0.224 0.5-0.5v-3.11l1-0.25v2.36c0 0.276 0.224 0.5 0.5 0.5s0.5-0.224 0.5-0.5v-2.61l1-0.25v3.86c0 0.276 0.224 0.5 0.5 0.5s0.5-0.224 0.5-0.5v-7.5h1v8.5c0 0.21 0.132 0.398 0.33 0.47s0.42 0.012 0.554-0.15l2.212-2.655 0.722 0.481-2.096 3.353z"></path>
<path fill="#000000" d="M12 6.938c0.082 0 0.165-0.020 0.242-0.063 0.242-0.134 0.329-0.438 0.195-0.68-0.286-0.515-0.437-1.102-0.437-1.695 0-1.93 1.57-3.5 3.5-3.5s3.5 1.57 3.5 3.5c0 0.594-0.151 1.18-0.437 1.695-0.134 0.241-0.047 0.546 0.195 0.68s0.546 0.047 0.68-0.195c0.368-0.663 0.563-1.417 0.563-2.18 0-2.481-2.019-4.5-4.5-4.5s-4.5 2.019-4.5 4.5c0 0.763 0.195 1.517 0.563 2.181 0.091 0.165 0.262 0.258 0.438 0.258z"></path>
<path fill="#000000" d="M0.5 4l3.5-3.5v2.5h6v2h-6v2.5z"></path>
</svg>
