<?xml version="1.0" encoding="utf-8"?>
<!-- Generated by IcoMoon.io -->
<!DOCTYPE svg PUBLIC "-//W3C//DTD SVG 1.1//EN" "http://www.w3.org/Graphics/SVG/1.1/DTD/svg11.dtd">
<svg version="1.1" xmlns="http://www.w3.org/2000/svg" xmlns:xlink="http://www.w3.org/1999/xlink" width="16" height="16" viewBox="0 0 16 16">
<path fill="#000000" d="M13.51 7.393c-1.027-2.866-3.205-5.44-5.51-7.393-2.305 1.953-4.482 4.527-5.51 7.393-0.635 1.772-0.698 3.696 0.197 5.397 1.029 1.955 3.104 3.21 5.313 3.21s4.284-1.255 5.313-3.21c0.895-1.701 0.832-3.624 0.197-5.397zM4.014 12.092c-0.794-1.509-0.499-3.113-0.112-4.192 0.431-1.201 1.121-2.422 2.052-3.629 0.598-0.776 1.284-1.531 2.046-2.256v12.486c-1.651 0-3.216-0.945-3.986-2.408z"></path>
</svg>
