<?xml version="1.0" encoding="utf-8"?>
<!-- Generated by IcoMoon.io -->
<!DOCTYPE svg PUBLIC "-//W3C//DTD SVG 1.1//EN" "http://www.w3.org/Graphics/SVG/1.1/DTD/svg11.dtd">
<svg version="1.1" xmlns="http://www.w3.org/2000/svg" xmlns:xlink="http://www.w3.org/1999/xlink" width="16" height="16" viewBox="0 0 16 16">
<path fill="#000000" d="M2.25 4h-0.5c-0.137 0-0.25 0.112-0.25 0.25v7.5c0 0.137 0.113 0.25 0.25 0.25h0.5c0.138 0 0.25-0.113 0.25-0.25v-7.5c0-0.138-0.112-0.25-0.25-0.25zM0.75 6h-0.5c-0.138 0-0.25 0.075-0.25 0.167v3.667c0 0.092 0.113 0.167 0.25 0.167h0.5c0.137 0 0.25-0.075 0.25-0.167v-3.667c0-0.092-0.113-0.167-0.25-0.167zM12.5 3h-1c-0.275 0-0.5 0.225-0.5 0.5v3.5h-6v-3.5c0-0.275-0.225-0.5-0.5-0.5h-1c-0.275 0-0.5 0.225-0.5 0.5v9c0 0.275 0.225 0.5 0.5 0.5h1c0.275 0 0.5-0.225 0.5-0.5v-3.5h6v3.5c0 0.275 0.225 0.5 0.5 0.5h1c0.275 0 0.5-0.225 0.5-0.5v-9c0-0.275-0.225-0.5-0.5-0.5zM14.25 4h-0.5c-0.137 0-0.25 0.112-0.25 0.25v7.5c0 0.137 0.113 0.25 0.25 0.25h0.5c0.137 0 0.25-0.113 0.25-0.25v-7.5c0-0.138-0.113-0.25-0.25-0.25zM15.75 6h-0.5c-0.137 0-0.25 0.075-0.25 0.167v3.667c0 0.092 0.113 0.167 0.25 0.167h0.5c0.137 0 0.25-0.075 0.25-0.167v-3.667c0-0.092-0.113-0.167-0.25-0.167z"></path>
</svg>
