<?xml version="1.0" encoding="utf-8"?>
<!-- Generated by IcoMoon.io -->
<!DOCTYPE svg PUBLIC "-//W3C//DTD SVG 1.1//EN" "http://www.w3.org/Graphics/SVG/1.1/DTD/svg11.dtd">
<svg version="1.1" xmlns="http://www.w3.org/2000/svg" xmlns:xlink="http://www.w3.org/1999/xlink" width="16" height="16" viewBox="0 0 16 16">
<path fill="#000000" d="M4.5 5h-2c-0.275 0-0.5 0.225-0.5 0.5v1c0 0.275 0.225 0.5 0.5 0.5h2c0.275 0 0.5-0.225 0.5-0.5v-1c0-0.275-0.225-0.5-0.5-0.5zM3 2h1v2.5h-1zM3 7.5h1v6.5h-1zM8.5 9h-2c-0.275 0-0.5 0.225-0.5 0.5v1c0 0.275 0.225 0.5 0.5 0.5h2c0.275 0 0.5-0.225 0.5-0.5v-1c0-0.275-0.225-0.5-0.5-0.5zM7 2h1v6.5h-1zM7 11.5h1v2.5h-1zM12.5 6h-2c-0.275 0-0.5 0.225-0.5 0.5v1c0 0.275 0.225 0.5 0.5 0.5h2c0.275 0 0.5-0.225 0.5-0.5v-1c0-0.275-0.225-0.5-0.5-0.5zM11 2h1v3.5h-1zM11 8.5h1v5.5h-1zM13.75 0h-12.5c-0.689 0-1.25 0.561-1.25 1.25v13.5c0 0.689 0.561 1.25 1.25 1.25h12.5c0.689 0 1.25-0.561 1.25-1.25v-13.5c0-0.689-0.561-1.25-1.25-1.25zM14 14.75c0 0.137-0.113 0.25-0.25 0.25h-12.5c-0.137 0-0.25-0.113-0.25-0.25v-13.5c0-0.137 0.113-0.25 0.25-0.25h12.5c0.137 0 0.25 0.113 0.25 0.25v13.5z"></path>
</svg>
