<?xml version="1.0" encoding="utf-8"?>
<!-- Generated by IcoMoon.io -->
<!DOCTYPE svg PUBLIC "-//W3C//DTD SVG 1.1//EN" "http://www.w3.org/Graphics/SVG/1.1/DTD/svg11.dtd">
<svg version="1.1" xmlns="http://www.w3.org/2000/svg" xmlns:xlink="http://www.w3.org/1999/xlink" width="16" height="16" viewBox="0 0 16 16">
<path fill="#000000" d="M14.995 4.366c-0.058-0.875-0.668-1.441-1.161-1.668-0.003-0.001-0.055-0.024-0.077-0.033l-3.143-1.257c-0.203-0.081-0.427-0.122-0.665-0.122-0.572 0-1.141 0.242-1.487 0.631 0 0-6.715 7.556-6.735 7.582-0.001 0.001-0.001 0.002-0.002 0.002-0.44 0.5-0.725 1-0.725 2v1c0 0.751 0.546 1.557 1.243 1.836l2.954 1.182c0.456 0.178 1.216 0.584 2.144-0.243 0.067-0.054 0.133-0.117 0.197-0.19l0.075-0.084c0-0 0-0 0-0v0l6.596-7.42c0.443-0.499 0.791-1.412 0.791-2.080v-1c0-0.027-0.005-0.133-0.005-0.134zM2.538 10.085l6.671-7.505c0.157-0.176 0.454-0.295 0.74-0.295 0.109 0 0.21 0.018 0.294 0.051l3.143 1.257c0.087 0.035 0.149 0.086 0.16 0.132s-0.021 0.119-0.084 0.19l-6.671 7.505c-0.157 0.176-0.454 0.295-0.74 0.295-0.109 0-0.21-0.018-0.294-0.051l-3.143-1.257c-0.087-0.035-0.149-0.086-0.16-0.133s0.021-0.12 0.084-0.19zM2 12.5v-1c0-0.195 0.075-0.195 0.107-0.195 0.027 0 0.072 0.005 0.135 0.031l3.143 1.257c0.321 0.129 0.614 0.561 0.614 0.907v1c0 0.195-0.075 0.195-0.107 0.195-0.027 0-0.072-0.005-0.135-0.031l-3.143-1.257c-0.321-0.129-0.614-0.561-0.614-0.907zM14 5.5c0 0.424-0.256 1.098-0.538 1.415l-6.462 7.27v-0.685c0-0.424 0.256-1.098 0.538-1.415l6.462-7.27v0.685z"></path>
</svg>
