<?xml version="1.0" encoding="utf-8"?>
<!-- Generated by IcoMoon.io -->
<!DOCTYPE svg PUBLIC "-//W3C//DTD SVG 1.1//EN" "http://www.w3.org/Graphics/SVG/1.1/DTD/svg11.dtd">
<svg version="1.1" xmlns="http://www.w3.org/2000/svg" xmlns:xlink="http://www.w3.org/1999/xlink" width="16" height="16" viewBox="0 0 16 16">
<path fill="#000000" d="M11 4v-4h-11v11h4v5h12v-12h-5zM14 6.125h-3v-0.125h3v0.125zM6 14v-0.125h8v0.125h-8zM6 13.625v-0.25h8v0.25h-8zM6 13.125v-0.25h8v0.25h-8zM6 12.625v-0.25h8v0.25h-8zM6 12.125v-0.25h8v0.25h-8zM6 11.625v-0.25h8v0.25h-8zM6 11.125v-0.125h5v-0.125h3v0.25h-8zM11 10.625v-0.25h3v0.25h-3zM11 10.125v-0.25h3v0.25h-3zM11 9.625v-0.25h3v0.25h-3zM11 9.125v-0.25h3v0.25h-3zM11 8.625v-0.25h3v0.25h-3zM11 8.125v-0.25h3v0.25h-3zM11 7.625v-0.25h3v0.25h-3zM11 7.125v-0.25h3v0.25h-3zM11 6.625v-0.25h3v0.25h-3zM9 4h-5v0.125h-2v-0.25h7v0.125zM2 9v-0.125h2v0.125h-2zM2 8.625v-0.25h2v0.25h-2zM2 8.125v-0.25h2v0.25h-2zM2 7.625v-0.25h2v0.25h-2zM2 7.125v-0.25h2v0.25h-2zM2 6.625v-0.25h2v0.25h-2zM2 6.125v-0.25h2v0.25h-2zM2 5.625v-0.25h2v0.25h-2zM2 5.125v-0.25h2v0.25h-2zM2 4.625v-0.25h2v0.25h-2zM9 3.625h-7v-0.25h7v0.25zM9 3.125h-7v-0.25h7v0.25zM9 2.625h-7v-0.25h7v0.25zM9 2.125h-7v-0.125h7v0.125zM5 5h5v5h-5v-5z"></path>
</svg>
