<?xml version="1.0" encoding="utf-8"?>
<!-- Generated by IcoMoon.io -->
<!DOCTYPE svg PUBLIC "-//W3C//DTD SVG 1.1//EN" "http://www.w3.org/Graphics/SVG/1.1/DTD/svg11.dtd">
<svg version="1.1" xmlns="http://www.w3.org/2000/svg" xmlns:xlink="http://www.w3.org/1999/xlink" width="16" height="16" viewBox="0 0 16 16">
<path fill="#000000" d="M8 10c1.105 0 2-0.895 2-2 0-0.426-0.133-0.82-0.36-1.145l4.74-5.53-0.759-0.651-4.74 5.53c-0.266-0.131-0.565-0.204-0.881-0.204-1.105 0-2 0.895-2 2 0 0.426 0.133 0.82 0.36 1.145l-4.74 5.53 0.759 0.651 4.74-5.53c0.266 0.131 0.565 0.204 0.881 0.204zM5.17 8.997c-0.11-0.312-0.17-0.647-0.17-0.997 0-1.657 1.343-3 3-3 0.189 0 0.373 0.018 0.552 0.051l1.159-1.352c-0.562-0.127-1.137-0.199-1.711-0.199-4 0-8 3.5-8 4.5 0 0.588 1.383 2.040 3.336 3.137l1.834-2.14zM12.664 4.863l-1.834 2.14c0.11 0.312 0.17 0.647 0.17 0.997 0 1.657-1.343 3-3 3-0.189 0-0.373-0.018-0.552-0.051l-1.159 1.352c0.562 0.127 1.137 0.199 1.711 0.199 4 0 8-3.5 8-4.5-0-0.588-1.383-2.040-3.336-3.137z"></path>
</svg>
