<?xml version="1.0" encoding="utf-8"?>
<!-- Generated by IcoMoon.io -->
<!DOCTYPE svg PUBLIC "-//W3C//DTD SVG 1.1//EN" "http://www.w3.org/Graphics/SVG/1.1/DTD/svg11.dtd">
<svg version="1.1" xmlns="http://www.w3.org/2000/svg" xmlns:xlink="http://www.w3.org/1999/xlink" width="16" height="16" viewBox="0 0 16 16">
<path fill="#000000" d="M8 5c-3.271 0-6.176 1.571-8 4 1.824 2.429 4.729 4 8 4s6.176-1.571 8-4c-1.824-2.429-4.729-4-8-4zM7 7c0.552 0 1 0.448 1 1s-0.448 1-1 1-1-0.448-1-1 0.448-1 1-1zM12.088 11.020c-0.62 0.317-1.276 0.56-1.951 0.725-0.695 0.169-1.414 0.255-2.137 0.255s-1.442-0.086-2.137-0.255c-0.675-0.164-1.331-0.408-1.951-0.725-0.985-0.503-1.878-1.194-2.619-2.020 0.741-0.826 1.635-1.517 2.619-2.020 0.505-0.258 1.035-0.468 1.579-0.626-0.311 0.473-0.492 1.038-0.492 1.646 0 1.657 1.343 3 3 3s3-1.343 3-3c0-0.608-0.181-1.173-0.492-1.646 0.544 0.158 1.074 0.367 1.579 0.626 0.985 0.503 1.878 1.194 2.619 2.020-0.741 0.826-1.635 1.517-2.619 2.020zM13.452 3.808c-1.699-0.868-3.533-1.308-5.452-1.308s-3.753 0.44-5.452 1.308c-0.918 0.469-1.777 1.061-2.548 1.751v1.706c0.865-0.915 1.886-1.684 3.003-2.255 1.557-0.795 3.238-1.199 4.997-1.199s3.44 0.403 4.997 1.199c1.117 0.571 2.138 1.339 3.003 2.255v-1.706c-0.771-0.69-1.63-1.282-2.548-1.751z"></path>
</svg>
