<?xml version="1.0" encoding="utf-8"?>
<!-- Generated by IcoMoon.io -->
<!DOCTYPE svg PUBLIC "-//W3C//DTD SVG 1.1//EN" "http://www.w3.org/Graphics/SVG/1.1/DTD/svg11.dtd">
<svg version="1.1" xmlns="http://www.w3.org/2000/svg" xmlns:xlink="http://www.w3.org/1999/xlink" width="16" height="16" viewBox="0 0 16 16">
<path fill="#000000" d="M14.389 7.884c-0.793-0.793-1.769-1.293-2.792-1.501l3.205-3.205c0.681-0.681 1.060-1.55-0.223-2.411-2.11-1.253-4.879-0.972-6.694 0.843-0.793 0.793-1.293 1.769-1.501 2.792l-3.205-3.205c-0.681-0.681-1.55-1.060-2.411 0.223-1.253 2.11-0.972 4.879 0.843 6.694 0.793 0.793 1.769 1.293 2.792 1.501l-3.205 3.205c-0.681 0.681-1.060 1.55 0.223 2.411 2.11 1.253 4.879 0.972 6.694-0.843 0.793-0.794 1.293-1.769 1.501-2.792l3.205 3.205c0.681 0.681 1.55 1.060 2.411-0.223 1.253-2.11 0.972-4.879-0.843-6.694zM8 10c-1.105 0-2-0.895-2-2s0.895-2 2-2c1.105 0 2 0.895 2 2s-0.895 2-2 2z"></path>
</svg>
