<?xml version="1.0" encoding="utf-8"?>
<!-- Generated by IcoMoon.io -->
<!DOCTYPE svg PUBLIC "-//W3C//DTD SVG 1.1//EN" "http://www.w3.org/Graphics/SVG/1.1/DTD/svg11.dtd">
<svg version="1.1" xmlns="http://www.w3.org/2000/svg" xmlns:xlink="http://www.w3.org/1999/xlink" width="16" height="16" viewBox="0 0 16 16">
<path fill="#000000" d="M15.95 10.807c-0.466-1.113-1.267-2.062-2.318-2.745-1.070-0.695-2.326-1.062-3.632-1.062s-2.562 0.367-3.632 1.062c-1.051 0.683-1.853 1.632-2.318 2.745-0.052 0.123-0.052 0.262 0 0.386 0.465 1.113 1.267 2.062 2.318 2.745 1.070 0.695 2.326 1.062 3.632 1.062s2.562-0.367 3.632-1.062c1.051-0.683 1.853-1.632 2.318-2.745 0.052-0.123 0.052-0.262-0-0.386zM10 10c0 0.552-0.448 1-1 1s-1-0.448-1-1 0.448-1 1-1 1 0.448 1 1zM13.087 13.099c-0.908 0.589-1.975 0.901-3.087 0.901s-2.18-0.312-3.087-0.901c-0.82-0.533-1.458-1.255-1.855-2.099 0.397-0.844 1.035-1.566 1.855-2.099 0.102-0.066 0.206-0.128 0.311-0.188-0.199 0.405-0.311 0.86-0.311 1.342 0 1.681 1.363 3.044 3.044 3.044s3.044-1.363 3.044-3.044c0-0.508-0.125-0.986-0.344-1.407 0.147 0.078 0.292 0.162 0.432 0.253 0.82 0.533 1.457 1.255 1.855 2.099-0.397 0.844-1.035 1.566-1.855 2.099v0z"></path>
<path fill="#000000" d="M14.341 3.579c-0.347-0.473-0.831-1.027-1.362-1.558s-1.085-1.015-1.558-1.362c-0.806-0.591-1.197-0.659-1.421-0.659h-7.75c-0.689 0-1.25 0.561-1.25 1.25v13.5c0 0.689 0.561 1.25 1.25 1.25h5.25c0.276 0 0.5-0.224 0.5-0.5s-0.224-0.5-0.5-0.5h-5.25c-0.135 0-0.25-0.114-0.25-0.25v-13.5c0-0.135 0.115-0.25 0.25-0.25 0 0 7.749-0 7.75 0v3.5c0 0.276 0.224 0.5 0.5 0.5h3.5v2.5c0 0.276 0.224 0.5 0.5 0.5s0.5-0.224 0.5-0.5v-2.5c0-0.224-0.068-0.615-0.659-1.421zM11 4v-2.405c0.359 0.278 0.792 0.654 1.271 1.134s0.856 0.912 1.134 1.271h-2.406z"></path>
</svg>
