<?xml version="1.0" encoding="utf-8"?>
<!-- Generated by IcoMoon.io -->
<!DOCTYPE svg PUBLIC "-//W3C//DTD SVG 1.1//EN" "http://www.w3.org/Graphics/SVG/1.1/DTD/svg11.dtd">
<svg version="1.1" xmlns="http://www.w3.org/2000/svg" xmlns:xlink="http://www.w3.org/1999/xlink" width="16" height="16" viewBox="0 0 16 16">
<path fill="#000000" d="M11 4h3.627c-0.078-0.126-0.172-0.266-0.286-0.421-0.347-0.473-0.831-1.027-1.362-1.558s-1.085-1.015-1.558-1.362c-0.155-0.114-0.295-0.208-0.421-0.286v3.627z"></path>
<path fill="#000000" d="M10.5 5c-0.276 0-0.5-0.224-0.5-0.5v-4.5h-7.75c-0.689 0-1.25 0.561-1.25 1.25v13.5c0 0.689 0.561 1.25 1.25 1.25h11.5c0.689 0 1.25-0.561 1.25-1.25v-9.75h-4.5zM6 11.25v1.25c0 0.276 0.224 0.5 0.5 0.5s0.5 0.224 0.5 0.5-0.224 0.5-0.5 0.5c-0.827 0-1.5-0.673-1.5-1.5v-1.25c0-0.138-0.112-0.25-0.25-0.25h-0.25c-0.276 0-0.5-0.224-0.5-0.5s0.224-0.5 0.5-0.5h0.25c0.138 0 0.25-0.112 0.25-0.25v-1.25c0-0.827 0.673-1.5 1.5-1.5 0.276 0 0.5 0.224 0.5 0.5s-0.224 0.5-0.5 0.5c-0.276 0-0.5 0.224-0.5 0.5v1.25c0 0.281-0.093 0.541-0.251 0.75 0.157 0.209 0.251 0.469 0.251 0.75zM11.5 11h-0.25c-0.138 0-0.25 0.112-0.25 0.25v1.25c0 0.827-0.673 1.5-1.5 1.5-0.276 0-0.5-0.224-0.5-0.5s0.224-0.5 0.5-0.5c0.276 0 0.5-0.224 0.5-0.5v-1.25c0-0.281 0.093-0.541 0.251-0.75-0.157-0.209-0.251-0.469-0.251-0.75v-1.25c0-0.276-0.224-0.5-0.5-0.5s-0.5-0.224-0.5-0.5 0.224-0.5 0.5-0.5c0.827 0 1.5 0.673 1.5 1.5v1.25c0 0.138 0.112 0.25 0.25 0.25h0.25c0.276 0 0.5 0.224 0.5 0.5s-0.224 0.5-0.5 0.5z"></path>
</svg>
