<?xml version="1.0" encoding="utf-8"?>
<!-- Generated by IcoMoon.io -->
<!DOCTYPE svg PUBLIC "-//W3C//DTD SVG 1.1//EN" "http://www.w3.org/Graphics/SVG/1.1/DTD/svg11.dtd">
<svg version="1.1" xmlns="http://www.w3.org/2000/svg" xmlns:xlink="http://www.w3.org/1999/xlink" width="16" height="16" viewBox="0 0 16 16">
<path fill="#000000" d="M11 4h3.627c-0.078-0.126-0.172-0.266-0.286-0.421-0.347-0.473-0.831-1.027-1.362-1.558s-1.085-1.015-1.558-1.362c-0.155-0.114-0.295-0.208-0.421-0.286v3.627z"></path>
<path fill="#000000" d="M10.5 5c-0.276 0-0.5-0.224-0.5-0.5v-4.5h-7.75c-0.689 0-1.25 0.561-1.25 1.25v13.5c0 0.689 0.561 1.25 1.25 1.25h11.5c0.689 0 1.25-0.561 1.25-1.25v-9.75h-4.5zM6 14h-3v-1h3v1zM6 12h-3v-1h3v1zM6 10h-3v-1h3v1zM9.5 14c-1.381 0-2.5-1.119-2.5-2.5 0-1.209 0.859-2.218 2-2.45v2.95h2.95c-0.232 1.141-1.24 2-2.45 2zM12.95 11h-2.95v-2.95c0.162-0.033 0.329-0.050 0.5-0.050 1.381 0 2.5 1.119 2.5 2.5 0 0.171-0.017 0.338-0.050 0.5z"></path>
</svg>
