<?xml version="1.0" encoding="utf-8"?>
<!-- Generated by IcoMoon.io -->
<!DOCTYPE svg PUBLIC "-//W3C//DTD SVG 1.1//EN" "http://www.w3.org/Graphics/SVG/1.1/DTD/svg11.dtd">
<svg version="1.1" xmlns="http://www.w3.org/2000/svg" xmlns:xlink="http://www.w3.org/1999/xlink" width="16" height="16" viewBox="0 0 16 16">
<path fill="#000000" d="M15.927 7.24c-0.781-1.28-1.808-2.343-2.97-3.074-1.213-0.763-2.581-1.166-3.957-1.166-1.973 0-3.869 0.814-5.395 2.304-0.867-1.024-1.862-1.8-2.903-2.261-0.193-0.085-0.419-0.041-0.564 0.112s-0.18 0.38-0.085 0.569l1.889 3.776-1.889 3.776c-0.094 0.189-0.060 0.416 0.085 0.569 0.096 0.101 0.228 0.155 0.362 0.155 0.068-0 0.137-0.014 0.202-0.043 1.042-0.461 2.037-1.238 2.903-2.261 1.526 1.49 3.422 2.304 5.395 2.304 1.376 0 2.744-0.403 3.957-1.166 1.161-0.73 2.188-1.793 2.97-3.074 0.098-0.16 0.098-0.361 0-0.521zM13 8c-0.552 0-1-0.448-1-1s0.448-1 1-1 1 0.448 1 1-0.448 1-1 1z"></path>
</svg>
