<?xml version="1.0" encoding="utf-8"?>
<!-- Generated by IcoMoon.io -->
<!DOCTYPE svg PUBLIC "-//W3C//DTD SVG 1.1//EN" "http://www.w3.org/Graphics/SVG/1.1/DTD/svg11.dtd">
<svg version="1.1" xmlns="http://www.w3.org/2000/svg" xmlns:xlink="http://www.w3.org/1999/xlink" width="16" height="16" viewBox="0 0 16 16">
<path fill="#000000" d="M10.854 1.854c0.143-0.143 0.186-0.358 0.108-0.545s-0.26-0.309-0.462-0.309h-10c-0.202 0-0.385 0.122-0.462 0.309-0.026 0.062-0.038 0.127-0.038 0.191 0 0.13 0.051 0.258 0.146 0.354l5 5c0.195 0.195 0.512 0.195 0.707 0l5-5z"></path>
<path fill="#000000" d="M9 8.5c0-0.276 0.224-0.5 0.5-0.5h1c0.276 0 0.5 0.224 0.5 0.5s-0.224 0.5-0.5 0.5h-1c-0.276 0-0.5-0.224-0.5-0.5z"></path>
<path fill="#000000" d="M6 8.5c0-0.276 0.224-0.5 0.5-0.5h1c0.276 0 0.5 0.224 0.5 0.5s-0.224 0.5-0.5 0.5h-1c-0.276 0-0.5-0.224-0.5-0.5z"></path>
<path fill="#000000" d="M3 8.5c0-0.276 0.224-0.5 0.5-0.5h1c0.276 0 0.5 0.224 0.5 0.5s-0.224 0.5-0.5 0.5h-1c-0.276 0-0.5-0.224-0.5-0.5z"></path>
<path fill="#000000" d="M0 8.5c0-0.276 0.224-0.5 0.5-0.5h1c0.276 0 0.5 0.224 0.5 0.5s-0.224 0.5-0.5 0.5h-1c-0.276 0-0.5-0.224-0.5-0.5z"></path>
<path fill="#000000" d="M10.962 15.691c0.026-0.062 0.038-0.127 0.038-0.191 0-0.13-0.051-0.258-0.146-0.354l-5-5c-0.195-0.195-0.512-0.195-0.707 0l-5 5c-0.143 0.143-0.186 0.358-0.108 0.545s0.26 0.309 0.462 0.309h10c0.202 0 0.385-0.122 0.462-0.309zM2.009 14.875l3.491-3.491 3.491 3.491h-6.982z"></path>
<path fill="#000000" d="M13 12.5c1.257-0.943 2-2.419 2-4 0-1.672-0.831-3.226-2.222-4.158-0.229-0.154-0.54-0.092-0.694 0.137s-0.092 0.54 0.137 0.694c1.113 0.745 1.778 1.989 1.778 3.327 0 1.313-0.64 2.534-1.716 3.284l-1.284-1.284v3.5h3.5l-1.5-1.5z"></path>
</svg>
