<?xml version="1.0" encoding="utf-8"?>
<!-- Generated by IcoMoon.io -->
<!DOCTYPE svg PUBLIC "-//W3C//DTD SVG 1.1//EN" "http://www.w3.org/Graphics/SVG/1.1/DTD/svg11.dtd">
<svg version="1.1" xmlns="http://www.w3.org/2000/svg" xmlns:xlink="http://www.w3.org/1999/xlink" width="16" height="16" viewBox="0 0 16 16">
<path fill="#000000" d="M0 16l7-16v16z"></path>
<path fill="#000000" d="M9 12.125v0.25h5.414l-0.109-0.25z"></path>
<path fill="#000000" d="M9 11.625v0.25h5.195l-0.109-0.25z"></path>
<path fill="#000000" d="M9 8.125v0.25h3.664l-0.109-0.25z"></path>
<path fill="#000000" d="M9 10.625v0.25h4.758l-0.109-0.25z"></path>
<path fill="#000000" d="M9 8.625v0.25h3.883l-0.109-0.25z"></path>
<path fill="#000000" d="M9 9.125v0.25h4.102l-0.109-0.25z"></path>
<path fill="#000000" d="M9 9.625v0.25h4.32l-0.109-0.25z"></path>
<path fill="#000000" d="M9 10.125v0.25h4.539l-0.109-0.25z"></path>
<path fill="#000000" d="M9 15.125v0.25h6.727l-0.109-0.25z"></path>
<path fill="#000000" d="M15.836 15.625h-6.836v0.25h6.945z"></path>
<path fill="#000000" d="M9 12.625v0.25h5.633l-0.109-0.25z"></path>
<path fill="#000000" d="M9 14.625v0.25h6.508l-0.109-0.25z"></path>
<path fill="#000000" d="M9 13.125v0.25h5.852l-0.109-0.25z"></path>
<path fill="#000000" d="M9 13.625v0.25h6.070l-0.109-0.25z"></path>
<path fill="#000000" d="M9 14.125v0.25h6.289l-0.109-0.25z"></path>
<path fill="#000000" d="M9 11.125v0.25h4.977l-0.109-0.25z"></path>
<path fill="#000000" d="M9 1.625v0.25h0.82l-0.109-0.25z"></path>
<path fill="#000000" d="M9 2.625v0.25h1.258l-0.109-0.25z"></path>
<path fill="#000000" d="M9 2.125v0.25h1.039l-0.109-0.25z"></path>
<path fill="#000000" d="M9 3.125v0.25h1.477l-0.109-0.25z"></path>
<path fill="#000000" d="M9 1.125v0.25h0.602l-0.109-0.25z"></path>
<path fill="#000000" d="M9 7.625v0.25h3.445l-0.109-0.25z"></path>
<path fill="#000000" d="M9 0.625v0.25h0.383l-0.109-0.25z"></path>
<path fill="#000000" d="M9 3.625v0.25h1.695l-0.109-0.25z"></path>
<path fill="#000000" d="M9 0.125v0.25h0.164l-0.109-0.25z"></path>
<path fill="#000000" d="M9 6.125v0.25h2.789l-0.109-0.25z"></path>
<path fill="#000000" d="M9 4.125v0.25h1.914l-0.109-0.25z"></path>
<path fill="#000000" d="M9 7.125v0.25h3.227l-0.109-0.25z"></path>
<path fill="#000000" d="M9 6.625v0.25h3.008l-0.109-0.25z"></path>
<path fill="#000000" d="M9 4.625v0.25h2.133l-0.109-0.25z"></path>
<path fill="#000000" d="M9 5.625v0.25h2.57l-0.109-0.25z"></path>
<path fill="#000000" d="M9 5.125v0.25h2.352l-0.109-0.25z"></path>
</svg>
