<?xml version="1.0" encoding="utf-8"?>
<!-- Generated by IcoMoon.io -->
<!DOCTYPE svg PUBLIC "-//W3C//DTD SVG 1.1//EN" "http://www.w3.org/Graphics/SVG/1.1/DTD/svg11.dtd">
<svg version="1.1" xmlns="http://www.w3.org/2000/svg" xmlns:xlink="http://www.w3.org/1999/xlink" width="16" height="16" viewBox="0 0 16 16">
<path fill="#000000" d="M0.854 5.146c-0.143-0.143-0.358-0.186-0.545-0.108s-0.309 0.26-0.309 0.462v10c0 0.202 0.122 0.385 0.309 0.462 0.062 0.026 0.127 0.038 0.191 0.038 0.13 0 0.258-0.051 0.354-0.146l5-5c0.195-0.195 0.195-0.512 0-0.707l-5-5z"></path>
<path fill="#000000" d="M7.5 7c-0.276 0-0.5-0.224-0.5-0.5v-1c0-0.276 0.224-0.5 0.5-0.5s0.5 0.224 0.5 0.5v1c0 0.276-0.224 0.5-0.5 0.5z"></path>
<path fill="#000000" d="M7.5 10c-0.276 0-0.5-0.224-0.5-0.5v-1c0-0.276 0.224-0.5 0.5-0.5s0.5 0.224 0.5 0.5v1c0 0.276-0.224 0.5-0.5 0.5z"></path>
<path fill="#000000" d="M7.5 13c-0.276 0-0.5-0.224-0.5-0.5v-1c0-0.276 0.224-0.5 0.5-0.5s0.5 0.224 0.5 0.5v1c0 0.276-0.224 0.5-0.5 0.5z"></path>
<path fill="#000000" d="M7.5 16c-0.276 0-0.5-0.224-0.5-0.5v-1c0-0.276 0.224-0.5 0.5-0.5s0.5 0.224 0.5 0.5v1c0 0.276-0.224 0.5-0.5 0.5z"></path>
<path fill="#000000" d="M14.691 5.038c-0.062-0.026-0.127-0.038-0.191-0.038-0.13 0-0.258 0.051-0.354 0.146l-5 5c-0.195 0.195-0.195 0.512 0 0.707l5 5c0.143 0.143 0.358 0.186 0.545 0.108s0.309-0.26 0.309-0.462v-10c0-0.202-0.122-0.385-0.309-0.462zM13.875 13.991l-3.491-3.491 3.491-3.491v6.982z"></path>
<path fill="#000000" d="M11.5 3c-0.943-1.257-2.419-2-4-2-1.672 0-3.226 0.831-4.158 2.222-0.154 0.229-0.092 0.54 0.137 0.694s0.54 0.092 0.694-0.137c0.745-1.113 1.989-1.778 3.327-1.778 1.313 0 2.534 0.64 3.284 1.716l-1.284 1.284h3.5v-3.5l-1.5 1.5z"></path>
</svg>
