<?xml version="1.0" encoding="utf-8"?>
<!-- Generated by IcoMoon.io -->
<!DOCTYPE svg PUBLIC "-//W3C//DTD SVG 1.1//EN" "http://www.w3.org/Graphics/SVG/1.1/DTD/svg11.dtd">
<svg version="1.1" xmlns="http://www.w3.org/2000/svg" xmlns:xlink="http://www.w3.org/1999/xlink" width="16" height="16" viewBox="0 0 16 16">
<path fill="#000000" d="M11 6h1v2h-1v-2z"></path>
<path fill="#000000" d="M13.5 5h-2.5v-2.5l-2.5-2.5h-8c-0.275 0-0.5 0.225-0.5 0.5v10c0 0.275 0.225 0.5 0.5 0.5h4.5v4.5c0 0.275 0.225 0.5 0.5 0.5h10c0.275 0 0.5-0.225 0.5-0.5v-8l-2.5-2.5zM7.5 12h6c0.127 0 0.242 0.047 0.33 0.125h-6.66c0.088-0.078 0.203-0.125 0.33-0.125zM7 15v-0.125h7v0.125h-7zM7 14.625v-0.25h7v0.25h-7zM7 14.125v-0.25h7v0.25h-7zM7 13.625v-0.25h7v0.25h-7zM7 13.125v-0.25h7v0.25h-7zM7 12.625v-0.125c0-0.043 0.006-0.085 0.016-0.125h6.967c0.010 0.040 0.016 0.082 0.016 0.125v0.125h-7zM13 5.5v3c0 0.275-0.225 0.5-0.5 0.5h-4c-0.275 0-0.5-0.225-0.5-0.5v-3h5zM5 7.125h-2.83c0.088-0.078 0.203-0.125 0.33-0.125h2.5v0.125zM2 10v-0.125h3v0.125h-3zM2 9.625v-0.25h3v0.25h-3zM2 9.125v-0.25h3v0.25h-3zM2 8.625v-0.25h3v0.25h-3zM2 8.125v-0.25h3v0.25h-3zM2 7.625v-0.125c0-0.043 0.006-0.085 0.016-0.125h2.984v0.25h-3zM3.5 4c-0.275 0-0.5-0.225-0.5-0.5v-3h5v3c0 0.275-0.225 0.5-0.5 0.5h-4z"></path>
<path fill="#000000" d="M6 1h1v2h-1v-2z"></path>
</svg>
