<?xml version="1.0" encoding="utf-8"?>
<!-- Generated by IcoMoon.io -->
<!DOCTYPE svg PUBLIC "-//W3C//DTD SVG 1.1//EN" "http://www.w3.org/Graphics/SVG/1.1/DTD/svg11.dtd">
<svg version="1.1" xmlns="http://www.w3.org/2000/svg" xmlns:xlink="http://www.w3.org/1999/xlink" width="16" height="16" viewBox="0 0 16 16">
<path fill="#000000" d="M12.531 3.654c1.923 1.387 2.112 5.737 2.49 7.061l-3.58 1.419c-0.365-2.396-3.45-4.193-3.576-6.841s2.743-3.026 4.666-1.639zM14.707 15.822c-2.858 1.039-3.026-2.806-3.026-2.806l3.72-1.513c0 0 1.734 3.436-0.694 4.319zM0.034 2.985c0.379-2.341 2.675-4.101 4.458-2.14s0.872 5.414 2.308 7.365l-3.534 1.528c-0.669-1.204-3.611-4.413-3.232-6.754zM7.1 13.127c-2.34 1.092-3.544-2.564-3.544-2.564l3.7-1.56c0 0 2.599 2.838-0.156 4.124z"></path>
</svg>
