<?xml version="1.0" encoding="utf-8"?>
<!-- Generated by IcoMoon.io -->
<!DOCTYPE svg PUBLIC "-//W3C//DTD SVG 1.1//EN" "http://www.w3.org/Graphics/SVG/1.1/DTD/svg11.dtd">
<svg version="1.1" xmlns="http://www.w3.org/2000/svg" xmlns:xlink="http://www.w3.org/1999/xlink" width="16" height="16" viewBox="0 0 16 16">
<path fill="#000000" d="M15.908 2.485c-0.131-1.19-1.202-2.261-2.393-2.393-3.233-0.356-7.424 0.246-10.301 3.122s-3.479 7.068-3.123 10.3c0.131 1.19 1.202 2.261 2.393 2.393 3.233 0.356 7.424-0.246 10.3-3.122s3.479-7.068 3.123-10.301zM5.080 9.080c0.232-0.232 0.608-0.232 0.84 0l1 1c0.232 0.232 0.232 0.608 0 0.84-0.116 0.116-0.268 0.174-0.42 0.174s-0.304-0.058-0.42-0.174l-1-1c-0.232-0.232-0.232-0.608 0-0.84zM5.341 14.951c-0.907-0.461-1.745-1.067-2.485-1.807s-1.347-1.58-1.808-2.488c0.056-0.685 0.168-1.419 0.362-2.176 0.066-0.258 0.14-0.51 0.221-0.756 0.295 1.642 1.081 3.154 2.285 4.359s2.714 1.989 4.355 2.285c-1.048 0.345-2.067 0.511-2.931 0.583zM8.92 8.92c-0.116 0.116-0.268 0.174-0.42 0.174s-0.304-0.058-0.42-0.174l-1-1c-0.232-0.232-0.232-0.608 0-0.84s0.608-0.232 0.84 0l1 1c0.232 0.232 0.232 0.608 0 0.84zM10.92 6.92c-0.116 0.116-0.268 0.174-0.42 0.174s-0.304-0.058-0.42-0.174l-1-1c-0.232-0.232-0.232-0.608 0-0.84s0.608-0.232 0.84 0l1 1c0.232 0.232 0.232 0.608 0 0.84zM14.59 7.52c-0.066 0.258-0.14 0.51-0.221 0.756-0.295-1.642-1.081-3.154-2.285-4.359s-2.714-1.989-4.355-2.285c1.048-0.345 2.067-0.511 2.931-0.583 0.907 0.461 1.745 1.067 2.485 1.807s1.347 1.58 1.808 2.488c-0.056 0.684-0.168 1.419-0.362 2.176z"></path>
</svg>
