<?xml version="1.0" encoding="utf-8"?>
<!-- Generated by IcoMoon.io -->
<!DOCTYPE svg PUBLIC "-//W3C//DTD SVG 1.1//EN" "http://www.w3.org/Graphics/SVG/1.1/DTD/svg11.dtd">
<svg version="1.1" xmlns="http://www.w3.org/2000/svg" xmlns:xlink="http://www.w3.org/1999/xlink" width="16" height="16" viewBox="0 0 16 16">
<path fill="#000000" d="M6.5 0c-0.276 0-0.5 0.224-0.5 0.5v4.5c0 0.296-0.051 0.493-0.15 0.585-0.094 0.086-0.277 0.132-0.471 0.18-0.114 0.028-0.244 0.061-0.379 0.11v-5.375c0-0.276-0.224-0.5-0.5-0.5s-0.5 0.224-0.5 0.5v5.375c-0.134-0.049-0.265-0.081-0.379-0.11-0.194-0.048-0.377-0.094-0.471-0.18-0.1-0.091-0.15-0.288-0.15-0.585v-4.5c0-0.276-0.224-0.5-0.5-0.5s-0.5 0.224-0.5 0.5v4.5c0 1.39 0.863 1.606 1.379 1.735 0.194 0.048 0.377 0.094 0.471 0.18 0.1 0.091 0.15 0.288 0.15 0.585v2.586c-0.583 0.206-1 0.761-1 1.414v3c0 0.828 0.672 1.5 1.5 1.5s1.5-0.672 1.5-1.5v-3c0-0.653-0.417-1.208-1-1.414v-2.586c0-0.296 0.051-0.493 0.15-0.585 0.094-0.086 0.277-0.132 0.471-0.18 0.516-0.129 1.379-0.345 1.379-1.735v-4.5c0-0.276-0.224-0.5-0.5-0.5z"></path>
<path fill="#000000" d="M13 10.086v-9.586c0-0.276-0.224-0.5-0.5-0.5-1.078 0-1.767 0.72-2.155 1.323-0.406 0.631-0.729 1.497-0.959 2.572-0.382 1.781-0.386 3.531-0.386 3.605 0 0.276 0.224 0.5 0.5 0.5h2.5v2.086c-0.583 0.206-1 0.761-1 1.414v3c0 0.828 0.672 1.5 1.5 1.5s1.5-0.672 1.5-1.5v-3c0-0.653-0.417-1.208-1-1.414zM10.367 4.092c0.259-1.202 0.745-2.6 1.633-2.988v5.896h-1.986c0.028-0.633 0.109-1.778 0.353-2.908z"></path>
</svg>
