<?xml version="1.0" encoding="utf-8"?>
<!-- Generated by IcoMoon.io -->
<!DOCTYPE svg PUBLIC "-//W3C//DTD SVG 1.1//EN" "http://www.w3.org/Graphics/SVG/1.1/DTD/svg11.dtd">
<svg version="1.1" xmlns="http://www.w3.org/2000/svg" xmlns:xlink="http://www.w3.org/1999/xlink" width="16" height="16" viewBox="0 0 16 16">
<path fill="#000000" d="M14 6c-1.105 0-2 0.895-2 2v2h-8v-2c0-1.105-0.895-2-2-2s-2 0.895-2 2v4c0 1.105 0.895 2 2 2v2h1l0.5-2h9l0.5 2h1v-2c1.105 0 2-0.895 2-2v-4c0-1.105-0.895-2-2-2z"></path>
<path fill="#000000" d="M5 7.688v1.313h6v-1.313c0-1.642 1-2.688 2.964-2.687-0.243-1.694-1.704-3-3.464-3h-5c-1.76 0-3.221 1.306-3.464 3 1.964-0 2.964 1.045 2.964 2.687z"></path>
</svg>
