<?xml version="1.0" encoding="utf-8"?>
<!-- Generated by IcoMoon.io -->
<!DOCTYPE svg PUBLIC "-//W3C//DTD SVG 1.1//EN" "http://www.w3.org/Graphics/SVG/1.1/DTD/svg11.dtd">
<svg version="1.1" xmlns="http://www.w3.org/2000/svg" xmlns:xlink="http://www.w3.org/1999/xlink" width="16" height="16" viewBox="0 0 16 16">
<path fill="#000000" d="M14.873 4.935c-0.406-0.663-0.89-1.188-1.439-1.561-0.626-0.425-1.321-0.641-2.063-0.641-1.017 0-1.588 0.322-2.092 0.606-0.411 0.231-0.735 0.414-1.278 0.414s-0.867-0.183-1.278-0.414c-0.504-0.284-1.075-0.606-2.092-0.606-0.743 0-1.437 0.216-2.063 0.641-0.549 0.373-1.034 0.898-1.44 1.561-0.706 1.152-1.127 2.664-1.127 4.044 0 1.326 0.072 2.269 0.225 2.969 0.209 0.949 0.587 1.486 1.157 1.641 0.125 0.034 0.258 0.052 0.393 0.052 0.982 0 2.035-0.914 3.029-1.849 0.881-0.829 1.037-0.829 1.553-0.829 0.039 0 0.080 0 0.123 0 0.046 0 0.095 0 0.145 0l1.375 0.030 1.375-0.030c0.051 0 0.099-0 0.145-0 0.043-0 0.083-0 0.123-0 0.517 0 0.673 0 1.553 0.829 0.994 0.936 2.046 1.849 3.029 1.849 0 0 0 0 0 0 0.135 0 0.267-0.017 0.392-0.052 0.57-0.156 0.949-0.693 1.157-1.641 0.154-0.7 0.225-1.643 0.225-2.969 0-1.38-0.421-2.892-1.127-4.044zM14.798 11.734c-0.111 0.505-0.281 0.847-0.444 0.892-0.039 0.011-0.082 0.016-0.128 0.016-0.668-0-1.799-1.065-2.343-1.577-0.532-0.502-0.847-0.745-1.162-0.897-0.42-0.204-0.769-0.204-1.077-0.204-0.041 0-0.084 0-0.128 0s-0.091 0-0.14 0h-0.011l-1.364 0.030-1.375-0.030c-0.049 0-0.095-0-0.14-0s-0.087-0-0.128-0c-0.308 0-0.656 0-1.077 0.204-0.315 0.153-0.63 0.396-1.162 0.897-0.544 0.512-1.675 1.577-2.343 1.577-0.046 0-0.089-0.005-0.129-0.016-0.162-0.044-0.332-0.386-0.443-0.891-0.138-0.627-0.202-1.502-0.202-2.754 0-0.588 0.091-1.223 0.262-1.839 0.171-0.614 0.419-1.196 0.718-1.683 0.331-0.541 0.718-0.964 1.149-1.256 0.457-0.311 0.963-0.468 1.502-0.468 0.755 0 1.147 0.221 1.602 0.477 0.452 0.254 0.963 0.543 1.769 0.543s1.317-0.288 1.768-0.543c0.454-0.256 0.846-0.477 1.601-0.477 0.539 0 1.044 0.158 1.502 0.468 0.431 0.293 0.817 0.715 1.149 1.256 0.299 0.488 0.547 1.070 0.718 1.683 0.171 0.615 0.262 1.251 0.262 1.839-0 1.251-0.064 2.127-0.202 2.754v0zM10 6c0-0.552 0.448-1 1-1s1 0.448 1 1-0.448 1-1 1-1-0.448-1-1zM12 8c0-0.552 0.448-1 1-1s1 0.448 1 1-0.448 1-1 1-1-0.448-1-1zM4 5c-1.103 0-2 0.897-2 2s0.897 2 2 2 2-0.897 2-2-0.897-2-2-2v0z"></path>
</svg>
