<?xml version="1.0" encoding="utf-8"?>
<!-- Generated by IcoMoon.io -->
<!DOCTYPE svg PUBLIC "-//W3C//DTD SVG 1.1//EN" "http://www.w3.org/Graphics/SVG/1.1/DTD/svg11.dtd">
<svg version="1.1" xmlns="http://www.w3.org/2000/svg" xmlns:xlink="http://www.w3.org/1999/xlink" width="18" height="16" viewBox="0 0 18 16">
<path fill="#000000" d="M8 10.5v-1.5h-6v4h3.5l2.5-2.5zM3 12v-2h4l-2 2h-2z"></path>
<path fill="#000000" d="M16 13v-4h-6v1.5l2.5 2.5z"></path>
<path fill="#000000" d="M10.376 0.098c-0.207-0.181-0.376-0.104-0.376 0.171v1.125c0 0.275 0.016 0.426 0.187 0.64l3.813 4.966h-10l3.813-4.966c0.172-0.215 0.187-0.365 0.187-0.64v-1.125c0-0.275-0.169-0.352-0.376-0.171l-7.624 6.902v8h6.5l2.5-2.5 2.5 2.5h6.5v-8l-7.624-6.902zM17 14h-5.086l-2.207-2.207c-0.195-0.195-0.451-0.293-0.707-0.293s-0.512 0.098-0.707 0.293l-2.207 2.207h-5.086v-6h16v6z"></path>
</svg>
