<?xml version="1.0" encoding="utf-8"?>
<!-- Generated by IcoMoon.io -->
<!DOCTYPE svg PUBLIC "-//W3C//DTD SVG 1.1//EN" "http://www.w3.org/Graphics/SVG/1.1/DTD/svg11.dtd">
<svg version="1.1" xmlns="http://www.w3.org/2000/svg" xmlns:xlink="http://www.w3.org/1999/xlink" width="16" height="16" viewBox="0 0 16 16">
<path fill="#000000" d="M11.392 10.927c-0.517 0-1.257-0.036-1.705-0.345-0.561-0.387-1.008-1.943-1.224-2.837-0.038-0.158-0.146-0.23-0.262-0.26l-0.201-0.017-0.204 0.018c-0.115 0.030-0.221 0.103-0.259 0.26-0.217 0.893-0.664 2.45-1.224 2.837-0.448 0.309-1.187 0.345-1.705 0.345-0.116 0-0.222-0.002-0.317-0.003-0.072-0.001-0.136-0.002-0.19-0.002-2.155 0-2.871-0.73-3.092-1.342-0.171-0.472-0.279-0.973-0.375-1.414-0.126-0.58-0.255-1.179-0.466-1.303l-0.071-0.042-0.031-0.076c-0.131-0.325-0.036-1.127-0.016-1.284l0.024-0.188 0.188-0.022c0.94-0.11 2.347-0.177 2.943-0.177 0.023 0 2.328 0.015 3.005 0.343 0.093 0.045 0.187 0.094 0.277 0.141 0.426 0.222 0.867 0.452 1.512 0.456 0.642-0.004 1.083-0.234 1.509-0.456 0.091-0.047 0.184-0.096 0.277-0.141 0.677-0.328 2.982-0.343 3.005-0.343 0.596 0 2.004 0.067 2.943 0.177l0.188 0.022 0.024 0.188c0.020 0.157 0.115 0.96-0.015 1.284l-0.031 0.076-0.071 0.042c-0.21 0.124-0.34 0.724-0.466 1.303-0.096 0.441-0.204 0.942-0.375 1.414-0.221 0.612-0.937 1.342-3.092 1.342-0.054 0-0.118 0.001-0.19 0.002-0.094 0.002-0.201 0.003-0.316 0.003zM12.935 6.109c-1.578 0-2.664 0.211-3.006 0.408-0.396 0.228-0.471 0.459-0.471 0.805 0 0.278 0.31 1.505 0.543 1.971 0.205 0.411 0.465 0.608 0.843 0.64 0.146 0.012 0.365 0.020 0.599 0.020 0.923 0 1.716-0.094 2.020-0.238 0.396-0.189 0.806-0.385 0.939-2.18 0.006-0.080 0.014-0.161 0.021-0.239 0.037-0.38 0.068-0.708-0.105-0.903-0.154-0.173-0.49-0.267-0.998-0.278-0.128-0.003-0.258-0.004-0.386-0.004zM3.065 6.109c-0.127 0-0.257 0.001-0.386 0.004-0.508 0.011-0.844 0.105-0.998 0.278-0.173 0.195-0.142 0.524-0.105 0.904 0.008 0.078 0.015 0.158 0.021 0.238 0.133 1.796 0.542 1.991 0.939 2.18 0.304 0.145 1.096 0.238 2.020 0.238 0.235 0 0.453-0.007 0.599-0.020 0.378-0.032 0.638-0.23 0.843-0.64 0.17-0.341 0.543-1.591 0.543-1.971 0-0.347-0.075-0.578-0.471-0.805-0.341-0.196-1.428-0.407-3.006-0.407z"></path>
</svg>
