<?xml version="1.0" encoding="utf-8"?>
<!-- Generated by IcoMoon.io -->
<!DOCTYPE svg PUBLIC "-//W3C//DTD SVG 1.1//EN" "http://www.w3.org/Graphics/SVG/1.1/DTD/svg11.dtd">
<svg version="1.1" xmlns="http://www.w3.org/2000/svg" xmlns:xlink="http://www.w3.org/1999/xlink" width="16" height="16" viewBox="0 0 16 16">
<path fill="#000000" d="M12 16h-5c-0.119 0-0.235-0.043-0.325-0.12l-3.5-3c-0.111-0.095-0.175-0.234-0.175-0.38v-4c0-0.276 0.224-0.5 0.5-0.5h1.5v-2.5c0-0.276 0.224-0.5 0.5-0.5h2c0 0 0 0 0 0h4c0.276 0 0.5 0.224 0.5 0.5v0.5h1.5c0.276 0 0.5 0.224 0.5 0.5v6c0 0.078-0.018 0.154-0.053 0.224l-1.5 3c-0.085 0.169-0.258 0.276-0.447 0.276zM7.185 15h4.506l1.309-2.618v-5.382h-1v1.5c0 0.276-0.224 0.5-0.5 0.5s-0.5-0.224-0.5-0.5v-2.5h-1v2.5c0 0.276-0.224 0.5-0.5 0.5s-0.5-0.224-0.5-0.5v-2.5h-1v2.5c0 0.276-0.224 0.5-0.5 0.5s-0.5-0.224-0.5-0.5v-2.5h-1v4.5c0 0.276-0.224 0.5-0.5 0.5s-0.5-0.224-0.5-0.5v-1.5h-1v3.27l3.185 2.73z"></path>
</svg>
