<?xml version="1.0" encoding="utf-8"?>
<!-- Generated by IcoMoon.io -->
<!DOCTYPE svg PUBLIC "-//W3C//DTD SVG 1.1//EN" "http://www.w3.org/Graphics/SVG/1.1/DTD/svg11.dtd">
<svg version="1.1" xmlns="http://www.w3.org/2000/svg" xmlns:xlink="http://www.w3.org/1999/xlink" width="16" height="16" viewBox="0 0 16 16">
<path fill="#000000" d="M13 7.768v-3.268c0-0.828-2.239-1.5-5-1.5s-5 0.672-5 1.5v3.268c-1.829 0.641-3 1.627-3 2.732 0 1.933 3.582 3.5 8 3.5s8-1.567 8-3.5c0-1.105-1.171-2.091-3-2.732zM13 10.5c0 0.828-2.239 1.5-5 1.5s-5-0.672-5-1.5v-2c0 0.828 2.239 1.5 5 1.5s5-0.672 5-1.5v2z"></path>
</svg>
