<?xml version="1.0" encoding="utf-8"?>
<!-- Generated by IcoMoon.io -->
<!DOCTYPE svg PUBLIC "-//W3C//DTD SVG 1.1//EN" "http://www.w3.org/Graphics/SVG/1.1/DTD/svg11.dtd">
<svg version="1.1" xmlns="http://www.w3.org/2000/svg" xmlns:xlink="http://www.w3.org/1999/xlink" width="16" height="16" viewBox="0 0 16 16">
<path fill="#000000" d="M8 0.5l-8 8 1.5 1.5 1.5-1.5v7.5h4v-3h2v3h4v-7.5l1.5 1.5 1.5-1.5-8-8zM4.125 15h-0.125v-7.5l0.125-0.125v7.625zM4.625 15h-0.25v-7.875l0.25-0.25v8.125zM5.125 15h-0.25v-8.375l0.25-0.25v8.625zM5.625 15h-0.25v-8.875l0.25-0.25v9.125zM6.125 12h-0.125v3h-0.125v-9.375l0.25-0.25v6.625zM6.625 12h-0.25v-6.875l0.25-0.25v7.125zM7.125 12h-0.25v-7.375l0.25-0.25v7.625zM7.625 12h-0.25v-7.875l0.25-0.25v8.125zM8.125 12h-0.25v-8.375l0.125-0.125 0.125 0.125v8.375zM8.625 12h-0.25v-8.125l0.25 0.25v7.875zM9.125 12h-0.25v-7.625l0.25 0.25v7.375zM9.625 12h-0.25v-7.125l0.25 0.25v6.875zM10.125 15h-0.125v-3h-0.125v-6.625l0.25 0.25v9.375zM10.625 15h-0.25v-9.125l0.25 0.25v8.875zM11.125 15h-0.25v-8.625l0.25 0.25v8.375zM11.625 15h-0.25v-8.125l0.25 0.25v7.875zM12 15h-0.125v-7.625l0.125 0.125v7.5z"></path>
</svg>
