<?xml version="1.0" encoding="utf-8"?>
<!-- Generated by IcoMoon.io -->
<!DOCTYPE svg PUBLIC "-//W3C//DTD SVG 1.1//EN" "http://www.w3.org/Graphics/SVG/1.1/DTD/svg11.dtd">
<svg version="1.1" xmlns="http://www.w3.org/2000/svg" xmlns:xlink="http://www.w3.org/1999/xlink" width="16" height="16" viewBox="0 0 16 16">
<path fill="#000000" d="M5.939 9.532c-1.49 0.81-2.591 2.472-2.87 4.468h9.862c-0.279-1.996-1.379-3.658-2.87-4.468-1.061-0.754-1.061-1.116-1.061-1.532s0-0.778 1.061-1.532c1.49-0.81 2.591-2.472 2.87-4.468h-9.862c0.279 1.996 1.379 3.658 2.87 4.468 1.061 0.754 1.061 1.116 1.061 1.532s-0 0.778-1.061 1.532zM2 15h12v1h-12zM2 0h12v1h-12z"></path>
</svg>
