<?xml version="1.0" encoding="utf-8"?>
<!-- Generated by IcoMoon.io -->
<!DOCTYPE svg PUBLIC "-//W3C//DTD SVG 1.1//EN" "http://www.w3.org/Graphics/SVG/1.1/DTD/svg11.dtd">
<svg version="1.1" xmlns="http://www.w3.org/2000/svg" xmlns:xlink="http://www.w3.org/1999/xlink" width="16" height="16" viewBox="0 0 16 16">
<path fill="#000000" d="M15.952 2.125h-15.904c-0.021 0.081-0.035 0.165-0.042 0.25h15.989c-0.007-0.085-0.021-0.169-0.042-0.25z"></path>
<path fill="#000000" d="M15.097 1.125h-14.194c-0.144 0.063-0.276 0.148-0.392 0.25h14.978c-0.116-0.102-0.248-0.187-0.392-0.25z"></path>
<path fill="#000000" d="M15.716 1.625h-15.432c-0.056 0.078-0.106 0.162-0.146 0.25h15.725c-0.041-0.088-0.090-0.172-0.146-0.25z"></path>
<path fill="#000000" d="M0.903 14.875h14.194c0.144-0.063 0.276-0.148 0.392-0.25h-14.978c0.116 0.102 0.248 0.187 0.392 0.25z"></path>
<path fill="#000000" d="M0.284 14.375h15.432c0.056-0.078 0.106-0.162 0.146-0.25h-15.725c0.041 0.088 0.090 0.172 0.146 0.25z"></path>
<path fill="#000000" d="M16 2.875v-0.25h-16v0.25h0.125v10.25h-0.125v0.25h16v-0.25h-0.125v-10.25h0.125zM1.375 2.875h0.25v10.25h-0.25v-10.25zM1.125 13.125h-0.25v-10.25h0.25v10.25zM1.875 2.875h12.25v10.25h-12.25v-10.25zM14.375 2.875h0.25v10.25h-0.25v-10.25zM14.875 2.875h0.25v10.25h-0.25v-10.25zM0.375 2.875h0.25v10.25h-0.25v-10.25zM15.625 13.125h-0.25v-10.25h0.25v10.25z"></path>
<path fill="#000000" d="M0.048 13.875h15.904c0.021-0.081 0.035-0.165 0.042-0.25h-15.989c0.007 0.085 0.021 0.169 0.042 0.25z"></path>
<path fill="#000000" d="M13.5 6l-3.5 3.5-3-3-5 5v1.5h12v-7z"></path>
</svg>
