<?xml version="1.0" encoding="utf-8"?>
<!-- Generated by IcoMoon.io -->
<!DOCTYPE svg PUBLIC "-//W3C//DTD SVG 1.1//EN" "http://www.w3.org/Graphics/SVG/1.1/DTD/svg11.dtd">
<svg version="1.1" xmlns="http://www.w3.org/2000/svg" xmlns:xlink="http://www.w3.org/1999/xlink" width="16" height="16" viewBox="0 0 16 16">
<path fill="#000000" d="M13 5.5c0 0.828-0.672 1.5-1.5 1.5s-1.5-0.672-1.5-1.5c0-0.828 0.672-1.5 1.5-1.5s1.5 0.672 1.5 1.5z"></path>
<path fill="#000000" d="M0 3v10c0 0.55 0.45 1 1 1h6v-1h-5.998c-0.001-0.001-0.001-0.001-0.002-0.002v-9.996c0.001-0.001 0.001-0.001 0.002-0.002h5.998v-1h-6c-0.55 0-1 0.45-1 1z"></path>
<path fill="#000000" d="M15 2h-6v-2h-1v16h1v-2h6c0.55 0 1-0.45 1-1v-10c0-0.55-0.45-1-1-1zM15 12.998c-0.001 0.001-0.001 0.001-0.002 0.002h-5.998v-1h5v-5l-3.5 3h-1l-0.5-0.625v-6.375h5.998c0.001 0.001 0.001 0.001 0.002 0.002v9.996z"></path>
<path fill="#000000" d="M2 11v1h5v-5.125l-1.5-1.875z"></path>
</svg>
