<?xml version="1.0" encoding="utf-8"?>
<!-- Generated by IcoMoon.io -->
<!DOCTYPE svg PUBLIC "-//W3C//DTD SVG 1.1//EN" "http://www.w3.org/Graphics/SVG/1.1/DTD/svg11.dtd">
<svg version="1.1" xmlns="http://www.w3.org/2000/svg" xmlns:xlink="http://www.w3.org/1999/xlink" width="16" height="16" viewBox="0 0 16 16">
<path fill="#000000" d="M7 11h2v-3h3v-2h-3v-3h-2v3h-3v2h3z"></path>
<path fill="#000000" d="M0.284 15.375h15.432c0.056-0.078 0.106-0.162 0.146-0.25h-15.725c0.041 0.088 0.090 0.172 0.146 0.25z"></path>
<path fill="#000000" d="M0.903 15.875h14.194c0.144-0.063 0.276-0.148 0.392-0.25h-14.978c0.116 0.102 0.248 0.187 0.392 0.25z"></path>
<path fill="#000000" d="M0.048 14.875h15.904c0.021-0.081 0.035-0.165 0.042-0.25h-15.989c0.007 0.085 0.021 0.169 0.042 0.25z"></path>
<path fill="#000000" d="M15.875 14.125v-6.125h-0.25v6.125h-0.25v-6.125h-0.25v6.125h-0.25v-6.125h-0.25v6.125h-0.25v-6.125h-0.25v6.125h-12.25v-6.125h-0.25v6.125h-0.25v-6.125h-0.25v6.125h-0.25v-6.125h-0.25v6.125h-0.25v-6.125h-0.25v6.125h-0.125v0.25h16v-0.25z"></path>
</svg>
