<?xml version="1.0" encoding="utf-8"?>
<!-- Generated by IcoMoon.io -->
<!DOCTYPE svg PUBLIC "-//W3C//DTD SVG 1.1//EN" "http://www.w3.org/Graphics/SVG/1.1/DTD/svg11.dtd">
<svg version="1.1" xmlns="http://www.w3.org/2000/svg" xmlns:xlink="http://www.w3.org/1999/xlink" width="16" height="16" viewBox="0 0 16 16">
<path fill="#000000" d="M14 0h-12c-1.1 0-2 0.9-2 2v12c0 1.1 0.9 2 2 2h12c1.1 0 2-0.9 2-2v-12c0-1.1-0.9-2-2-2zM15.25 13.625h-2.438c-0 0-0 0-0 0 0.119-0.074 0.231-0.158 0.336-0.25l-0 0h2.102v0.25zM12.735 12.735c-0.332 0.332-0.771 0.515-1.235 0.515h-7c-0.465 0-0.903-0.183-1.235-0.515s-0.515-0.771-0.515-1.235v-7c0-0.465 0.183-0.903 0.515-1.235s0.771-0.515 1.235-0.515h7c0.465 0 0.903 0.183 1.235 0.515s0.515 0.771 0.515 1.235v7c0 0.465-0.183 0.903-0.515 1.235zM15.25 13.125h-1.855c-0 0-0 0-0 0 0.068-0.079 0.132-0.163 0.19-0.25-0 0-0 0-0 0h1.665v0.25zM15.25 12.625h-1.52c0.041-0.081 0.078-0.164 0.111-0.25h1.409v0.25zM15.25 12.125h-1.33c-0 0.001-0.001 0.002-0.001 0.003 0.022-0.083 0.039-0.167 0.052-0.253h1.278v0.25zM15.25 11.625h-1.253c0 0-0 0-0 0 0.002-0.042 0.003-0.083 0.003-0.125v-0.125h1.25v0.25zM15.25 11.125h-1.25v-0.25h1.25v0.25zM15.25 10.625h-1.25v-0.25h1.25v0.25zM15.25 10.125h-1.25v-0.25h1.25v0.25zM15.25 9.625h-1.25v-0.25h1.25v0.25zM15.25 9.125h-1.25v-0.25h1.25v0.25zM15.25 8.625h-1.25v-0.25h1.25v0.25zM15.25 8.125h-1.25v-0.25h1.25v0.25zM15.25 7.625h-1.25v-0.25h1.25v0.25zM15.25 7.125h-1.25v-0.25h1.25v0.25zM15.25 6.625h-1.25v-0.25h1.25v0.25zM15.25 6.125h-1.25v-0.25h1.25v0.25zM15.25 5.625h-1.25v-0.25h1.25v0.25zM15.25 5.125h-1.25v-0.25h1.25v0.25zM15.25 4.625h-1.25v-0.125c0-0.042-0.001-0.084-0.003-0.125 0 0 0 0 0 0h1.253v0.25zM15.25 4.125h-1.278c-0.013-0.086-0.031-0.17-0.052-0.253 0 0.001 0.001 0.002 0.001 0.003h1.33v0.25zM15.25 3.625h-1.409c-0.032-0.086-0.069-0.169-0.111-0.25h1.52v0.25zM15.25 3.125h-1.665c0 0 0 0 0 0-0.058-0.087-0.121-0.171-0.19-0.25h1.855v0.25zM15.25 2.125h-1.375l-0.25 0.25h1.625v0.25h-1.875l-0.109 0.109c-0.453-0.453-1.078-0.734-1.766-0.734h-7c-1.375 0-2.5 1.125-2.5 2.5v7c0 0.688 0.281 1.313 0.734 1.766l-0.109 0.109h0.227c0.105 0.092 0.217 0.176 0.336 0.25 0 0-0-0-0-0h-0.813l-0.25 0.25h1.598c0.245 0.081 0.506 0.125 0.777 0.125h7c0.271 0 0.532-0.044 0.777-0.125h2.973v0.125c0 0.063-0.005 0.126-0.014 0.188 0.003-0.021 0.006-0.042 0.008-0.063h-13.369l-0.25 0.25h13.567c-0.043 0.136-0.11 0.264-0.198 0.379 0.032-0.041 0.061-0.084 0.087-0.129h-13.706l-0.25 0.25h13.764c-0.002 0.002-0.005 0.005-0.007 0.007-0.108 0.108-0.231 0.193-0.365 0.255h-13.035c-0.134-0.062-0.257-0.147-0.365-0.255-0.237-0.237-0.368-0.55-0.368-0.882v-12c0-0.332 0.131-0.645 0.368-0.882s0.55-0.368 0.882-0.368h12c0.332 0 0.645 0.131 0.882 0.368 0.002 0.002 0.005 0.005 0.007 0.007h-0.014l-0.25 0.25h0.456c-0.026-0.044-0.055-0.088-0.087-0.129 0.088 0.115 0.155 0.243 0.198 0.379h-0.817l-0.25 0.25h1.119c-0.002-0.021-0.005-0.042-0.008-0.063 0.009 0.062 0.014 0.125 0.014 0.188v0.125zM15.192 14.375c0.013-0.040 0.023-0.080 0.032-0.121-0.009 0.041-0.019 0.081-0.032 0.121zM15.224 14.251c0.004-0.019 0.007-0.038 0.010-0.057-0.003 0.019-0.006 0.038-0.010 0.057zM14.889 14.875c0.018-0.018 0.035-0.036 0.051-0.055-0.016 0.019-0.033 0.037-0.051 0.055zM14.947 14.812c0.015-0.018 0.030-0.036 0.045-0.055-0.014 0.019-0.029 0.037-0.045 0.055zM14.889 1.125c0.018 0.018 0.035 0.036 0.051 0.055-0.016-0.019-0.033-0.037-0.051-0.055zM14.947 1.188c0.015 0.018 0.030 0.036 0.045 0.055-0.014-0.019-0.029-0.037-0.045-0.055zM15.192 1.625c0.013 0.040 0.023 0.080 0.032 0.121-0.009-0.041-0.019-0.081-0.032-0.121zM15.224 1.749c0.004 0.019 0.007 0.038 0.010 0.058-0.003-0.019-0.006-0.039-0.010-0.058zM11 8l-3-3-3 3h2v3h2v-3z"></path>
</svg>
