<?xml version="1.0" encoding="utf-8"?>
<!-- Generated by IcoMoon.io -->
<!DOCTYPE svg PUBLIC "-//W3C//DTD SVG 1.1//EN" "http://www.w3.org/Graphics/SVG/1.1/DTD/svg11.dtd">
<svg version="1.1" xmlns="http://www.w3.org/2000/svg" xmlns:xlink="http://www.w3.org/1999/xlink" width="16" height="16" viewBox="0 0 16 16">
<path fill="#000000" d="M14 4h-13c-0.55 0-1 0.45-1 1v7c0 0.55 0.45 1 1 1h13c0.55 0 1-0.45 1-1v-7c0-0.55-0.45-1-1-1zM14 11.998c-0.001 0.001-0.001 0.001-0.002 0.002h-12.996c-0.001-0.001-0.001-0.001-0.002-0.002v-6.996c0.001-0.001 0.001-0.001 0.002-0.002h12.996c0.001 0.001 0.001 0.001 0.002 0.002v6.996zM4 10h7v1h-7zM11 8h1v1h-1zM9 8h1v1h-1zM7 8h1v1h-1zM5 8h1v1h-1zM3 8h1v1h-1zM10 6h1v1h-1zM12 6h1v1h-1zM8 6h1v1h-1zM6 6h1v1h-1zM4 6h1v1h-1zM2 6h1v1h-1z"></path>
</svg>
