<?xml version="1.0" encoding="utf-8"?>
<!-- Generated by IcoMoon.io -->
<!DOCTYPE svg PUBLIC "-//W3C//DTD SVG 1.1//EN" "http://www.w3.org/Graphics/SVG/1.1/DTD/svg11.dtd">
<svg version="1.1" xmlns="http://www.w3.org/2000/svg" xmlns:xlink="http://www.w3.org/1999/xlink" width="16" height="16" viewBox="0 0 16 16">
<path fill="#000000" d="M8 0c-3.314 0-6 2.686-6 6 0 2.221 1.207 4.16 3 5.197v3.803l1 1h4l1-1v-3.803c1.793-1.037 3-2.976 3-5.197 0-3.314-2.686-6-6-6zM5 5c0-0.552 0.448-1 1-1s1 0.448 1 1v4.5c0 0.276-0.224 0.5-0.5 0.5s-0.5-0.224-0.5-0.5v-3.5c-0.552 0-1-0.448-1-1zM9.5 13h-3c-0.275 0-0.5-0.225-0.5-0.5s0.225-0.5 0.5-0.5h3c0.275 0 0.5 0.225 0.5 0.5s-0.225 0.5-0.5 0.5zM10 6v3.5c0 0.276-0.224 0.5-0.5 0.5s-0.5-0.224-0.5-0.5v-4.5c0-0.552 0.448-1 1-1s1 0.448 1 1-0.448 1-1 1zM9.5 15h-3c-0.275 0-0.5-0.225-0.5-0.5s0.225-0.5 0.5-0.5h3c0.275 0 0.5 0.225 0.5 0.5s-0.225 0.5-0.5 0.5z"></path>
</svg>
