<?xml version="1.0" encoding="utf-8"?>
<!-- Generated by IcoMoon.io -->
<!DOCTYPE svg PUBLIC "-//W3C//DTD SVG 1.1//EN" "http://www.w3.org/Graphics/SVG/1.1/DTD/svg11.dtd">
<svg version="1.1" xmlns="http://www.w3.org/2000/svg" xmlns:xlink="http://www.w3.org/1999/xlink" width="16" height="16" viewBox="0 0 16 16">
<path fill="#000000" d="M14.907 7.209l-5-7c-0.094-0.131-0.245-0.209-0.407-0.209h-4c-0.161 0-0.313 0.078-0.407 0.209l-5 7c-0.109 0.152-0.123 0.353-0.038 0.519s0.257 0.271 0.445 0.271h5.5v1.5c0 0.388-0.414 0.646-1.089 1.036-0.429 0.248-0.872 0.504-1.234 0.867-0.449 0.45-0.677 0.988-0.677 1.597 0 0.875 0.070 1.856 0.91 2.416 0.729 0.486 1.914 0.584 3.59 0.584s2.86-0.098 3.59-0.584c0.84-0.56 0.91-1.541 0.91-2.416 0-0.61-0.228-1.147-0.677-1.597-0.362-0.363-0.806-0.619-1.234-0.867-0.675-0.39-1.089-0.648-1.089-1.036v-1.5h5.5c0.187 0 0.359-0.105 0.445-0.271s0.071-0.367-0.038-0.519zM5.757 1h3.485l2.857 4h-9.2l2.857-4zM9.589 11.402c0.878 0.507 1.411 0.867 1.411 1.598 0 0.953-0.117 1.352-0.465 1.584-0.437 0.292-1.345 0.416-3.035 0.416s-2.598-0.124-3.035-0.416c-0.348-0.232-0.465-0.631-0.465-1.584 0-0.73 0.533-1.091 1.411-1.598 0.745-0.43 1.589-0.917 1.589-1.902v-1.5h1v1.5c0 0.985 0.844 1.472 1.589 1.902zM1.472 7l0.714-1h10.628l0.714 1h-12.057z"></path>
</svg>
