<?xml version="1.0" encoding="utf-8"?>
<!-- Generated by IcoMoon.io -->
<!DOCTYPE svg PUBLIC "-//W3C//DTD SVG 1.1//EN" "http://www.w3.org/Graphics/SVG/1.1/DTD/svg11.dtd">
<svg version="1.1" xmlns="http://www.w3.org/2000/svg" xmlns:xlink="http://www.w3.org/1999/xlink" width="16" height="16" viewBox="0 0 16 16">
<path fill="#000000" d="M14 6c0-3.314-2.686-6-6-6s-6 2.686-6 6c0 2.221 1.207 4.16 3 5.197v3.803l1 1h4l1-1v-3.803c1.793-1.037 3-2.976 3-5.197zM9.5 13h-3c-0.275 0-0.5-0.225-0.5-0.5s0.225-0.5 0.5-0.5h3c0.275 0 0.5 0.225 0.5 0.5s-0.225 0.5-0.5 0.5zM10 10.585v-4.585c0.552 0 1-0.448 1-1s-0.448-1-1-1-1 0.448-1 1v5.9c-0.326 0.066-0.66 0.1-1 0.1s-0.674-0.034-1-0.1v-5.9c0-0.552-0.448-1-1-1s-1 0.448-1 1 0.448 1 1 1v4.585c-0.566-0.247-1.086-0.6-1.536-1.050-0.944-0.944-1.464-2.2-1.464-3.536s0.52-2.591 1.464-3.536 2.2-1.464 3.536-1.464c1.335 0 2.591 0.52 3.536 1.464s1.464 2.2 1.464 3.536-0.52 2.591-1.464 3.536c-0.45 0.45-0.97 0.803-1.536 1.050zM9.5 15h-3c-0.275 0-0.5-0.225-0.5-0.5s0.225-0.5 0.5-0.5h3c0.275 0 0.5 0.225 0.5 0.5s-0.225 0.5-0.5 0.5z"></path>
</svg>
