<?xml version="1.0" encoding="utf-8"?>
<!-- Generated by IcoMoon.io -->
<!DOCTYPE svg PUBLIC "-//W3C//DTD SVG 1.1//EN" "http://www.w3.org/Graphics/SVG/1.1/DTD/svg11.dtd">
<svg version="1.1" xmlns="http://www.w3.org/2000/svg" xmlns:xlink="http://www.w3.org/1999/xlink" width="16" height="16" viewBox="0 0 16 16">
<path fill="#000000" d="M5 10c-0.004 1.657 1.343 2 3 2s2.996-0.343 3-2 1.996-2.239 2-5-2.239-5-5-5c-2.761 0-4.996 2.239-5 5s2.004 3.343 2 5z"></path>
<path fill="#000000" d="M8 13c-1.234 0-2.259-0.274-2.463-1.516-0.024 0.168-0.037 0.34-0.037 0.516 0 1.657 1.119 2 2.5 2s2.5-0.343 2.5-2c0-0.176-0.013-0.348-0.037-0.516-0.204 1.241-1.229 1.516-2.463 1.516z"></path>
<path fill="#000000" d="M8 15c-0.987 0-1.807-0.274-1.97-1.516-0.019 0.168-0.030 0.34-0.030 0.516 0 1.657 0.895 2 2 2s2-0.343 2-2c0-0.176-0.010-0.348-0.030-0.516-0.163 1.241-0.983 1.516-1.97 1.516z"></path>
</svg>
