<?xml version="1.0" encoding="utf-8"?>
<!-- Generated by IcoMoon.io -->
<!DOCTYPE svg PUBLIC "-//W3C//DTD SVG 1.1//EN" "http://www.w3.org/Graphics/SVG/1.1/DTD/svg11.dtd">
<svg version="1.1" xmlns="http://www.w3.org/2000/svg" xmlns:xlink="http://www.w3.org/1999/xlink" width="16" height="16" viewBox="0 0 16 16">
<path fill="#000000" d="M15.802 2.102c-1.73-1.311-4.393-2.094-7.124-2.094-3.377 0-6.129 1.179-7.549 3.235-0.667 0.965-1.036 2.109-1.097 3.398-0.065 1.375 0.225 2.925 0.859 4.606-0.586 1.428-0.904 2.898-0.904 4.254 0 0.276 0.224 0.5 0.5 0.5s0.5-0.224 0.5-0.5c0-1.198 0.293-2.535 0.818-3.835 1.472 0.272 2.712 0.405 3.776 0.405 1.839 0 3.146-0.398 4.115-1.252 0.868-0.765 1.347-1.794 1.854-2.882 0.774-1.663 1.651-3.547 4.198-5.002 0.146-0.083 0.24-0.234 0.251-0.402s-0.063-0.329-0.197-0.431zM10.644 7.515c-0.481 1.034-0.897 1.927-1.608 2.554-0.776 0.684-1.873 1.002-3.454 1.002-0.945 0-2.047-0.113-3.351-0.345 0.238-0.476 0.507-0.941 0.804-1.386 0.692-1.036 1.505-1.931 2.417-2.661 0.984-0.788 2.059-1.36 3.193-1.7 0.264-0.079 0.415-0.358 0.335-0.623s-0.358-0.415-0.623-0.335c-1.257 0.377-2.445 1.009-3.53 1.878-0.991 0.794-1.874 1.765-2.623 2.886-0.252 0.378-0.485 0.767-0.698 1.163-0.36-1.185-0.52-2.279-0.474-3.261 0.052-1.099 0.361-2.067 0.921-2.876 0.636-0.92 1.583-1.633 2.816-2.119 1.134-0.447 2.487-0.684 3.911-0.684 2.172 0 4.357 0.555 5.9 1.475-2.314 1.551-3.206 3.467-3.935 5.032z"></path>
</svg>
