<?xml version="1.0" encoding="utf-8"?>
<!-- Generated by IcoMoon.io -->
<!DOCTYPE svg PUBLIC "-//W3C//DTD SVG 1.1//EN" "http://www.w3.org/Graphics/SVG/1.1/DTD/svg11.dtd">
<svg version="1.1" xmlns="http://www.w3.org/2000/svg" xmlns:xlink="http://www.w3.org/1999/xlink" width="16" height="16" viewBox="0 0 16 16">
<path fill="#000000" d="M15.071 5.799c-0.456 0-2.015-0.834-2.015-0.834-0.888-0.495-1.895-1.057-3.031-1.057-0.84 0-1.52 0.133-2.025 0.396-0.505-0.263-1.185-0.396-2.025-0.396-1.136 0-2.143 0.562-3.031 1.057 0 0-1.558 0.834-2.015 0.834-0.697 0-1.416 0.927-0.49 1.793 0.497 0.38 0.972 0.855 1.475 1.357 0.734 0.733 1.494 1.492 2.445 2.090 1.126 0.708 2.317 1.053 3.64 1.053s2.514-0.344 3.64-1.053c0.952-0.599 1.711-1.357 2.445-2.090 0.503-0.502 0.978-0.977 1.475-1.357 0.926-0.867 0.206-1.793-0.49-1.793zM8 11.192c-3.509 0-4.989-2.765-7.014-4.315 0.714 0.546 4.64 2.081 7.014 2.081s6.3-1.534 7.014-2.081c-2.025 1.55-3.505 4.315-7.014 4.315zM8 7.508c-2.7 0-7.2-0.813-7.2-0.813l0.141-0.004c1.742-0.101 3.281-1.882 5.034-1.882 1.8 0 2.025 0.675 2.025 0.675s0.225-0.675 2.025-0.675c1.753 0 3.292 1.782 5.034 1.882l0.141 0.004c-0 0-4.5 0.813-7.2 0.813z"></path>
</svg>
