<?xml version="1.0" encoding="utf-8"?>
<!-- Generated by IcoMoon.io -->
<!DOCTYPE svg PUBLIC "-//W3C//DTD SVG 1.1//EN" "http://www.w3.org/Graphics/SVG/1.1/DTD/svg11.dtd">
<svg version="1.1" xmlns="http://www.w3.org/2000/svg" xmlns:xlink="http://www.w3.org/1999/xlink" width="16" height="16" viewBox="0 0 16 16">
<path fill="#000000" d="M8 0c-2.761 0-5 2.239-5 5 0 5 5 9 5 9s5-4 5-9c0-2.761-2.239-5-5-5zM8 8.063c-1.691 0-3.063-1.371-3.063-3.063s1.371-3.063 3.063-3.063 3.063 1.371 3.063 3.063-1.371 3.063-3.063 3.063zM6.063 5c0 1.070 0.867 1.938 1.938 1.938s1.938-0.867 1.938-1.938-0.867-1.938-1.938-1.938c-1.070 0-1.938 0.867-1.938 1.938zM12.285 10.9c-0.222 0.348-0.451 0.678-0.682 0.988 0.037 0.017 0.073 0.035 0.108 0.052 0.76 0.38 1.101 0.806 1.101 1.059s-0.34 0.679-1.101 1.059c-0.957 0.479-2.31 0.753-3.712 0.753s-2.754-0.275-3.712-0.753c-0.76-0.38-1.101-0.806-1.101-1.059s0.34-0.679 1.101-1.059c0.036-0.018 0.072-0.035 0.108-0.052-0.231-0.31-0.461-0.64-0.682-0.988-1.061 0.541-1.715 1.282-1.715 2.1 0 1.657 2.686 3 6 3s6-1.343 6-3c0-0.817-0.654-1.558-1.715-2.1z"></path>
</svg>
