<?xml version="1.0" encoding="utf-8"?>
<!-- Generated by IcoMoon.io -->
<!DOCTYPE svg PUBLIC "-//W3C//DTD SVG 1.1//EN" "http://www.w3.org/Graphics/SVG/1.1/DTD/svg11.dtd">
<svg version="1.1" xmlns="http://www.w3.org/2000/svg" xmlns:xlink="http://www.w3.org/1999/xlink" width="16" height="16" viewBox="0 0 16 16">
<path fill="#000000" d="M8 0c-3.314 0-6 2.686-6 6 0 6 6 10 6 10s6-4 6-10c0-3.314-2.686-6-6-6zM10.093 12.387c-0.772 0.909-1.555 1.608-2.093 2.046-0.539-0.439-1.321-1.137-2.093-2.046-0.785-0.924-1.407-1.883-1.849-2.85-0.536-1.171-0.807-2.361-0.807-3.537 0-1.269 0.494-2.462 1.391-3.359s2.090-1.391 3.359-1.391c1.269 0 2.462 0.494 3.359 1.391s1.391 2.090 1.391 3.359c0 1.175-0.272 2.365-0.807 3.537-0.442 0.967-1.064 1.926-1.849 2.85zM8 3c-1.105 0-2 0.895-2 2s0.895 2 2 2c1.105 0 2-0.895 2-2s-0.895-2-2-2zM8 6c-0.552 0-1-0.448-1-1s0.448-1 1-1c0.552 0 1 0.448 1 1s-0.448 1-1 1z"></path>
</svg>
