<?xml version="1.0" encoding="utf-8"?>
<!-- Generated by IcoMoon.io -->
<!DOCTYPE svg PUBLIC "-//W3C//DTD SVG 1.1//EN" "http://www.w3.org/Graphics/SVG/1.1/DTD/svg11.dtd">
<svg version="1.1" xmlns="http://www.w3.org/2000/svg" xmlns:xlink="http://www.w3.org/1999/xlink" width="16" height="16" viewBox="0 0 16 16">
<path fill="#000000" d="M5.5 2c-1.933 0-3.5 1.567-3.5 3.5 0 0.744 0.232 1.433 0.628 2l2.872 3.5 2.872-3.5c0.396-0.567 0.628-1.256 0.628-2 0-1.933-1.567-3.5-3.5-3.5zM5.5 7c-0.828 0-1.5-0.672-1.5-1.5s0.672-1.5 1.5-1.5 1.5 0.672 1.5 1.5-0.672 1.5-1.5 1.5z"></path>
<path fill="#000000" d="M15.5 0h-15c-0.276 0-0.5 0.224-0.5 0.5v15c0 0.276 0.224 0.5 0.5 0.5h15c0.276 0 0.5-0.224 0.5-0.5v-15c0-0.276-0.224-0.5-0.5-0.5zM1 15v-1h8v-2h-8v-11h9v14h-9zM15 15h-3v-1h3v1zM15 12h-3v-11h3v11z"></path>
</svg>
