<?xml version="1.0" encoding="utf-8"?>
<!-- Generated by IcoMoon.io -->
<!DOCTYPE svg PUBLIC "-//W3C//DTD SVG 1.1//EN" "http://www.w3.org/Graphics/SVG/1.1/DTD/svg11.dtd">
<svg version="1.1" xmlns="http://www.w3.org/2000/svg" xmlns:xlink="http://www.w3.org/1999/xlink" width="16" height="16" viewBox="0 0 16 16">
<path fill="#000000" d="M8 4c-4.418 0-8 3.582-8 8h1c0-1.819 0.809-3.449 2.088-4.549l3.052 3.815c-0.090 0.227-0.14 0.475-0.14 0.734 0 1.105 0.895 2 2 2s2-0.895 2-2-0.895-2-2-2c-0.259 0-0.507 0.050-0.734 0.14l-3.766-3.013c0.985-0.709 2.194-1.127 3.501-1.127 3.314 0 6 2.686 6 6h3c0-4.418-3.582-8-8-8z"></path>
</svg>
