<?xml version="1.0" encoding="utf-8"?>
<!-- Generated by IcoMoon.io -->
<!DOCTYPE svg PUBLIC "-//W3C//DTD SVG 1.1//EN" "http://www.w3.org/Graphics/SVG/1.1/DTD/svg11.dtd">
<svg version="1.1" xmlns="http://www.w3.org/2000/svg" xmlns:xlink="http://www.w3.org/1999/xlink" width="16" height="16" viewBox="0 0 16 16">
<path fill="#000000" d="M8 4c-4.418 0-8 3.582-8 8h1c0-3.314 2.686-6 6-6 1.763 0 3.348 0.76 4.446 1.971l-2.711 2.169c-0.227-0.090-0.475-0.14-0.734-0.14-1.105 0-2 0.895-2 2s0.895 2 2 2c1.105 0 2-0.895 2-2 0-0.259-0.050-0.507-0.14-0.734l2.106-2.633c0.652 0.96 1.033 2.119 1.033 3.367h3c0-4.418-3.582-8-8-8z"></path>
</svg>
