<?xml version="1.0" encoding="utf-8"?>
<!-- Generated by IcoMoon.io -->
<!DOCTYPE svg PUBLIC "-//W3C//DTD SVG 1.1//EN" "http://www.w3.org/Graphics/SVG/1.1/DTD/svg11.dtd">
<svg version="1.1" xmlns="http://www.w3.org/2000/svg" xmlns:xlink="http://www.w3.org/1999/xlink" width="16" height="16" viewBox="0 0 16 16">
<path fill="#000000" d="M10.735 1.765c-0.471-1.041-1.518-1.765-2.735-1.765-1.657 0-3 1.343-3 3v4c0 0.158 0.012 0.313 0.036 0.464l5.699-5.699z"></path>
<path fill="#000000" d="M3.824 8.676c-0.209-0.518-0.324-1.084-0.324-1.676 0-0.073 0.002-0.147 0.005-0.22 0.020-0.414-0.299-0.765-0.713-0.785s-0.765 0.299-0.785 0.713c-0.005 0.097-0.007 0.195-0.007 0.292 0 1.012 0.252 1.967 0.696 2.804l1.128-1.128z"></path>
<path fill="#000000" d="M13.208 5.993c-0.414 0.020-0.733 0.372-0.713 0.785 0.004 0.073 0.005 0.148 0.005 0.222 0 2.483-2.019 4.503-4.5 4.503-0.858 0-1.66-0.241-2.343-0.66l1.108-1.108c0.377 0.17 0.795 0.265 1.235 0.265 1.657 0 3-1.343 3-3v-1.5l4.5-4.5-1-1-14.5 14.5 1 1 3.575-3.575c0.712 0.497 1.535 0.844 2.425 0.994v2.081c0 0.552 0.448 1 1 1s1-0.448 1-1v-2.081c2.834-0.478 5-2.95 5-5.919 0-0.098-0.002-0.197-0.007-0.294-0.020-0.414-0.371-0.733-0.785-0.713z"></path>
</svg>
