<?xml version="1.0" encoding="utf-8"?>
<!-- Generated by IcoMoon.io -->
<!DOCTYPE svg PUBLIC "-//W3C//DTD SVG 1.1//EN" "http://www.w3.org/Graphics/SVG/1.1/DTD/svg11.dtd">
<svg version="1.1" xmlns="http://www.w3.org/2000/svg" xmlns:xlink="http://www.w3.org/1999/xlink" width="16" height="16" viewBox="0 0 16 16">
<path fill="#000000" d="M14 7c0-0.098-0.002-0.197-0.007-0.294-0.020-0.414-0.371-0.733-0.785-0.713s-0.733 0.372-0.713 0.785c0.004 0.073 0.005 0.148 0.005 0.222 0 2.483-2.019 4.503-4.5 4.503s-4.5-2.020-4.5-4.503c0-0.073 0.002-0.147 0.005-0.22 0.020-0.414-0.299-0.765-0.713-0.785s-0.765 0.299-0.785 0.713c-0.005 0.097-0.007 0.195-0.007 0.292 0 2.969 2.166 5.441 5 5.919v2.081c0 0.552 0.448 1 1 1s1-0.448 1-1v-2.081c2.834-0.478 5-2.95 5-5.919z"></path>
<path fill="#000000" d="M8 1.5c0.827 0 1.5 0.673 1.5 1.5v4c0 0.827-0.673 1.5-1.5 1.5s-1.5-0.673-1.5-1.5v-4c0-0.827 0.673-1.5 1.5-1.5zM8 0c-1.657 0-3 1.343-3 3v4c0 1.657 1.343 3 3 3s3-1.343 3-3v-4c0-1.657-1.343-3-3-3v0z"></path>
</svg>
