<?xml version="1.0" encoding="utf-8"?>
<!-- Generated by IcoMoon.io -->
<!DOCTYPE svg PUBLIC "-//W3C//DTD SVG 1.1//EN" "http://www.w3.org/Graphics/SVG/1.1/DTD/svg11.dtd">
<svg version="1.1" xmlns="http://www.w3.org/2000/svg" xmlns:xlink="http://www.w3.org/1999/xlink" width="16" height="16" viewBox="0 0 16 16">
<path fill="#000000" d="M4 9c0 1.1 0.9 2 2 2h4c1.1 0 2-0.9 2-2v-3h-8v3z"></path>
<path fill="#000000" d="M14.5 5h-2c-0.276 0-0.5 0.224-0.5 0.5s0.224 0.5 0.5 0.5h0.5v3c0 1.654-1.346 3-3 3h-4c-1.654 0-3-1.346-3-3v-3h0.5c0.276 0 0.5-0.224 0.5-0.5s-0.224-0.5-0.5-0.5h-2c-0.276 0-0.5 0.224-0.5 0.5s0.224 0.5 0.5 0.5h0.5v3c0 2.206 1.794 4 4 4h1v2h-1.5c-0.276 0-0.5 0.224-0.5 0.5s0.224 0.5 0.5 0.5h5c0.276 0 0.5-0.224 0.5-0.5s-0.224-0.5-0.5-0.5h-1.5v-2h1c2.206 0 4-1.794 4-4v-3h0.5c0.276 0 0.5-0.224 0.5-0.5s-0.224-0.5-0.5-0.5z"></path>
<path fill="#000000" d="M10 0h-4c-1.1 0-2 0.9-2 2v3h8v-3c0-1.1-0.9-2-2-2zM5.5 3.75c-0.138 0-0.25-0.112-0.25-0.25s0.112-0.25 0.25-0.25 0.25 0.112 0.25 0.25-0.112 0.25-0.25 0.25zM5.5 2.75c-0.138 0-0.25-0.112-0.25-0.25s0.112-0.25 0.25-0.25 0.25 0.112 0.25 0.25-0.112 0.25-0.25 0.25zM5.5 1.75c-0.138 0-0.25-0.112-0.25-0.25s0.112-0.25 0.25-0.25 0.25 0.112 0.25 0.25-0.112 0.25-0.25 0.25zM6.5 3.75c-0.138 0-0.25-0.112-0.25-0.25s0.112-0.25 0.25-0.25 0.25 0.112 0.25 0.25-0.112 0.25-0.25 0.25zM6.5 2.75c-0.138 0-0.25-0.112-0.25-0.25s0.112-0.25 0.25-0.25 0.25 0.112 0.25 0.25-0.112 0.25-0.25 0.25zM6.5 1.75c-0.138 0-0.25-0.112-0.25-0.25s0.112-0.25 0.25-0.25 0.25 0.112 0.25 0.25-0.112 0.25-0.25 0.25zM7.5 3.75c-0.138 0-0.25-0.112-0.25-0.25s0.112-0.25 0.25-0.25 0.25 0.112 0.25 0.25-0.112 0.25-0.25 0.25zM7.5 2.75c-0.138 0-0.25-0.112-0.25-0.25s0.112-0.25 0.25-0.25 0.25 0.112 0.25 0.25-0.112 0.25-0.25 0.25zM7.5 1.75c-0.138 0-0.25-0.112-0.25-0.25s0.112-0.25 0.25-0.25 0.25 0.112 0.25 0.25-0.112 0.25-0.25 0.25zM8.5 3.75c-0.138 0-0.25-0.112-0.25-0.25s0.112-0.25 0.25-0.25 0.25 0.112 0.25 0.25-0.112 0.25-0.25 0.25zM8.5 2.75c-0.138 0-0.25-0.112-0.25-0.25s0.112-0.25 0.25-0.25 0.25 0.112 0.25 0.25-0.112 0.25-0.25 0.25zM8.5 1.75c-0.138 0-0.25-0.112-0.25-0.25s0.112-0.25 0.25-0.25 0.25 0.112 0.25 0.25-0.112 0.25-0.25 0.25zM9.5 3.75c-0.138 0-0.25-0.112-0.25-0.25s0.112-0.25 0.25-0.25 0.25 0.112 0.25 0.25-0.112 0.25-0.25 0.25zM9.5 2.75c-0.138 0-0.25-0.112-0.25-0.25s0.112-0.25 0.25-0.25 0.25 0.112 0.25 0.25-0.112 0.25-0.25 0.25zM9.5 1.75c-0.138 0-0.25-0.112-0.25-0.25s0.112-0.25 0.25-0.25 0.25 0.112 0.25 0.25-0.112 0.25-0.25 0.25zM10.5 3.75c-0.138 0-0.25-0.112-0.25-0.25s0.112-0.25 0.25-0.25 0.25 0.112 0.25 0.25-0.112 0.25-0.25 0.25zM10.5 2.75c-0.138 0-0.25-0.112-0.25-0.25s0.112-0.25 0.25-0.25 0.25 0.112 0.25 0.25-0.112 0.25-0.25 0.25zM10.5 1.75c-0.138 0-0.25-0.112-0.25-0.25s0.112-0.25 0.25-0.25 0.25 0.112 0.25 0.25-0.112 0.25-0.25 0.25z"></path>
</svg>
