<?xml version="1.0" encoding="utf-8"?>
<!-- Generated by IcoMoon.io -->
<!DOCTYPE svg PUBLIC "-//W3C//DTD SVG 1.1//EN" "http://www.w3.org/Graphics/SVG/1.1/DTD/svg11.dtd">
<svg version="1.1" xmlns="http://www.w3.org/2000/svg" xmlns:xlink="http://www.w3.org/1999/xlink" width="16" height="16" viewBox="0 0 16 16">
<path fill="#000000" d="M14 6.502v-0.002h-0c0-0.095-0.027-0.192-0.084-0.277l-1.916-2.874v-2.849c0-0.276-0.224-0.5-0.5-0.5h-8c-0.276 0-0.5 0.224-0.5 0.5v2.849l-1.914 2.871c-0 0-0.001 0.001-0.001 0.001l-0.001 0.001 0 0c-0.053 0.079-0.084 0.175-0.084 0.277v9c0 0.276 0.224 0.5 0.5 0.5h12c0.276 0 0.5-0.224 0.5-0.5v-8.997c0-0.001 0-0.001 0-0.002zM4 1h7v2h-7v-2zM3.768 4h6.798l-1.333 2h-6.798l1.333-2zM2 7h7v8h-7v-8zM10 15v-8.349l1.5-2.25 1.5 2.25v8.349h-3z"></path>
<path fill="#000000" d="M4 9h3v4h-3v-4z"></path>
</svg>
