<?xml version="1.0" encoding="utf-8"?>
<!-- Generated by IcoMoon.io -->
<!DOCTYPE svg PUBLIC "-//W3C//DTD SVG 1.1//EN" "http://www.w3.org/Graphics/SVG/1.1/DTD/svg11.dtd">
<svg version="1.1" xmlns="http://www.w3.org/2000/svg" xmlns:xlink="http://www.w3.org/1999/xlink" width="16" height="16" viewBox="0 0 16 16">
<path fill="#000000" d="M7.5 1c-1.5 0-4.5 0.584-4.5 3v6.625c0 2.416 2.015 4.375 4.5 4.375s4.5-1.959 4.5-4.375v-6.625c0-2.416-3-3-4.5-3zM11 10.625c0 0.896-0.361 1.74-1.015 2.377-0.321 0.313-0.696 0.558-1.114 0.73-0.434 0.178-0.895 0.269-1.371 0.269s-0.938-0.090-1.371-0.269c-0.417-0.172-0.792-0.417-1.114-0.73-0.655-0.636-1.015-1.48-1.015-2.377v-3.625h7v3.625zM11 6h-3v-4c0.59 0.051 1.294 0.216 1.881 0.496 0.369 0.176 0.65 0.387 0.835 0.627 0.191 0.247 0.284 0.534 0.284 0.877v2z"></path>
</svg>
