<?xml version="1.0" encoding="utf-8"?>
<!-- Generated by IcoMoon.io -->
<!DOCTYPE svg PUBLIC "-//W3C//DTD SVG 1.1//EN" "http://www.w3.org/Graphics/SVG/1.1/DTD/svg11.dtd">
<svg version="1.1" xmlns="http://www.w3.org/2000/svg" xmlns:xlink="http://www.w3.org/1999/xlink" width="16" height="16" viewBox="0 0 16 16">
<path fill="#000000" d="M15.5 16h-9.5c-0.172 0-0.333-0.089-0.424-0.235l-2.5-4c-0.143-0.229-0.078-0.531 0.147-0.681l1.5-1c0.213-0.142 0.498-0.1 0.661 0.096l1.616 1.939v-7.619c0-0.276 0.224-0.5 0.5-0.5h2c0.276 0 0.5 0.224 0.5 0.5v3.11l5.621 1.405c0.223 0.056 0.379 0.256 0.379 0.485v6c0 0.276-0.224 0.5-0.5 0.5v0zM6.277 15h8.723v-5.11l-1-0.25v2.86c0 0.276-0.224 0.5-0.5 0.5s-0.5-0.224-0.5-0.5v-3.11l-1-0.25v2.36c0 0.276-0.224 0.5-0.5 0.5s-0.5-0.224-0.5-0.5v-2.61l-1-0.25v3.86c0 0.276-0.224 0.5-0.5 0.5s-0.5-0.224-0.5-0.5v-7.5h-1v8.5c0 0.21-0.132 0.398-0.33 0.47s-0.42 0.012-0.554-0.15l-2.212-2.655-0.722 0.481 2.096 3.353z"></path>
<path fill="#000000" d="M11.5 5c-0.276 0-0.5-0.224-0.5-0.5 0-1.378-1.122-2.5-2.5-2.5s-2.5 1.122-2.5 2.5c0 0.276-0.224 0.5-0.5 0.5s-0.5-0.224-0.5-0.5c0-1.93 1.57-3.5 3.5-3.5s3.5 1.57 3.5 3.5c0 0.276-0.224 0.5-0.5 0.5z"></path>
<path fill="#000000" d="M2.5 14.663c-0.072 0-0.145-0.016-0.214-0.049-0.674-0.32-1.244-0.821-1.649-1.449-0.416-0.645-0.636-1.394-0.636-2.165 0-2.206 1.794-4 4-4 0.6 0 1.177 0.13 1.715 0.385 0.249 0.119 0.356 0.417 0.237 0.666s-0.417 0.356-0.666 0.237c-0.403-0.191-0.835-0.288-1.285-0.288-1.654 0-3 1.346-3 3 0 1.152 0.673 2.217 1.715 2.712 0.249 0.118 0.356 0.417 0.237 0.666-0.086 0.18-0.265 0.286-0.452 0.286z"></path>
</svg>
