<?xml version="1.0" encoding="utf-8"?>
<!-- Generated by IcoMoon.io -->
<!DOCTYPE svg PUBLIC "-//W3C//DTD SVG 1.1//EN" "http://www.w3.org/Graphics/SVG/1.1/DTD/svg11.dtd">
<svg version="1.1" xmlns="http://www.w3.org/2000/svg" xmlns:xlink="http://www.w3.org/1999/xlink" width="16" height="16" viewBox="0 0 16 16">
<path fill="#000000" d="M15 0l-9 2v9.751c-0.635-0.463-1.521-0.751-2.5-0.751-1.933 0-3.5 1.119-3.5 2.5s1.567 2.5 3.5 2.5 3.5-1.119 3.5-2.5v-6.46l8-1.778v4.488c-0.635-0.463-1.521-0.751-2.5-0.751-1.933 0-3.5 1.119-3.5 2.5s1.567 2.5 3.5 2.5 3.5-1.119 3.5-2.5v-11.5h-1zM3.5 14.813c-1.324 0-2.313-0.693-2.313-1.313s0.989-1.313 2.313-1.313 2.313 0.693 2.313 1.313-0.989 1.313-2.313 1.313zM12.5 12.813c-1.324 0-2.313-0.693-2.313-1.313s0.989-1.313 2.313-1.313 2.313 0.693 2.313 1.313-0.989 1.313-2.313 1.313zM15 3.982l-8 1.778v-1.982l8-1.778v1.982z"></path>
</svg>
