<?xml version="1.0" encoding="utf-8"?>
<!-- Generated by IcoMoon.io -->
<!DOCTYPE svg PUBLIC "-//W3C//DTD SVG 1.1//EN" "http://www.w3.org/Graphics/SVG/1.1/DTD/svg11.dtd">
<svg version="1.1" xmlns="http://www.w3.org/2000/svg" xmlns:xlink="http://www.w3.org/1999/xlink" width="16" height="16" viewBox="0 0 16 16">
<path fill="#000000" d="M5 3v8.241c-0.455-0.154-0.963-0.241-1.5-0.241-1.933 0-3.5 1.119-3.5 2.5s1.567 2.5 3.5 2.5 3.5-1.119 3.5-2.5v-4.737l7-1.909v2.387c-0.455-0.154-0.963-0.241-1.5-0.241-1.933 0-3.5 1.119-3.5 2.5s1.567 2.5 3.5 2.5 3.5-1.119 3.5-2.5v-11.5l-11 3zM7 7.208v-1.521l7-1.909v1.521l-7 1.909z"></path>
</svg>
