<?xml version="1.0" encoding="utf-8"?>
<!-- Generated by IcoMoon.io -->
<!DOCTYPE svg PUBLIC "-//W3C//DTD SVG 1.1//EN" "http://www.w3.org/Graphics/SVG/1.1/DTD/svg11.dtd">
<svg version="1.1" xmlns="http://www.w3.org/2000/svg" xmlns:xlink="http://www.w3.org/1999/xlink" width="16" height="16" viewBox="0 0 16 16">
<path fill="#000000" d="M11 0l-10 2v11l3 3 10-2v-11l-3-3zM10.753 0.814l2.363 2.363-8.232 1.646-2.363-2.363 8.232-1.646zM5 5.565l0.125-0.025v9.47l-0.125 0.025v-9.47zM5.375 5.49l0.25-0.050v9.47l-0.25 0.050v-9.47zM5.875 5.39l0.25-0.050v9.47l-0.25 0.050v-9.47zM6.375 5.29l0.25-0.050v9.47l-0.25 0.050v-9.47zM6.875 5.19l0.25-0.050v9.47l-0.25 0.050v-9.47zM7.375 5.090l0.25-0.050v9.47l-0.25 0.050v-9.47zM7.875 4.99l0.25-0.050v9.47l-0.25 0.050v-9.47zM8.375 4.89l0.25-0.050v9.47l-0.25 0.050v-9.47zM8.875 4.79l0.25-0.050v9.47l-0.25 0.050v-9.47zM9.375 4.69l0.25-0.050v9.47l-0.25 0.050v-9.47zM9.875 4.59l0.25-0.050v9.47l-0.25 0.050v-9.47zM10.375 4.49l0.25-0.050v9.47l-0.25 0.050v-9.47zM10.875 4.39l0.25-0.050v9.47l-0.25 0.050v-9.47zM11.375 4.29l0.25-0.050v9.47l-0.25 0.050v-9.47zM11.875 4.19l0.25-0.050v9.47l-0.25 0.050v-9.47zM12.375 4.090l0.25-0.050v9.47l-0.25 0.050v-9.47zM12.875 3.99l0.125-0.025v9.47l-0.125 0.025v-9.47z"></path>
</svg>
