<?xml version="1.0" encoding="utf-8"?>
<!-- Generated by IcoMoon.io -->
<!DOCTYPE svg PUBLIC "-//W3C//DTD SVG 1.1//EN" "http://www.w3.org/Graphics/SVG/1.1/DTD/svg11.dtd">
<svg version="1.1" xmlns="http://www.w3.org/2000/svg" xmlns:xlink="http://www.w3.org/1999/xlink" width="16" height="16" viewBox="0 0 16 16">
<path fill="#000000" d="M8 2c-4.418 0-8 3.134-8 7 0 2.592 1.61 4.855 4.003 6.065 1.35 0.667 2.504 0.182 1.692-0.965-0.434-0.434-0.695-0.992-0.695-1.6 0-1.381 1.343-2.5 3-2.5s3 1.119 3 2.5c0 0.609-0.261 1.167-0.695 1.6-0.812 1.146 0.342 1.632 1.692 0.965 2.393-1.21 4.003-3.473 4.003-6.065 0-3.866-3.582-7-8-7zM2 10c-0.552 0-1-0.448-1-1s0.448-1 1-1 1 0.448 1 1-0.448 1-1 1zM4 6.866c-0.717 0.414-1.523 0.362-1.799-0.116s0.082-1.202 0.799-1.616 1.523-0.362 1.799 0.116c0.276 0.478-0.082 1.202-0.799 1.616zM8 6c-1.105 0-2-0.672-2-1.5s0.895-1.5 2-1.5c1.105 0 2 0.672 2 1.5s-0.895 1.5-2 1.5zM12 6.866c-0.717-0.414-1.075-1.138-0.799-1.616s1.082-0.53 1.799-0.116 1.075 1.138 0.799 1.616-1.082 0.53-1.799 0.116zM14 10c-0.552 0-1-0.448-1-1s0.448-1 1-1 1 0.448 1 1-0.448 1-1 1z"></path>
</svg>
