<?xml version="1.0" encoding="utf-8"?>
<!-- Generated by IcoMoon.io -->
<!DOCTYPE svg PUBLIC "-//W3C//DTD SVG 1.1//EN" "http://www.w3.org/Graphics/SVG/1.1/DTD/svg11.dtd">
<svg version="1.1" xmlns="http://www.w3.org/2000/svg" xmlns:xlink="http://www.w3.org/1999/xlink" width="16" height="16" viewBox="0 0 16 16">
<path fill="#000000" d="M8 8v2h0.5l0.5-1h1v4h-0.75v1h3.5v-1h-0.75v-4h1l0.5 1h0.5v-2z"></path>
<path fill="#000000" d="M13 5v-2.5c0-0.275-0.225-0.5-0.5-0.5h-3.5v-1c0-0.55-0.45-1-1-1h-2c-0.55 0-1 0.45-1 1v1h-3.5c-0.275 0-0.5 0.225-0.5 0.5v10c0 0.275 0.225 0.5 0.5 0.5h4.5v3h10v-11h-3zM6 1.002c0.001-0.001 0.001-0.001 0.002-0.002h1.996c0.001 0.001 0.001 0.001 0.002 0.002v0.998h-2v-0.998zM3 4v-1h8v1h-8zM15 15h-8v-9h8v9z"></path>
</svg>
