<?xml version="1.0" encoding="utf-8"?>
<!-- Generated by IcoMoon.io -->
<!DOCTYPE svg PUBLIC "-//W3C//DTD SVG 1.1//EN" "http://www.w3.org/Graphics/SVG/1.1/DTD/svg11.dtd">
<svg version="1.1" xmlns="http://www.w3.org/2000/svg" xmlns:xlink="http://www.w3.org/1999/xlink" width="16" height="16" viewBox="0 0 16 16">
<path fill="#000000" d="M8 0c-4.418 0-8 3.582-8 8s3.582 8 8 8c4.418 0 8-3.582 8-8s-3.582-8-8-8zM14.5 8c0 1.484-0.494 2.891-1.404 4.035l-4.346-4.346v-6.146c1.452 0.166 2.797 0.812 3.846 1.861 1.228 1.228 1.904 2.86 1.904 4.596zM7.25 14.457c-1.205-0.138-2.336-0.606-3.285-1.361l3.285-3.285v4.646zM8.75 9.811l3.285 3.285c-0.95 0.755-2.080 1.223-3.285 1.361v-4.646zM3.404 3.404c1.049-1.049 2.394-1.695 3.846-1.861v6.146l-4.346 4.346c-0.91-1.144-1.404-2.552-1.404-4.035 0-1.736 0.676-3.369 1.904-4.596z"></path>
</svg>
