<?xml version="1.0" encoding="utf-8"?>
<!-- Generated by IcoMoon.io -->
<!DOCTYPE svg PUBLIC "-//W3C//DTD SVG 1.1//EN" "http://www.w3.org/Graphics/SVG/1.1/DTD/svg11.dtd">
<svg version="1.1" xmlns="http://www.w3.org/2000/svg" xmlns:xlink="http://www.w3.org/1999/xlink" width="19" height="16" viewBox="0 0 19 16">
<path fill="#000000" d="M17.5 6l-4.5-4.5 1.5-1.5 4.5 4.5-1.5 1.5zM12.75 2.75l3.5 3.5-2.25 5.75-9 4-0.646-0.646 5.388-5.388c0.083 0.022 0.169 0.034 0.259 0.034 0.552 0 1-0.448 1-1s-0.448-1-1-1-1 0.448-1 1c0 0.090 0.012 0.176 0.034 0.259l-5.388 5.388-0.646-0.646 4-9 5.75-2.25z"></path>
<path fill="#000000" d="M0 2h6v2h-6v-2z"></path>
</svg>
