<?xml version="1.0" encoding="utf-8"?>
<!-- Generated by IcoMoon.io -->
<!DOCTYPE svg PUBLIC "-//W3C//DTD SVG 1.1//EN" "http://www.w3.org/Graphics/SVG/1.1/DTD/svg11.dtd">
<svg version="1.1" xmlns="http://www.w3.org/2000/svg" xmlns:xlink="http://www.w3.org/1999/xlink" width="16" height="16" viewBox="0 0 16 16">
<path fill="#000000" d="M10.185 2.444l0.815-2.444h-7l0.815 2.444-2.315 5.556 4 8h2l4-8-2.315-5.556zM9.613 1l-0.333 1h-3.559l-0.333-1h4.225zM8 14.764v-5.85c0.583-0.206 1-0.761 1-1.414 0-0.828-0.672-1.5-1.5-1.5s-1.5 0.672-1.5 1.5c0 0.653 0.417 1.208 1 1.414v5.85l-3.401-6.802 2.068-4.962h3.667l2.068 4.962-3.401 6.802z"></path>
</svg>
