<?xml version="1.0" encoding="utf-8"?>
<!-- Generated by IcoMoon.io -->
<!DOCTYPE svg PUBLIC "-//W3C//DTD SVG 1.1//EN" "http://www.w3.org/Graphics/SVG/1.1/DTD/svg11.dtd">
<svg version="1.1" xmlns="http://www.w3.org/2000/svg" xmlns:xlink="http://www.w3.org/1999/xlink" width="16" height="16" viewBox="0 0 16 16">
<path fill="#000000" d="M3.899 0.221c-0.093-0.139-0.25-0.222-0.417-0.221s-0.323 0.085-0.415 0.224l-1.984 3c-0.054 0.082-0.083 0.178-0.083 0.276v11.5c0 0.551 0.449 1 1 1h3c0.551 0 1-0.449 1-1v-11.5c0-0.099-0.030-0.196-0.085-0.279l-2.016-3zM3.092 2h0.798l1.11 1.652 0 10.348h-3v-10.35l1.092-1.65z"></path>
<path fill="#000000" d="M3.5 13c0.276 0 0.5-0.224 0.5-0.5v-8c0-0.276-0.224-0.5-0.5-0.5s-0.5 0.224-0.5 0.5v8c0 0.276 0.224 0.5 0.5 0.5z"></path>
<path fill="#000000" d="M8 0v16h6v-16h-6zM13 2h-1v1h1v1h-2v1h2v1h-1v1h1v1h-2v1h2v1h-1v1h1v1h-2v1h2v2h-4v-14h4v1z"></path>
</svg>
