<?xml version="1.0" encoding="utf-8"?>
<!-- Generated by IcoMoon.io -->
<!DOCTYPE svg PUBLIC "-//W3C//DTD SVG 1.1//EN" "http://www.w3.org/Graphics/SVG/1.1/DTD/svg11.dtd">
<svg version="1.1" xmlns="http://www.w3.org/2000/svg" xmlns:xlink="http://www.w3.org/1999/xlink" width="16" height="16" viewBox="0 0 16 16">
<path fill="#000000" d="M11 10c1-1 4 2 4 3s-3 3-3 3c-2 0-6.055-2.055-8-4s-4-6-4-8c0 0 2-3 3-3s4 3 3 4-2 1-2 2 1 2 2 3 2 2 3 2 1-1 2-2zM11.5 0c-2.485 0-4.5 2.015-4.5 4.5s2.015 4.5 4.5 4.5 4.5-2.015 4.5-4.5-2.015-4.5-4.5-4.5zM12 5v1.996h-1v-1.996h-1.996v-1h1.996v-1.996h1v1.996h1.996v1h-1.996z"></path>
</svg>
