<?xml version="1.0" encoding="utf-8"?>
<!-- Generated by IcoMoon.io -->
<!DOCTYPE svg PUBLIC "-//W3C//DTD SVG 1.1//EN" "http://www.w3.org/Graphics/SVG/1.1/DTD/svg11.dtd">
<svg version="1.1" xmlns="http://www.w3.org/2000/svg" xmlns:xlink="http://www.w3.org/1999/xlink" width="16" height="16" viewBox="0 0 16 16">
<path fill="#000000" d="M13.262 12.15c0.529 0 1.814-0.064 2.327-0.652 0.258-0.295 0.391-0.744 0.409-1.372 0.011-0.392-0.023-0.857-0.1-1.383l-0.002-0.013c-0.132-0.777-0.502-1.436-1.2-2.137l-0.020-0.019c-0.941-0.862-2.473-1.847-6.025-1.962v-0.011l-1.303 0v0.011c-3.552 0.115-5.084 1.1-6.025 1.962l-0.020 0.019c-0.698 0.701-1.068 1.361-1.2 2.137l-0.002 0.013c-0.077 0.526-0.111 0.991-0.1 1.383 0.018 0.628 0.151 1.077 0.409 1.372 0.513 0.588 1.799 0.652 2.327 0.652 0.718 0 1.394-0.108 1.903-0.305 1.022-0.396 1.175-1.059 1.175-1.419 0-0.346-0.103-0.631-0.186-0.86-0.127-0.353-0.136-0.397 0.015-0.57 0.417-0.478 1.358-0.479 2.355-0.479s1.937 0 2.355 0.479c0.151 0.173 0.142 0.218 0.015 0.57-0.083 0.229-0.186 0.514-0.186 0.86 0 0.36 0.153 1.023 1.175 1.419 0.509 0.197 1.185 0.305 1.903 0.306 0 0 0 0 0 0zM8 7.329c-1.218 0-2.477 0-3.249 0.886-0.615 0.706-0.378 1.362-0.237 1.754 0.062 0.171 0.115 0.319 0.115 0.457 0 0.182-0.667 0.537-1.891 0.537-0.799 0-1.324-0.161-1.437-0.25-0.071-0.095-0.202-0.581-0.025-1.79 0.063-0.369 0.217-0.833 0.86-1.482 0.836-0.762 2.254-1.634 5.809-1.652l0.044-0 0.012 0 0.007-0 0.047 0c3.556 0.018 4.974 0.89 5.809 1.652 0.643 0.649 0.797 1.114 0.86 1.482 0.177 1.209 0.045 1.695-0.025 1.79-0.113 0.089-0.638 0.25-1.437 0.25-1.223-0-1.891-0.355-1.891-0.537 0-0.138 0.053-0.286 0.115-0.457 0.142-0.392 0.379-1.049-0.237-1.754-0.772-0.885-2.032-0.886-3.25-0.886z"></path>
</svg>
