<?xml version="1.0" encoding="utf-8"?>
<!-- Generated by IcoMoon.io -->
<!DOCTYPE svg PUBLIC "-//W3C//DTD SVG 1.1//EN" "http://www.w3.org/Graphics/SVG/1.1/DTD/svg11.dtd">
<svg version="1.1" xmlns="http://www.w3.org/2000/svg" xmlns:xlink="http://www.w3.org/1999/xlink" width="16" height="16" viewBox="0 0 16 16">
<path fill="#000000" d="M12.614 16h-0.189c-1.026 0-2.569-0.48-4.234-1.316-1.627-0.817-3.112-1.838-4.075-2.801s-1.984-2.448-2.801-4.075c-0.836-1.665-1.316-3.208-1.316-4.234v-0.189l0.105-0.157c0.021-0.031 0.517-0.774 1.146-1.528 0.66-0.791 1.52-1.7 2.324-1.7 0.694 0 1.555 0.696 2.006 1.111 0.346 0.319 1.194 1.161 1.58 2.092 0.408 0.986 0.054 1.549-0.194 1.797-0.427 0.427-0.848 0.687-1.185 0.896-0.531 0.328-0.598 0.399-0.598 0.629 0 0.724 0.907 1.631 1.783 2.508s1.784 1.784 2.508 1.784c0.23 0 0.301-0.067 0.629-0.598 0.209-0.338 0.469-0.758 0.896-1.185 0.249-0.249 0.58-0.381 0.955-0.381 0.407 0 0.871 0.156 1.379 0.463 0.402 0.243 0.827 0.579 1.23 0.97 0.337 0.328 1.436 1.464 1.436 2.339 0 0.804-0.908 1.664-1.7 2.324-0.755 0.629-1.497 1.125-1.528 1.146l-0.157 0.105zM1.257 3.759c0.058 0.837 0.488 2.119 1.176 3.489 0.748 1.49 1.708 2.892 2.567 3.752s2.262 1.819 3.752 2.567c1.37 0.688 2.652 1.119 3.489 1.176 0.243-0.169 0.725-0.514 1.209-0.913 1.139-0.94 1.284-1.351 1.299-1.409-0.028-0.182-0.368-0.781-1.095-1.477-0.747-0.716-1.404-1.042-1.698-1.042-0.038 0-0.062 0.005-0.072 0.015-0.324 0.324-0.524 0.647-0.716 0.959-0.345 0.558-0.736 1.191-1.692 1.191-1.242 0-2.335-1.093-3.392-2.15s-2.15-2.15-2.15-3.392c0-0.956 0.633-1.347 1.191-1.692 0.312-0.193 0.635-0.392 0.959-0.716 0.019-0.019 0.033-0.134-0.046-0.355-0.165-0.461-0.631-1.093-1.215-1.648-0.632-0.602-1.107-0.839-1.244-0.862-0.059 0.016-0.471 0.162-1.415 1.306-0.398 0.483-0.739 0.96-0.907 1.201z"></path>
</svg>
