<?xml version="1.0" encoding="utf-8"?>
<!-- Generated by IcoMoon.io -->
<!DOCTYPE svg PUBLIC "-//W3C//DTD SVG 1.1//EN" "http://www.w3.org/Graphics/SVG/1.1/DTD/svg11.dtd">
<svg version="1.1" xmlns="http://www.w3.org/2000/svg" xmlns:xlink="http://www.w3.org/1999/xlink" width="16" height="16" viewBox="0 0 16 16">
<path fill="#000000" d="M7 0.062v8.938h8.938c-0.492 3.946-3.858 7-7.938 7-4.418 0-8-3.582-8-8 0-4.080 3.054-7.446 7-7.938zM8 0v8h8c0-4.418-3.582-8-8-8zM9 6.875h5.91c0.007 0.042 0.013 0.083 0.019 0.125h-5.93v-0.125zM10.267 1.375c0.154 0.053 0.307 0.111 0.457 0.175 0.058 0.024 0.115 0.050 0.171 0.075h-1.896v-0.25h1.267zM9 1.125v-0.055c0.109 0.016 0.218 0.034 0.327 0.055h-0.327zM11.392 1.875c0.142 0.079 0.281 0.162 0.416 0.25h-2.808v-0.25h2.392zM12.168 2.375c0.108 0.080 0.213 0.164 0.317 0.25h-3.485v-0.25h3.168zM12.767 2.875c0.062 0.057 0.123 0.115 0.182 0.175 0.025 0.025 0.049 0.050 0.073 0.075h-4.023v-0.25h3.767zM13.254 3.375c0.072 0.082 0.142 0.165 0.21 0.25h-4.465v-0.25h4.254zM13.656 3.875c0.060 0.082 0.118 0.165 0.175 0.25h-4.831v-0.25h4.656zM13.99 4.375c0.050 0.082 0.098 0.166 0.144 0.25h-5.134v-0.25h4.99zM14.265 4.875c0.041 0.082 0.081 0.166 0.119 0.25h-5.385v-0.25h5.265zM14.491 5.375c0.034 0.083 0.065 0.166 0.096 0.25h-5.587v-0.25h5.491zM14.672 5.875c0.026 0.083 0.051 0.166 0.075 0.25h-5.747v-0.25h5.672zM14.811 6.375c0.020 0.083 0.038 0.166 0.055 0.25h-5.865v-0.25h5.811z"></path>
</svg>
