<?xml version="1.0" encoding="utf-8"?>
<!-- Generated by IcoMoon.io -->
<!DOCTYPE svg PUBLIC "-//W3C//DTD SVG 1.1//EN" "http://www.w3.org/Graphics/SVG/1.1/DTD/svg11.dtd">
<svg version="1.1" xmlns="http://www.w3.org/2000/svg" xmlns:xlink="http://www.w3.org/1999/xlink" width="16" height="16" viewBox="0 0 16 16">
<path fill="#000000" d="M8 0c4.418 0 8 3.582 8 8h-8v-8zM7 0.062c-3.946 0.492-7 3.858-7 7.938 0 4.418 3.582 8 8 8 4.080 0 7.446-3.054 7.938-7h-8.938v-8.938zM5.735 1.375h0.265v0.25h-0.894c0.206-0.093 0.416-0.177 0.63-0.25zM4.61 1.875h1.39v0.25h-1.806c0.136-0.088 0.275-0.172 0.416-0.25zM3.833 2.375h2.167v0.25h-2.484c0.104-0.086 0.209-0.17 0.317-0.25zM3.232 2.875h2.768v0.25h-3.023c0.083-0.086 0.168-0.169 0.255-0.25zM2.746 3.375h3.254v0.25h-3.464c0.068-0.085 0.138-0.168 0.21-0.25zM2.345 3.875h3.655v0.25h-3.83c0.056-0.085 0.114-0.168 0.174-0.25zM2.011 4.375h3.989v0.25h-4.133c0.046-0.084 0.094-0.168 0.144-0.25zM1.736 4.875h4.264v0.25h-4.383c0.038-0.084 0.077-0.167 0.119-0.25zM1.51 5.375h4.49v0.25h-4.585c0.030-0.084 0.062-0.167 0.095-0.25zM1.33 5.875h4.67v0.25h-4.745c0.023-0.084 0.048-0.167 0.075-0.25zM1.191 6.375h4.809v0.25h-4.864c0.017-0.084 0.035-0.167 0.055-0.25zM1.091 6.875h4.909v0.25h-4.945c0.010-0.084 0.022-0.167 0.036-0.25zM1.028 7.375h4.972v0.25h-4.99c0.004-0.084 0.010-0.167 0.018-0.25zM1 8c0-0.042 0.001-0.083 0.001-0.125h4.999v0.25h-4.998c-0.001-0.042-0.002-0.083-0.002-0.125zM1.010 8.375h4.99v0.25h-4.972c-0.007-0.083-0.013-0.166-0.018-0.25zM1.054 8.875h4.946v0.25h-4.91c-0.013-0.083-0.026-0.166-0.036-0.25zM1.135 9.375h4.865v0.25h-4.811c-0.020-0.083-0.038-0.166-0.055-0.25zM8 15c-0.449 0-0.891-0.042-1.324-0.125h2.641c-0.431 0.082-0.872 0.125-1.317 0.125zM10.261 14.625h-4.528c-0.154-0.053-0.307-0.111-0.458-0.175-0.058-0.024-0.115-0.050-0.171-0.075h5.788c-0.206 0.094-0.417 0.177-0.631 0.25zM11.39 14.125h-6.781c-0.142-0.079-0.281-0.162-0.416-0.25h7.614c-0.136 0.088-0.275 0.172-0.416 0.25zM12.167 13.625h-8.335c-0.108-0.080-0.213-0.164-0.317-0.25h8.968c-0.104 0.087-0.209 0.17-0.317 0.25zM12.768 13.125h-9.535c-0.062-0.057-0.123-0.116-0.182-0.175-0.025-0.025-0.049-0.050-0.073-0.075h10.046c-0.083 0.085-0.168 0.169-0.255 0.25zM13.255 12.625h-10.509c-0.072-0.082-0.142-0.165-0.21-0.25h10.929c-0.068 0.085-0.138 0.168-0.21 0.25zM13.656 12.125h-11.312c-0.060-0.082-0.118-0.165-0.175-0.25h11.661c-0.056 0.085-0.114 0.168-0.174 0.25zM13.989 11.625h-11.979c-0.050-0.082-0.098-0.166-0.144-0.25h12.268c-0.046 0.084-0.095 0.168-0.145 0.25zM14.265 11.125h-12.53c-0.041-0.082-0.081-0.166-0.119-0.25h12.768c-0.038 0.084-0.077 0.167-0.119 0.25zM14.491 10.625h-12.981c-0.034-0.083-0.066-0.166-0.096-0.25h13.173c-0.030 0.084-0.062 0.167-0.096 0.25zM14.71 10c-0.012 0.042-0.025 0.083-0.039 0.125h-13.343c-0.026-0.083-0.051-0.166-0.075-0.25h4.746v0.125h8.71z"></path>
</svg>
