<?xml version="1.0" encoding="utf-8"?>
<!-- Generated by IcoMoon.io -->
<!DOCTYPE svg PUBLIC "-//W3C//DTD SVG 1.1//EN" "http://www.w3.org/Graphics/SVG/1.1/DTD/svg11.dtd">
<svg version="1.1" xmlns="http://www.w3.org/2000/svg" xmlns:xlink="http://www.w3.org/1999/xlink" width="16" height="16" viewBox="0 0 16 16">
<path fill="#000000" d="M15.023 6h-1.523c-0.359-0.684-0.896-1.289-1.562-1.772 0.005-0.43 0.167-0.84 0.458-1.158 0.059-0.064 0.123-0.125 0.19-0.179 0.16-0.13 0.224-0.346 0.16-0.542s-0.242-0.334-0.448-0.345c-0.037-0.002-0.074-0.003-0.111-0.003-0.885 0-1.637 0.578-1.9 1.377-0.705-0.243-1.477-0.377-2.287-0.377-3.243 0-5.885 2.145-5.996 4.825-0.059-0.002-0.118-0.002-0.179-0.002-0.682 0.011-0.782-0.792-0.815-1.328-0.065-0.597-0.967-0.606-1 0.010-0.116 0.385 0.010 0.983 0.122 1.346 0.262 0.851 0.998 1.255 1.834 1.328 0.068 0.005 0.135-0 0.198-0.013 0.193 0.675 0.551 1.296 1.035 1.834v0c0.041 0.045 0.083 0.090 0.126 0.134 0.225 0.265 0.674 0.912 0.674 1.866v1c0 0.552 0.672 1 1.5 1s1.5-0.448 1.5-1v-1.070c0.325 0.045 0.659 0.070 1 0.070s0.675-0.024 1-0.070v1.070c0 0.552 0.672 1 1.5 1s1.5-0.448 1.5-1v-1c0-0.954 0.449-1.601 0.674-1.866 0.043-0.044 0.085-0.089 0.126-0.134 0-0 0-0 0-0h-0c0.277-0.308 0.513-0.643 0.7-1h1.523c0.552 0 1-0.895 1-2s-0.448-2-1-2zM9.5 5h-3c-0.276 0-0.5-0.224-0.5-0.5s0.224-0.5 0.5-0.5h3c0.276 0 0.5 0.224 0.5 0.5s-0.224 0.5-0.5 0.5zM12 8c-0.552 0-1-0.448-1-1s0.448-1 1-1 1 0.448 1 1c0 0.552-0.448 1-1 1z"></path>
</svg>
