<?xml version="1.0" encoding="utf-8"?>
<!-- Generated by IcoMoon.io -->
<!DOCTYPE svg PUBLIC "-//W3C//DTD SVG 1.1//EN" "http://www.w3.org/Graphics/SVG/1.1/DTD/svg11.dtd">
<svg version="1.1" xmlns="http://www.w3.org/2000/svg" xmlns:xlink="http://www.w3.org/1999/xlink" width="16" height="16" viewBox="0 0 16 16">
<path fill="#000000" d="M15 7c-2.367 0-3.76 1.56-4.989 2.936-0.989 1.108-1.843 2.064-3.011 2.064-0.928 0-1-1.148-1-1.5v-2c0-0.276-0.224-0.5-0.5-0.5h-5c-0.276 0-0.5 0.224-0.5 0.5v2c0 2.304 0.617 3.912 1.834 4.782 1.005 0.718 2.127 0.718 2.666 0.718 1.49 0 2.837-0.534 4.116-1.633 1.083-0.931 1.948-2.106 2.785-3.243 1.234-1.676 2.299-3.124 3.599-3.124h1v-1h-1z"></path>
<path fill="#000000" d="M1.344 7c-0.083 0-0.162-0.041-0.21-0.114-0.064-0.099-0.051-0.229 0.032-0.312 0.53-0.536 0.821-1.108 0.89-1.75 0.061-0.572-0.055-1.122-0.167-1.653-0.158-0.747-0.307-1.453 0.111-2.042 0.404-0.571 1.298-0.929 2.811-1.127 0.103-0.013 0.203 0.038 0.252 0.129s0.037 0.203-0.030 0.282c-1.075 1.253-1.070 2.298-1.065 3.221 0.003 0.634 0.006 1.233-0.324 1.805-0.357 0.618-1.060 1.109-2.212 1.546-0.029 0.011-0.059 0.016-0.088 0.016z"></path>
</svg>
