<?xml version="1.0" encoding="utf-8"?>
<!-- Generated by IcoMoon.io -->
<!DOCTYPE svg PUBLIC "-//W3C//DTD SVG 1.1//EN" "http://www.w3.org/Graphics/SVG/1.1/DTD/svg11.dtd">
<svg version="1.1" xmlns="http://www.w3.org/2000/svg" xmlns:xlink="http://www.w3.org/1999/xlink" width="16" height="16" viewBox="0 0 16 16">
<path fill="#000000" d="M15.626 5.604l-14.846-5.567c-0.212-0.079-0.451-0.028-0.611 0.132s-0.212 0.399-0.132 0.611l5.567 14.846c0.085 0.226 0.301 0.374 0.54 0.374 0.008 0 0.016-0 0.023-0.001 2.579-0.103 5.006-1.168 6.835-2.997s2.894-4.257 2.997-6.835c0.010-0.249-0.141-0.476-0.374-0.564zM3.951 7.93c0.608-0.191 1.049-0.759 1.049-1.43 0-0.828-0.672-1.5-1.5-1.5-0.214 0-0.417 0.045-0.601 0.126l-1.336-3.562 12.357 4.634c-0.533 4.013-3.71 7.189-7.723 7.723l-2.246-5.99z"></path>
<path fill="#000000" d="M10 10c0 1.105-0.895 2-2 2s-2-0.895-2-2c0-1.105 0.895-2 2-2s2 0.895 2 2z"></path>
<path fill="#000000" d="M9 6c0 0.552-0.448 1-1 1s-1-0.448-1-1c0-0.552 0.448-1 1-1s1 0.448 1 1z"></path>
</svg>
