<?xml version="1.0" encoding="utf-8"?>
<!-- Generated by IcoMoon.io -->
<!DOCTYPE svg PUBLIC "-//W3C//DTD SVG 1.1//EN" "http://www.w3.org/Graphics/SVG/1.1/DTD/svg11.dtd">
<svg version="1.1" xmlns="http://www.w3.org/2000/svg" xmlns:xlink="http://www.w3.org/1999/xlink" width="16" height="16" viewBox="0 0 16 16">
<path fill="#000000" d="M15.793 3.501c-0.31-0.537-0.938-0.809-1.867-0.809-0.677 0-1.513 0.148-2.446 0.423-0.982-0.701-2.183-1.115-3.48-1.115-3.308 0-6 2.692-6 6 0 0.192 0.010 0.383 0.027 0.571-0.172 0.164-0.335 0.327-0.488 0.489-0.598 0.631-1.025 1.218-1.269 1.744-0.212 0.456-0.394 1.121-0.063 1.695 0.31 0.537 0.938 0.809 1.867 0.809 0.677 0 1.513-0.149 2.445-0.423 0.982 0.702 2.184 1.115 3.48 1.115 3.308 0 6-2.692 6-6 0-0.192-0.009-0.383-0.027-0.571 0.172-0.164 0.335-0.327 0.488-0.489 0.598-0.631 1.025-1.218 1.269-1.744 0.212-0.456 0.394-1.121 0.063-1.695zM8 3c2.382 0 4.381 1.675 4.88 3.909-1.047 0.943-2.4 1.906-3.907 2.776-1.502 0.867-3.031 1.559-4.356 1.993-0.993-0.914-1.617-2.225-1.617-3.678 0-2.757 2.243-5 5-5zM1.182 11.937c-0.106-0.183-0.002-0.844 1.123-2.049 0.26 0.784 0.679 1.496 1.216 2.1-0.546 0.127-1.036 0.195-1.446 0.195-0.554 0-0.824-0.127-0.893-0.246zM8 13c-0.806 0-1.567-0.192-2.242-0.532 1.195-0.45 2.489-1.065 3.778-1.809 1.283-0.741 2.463-1.55 3.456-2.365-0.153 2.62-2.333 4.705-4.991 4.705zM13.695 6.112c-0.26-0.784-0.678-1.496-1.216-2.1 0.546-0.127 1.036-0.195 1.446-0.195 0.554 0 0.824 0.127 0.893 0.246 0.106 0.183 0.002 0.844-1.123 2.049z"></path>
</svg>
