<?xml version="1.0" encoding="utf-8"?>
<!-- Generated by IcoMoon.io -->
<!DOCTYPE svg PUBLIC "-//W3C//DTD SVG 1.1//EN" "http://www.w3.org/Graphics/SVG/1.1/DTD/svg11.dtd">
<svg version="1.1" xmlns="http://www.w3.org/2000/svg" xmlns:xlink="http://www.w3.org/1999/xlink" width="16" height="16" viewBox="0 0 16 16">
<path fill="#000000" d="M14.25 0h-13.5c-0.412 0-0.75 0.338-0.75 0.75v11.5c0 0.412 0.338 0.75 0.75 0.75h4.455l-2.040 2.040c-0.22 0.22-0.22 0.576 0 0.795 0.11 0.11 0.254 0.165 0.398 0.165s0.288-0.055 0.398-0.165l2.835-2.835h0.205v2.5c0 0.276 0.224 0.5 0.5 0.5s0.5-0.224 0.5-0.5v-2.5h0.205l2.835 2.835c0.11 0.11 0.254 0.165 0.398 0.165s0.288-0.055 0.398-0.165c0.22-0.22 0.22-0.576 0-0.795l-2.040-2.040h4.455c0.412 0 0.75-0.338 0.75-0.75v-11.5c0-0.412-0.338-0.75-0.75-0.75zM6 3l4 2.5-4 2.5v-5zM12.5 11h-10c-0.276 0-0.5-0.224-0.5-0.5s0.224-0.5 0.5-0.5h10c0.276 0 0.5 0.224 0.5 0.5s-0.224 0.5-0.5 0.5z"></path>
</svg>
