<?xml version="1.0" encoding="utf-8"?>
<!-- Generated by IcoMoon.io -->
<!DOCTYPE svg PUBLIC "-//W3C//DTD SVG 1.1//EN" "http://www.w3.org/Graphics/SVG/1.1/DTD/svg11.dtd">
<svg version="1.1" xmlns="http://www.w3.org/2000/svg" xmlns:xlink="http://www.w3.org/1999/xlink" width="16" height="16" viewBox="0 0 16 16">
<path fill="#000000" d="M15.916 7.223l-2-3c-0.093-0.139-0.249-0.223-0.416-0.223h-1.5v-3.5c0-0.276-0.224-0.5-0.5-0.5h-7c-0.276 0-0.5 0.224-0.5 0.5v3.5h-1.5c-0.167 0-0.323 0.084-0.416 0.223l-2 3c-0.055 0.082-0.084 0.179-0.084 0.277v5c0 0.276 0.224 0.5 0.5 0.5h2.306l-0.781 2.342c-0.051 0.152-0.025 0.32 0.069 0.45s0.245 0.208 0.406 0.208h11c0.161 0 0.312-0.077 0.406-0.208s0.12-0.298 0.069-0.45l-0.781-2.342h2.306c0.276 0 0.5-0.224 0.5-0.5v-5c0-0.099-0.029-0.195-0.084-0.277zM5 1h6v4h-6v-4zM3.194 15l1.667-5h6.279l1.667 5h-9.613zM15 12h-2.14l-0.886-2.658c-0.068-0.204-0.259-0.342-0.474-0.342h-7c-0.215 0-0.406 0.138-0.474 0.342l-0.886 2.658h-2.14v-4.349l1.768-2.651h1.232v0.5c0 0.276 0.224 0.5 0.5 0.5h7c0.276 0 0.5-0.224 0.5-0.5v-0.5h1.232l1.768 2.651v4.349z"></path>
<path fill="#000000" d="M9.5 11h-3c-0.276 0-0.5 0.224-0.5 0.5s0.224 0.5 0.5 0.5h3c0.276 0 0.5-0.224 0.5-0.5s-0.224-0.5-0.5-0.5z"></path>
<path fill="#000000" d="M10.5 13h-5c-0.276 0-0.5 0.224-0.5 0.5s0.224 0.5 0.5 0.5h5c0.276 0 0.5-0.224 0.5-0.5s-0.224-0.5-0.5-0.5z"></path>
</svg>
