<?xml version="1.0" encoding="utf-8"?>
<!-- Generated by IcoMoon.io -->
<!DOCTYPE svg PUBLIC "-//W3C//DTD SVG 1.1//EN" "http://www.w3.org/Graphics/SVG/1.1/DTD/svg11.dtd">
<svg version="1.1" xmlns="http://www.w3.org/2000/svg" xmlns:xlink="http://www.w3.org/1999/xlink" width="16" height="16" viewBox="0 0 16 16">
<path fill="#000000" d="M7.5 15c-0.017 0-0.034-0.001-0.052-0.003-0.226-0.023-0.408-0.197-0.443-0.421l-1.595-10.369-1.423 6.401c-0.051 0.229-0.254 0.392-0.488 0.392h-3c-0.276 0-0.5-0.224-0.5-0.5s0.224-0.5 0.5-0.5h2.599l1.913-8.608c0.052-0.235 0.264-0.399 0.505-0.391s0.441 0.186 0.478 0.424l1.709 11.11 2.328-6.209c0.074-0.198 0.266-0.328 0.477-0.324s0.398 0.141 0.465 0.342l1.526 4.577 0.526-1.577c0.068-0.204 0.259-0.342 0.474-0.342h2c0.276 0 0.5 0.224 0.5 0.5s-0.224 0.5-0.5 0.5h-1.64l-0.886 2.658c-0.068 0.204-0.259 0.342-0.474 0.342s-0.406-0.138-0.474-0.342l-1.553-4.66-2.504 6.678c-0.074 0.197-0.261 0.324-0.468 0.324z"></path>
</svg>
