<?xml version="1.0" encoding="utf-8"?>
<!-- Generated by IcoMoon.io -->
<!DOCTYPE svg PUBLIC "-//W3C//DTD SVG 1.1//EN" "http://www.w3.org/Graphics/SVG/1.1/DTD/svg11.dtd">
<svg version="1.1" xmlns="http://www.w3.org/2000/svg" xmlns:xlink="http://www.w3.org/1999/xlink" width="16" height="16" viewBox="0 0 16 16">
<path fill="#000000" d="M8 16c0.42 0 0.815-0.163 1.11-0.459l1.846-1.846 0.023-0.029c0.104-0.134 0.422-0.543 0.304-1.037-0.123-0.513-0.596-0.736-1.054-0.952-0.283-0.133-0.576-0.271-0.795-0.467l-0.011-0.010c-0.014-0.013-0.028-0.026-0.042-0.040-0.49-0.49-0.49-1.288 0-1.779 0.238-0.238 0.553-0.368 0.889-0.368s0.652 0.131 0.889 0.368c0.014 0.014 0.027 0.028 0.043 0.045l0.006 0.007c0.197 0.22 0.335 0.513 0.469 0.797 0.226 0.481 0.508 1.079 1.17 1.079 0 0 0 0 0 0 0.265 0 0.533-0.108 0.818-0.33l0.029-0.023 1.846-1.846c0.612-0.612 0.612-1.608-0-2.221l-1.568-1.568c-0.1-0.1-0.164-0.176-0.205-0.23 0.095-0.053 0.227-0.115 0.333-0.165 0.327-0.154 0.735-0.346 1.082-0.658 0.006-0.005 0.012-0.011 0.018-0.017 0.030-0.028 0.057-0.053 0.081-0.077 0.462-0.462 0.716-1.076 0.716-1.729s-0.254-1.267-0.716-1.729c-0.462-0.462-1.076-0.716-1.729-0.716s-1.267 0.254-1.729 0.716c-0.024 0.024-0.048 0.050-0.074 0.078l-0.018 0.020c-0.313 0.349-0.505 0.756-0.659 1.084-0.050 0.106-0.112 0.238-0.165 0.333-0.055-0.041-0.131-0.105-0.231-0.206l-1.567-1.567c-0.296-0.296-0.69-0.459-1.11-0.459s-0.814 0.163-1.11 0.459l-1.567 1.567c-0.1 0.1-0.177 0.165-0.231 0.206-0.053-0.095-0.115-0.227-0.165-0.333-0.154-0.327-0.346-0.735-0.659-1.084-0.006-0.006-0.011-0.013-0.016-0.017-0.028-0.031-0.053-0.057-0.077-0.081-0.462-0.462-1.076-0.716-1.729-0.716s-1.267 0.254-1.729 0.716c-0.953 0.953-0.953 2.505-0 3.458 0.024 0.024 0.049 0.048 0.079 0.076 0.006 0.006 0.012 0.011 0.019 0.018 0.349 0.313 0.756 0.505 1.084 0.659 0.106 0.050 0.238 0.112 0.333 0.165-0.041 0.055-0.106 0.131-0.206 0.231l-1.567 1.567c-0.296 0.296-0.459 0.69-0.459 1.11s0.163 0.815 0.459 1.11l1.567 1.567c0.1 0.1 0.165 0.177 0.206 0.231-0.095 0.053-0.227 0.115-0.333 0.165-0.327 0.154-0.735 0.346-1.084 0.659l-0.018 0.016c-0.031 0.028-0.057 0.053-0.080 0.077-0.953 0.953-0.953 2.505 0 3.458 0.462 0.462 1.076 0.716 1.729 0.716s1.267-0.254 1.729-0.716c0.024-0.024 0.048-0.049 0.075-0.079 0.005-0.005 0.010-0.010 0.016-0.017l0.002-0.002c0.313-0.349 0.505-0.756 0.659-1.084 0.050-0.106 0.112-0.238 0.165-0.333 0.055 0.041 0.131 0.105 0.231 0.206l1.567 1.567c0.296 0.296 0.69 0.459 1.11 0.459zM5.022 12.517c-0.662 0-0.944 0.599-1.17 1.079-0.133 0.283-0.271 0.576-0.468 0.796l-0.009 0.010c-0.013 0.014-0.026 0.028-0.040 0.042-0.238 0.238-0.553 0.368-0.889 0.368s-0.652-0.131-0.889-0.368c-0.49-0.49-0.49-1.288 0-1.779 0.014-0.014 0.028-0.027 0.041-0.039l0.012-0.011c0.219-0.196 0.512-0.334 0.795-0.467 0.454-0.214 0.969-0.456 1.065-1.008 0.092-0.527-0.275-0.973-0.604-1.303l-1.567-1.567c-0.072-0.072-0.111-0.168-0.111-0.271s0.039-0.199 0.111-0.271l1.526-1.526 0.026-0.017 0.037-0.046c0.324-0.327 0.672-0.765 0.582-1.281-0.096-0.552-0.611-0.794-1.065-1.008-0.284-0.134-0.577-0.272-0.796-0.468l-0.010-0.009c-0.014-0.013-0.028-0.026-0.042-0.040-0.49-0.49-0.49-1.288-0-1.779 0.238-0.238 0.553-0.368 0.889-0.368s0.652 0.131 0.889 0.369c0.014 0.014 0.027 0.028 0.041 0.044l0.007 0.008c0.197 0.22 0.335 0.513 0.469 0.797 0.226 0.481 0.508 1.079 1.17 1.079 0 0 0 0 0 0 0.359-0 0.708-0.188 1.131-0.609l1.576-1.576c0.072-0.072 0.168-0.111 0.271-0.111s0.199 0.039 0.271 0.111l1.567 1.567c0.427 0.427 0.779 0.618 1.14 0.618 0 0 0 0 0 0 0.662-0 0.944-0.599 1.17-1.079 0.134-0.284 0.272-0.577 0.467-0.795l0.010-0.011c0.013-0.014 0.027-0.029 0.040-0.042 0.238-0.238 0.553-0.368 0.889-0.368s0.652 0.131 0.889 0.368c0.238 0.238 0.368 0.553 0.368 0.889s-0.131 0.652-0.369 0.89c-0.013 0.014-0.027 0.026-0.041 0.039l-0.010 0.009c-0.22 0.197-0.513 0.335-0.797 0.469-0.454 0.214-0.969 0.456-1.065 1.008-0.092 0.527 0.274 0.972 0.603 1.302l1.568 1.568c0.147 0.147 0.147 0.395 0 0.541l-1.785 1.785c-0.053-0.095-0.115-0.226-0.165-0.332-0.154-0.327-0.346-0.734-0.661-1.085l-0.014-0.016c-0.027-0.030-0.052-0.056-0.077-0.081-0.462-0.462-1.076-0.716-1.729-0.716s-1.267 0.254-1.729 0.716c-0.953 0.953-0.953 2.505-0.001 3.457 0.024 0.025 0.050 0.049 0.082 0.078l0.017 0.016c0.349 0.313 0.756 0.505 1.084 0.659 0.106 0.050 0.237 0.112 0.332 0.165l-1.785 1.785c-0.072 0.072-0.168 0.111-0.271 0.111s-0.199-0.039-0.271-0.111l-1.567-1.567c-0.427-0.427-0.779-0.618-1.14-0.618z"></path>
</svg>
