<?xml version="1.0" encoding="utf-8"?>
<!-- Generated by IcoMoon.io -->
<!DOCTYPE svg PUBLIC "-//W3C//DTD SVG 1.1//EN" "http://www.w3.org/Graphics/SVG/1.1/DTD/svg11.dtd">
<svg version="1.1" xmlns="http://www.w3.org/2000/svg" xmlns:xlink="http://www.w3.org/1999/xlink" width="16" height="16" viewBox="0 0 16 16">
<path fill="#000000" d="M7.5 1.001l-7.239 10.656 7.239 4.343 7.239-4.343-7.239-10.656zM1.683 11.343l5.317-7.827v11.017l-5.317-3.19zM8 14.375h0.265l-0.265 0.159v-0.159zM8 14.125v-0.25h1.098l-0.417 0.25h-0.681zM8 13.625v-0.25h1.931l-0.417 0.25h-1.515zM8 13.125v-0.25h2.765l-0.417 0.25h-2.348zM8 12.625v-0.25h3.598l-0.417 0.25h-3.181zM8 12.125v-0.25h4.431l-0.417 0.25h-4.015zM8 11.625v-0.25h5.265l-0.417 0.25h-4.848zM8.244 3.875l0.17 0.25h-0.413v-0.25h0.244zM8.583 4.375l0.17 0.25h-0.753v-0.25h0.583zM8.923 4.875l0.17 0.25h-1.093v-0.25h0.923zM9.263 5.375l0.17 0.25h-1.433v-0.25h1.263zM9.602 5.875l0.17 0.25h-1.772v-0.25h1.602zM9.942 6.375l0.17 0.25h-2.112v-0.25h1.942zM10.282 6.875l0.17 0.25h-2.452v-0.25h2.282zM10.621 7.375l0.17 0.25h-2.791v-0.25h2.621zM10.961 7.875l0.17 0.25h-3.131v-0.25h2.961zM11.301 8.375l0.17 0.25h-3.471v-0.25h3.301zM11.64 8.875l0.17 0.25h-3.81v-0.25h3.64zM11.98 9.375l0.17 0.25h-4.15v-0.25h3.98zM12.32 9.875l0.17 0.25h-4.49v-0.25h4.32zM12.659 10.375l0.17 0.25h-4.829v-0.25h4.659zM12.999 10.875l0.17 0.25h-5.169v-0.25h4.999z"></path>
</svg>
