<?xml version="1.0" encoding="utf-8"?>
<!-- Generated by IcoMoon.io -->
<!DOCTYPE svg PUBLIC "-//W3C//DTD SVG 1.1//EN" "http://www.w3.org/Graphics/SVG/1.1/DTD/svg11.dtd">
<svg version="1.1" xmlns="http://www.w3.org/2000/svg" xmlns:xlink="http://www.w3.org/1999/xlink" width="16" height="16" viewBox="0 0 16 16">
<path fill="#000000" d="M0 16c0-2.291 0.377-4.698 1.122-6.663 0.719-1.899 1.764-3.574 3.104-4.979 1.327-1.391 2.902-2.474 4.682-3.218 1.809-0.757 3.775-1.14 5.843-1.14 0.085 0 0.164 0.043 0.21 0.115s0.053 0.161 0.017 0.239c-0.522 1.148-1.851 2.212-3.952 3.162-0.298 0.135-0.594 0.259-0.879 0.372 0.195-0.007 0.393-0.010 0.594-0.010 1.176 0 2.010 0.12 2.045 0.125 0.084 0.012 0.156 0.066 0.191 0.143s0.029 0.167-0.016 0.238c-0.755 1.186-2.404 2.281-4.901 3.255-0.206 0.080-0.409 0.156-0.608 0.228 0.146-0.004 0.292-0.006 0.438-0.006 1.163 0 1.878 0.138 1.908 0.144 0.086 0.017 0.157 0.078 0.187 0.161s0.014 0.175-0.042 0.243c-2.28 2.786-3.837 3.592-6.944 3.592-0.707 0-1.258 0.614-1.636 1.825-0.3 0.96-0.364 2.175-0.364 2.175z"></path>
</svg>
