<?xml version="1.0" encoding="utf-8"?>
<!-- Generated by IcoMoon.io -->
<!DOCTYPE svg PUBLIC "-//W3C//DTD SVG 1.1//EN" "http://www.w3.org/Graphics/SVG/1.1/DTD/svg11.dtd">
<svg version="1.1" xmlns="http://www.w3.org/2000/svg" xmlns:xlink="http://www.w3.org/1999/xlink" width="16" height="16" viewBox="0 0 16 16">
<path fill="#000000" d="M15.15 0h-11.235c-0.562 0-1.106 0.442-1.21 0.983l-2.688 14.034c-0.104 0.541 0.271 0.983 0.833 0.983h11.235c0.562 0 1.106-0.442 1.21-0.983l2.688-14.034c0.104-0.541-0.271-0.983-0.833-0.983zM11.964 9.134c0.478 0.276 0.642 0.888 0.366 1.366s-0.888 0.642-1.366 0.366c-0.809-0.467-1.697-1.232-2.415-1.914 0.232 0.963 0.45 2.114 0.45 3.048 0 0.552-0.448 1-1 1s-1-0.448-1-1c0-0.934 0.218-2.085 0.45-3.048-0.717 0.683-1.606 1.447-2.415 1.914-0.478 0.276-1.090 0.112-1.366-0.366s-0.112-1.090 0.366-1.366c0.809-0.467 1.915-0.854 2.865-1.134-0.95-0.28-2.056-0.667-2.865-1.134-0.478-0.276-0.642-0.888-0.366-1.366s0.888-0.642 1.366-0.366c0.809 0.467 1.697 1.232 2.415 1.914-0.232-0.963-0.45-2.114-0.45-3.048 0-0.552 0.448-1 1-1s1 0.448 1 1c0 0.934-0.218 2.086-0.45 3.048 0.717-0.683 1.606-1.447 2.415-1.914 0.478-0.276 1.090-0.112 1.366 0.366s0.112 1.090-0.366 1.366c-0.809 0.467-1.915 0.854-2.865 1.134 0.95 0.28 2.056 0.667 2.865 1.134z"></path>
</svg>
