<?xml version="1.0" encoding="utf-8"?>
<!-- Generated by IcoMoon.io -->
<!DOCTYPE svg PUBLIC "-//W3C//DTD SVG 1.1//EN" "http://www.w3.org/Graphics/SVG/1.1/DTD/svg11.dtd">
<svg version="1.1" xmlns="http://www.w3.org/2000/svg" xmlns:xlink="http://www.w3.org/1999/xlink" width="16" height="16" viewBox="0 0 16 16">
<path fill="#000000" d="M13.621 7.015l-5.621-1.405v-1.49c1.012 0.585 1.852 0.881 2.5 0.881 1.379 0 2.5-1.122 2.5-2.5s-1.121-2.5-2.5-2.5c-0.708 0-1.644 0.353-2.784 1.050-0.065-0.031-0.138-0.050-0.216-0.050h-2c-0.077 0-0.15 0.018-0.216 0.050-1.14-0.696-2.076-1.050-2.784-1.050-1.379 0-2.5 1.121-2.5 2.5s1.121 2.5 2.5 2.5c0.648 0 1.488-0.296 2.5-0.881v5l-1.616-1.939c-0.164-0.196-0.449-0.238-0.661-0.096l-1.5 1c-0.225 0.15-0.29 0.452-0.147 0.681l2.5 4c0.020 0.032 0.044 0.062 0.070 0.088l3 3c0.094 0.094 0.221 0.146 0.354 0.146h5c0.189 0 0.363-0.107 0.447-0.276l1.5-3c0.035-0.069 0.053-0.146 0.053-0.224v-5c0-0.229-0.156-0.429-0.379-0.485zM12 2.5c0 0.827-0.673 1.5-1.5 1.5-0.673 0-1.677-0.526-2.5-1.050v-0.9c0.823-0.525 1.827-1.050 2.5-1.050 0.827 0 1.5 0.673 1.5 1.5zM2.5 4c-0.827 0-1.5-0.673-1.5-1.5s0.673-1.5 1.5-1.5c0.673 0 1.677 0.526 2.5 1.050v0.9c-0.823 0.525-1.827 1.050-2.5 1.050zM13 12.382l-1.309 2.618h-4.484l-2.813-2.813-2.212-3.54 0.722-0.481 2.212 2.655c0.135 0.162 0.356 0.222 0.554 0.15s0.33-0.26 0.33-0.47v-7.014c0.197-0.135 0.367-0.258 0.5-0.357 0.133 0.098 0.303 0.221 0.5 0.357v6.014c0 0.276 0.224 0.5 0.5 0.5s0.5-0.224 0.5-0.5v-2.86l1 0.25v2.61c0 0.276 0.224 0.5 0.5 0.5s0.5-0.224 0.5-0.5v-2.36l1 0.25v3.11c0 0.276 0.224 0.5 0.5 0.5s0.5-0.224 0.5-0.5v-2.86l1 0.25v4.492z"></path>
</svg>
