<?xml version="1.0" encoding="utf-8"?>
<!-- Generated by IcoMoon.io -->
<!DOCTYPE svg PUBLIC "-//W3C//DTD SVG 1.1//EN" "http://www.w3.org/Graphics/SVG/1.1/DTD/svg11.dtd">
<svg version="1.1" xmlns="http://www.w3.org/2000/svg" xmlns:xlink="http://www.w3.org/1999/xlink" width="16" height="16" viewBox="0 0 16 16">
<path fill="#000000" d="M8 2v-2h-6v2h-2v6h2v8h6v-8h8v-6h-8zM2 7h-1v-4h1v4zM7 2h-2v1h2v1h-2v1h2v1h-2v1h2v1h-2v1h2v1h-2v1h2v1h-2v1h2v2h-4v-14h4v1zM15 7h-1v-2h-1v2h-1v-2h-1v2h-1v-2h-1v2h-1v-4h7v4z"></path>
</svg>
