<?xml version="1.0" encoding="utf-8"?>
<!-- Generated by IcoMoon.io -->
<!DOCTYPE svg PUBLIC "-//W3C//DTD SVG 1.1//EN" "http://www.w3.org/Graphics/SVG/1.1/DTD/svg11.dtd">
<svg version="1.1" xmlns="http://www.w3.org/2000/svg" xmlns:xlink="http://www.w3.org/1999/xlink" width="16" height="16" viewBox="0 0 16 16">
<path fill="#000000" d="M15 0c-0.552 0-1 0.448-1 1 0 0.175 0.045 0.34 0.124 0.483l-5.5 3.931c0.534 0.763 1.199 1.428 1.962 1.962l3.931-5.5c0.143 0.079 0.308 0.124 0.483 0.124 0.552 0 1-0.448 1-1s-0.448-1-1-1z"></path>
<path fill="#000000" d="M13.476 5.374l-0.619 0.866c0.605 0.799 1.082 1.602 1.393 2.357 0.427 1.037 0.483 1.891 0.147 2.228-0.145 0.145-0.382 0.218-0.705 0.218-1.159 0-3.319-0.99-5.532-3.203-1.302-1.302-2.31-2.726-2.838-4.009-0.427-1.037-0.484-1.891-0.147-2.228 0.145-0.145 0.382-0.218 0.705-0.218 0.867 0 2.292 0.554 3.881 1.757l0.865-0.618c-0.581-0.456-1.172-0.855-1.756-1.181-1.124-0.628-2.171-0.96-3.026-0.96-0.679 0-1.25 0.212-1.651 0.613-0.201 0.201-0.352 0.44-0.454 0.712-0.474 1.018-0.739 2.152-0.739 3.348 0 4.387 3.556 7.944 7.944 7.944 1.201 0 2.339-0.267 3.36-0.744 0.269-0.103 0.505-0.253 0.7-0.448 0.757-0.757 0.813-2.049 0.158-3.639-0.372-0.902-0.952-1.859-1.686-2.794z"></path>
<path fill="#000000" d="M9 15.5v-0.5c0-0.248-0.030-0.488-0.087-0.718-1.508-0.329-2.909-1.023-4.097-2.039-1.068 0.459-1.816 1.521-1.816 2.757v0.5c0 0.276 0.224 0.5 0.5 0.5h5c0.276 0 0.5-0.224 0.5-0.5z"></path>
</svg>
