<?xml version="1.0" encoding="utf-8"?>
<!-- Generated by IcoMoon.io -->
<!DOCTYPE svg PUBLIC "-//W3C//DTD SVG 1.1//EN" "http://www.w3.org/Graphics/SVG/1.1/DTD/svg11.dtd">
<svg version="1.1" xmlns="http://www.w3.org/2000/svg" xmlns:xlink="http://www.w3.org/1999/xlink" width="16" height="16" viewBox="0 0 16 16">
<path fill="#000000" d="M12.218 16c-0.85-0-1.912-0.519-2.369-1.678-0.064-0.151-0.133-0.335-0.214-0.547-0.259-0.68-0.65-1.707-1.059-2.132-0.15-0.156-0.265-0.269-0.359-0.36-0.084-0.081-0.154-0.15-0.217-0.219-0.063 0.069-0.134 0.138-0.217 0.219-0.093 0.091-0.209 0.204-0.358 0.359-0.409 0.425-0.8 1.453-1.059 2.132-0.081 0.212-0.151 0.396-0.214 0.547-0.457 1.159-1.519 1.678-2.369 1.678-0.166 0-0.317-0.020-0.449-0.060-0.837-0.251-1.344-1.186-1.263-2.325l0.012-0.131c0.103-0.919 0.662-1.827 1.576-2.556 0.792-0.632 1.728-1.025 2.444-1.025 0.142 0 0.272 0.015 0.391 0.046l0.491-1.007c-0.505-1.263-1.223-3.149-1.785-4.801-0.313-0.921-0.545-1.675-0.69-2.241-0.23-0.897-0.215-1.2-0.122-1.379l0.269-0.52 3.345 6.858 3.345-6.858 0.269 0.52c0.093 0.179 0.107 0.483-0.122 1.379-0.145 0.566-0.377 1.321-0.69 2.241-0.562 1.652-1.28 3.538-1.785 4.801l0.491 1.007c0.119-0.031 0.25-0.046 0.391-0.046 0.715 0 1.652 0.393 2.444 1.025 0.781 0.624 1.304 1.378 1.503 2.158l0.037-0.018 0.048 0.548c0.081 1.139-0.426 2.073-1.263 2.325-0.132 0.040-0.283 0.060-0.449 0.060-0 0-0 0-0 0zM10.839 13.78c0.592 1.074 1.12 1.234 1.383 1.234 0.358 0 0.626-0.289 0.678-0.568 0.034-0.183 0.040-0.372 0.018-0.561-0.089-0.755-0.604-1.403-1.021-1.814-0.573-0.565-1.215-0.939-1.628-1.103-0.041-0.014-0.066-0.016-0.078-0.016-0.008 0-0.011 0.001-0.011 0.001-0.12 0.078-0.264 0.985 0.658 2.827zM5.723 10.968c-0.41 0.164-1.048 0.539-1.618 1.103-0.414 0.411-0.927 1.059-1.015 1.814-0.022 0.188-0.016 0.377 0.018 0.561 0.052 0.279 0.318 0.568 0.674 0.568 0.261 0 0.787-0.161 1.375-1.234 0.916-1.842 0.774-2.748 0.653-2.828 0 0-0 0-0 0s-0.004-0.001-0.010-0.001c-0.011-0-0.037 0.002-0.077 0.016z"></path>
</svg>
