<?xml version="1.0" encoding="utf-8"?>
<!-- Generated by IcoMoon.io -->
<!DOCTYPE svg PUBLIC "-//W3C//DTD SVG 1.1//EN" "http://www.w3.org/Graphics/SVG/1.1/DTD/svg11.dtd">
<svg version="1.1" xmlns="http://www.w3.org/2000/svg" xmlns:xlink="http://www.w3.org/1999/xlink" width="16" height="16" viewBox="0 0 16 16">
<path fill="#000000" d="M4.655 0l-0.269 0.52c-0.093 0.179-0.107 0.483 0.122 1.379 0.145 0.566 0.377 1.321 0.69 2.241 0.395 1.163 0.868 2.441 1.29 3.536l0.955-1.959-2.789-5.718zM13.93 13.616l-0.048-0.548-0.037 0.018c-0.199-0.78-0.722-1.534-1.503-2.158-0.792-0.633-1.729-1.025-2.444-1.025-0.142 0-0.272 0.015-0.391 0.046l-0.491-1.007c0.505-1.263 1.224-3.149 1.785-4.801 0.313-0.921 0.545-1.675 0.69-2.241 0.23-0.897 0.215-1.2 0.122-1.379l-0.269-0.52-4.852 9.948c-0.119-0.031-0.25-0.046-0.391-0.046-0.715 0-1.652 0.393-2.444 1.025-0.914 0.73-1.473 1.638-1.576 2.556l-0.012 0.131c-0.081 1.139 0.426 2.073 1.263 2.325 0.132 0.040 0.283 0.060 0.449 0.060 0.85 0 1.912-0.519 2.369-1.678 0.064-0.151 0.133-0.335 0.214-0.547 0.259-0.68 0.65-1.707 1.059-2.132 0.15-0.156 0.265-0.269 0.358-0.359 0.084-0.082 0.154-0.15 0.217-0.219 0.063 0.069 0.134 0.138 0.217 0.219 0.093 0.091 0.209 0.204 0.359 0.36 0.409 0.425 0.8 1.453 1.059 2.132 0.081 0.212 0.151 0.396 0.214 0.547 0.457 1.159 1.519 1.678 2.369 1.678 0 0 0 0 0 0 0.166 0 0.317-0.020 0.449-0.060 0.837-0.252 1.344-1.186 1.263-2.325zM5.157 13.78c-0.588 1.073-1.114 1.234-1.375 1.234-0.356 0-0.622-0.289-0.674-0.568-0.034-0.184-0.040-0.373-0.018-0.561 0.088-0.755 0.6-1.403 1.015-1.814 0.569-0.565 1.208-0.939 1.618-1.103 0.041-0.014 0.066-0.016 0.077-0.016 0.006 0 0.009 0.001 0.010 0.001s0 0 0-0c0.121 0.080 0.263 0.986-0.653 2.828zM12.9 14.446c-0.052 0.279-0.32 0.568-0.678 0.568-0.263 0-0.791-0.161-1.383-1.234-0.922-1.842-0.778-2.749-0.658-2.827 0 0 0.003-0.001 0.011-0.001 0.011 0 0.037 0.002 0.078 0.016 0.412 0.164 1.055 0.539 1.628 1.103 0.417 0.411 0.933 1.059 1.021 1.814 0.022 0.189 0.016 0.378-0.018 0.561z"></path>
</svg>
