<?xml version="1.0" encoding="utf-8"?>
<!-- Generated by IcoMoon.io -->
<!DOCTYPE svg PUBLIC "-//W3C//DTD SVG 1.1//EN" "http://www.w3.org/Graphics/SVG/1.1/DTD/svg11.dtd">
<svg version="1.1" xmlns="http://www.w3.org/2000/svg" xmlns:xlink="http://www.w3.org/1999/xlink" width="16" height="16" viewBox="0 0 16 16">
<path fill="#000000" d="M13.772 14.748l-3.975-5.84c-0.104-0.154-0.32-0.201-0.479-0.106l-0.502 0.302c-0.159 0.095-0.219 0.308-0.132 0.472l3.29 6.252c0.086 0.164 0.287 0.221 0.446 0.125l1.253-0.753c0.159-0.095 0.204-0.299 0.099-0.452zM9.26 8.314c1.503-0.958 1.568-3.454 0.148-5.684-1.207-1.895-3.043-2.898-4.49-2.569-0.333 0.065-0.758 0.243-1.185 0.515s-0.769 0.583-0.968 0.857c-0.91 1.172-0.777 3.259 0.431 5.154 1.42 2.23 3.71 3.226 5.214 2.268l0.851-0.542zM8.718 7.463c-0.992 0.632-2.742-0.265-3.82-1.96s-1.153-3.658-0.161-4.29c0.991-0.632 2.741 0.266 3.82 1.96s1.152 3.658 0.161 4.29z"></path>
</svg>
