<?xml version="1.0" encoding="utf-8"?>
<!-- Generated by IcoMoon.io -->
<!DOCTYPE svg PUBLIC "-//W3C//DTD SVG 1.1//EN" "http://www.w3.org/Graphics/SVG/1.1/DTD/svg11.dtd">
<svg version="1.1" xmlns="http://www.w3.org/2000/svg" xmlns:xlink="http://www.w3.org/1999/xlink" width="16" height="16" viewBox="0 0 16 16">
<path fill="#000000" d="M5 0c2.761 0 5 2.239 5 5 0 1.019-0.305 1.967-0.829 2.758 0-0 0-0 0-0.001l1.099 1.099c0.545-0.3 1.058-0.357 1.319-0.095l4.243 4.243c0.391 0.391 0.074 1.34-0.707 2.121s-1.731 1.098-2.121 0.707l-4.243-4.243c-0.262-0.262-0.206-0.774 0.095-1.319l-1.099-1.099c0.001-0.001 0.001-0.001 0.002-0.001-0.791 0.524-1.739 0.83-2.759 0.83-2.761 0-5-2.239-5-5s2.239-5 5-5zM2.172 7.828c0.756 0.756 1.76 1.172 2.828 1.172s2.073-0.416 2.828-1.172c0.756-0.755 1.172-1.76 1.172-2.828s-0.416-2.073-1.172-2.828c-0.756-0.756-1.76-1.172-2.828-1.172s-2.073 0.416-2.828 1.172c-0.756 0.756-1.172 1.76-1.172 2.828s0.416 2.073 1.172 2.828zM8 5c0 0.45-0.099 0.877-0.277 1.26-0.227-2.093-1.889-3.756-3.983-3.983 0.383-0.177 0.81-0.277 1.26-0.277 1.657 0 3 1.343 3 3z"></path>
</svg>
