<?xml version="1.0" encoding="utf-8"?>
<!-- Generated by IcoMoon.io -->
<!DOCTYPE svg PUBLIC "-//W3C//DTD SVG 1.1//EN" "http://www.w3.org/Graphics/SVG/1.1/DTD/svg11.dtd">
<svg version="1.1" xmlns="http://www.w3.org/2000/svg" xmlns:xlink="http://www.w3.org/1999/xlink" width="16" height="16" viewBox="0 0 16 16">
<path fill="#000000" d="M15.504 13.616l-3.79-3.223c-0.392-0.353-0.811-0.514-1.149-0.499 0.895-1.048 1.435-2.407 1.435-3.893 0-3.314-2.686-6-6-6s-6 2.686-6 6 2.686 6 6 6c1.486 0 2.845-0.54 3.893-1.435-0.016 0.338 0.146 0.757 0.499 1.149l3.223 3.79c0.552 0.613 1.453 0.665 2.003 0.115s0.498-1.452-0.115-2.003zM8.977 9.125h-5.954c-0.084-0.080-0.165-0.164-0.243-0.25h6.439c-0.078 0.086-0.158 0.17-0.243 0.25zM4.736 10.125c-0.219-0.067-0.431-0.151-0.634-0.25h3.796c-0.203 0.099-0.415 0.183-0.634 0.25h-2.529zM3.659 9.625c-0.12-0.078-0.236-0.161-0.348-0.25h5.378c-0.112 0.089-0.228 0.172-0.348 0.25h-4.682zM2.573 8.625c-0.062-0.081-0.122-0.165-0.179-0.25h7.211c-0.057 0.085-0.116 0.169-0.179 0.25h-6.854zM2.241 8.125c-0.046-0.082-0.090-0.165-0.132-0.25h7.782c-0.041 0.085-0.085 0.168-0.132 0.25h-7.519zM1.998 7.625c-0.033-0.082-0.065-0.165-0.093-0.25h8.19c-0.028 0.085-0.060 0.168-0.093 0.25h-8.004zM1.829 7.125c-0.022-0.082-0.042-0.166-0.060-0.25h8.461c-0.017 0.084-0.037 0.168-0.060 0.25h-8.341zM1.681 6c0-0.042 0.001-0.083 0.002-0.125h8.635c0.001 0.042 0.002 0.083 0.002 0.125s-0.001 0.083-0.002 0.125h-8.635c-0.001-0.042-0.002-0.083-0.002-0.125zM3.023 2.875h5.954c0.084 0.080 0.165 0.163 0.243 0.25h-6.439c0.078-0.087 0.158-0.17 0.243-0.25zM7.264 1.875c0.219 0.067 0.431 0.151 0.634 0.25h-3.796c0.203-0.099 0.415-0.183 0.634-0.25h2.529zM8.341 2.375c0.12 0.078 0.236 0.161 0.348 0.25h-5.378c0.112-0.089 0.228-0.172 0.348-0.25h4.682zM9.427 3.375c0.062 0.081 0.122 0.164 0.179 0.25h-7.211c0.057-0.086 0.116-0.169 0.179-0.25h6.854zM9.759 3.875c0.046 0.082 0.090 0.165 0.132 0.25h-7.782c0.041-0.085 0.085-0.168 0.132-0.25h7.519zM10.002 4.375c0.034 0.082 0.065 0.165 0.093 0.25h-8.19c0.028-0.085 0.060-0.168 0.093-0.25h8.004zM10.171 4.875c0.022 0.082 0.042 0.166 0.060 0.25h-8.461c0.017-0.084 0.038-0.168 0.060-0.25h8.341zM10.274 5.375c0.012 0.083 0.022 0.166 0.029 0.25h-8.606c0.007-0.084 0.017-0.167 0.029-0.25h8.548zM10.303 6.375c-0.007 0.084-0.017 0.167-0.029 0.25h-8.548c-0.012-0.083-0.022-0.166-0.029-0.25h8.606z"></path>
</svg>
