<?xml version="1.0" encoding="utf-8"?>
<!-- Generated by IcoMoon.io -->
<!DOCTYPE svg PUBLIC "-//W3C//DTD SVG 1.1//EN" "http://www.w3.org/Graphics/SVG/1.1/DTD/svg11.dtd">
<svg version="1.1" xmlns="http://www.w3.org/2000/svg" xmlns:xlink="http://www.w3.org/1999/xlink" width="16" height="16" viewBox="0 0 16 16">
<path fill="#000000" d="M0.048 10.875h2.952v-0.25h-2.994c0.007 0.085 0.021 0.169 0.042 0.25z"></path>
<path fill="#000000" d="M0.284 11.375h2.716v-0.25h-2.862c0.041 0.088 0.090 0.172 0.146 0.25z"></path>
<path fill="#000000" d="M0.903 11.875h2.097v-0.25h-2.489c0.116 0.102 0.248 0.187 0.392 0.25z"></path>
<path fill="#000000" d="M13.097 0.125h-12.194c-0.144 0.063-0.276 0.148-0.392 0.25h12.978c-0.116-0.102-0.248-0.187-0.392-0.25z"></path>
<path fill="#000000" d="M13.716 0.625h-13.432c-0.056 0.078-0.106 0.162-0.146 0.25h13.725c-0.041-0.088-0.090-0.172-0.146-0.25z"></path>
<path fill="#000000" d="M13.952 1.125h-13.904c-0.021 0.081-0.035 0.165-0.042 0.25h13.989c-0.007-0.085-0.021-0.169-0.042-0.25z"></path>
<path fill="#000000" d="M14 6.375v-0.25h-0.5l0.333 0.25z"></path>
<path fill="#000000" d="M14 5.625h-1.167l0.333 0.25h0.833z"></path>
<path fill="#000000" d="M15.119 9.589l-10.119-7.589v12.649l3.158-2.978 2.16 4.329 2.683-1.342-2.16-4.329z"></path>
<path fill="#000000" d="M1.875 1.875h10.25v3.25l0.062 0.016 0.313 0.234h1.5v-0.25h-0.125v-3.25h0.125v-0.25h-14v0.25h0.125v8.25h-0.125v0.25h3v-0.25h-1.125v-8.25zM1.625 10.125h-0.25v-8.25h0.25v8.25zM1.125 10.125h-0.25v-8.25h0.25v8.25zM12.375 5.125v-3.25h0.25v3.25h-0.25zM12.875 1.875h0.25v3.25h-0.25v-3.25zM13.625 5.125h-0.25v-3.25h0.25v3.25zM0.375 1.875h0.25v8.25h-0.25v-8.25z"></path>
</svg>
