<?xml version="1.0" encoding="utf-8"?>
<!-- Generated by IcoMoon.io -->
<!DOCTYPE svg PUBLIC "-//W3C//DTD SVG 1.1//EN" "http://www.w3.org/Graphics/SVG/1.1/DTD/svg11.dtd">
<svg version="1.1" xmlns="http://www.w3.org/2000/svg" xmlns:xlink="http://www.w3.org/1999/xlink" width="16" height="16" viewBox="0 0 16 16">
<path fill="#000000" d="M13.854 10.146c-0.143-0.143-0.358-0.186-0.545-0.108s-0.309 0.26-0.309 0.462v1.5h-1.793l-3.5-3.5 3.5-3.5h1.793v1.5c0 0.202 0.122 0.385 0.309 0.462 0.062 0.026 0.127 0.038 0.191 0.038 0.13 0 0.258-0.051 0.354-0.146l2-2c0.195-0.195 0.195-0.512 0-0.707l-2-2c-0.143-0.143-0.358-0.186-0.545-0.108s-0.309 0.26-0.309 0.462v1.5h-2c-0.133 0-0.26 0.053-0.354 0.146l-3.646 3.646-3.646-3.646c-0.094-0.094-0.221-0.146-0.354-0.146h-2.5c-0.276 0-0.5 0.224-0.5 0.5s0.224 0.5 0.5 0.5h2.293l3.5 3.5-3.5 3.5h-2.293c-0.276 0-0.5 0.224-0.5 0.5s0.224 0.5 0.5 0.5h2.5c0.133 0 0.26-0.053 0.354-0.146l3.646-3.646 3.646 3.646c0.094 0.094 0.221 0.146 0.354 0.146h2v1.5c0 0.202 0.122 0.385 0.309 0.462 0.062 0.026 0.127 0.038 0.191 0.038 0.13 0 0.258-0.051 0.354-0.146l2-2c0.195-0.195 0.195-0.512 0-0.707l-2-2z"></path>
</svg>
