<?xml version="1.0" encoding="utf-8"?>
<!-- Generated by IcoMoon.io -->
<!DOCTYPE svg PUBLIC "-//W3C//DTD SVG 1.1//EN" "http://www.w3.org/Graphics/SVG/1.1/DTD/svg11.dtd">
<svg version="1.1" xmlns="http://www.w3.org/2000/svg" xmlns:xlink="http://www.w3.org/1999/xlink" width="16" height="16" viewBox="0 0 16 16">
<path fill="#000000" d="M15.31 11.339l-1.727-0.997 1.499-0.863-0.757-1.315-2.261 1.301-2.547-1.47 2.537-1.465 2.271 1.307 0.757-1.315-1.509-0.868 1.732-1-0.759-1.314-1.727 0.997 0.002-1.73-1.518-0.002-0.004 2.609-2.547 1.47v-2.929l2.267-1.313-0.761-1.313-1.507 0.873v-2h-1.518v1.994l-1.497-0.867-0.761 1.313 2.257 1.308v2.941l-2.537-1.465-0.004-2.62-1.518 0.002 0.002 1.741-1.732-1-0.759 1.314 1.727 0.997-1.499 0.863 0.757 1.315 2.261-1.301 2.547 1.47-2.537 1.465-2.271-1.307-0.757 1.315 1.509 0.868-1.732 1 0.759 1.314 1.727-0.997-0.002 1.73 1.518 0.002 0.004-2.609 2.547-1.47v2.929l-2.267 1.313 0.761 1.313 1.507-0.873v2h1.518v-1.994l1.497 0.867 0.761-1.313-2.257-1.308v-2.941l2.537 1.465 0.004 2.62 1.518-0.002-0.002-1.741 1.732 1z"></path>
</svg>
