<?xml version="1.0" encoding="utf-8"?>
<!-- Generated by IcoMoon.io -->
<!DOCTYPE svg PUBLIC "-//W3C//DTD SVG 1.1//EN" "http://www.w3.org/Graphics/SVG/1.1/DTD/svg11.dtd">
<svg version="1.1" xmlns="http://www.w3.org/2000/svg" xmlns:xlink="http://www.w3.org/1999/xlink" width="16" height="16" viewBox="0 0 16 16">
<path fill="#000000" d="M8 0c-4.418 0-8 3.582-8 8s3.582 8 8 8 8-3.582 8-8-3.582-8-8-8zM8 13.5c-0.429 0-0.85-0.049-1.258-0.144l-0.965-1.871 1.063-1.463h2.32l1.063 1.463-0.964 1.871c-0.408 0.095-0.829 0.144-1.258 0.144zM5.869 2.927l1.881 0.947v1.808l-1.878 1.365-1.718-0.558-0.319-2.080c0.088-0.102 0.18-0.201 0.277-0.297 0.513-0.513 1.109-0.911 1.758-1.184zM11.889 4.111c0.096 0.096 0.188 0.195 0.277 0.297l-0.319 2.080-1.718 0.558-1.878-1.365v-1.808l1.881-0.947c0.649 0.273 1.245 0.671 1.758 1.184zM3.998 6.963l1.72 0.559 0.717 2.207-1.062 1.462-2.078-0.339c-0.44-0.723-0.706-1.539-0.776-2.395l1.479-1.494zM12.705 10.852l-2.078 0.339-1.062-1.462 0.717-2.207 1.72-0.559 1.479 1.494c-0.070 0.856-0.336 1.671-0.776 2.395zM13.303 2.697c0.427 0.427 0.798 0.898 1.107 1.408l-1.828 0.024c-0.62-0.734-1.414-1.316-2.317-1.685l-0.542-1.744c0.407 0.096 0.806 0.226 1.195 0.39 0.893 0.378 1.695 0.919 2.384 1.608zM2.697 2.697c0.689-0.689 1.491-1.23 2.384-1.607 0.389-0.164 0.788-0.294 1.195-0.39l-0.542 1.744c-0.903 0.369-1.697 0.951-2.317 1.685l-1.828-0.024c0.31-0.509 0.68-0.98 1.107-1.408zM0.5 8c0-0.207 0.009-0.412 0.025-0.615l1.491 1.054c0.072 0.995 0.387 1.923 0.885 2.724l-0.587 1.729c-0.509-0.591-0.92-1.252-1.225-1.972-0.391-0.924-0.589-1.906-0.589-2.919zM5.103 14.92l1.464-1.093c0.459 0.113 0.939 0.173 1.433 0.173s0.974-0.060 1.433-0.173l1.464 1.093c-0.918 0.385-1.892 0.58-2.897 0.58s-1.979-0.195-2.897-0.58zM14.911 10.919c-0.305 0.721-0.716 1.382-1.225 1.972l-0.587-1.729c0.498-0.802 0.813-1.729 0.885-2.724l1.491-1.054c0.017 0.204 0.025 0.409 0.025 0.615 0 1.013-0.198 1.995-0.589 2.919z"></path>
</svg>
