<?xml version="1.0" encoding="utf-8"?>
<!-- Generated by IcoMoon.io -->
<!DOCTYPE svg PUBLIC "-//W3C//DTD SVG 1.1//EN" "http://www.w3.org/Graphics/SVG/1.1/DTD/svg11.dtd">
<svg version="1.1" xmlns="http://www.w3.org/2000/svg" xmlns:xlink="http://www.w3.org/1999/xlink" width="16" height="16" viewBox="0 0 16 16">
<path fill="#000000" d="M15.582 13.736c0 0 0 0 0 0l-0.11-0.111h-0.035c-0.132-0.092-0.284-0.175-0.453-0.25h0.241l-0.247-0.25h-0.777c-0.368-0.080-0.774-0.125-1.2-0.125s-0.833 0.045-1.201 0.125c0-0 0-0 0-0h-2.652l0.136 0.25h1.732c0 0 0-0 0-0-0.169 0.075-0.321 0.158-0.453 0.25 0 0 0-0 0-0h-1.143l0.136 0.25h0.716c0-0 0-0 0-0-0.073 0.080-0.133 0.164-0.178 0.25 0-0 0-0 0-0h-0.402l0.136 0.25h0.182c0-0 0-0 0-0-0.007 0.041-0.011 0.083-0.011 0.125s0.004 0.084 0.010 0.125h-0.045l0.094 0.173 0-0c0.276 0.686 1.488 1.202 2.941 1.202 1.657 0 3-0.672 3-1.5 0-0.279-0.153-0.541-0.418-0.764zM10.336 13.81c0 0-0 0-0 0s0-0 0-0zM10.043 14.246c-0.001 0.002-0.001 0.004-0.002 0.006 0.001-0.002 0.001-0.004 0.002-0.006zM10.068 14.181c-0.001 0.003-0.002 0.006-0.004 0.008 0.001-0.003 0.002-0.006 0.004-0.008zM10.043 14.752c0.001 0.001 0.001 0.003 0.001 0.004-0-0.001-0.001-0.003-0.001-0.004zM10.019 14.669c0 0 0 0.001 0 0.001s-0-0-0-0.001zM10.029 14.71c0 0.001 0.001 0.002 0.001 0.004-0-0.001-0.001-0.002-0.001-0.004zM5.6 13.125c-0.49-0.080-1.031-0.125-1.6-0.125s-1.11 0.045-1.6 0.125h-1.246l-0.264 0.25h0.465c0.001-0 0.001-0 0.002-0.001-0.226 0.075-0.429 0.159-0.605 0.251h-0.125l-0.264 0.25h0.001c-0.233 0.19-0.363 0.402-0.363 0.625 0 0.828 1.791 1.5 4 1.5 2.034 0 3.713-0.569 3.967-1.306l0.001 0 0.033-0.069h-0.014c0.009-0.041 0.014-0.083 0.014-0.125s-0.005-0.084-0.014-0.125c0 0 0 0 0 0h0.134l0.12-0.25h-0.366c-0.059-0.087-0.139-0.17-0.237-0.25h0.722l0.12-0.25h-1.23c0 0 0 0 0 0-0.176-0.092-0.378-0.175-0.604-0.25h1.953l0.12-0.25h-3.118c-0 0 0 0 0 0zM7.914 14.189c-0.002-0.003-0.003-0.006-0.005-0.008 0.002 0.003 0.003 0.006 0.005 0.008zM7.945 14.252c-0.001-0.002-0.002-0.004-0.003-0.006 0.001 0.002 0.002 0.004 0.003 0.006zM7.304 13.655v0 0zM13.504 3.125h-1.801l-0.264 0.25h1.945zM13.265 3.625h-2.089l-0.264 0.25h2.233zM13.983 2.125h-1.225l-0.264 0.25h1.369zM13.744 2.625h-1.513l-0.264 0.25h1.657zM14.222 1.625h-0.937l-0.264 0.25h1.081zM14.462 1.125h-0.648l-0.264 0.25h0.793zM14.94 0.125h-0.072l-0.264 0.25h0.216zM14.701 0.625h-0.36l-0.264 0.25h0.504zM12.786 4.625h-2.666l-0.264 0.25h2.81zM13.026 4.125h-2.378l-0.264 0.25h2.522zM12.308 5.625h-3.242l-0.264 0.25h3.386zM12.547 5.125h-2.954l-0.264 0.25h3.098zM14.731 12.875l-0.247-0.25h-5.526l0.12-0.25h5.159l-0.247-0.25h-4.792l0.12-0.25h4.425l-0.247-0.25h-4.058l0.12-0.25h3.691l-0.247-0.25h-3.325l0.12-0.25h2.958l-0.247-0.25h-2.591l0.12-0.25h2.224l-0.247-0.25h-1.857l0.12-0.25h1.49l-0.247-0.25h-1.124l0.12-0.25h0.757l-0.247-0.25h-0.39l0.12-0.25h0.023l-0.016-0.016 0.112-0.234h-0.344l-0.247-0.25h0.711l0.12-0.25h-1.077l-0.247-0.25h1.444l0.12-0.25h-1.811l-0.247-0.25h2.178l0.12-0.25h-2.545l-0.247-0.25h2.912l0.12-0.25h-3.279l-0.247-0.25h3.645l0.12-0.25h-3.53l-0.249 0.236-0.233-0.236h-2.721l0.136 0.25h2.803l-0.264 0.25h-2.403l0.136 0.25h2.003l-0.264 0.25h-1.603l0.136 0.25h1.203l-0.264 0.25h-0.803l0.136 0.25h0.403l-0.264 0.25h-0.003l0.001 0.002-0.262 0.248h0.397l0.136 0.25h-0.796l-0.264 0.25h1.196l0.136 0.25h-1.596l-0.264 0.25h1.996l0.136 0.25h-2.396l-0.264 0.25h2.796l0.136 0.25h-3.196l-0.264 0.25h3.596l0.136 0.25h-3.996l-0.264 0.25h4.396l0.136 0.25h-4.795l-0.264 0.25h5.195l0.136 0.25h-5.595l-0.264 0.25h5.995l0.136 0.25h-6.395l-0.264 0.25h6.795l0.136 0.25h-7.195l-0.264 0.25h7.421l0.081-0.17 0.093 0.17zM3.566 2.875h1.277l-0.247-0.25h-1.166zM3.021 1.875h0.833l-0.247-0.25h-0.722zM3.293 2.375h1.055l-0.247-0.25h-0.944zM2.749 1.375h0.611l-0.247-0.25h-0.5zM2.371 0.375l-0.247-0.25h-0.055l0.136 0.25zM4.11 3.875h1.721l-0.247-0.25h-1.61zM2.477 0.875h0.389l-0.247-0.25h-0.278zM3.838 3.375h1.499l-0.247-0.25h-1.388zM4.655 4.875h2.165l-0.247-0.25h-2.054zM4.383 4.375h1.943l-0.247-0.25h-1.832zM4.927 5.375h2.387l-0.247-0.25h-2.276zM5.2 5.875h2.609l-0.247-0.25h-2.498z"></path>
</svg>
