<?xml version="1.0" encoding="utf-8"?>
<!-- Generated by IcoMoon.io -->
<!DOCTYPE svg PUBLIC "-//W3C//DTD SVG 1.1//EN" "http://www.w3.org/Graphics/SVG/1.1/DTD/svg11.dtd">
<svg version="1.1" xmlns="http://www.w3.org/2000/svg" xmlns:xlink="http://www.w3.org/1999/xlink" width="16" height="16" viewBox="0 0 16 16">
<path fill="#000000" d="M2 0h11v1h-11v-1z"></path>
<path fill="#000000" d="M5 5v11h5v-11l2.625-3.5h-10.25l2.625 3.5zM9 10.5c0 0.828-0.672 1.5-1.5 1.5s-1.5-0.672-1.5-1.5v-2c0-0.828 0.672-1.5 1.5-1.5s1.5 0.672 1.5 1.5v2z"></path>
<path fill="#000000" d="M7.5 11c-0.276 0-0.5-0.224-0.5-0.5v-1c0-0.276 0.224-0.5 0.5-0.5s0.5 0.224 0.5 0.5v1c0 0.276-0.224 0.5-0.5 0.5z"></path>
</svg>
