<?xml version="1.0" encoding="utf-8"?>
<!-- Generated by IcoMoon.io -->
<!DOCTYPE svg PUBLIC "-//W3C//DTD SVG 1.1//EN" "http://www.w3.org/Graphics/SVG/1.1/DTD/svg11.dtd">
<svg version="1.1" xmlns="http://www.w3.org/2000/svg" xmlns:xlink="http://www.w3.org/1999/xlink" width="16" height="16" viewBox="0 0 16 16">
<path fill="#000000" d="M5 1v1.155l-2.619 0.368 0.17 1.211-2.551 0.732 3.308 11.535 10.189-2.921 0.558-0.079h1.945v-12h-11zM3.929 14.879l-2.808-9.793 1.558-0.447 1.373 9.766 2.997-0.421-3.119 0.894zM4.822 13.382l-1.418-10.088 1.595-0.224v9.93h2.543l-2.721 0.382zM15 12h-9v-10h9v10zM13.926 5.416c0.048 0.133 0.074 0.305 0.074 0.521 0 2.5-3.5 2.5-3.5 5 0-2.5-3.5-2.5-3.5-5 0-0.216 0.026-0.388 0.074-0.521 0.226-0.782 0.821-1.354 1.676-1.354 0.695 0 1.426 0.597 1.75 1.159 0.324-0.562 1.055-1.159 1.75-1.159 0.855 0 1.45 0.572 1.676 1.354z"></path>
</svg>
