<?xml version="1.0" encoding="utf-8"?>
<!-- Generated by IcoMoon.io -->
<!DOCTYPE svg PUBLIC "-//W3C//DTD SVG 1.1//EN" "http://www.w3.org/Graphics/SVG/1.1/DTD/svg11.dtd">
<svg version="1.1" xmlns="http://www.w3.org/2000/svg" xmlns:xlink="http://www.w3.org/1999/xlink" width="16" height="16" viewBox="0 0 16 16">
<path fill="#000000" d="M5 1v1.155l-2.619 0.368 0.17 1.211-2.551 0.732 3.308 11.535 10.189-2.921 0.558-0.079h1.945v-12h-11zM3.929 14.879l-2.808-9.793 1.558-0.447 1.373 9.766 2.997-0.421-3.119 0.894zM4.822 13.382l-1.418-10.088 1.595-0.224v9.93h2.543l-2.721 0.382zM15 12h-9v-10h9v10zM7 7.5c0-0.828 0.672-1.5 1.5-1.5s1.5 0.672 1.5 1.5c0 0.828-0.672 1.5-1.5 1.5s-1.5-0.672-1.5-1.5zM11 7.5c0-0.828 0.672-1.5 1.5-1.5s1.5 0.672 1.5 1.5c0 0.828-0.672 1.5-1.5 1.5s-1.5-0.672-1.5-1.5zM12 4.844c0 0.466-0.212 0.881-0.545 1.156-0.455 0.484-0.455 1-0.455 1.5v1c0 1 0 2 1 2v0.5h-3v-0.5c1 0 1-1 1-2v-1c0-0.5 0-1.016-0.455-1.5-0.333-0.275-0.545-0.691-0.545-1.156 0-0.828 0.672-1.5 1.5-1.5s1.5 0.672 1.5 1.5z"></path>
</svg>
