<?xml version="1.0" encoding="utf-8"?>
<!-- Generated by IcoMoon.io -->
<!DOCTYPE svg PUBLIC "-//W3C//DTD SVG 1.1//EN" "http://www.w3.org/Graphics/SVG/1.1/DTD/svg11.dtd">
<svg version="1.1" xmlns="http://www.w3.org/2000/svg" xmlns:xlink="http://www.w3.org/1999/xlink" width="16" height="16" viewBox="0 0 16 16">
<path fill="#000000" d="M12.635 15.777c-0.103 0-0.206-0.032-0.293-0.095l-4.342-3.141-4.342 3.141c-0.175 0.127-0.413 0.126-0.588-0.001s-0.248-0.353-0.181-0.559l1.657-5.079-4.34-3.139c-0.176-0.127-0.249-0.353-0.183-0.559s0.259-0.346 0.476-0.346l5.367-0 1.658-5.080c0.067-0.206 0.259-0.345 0.475-0.345s0.408 0.139 0.475 0.345l1.658 5.080 5.367 0c0.217 0 0.409 0.14 0.476 0.346s-0.007 0.432-0.183 0.559l-4.34 3.139 1.657 5.079c0.067 0.206-0.006 0.432-0.181 0.559-0.088 0.064-0.191 0.096-0.295 0.096zM2.044 6.998l3.384 2.448c0.176 0.127 0.25 0.354 0.182 0.56l-1.294 3.964 3.39-2.452c0.175-0.127 0.411-0.127 0.586 0l3.39 2.452-1.294-3.964c-0.067-0.206 0.006-0.433 0.182-0.56l3.384-2.448-4.185-0c-0.216 0-0.408-0.139-0.475-0.345l-1.295-3.969-1.295 3.969c-0.067 0.206-0.259 0.345-0.475 0.345l-4.185 0z"></path>
</svg>
