<?xml version="1.0" encoding="utf-8"?>
<!-- Generated by IcoMoon.io -->
<!DOCTYPE svg PUBLIC "-//W3C//DTD SVG 1.1//EN" "http://www.w3.org/Graphics/SVG/1.1/DTD/svg11.dtd">
<svg version="1.1" xmlns="http://www.w3.org/2000/svg" xmlns:xlink="http://www.w3.org/1999/xlink" width="16" height="16" viewBox="0 0 16 16">
<path fill="#000000" d="M15.25 3c0.412 0 0.75-0.337 0.75-0.75v-1.5c0-0.412-0.338-0.75-0.75-0.75h-1.5c-0.412 0-0.75 0.338-0.75 0.75v0.25h-10v-0.25c0-0.412-0.337-0.75-0.75-0.75h-1.5c-0.412 0-0.75 0.338-0.75 0.75v1.5c0 0.413 0.338 0.75 0.75 0.75h0.25v10h-0.25c-0.412 0-0.75 0.338-0.75 0.75v1.5c0 0.412 0.338 0.75 0.75 0.75h1.5c0.413 0 0.75-0.338 0.75-0.75v-0.25h10v0.25c0 0.412 0.338 0.75 0.75 0.75h1.5c0.412 0 0.75-0.338 0.75-0.75v-1.5c0-0.412-0.338-0.75-0.75-0.75h-0.25v-10h0.25zM14 1h1v1h-1v-1zM1 1h1v1h-1v-1zM2 15h-1v-1h1v1zM15 15h-1v-1h1v1zM14 13h-0.25c-0.412 0-0.75 0.338-0.75 0.75v0.25h-10v-0.25c0-0.412-0.337-0.75-0.75-0.75h-0.25v-10h0.25c0.413 0 0.75-0.337 0.75-0.75v-0.25h10v0.25c0 0.413 0.338 0.75 0.75 0.75h0.25v10zM4 4h2v8h-2zM7 8h2v4h-2zM10 6h2v6h-2z"></path>
</svg>
