<?xml version="1.0" encoding="utf-8"?>
<!-- Generated by IcoMoon.io -->
<!DOCTYPE svg PUBLIC "-//W3C//DTD SVG 1.1//EN" "http://www.w3.org/Graphics/SVG/1.1/DTD/svg11.dtd">
<svg version="1.1" xmlns="http://www.w3.org/2000/svg" xmlns:xlink="http://www.w3.org/1999/xlink" width="16" height="16" viewBox="0 0 16 16">
<path fill="#000000" d="M10 4h-4v12h4v-12zM7 5.125v-0.125h2v0.125h-2zM7 5.625v-0.25h2v0.25h-2zM7 6.125v-0.25h2v0.25h-2zM7 6.625v-0.25h2v0.25h-2zM7 7.125v-0.25h2v0.25h-2zM7 7.625v-0.25h2v0.25h-2zM7 8.125v-0.25h2v0.25h-2zM7 8.625v-0.25h2v0.25h-2zM7 9.125v-0.25h2v0.25h-2zM7 9.625v-0.25h2v0.25h-2zM7 10.125v-0.25h2v0.25h-2zM7 10.625v-0.25h2v0.25h-2zM7 11.125v-0.25h2v0.25h-2zM7 11.625v-0.25h2v0.25h-2zM7 12.125v-0.25h2v0.25h-2zM7 12.625v-0.25h2v0.25h-2zM7 13.125v-0.25h2v0.25h-2zM7 13.625v-0.25h2v0.25h-2zM7 14.125v-0.25h2v0.25h-2zM7 14.625v-0.25h2v0.25h-2zM7 15v-0.125h2v0.125h-2zM0 9h4v7h-4zM12 0h4v16h-4z"></path>
</svg>
