<?xml version="1.0" encoding="utf-8"?>
<!-- Generated by IcoMoon.io -->
<!DOCTYPE svg PUBLIC "-//W3C//DTD SVG 1.1//EN" "http://www.w3.org/Graphics/SVG/1.1/DTD/svg11.dtd">
<svg version="1.1" xmlns="http://www.w3.org/2000/svg" xmlns:xlink="http://www.w3.org/1999/xlink" width="16" height="16" viewBox="0 0 16 16">
<path fill="#000000" d="M8 0c-4.418 0-8 3.582-8 8s3.582 8 8 8 8-3.582 8-8-3.582-8-8-8zM8 2c2.973 0 5.44 2.162 5.917 5h-3.088c-0.412-1.165-1.522-2-2.828-2s-2.417 0.835-2.828 2h-3.088c0.476-2.838 2.944-5 5.917-5zM7 13.917c-2.512-0.422-4.495-2.404-4.917-4.917h2.917c1.105 0 2 0.895 2 2v2.917zM8 9c-0.552 0-1-0.448-1-1s0.448-1 1-1c0.552 0 1 0.448 1 1s-0.448 1-1 1zM9 13.917v-2.917c0-1.105 0.895-2 2-2h2.917c-0.422 2.512-2.404 4.495-4.917 4.917z"></path>
</svg>
