<?xml version="1.0" encoding="utf-8"?>
<!-- Generated by IcoMoon.io -->
<!DOCTYPE svg PUBLIC "-//W3C//DTD SVG 1.1//EN" "http://www.w3.org/Graphics/SVG/1.1/DTD/svg11.dtd">
<svg version="1.1" xmlns="http://www.w3.org/2000/svg" xmlns:xlink="http://www.w3.org/1999/xlink" width="16" height="16" viewBox="0 0 16 16">
<path fill="#000000" d="M14 6c-1.105 0-2 0.895-2 2 0 0.74 0.402 1.386 1 1.732v3.768c0 0.827-0.673 1.5-1.5 1.5h-4c-0.827 0-1.5-0.673-1.5-1.5v-1.5h0.5c0.276 0 0.5-0.224 0.5-0.5v-0.781c1.066-0.418 1.999-1.296 2.746-2.599 0.823-1.436 1.254-3.16 1.254-4.12v-1.5c0-0.827-0.673-1.5-1.5-1.5h-1.5c-0.552 0-1 0.448-1 1s0.448 1 1 1 1-0.448 1-1h0.5c0.276 0 0.5 0.224 0.5 0.5v1.5c0 1.082-0.578 2.674-1.121 3.623-1.126 1.965-2.459 2.377-3.379 2.377s-2.253-0.412-3.379-2.377c-0.728-1.271-1.121-2.815-1.121-3.623v-1.5c0-0.276 0.224-0.5 0.5-0.5h0.5c0 0.552 0.448 1 1 1s1-0.448 1-1-0.448-1-1-1h-1.5c-0.827 0-1.5 0.673-1.5 1.5v1.5c0 0.96 0.431 2.684 1.254 4.12 0.747 1.303 1.68 2.181 2.746 2.599v0.781c0 0.276 0.224 0.5 0.5 0.5h0.5v1.5c0 1.379 1.122 2.5 2.5 2.5h4c1.379 0 2.5-1.121 2.5-2.5v-3.5c1.105 0 2-0.895 2-2s-0.895-2-2-2zM14 9c-0.551 0-1-0.449-1-1s0.449-1 1-1 1 0.449 1 1c0 0.551-0.449 1-1 1z"></path>
</svg>
