<?xml version="1.0" encoding="utf-8"?>
<!-- Generated by IcoMoon.io -->
<!DOCTYPE svg PUBLIC "-//W3C//DTD SVG 1.1//EN" "http://www.w3.org/Graphics/SVG/1.1/DTD/svg11.dtd">
<svg version="1.1" xmlns="http://www.w3.org/2000/svg" xmlns:xlink="http://www.w3.org/1999/xlink" width="16" height="16" viewBox="0 0 16 16">
<path fill="#000000" d="M6.5 9h-3c-0.276 0-0.5 0.224-0.5 0.5v3c0 0.276 0.224 0.5 0.5 0.5h3c0.276 0 0.5-0.224 0.5-0.5v-3c0-0.276-0.224-0.5-0.5-0.5zM6 12h-2v-2h2v2z"></path>
<path fill="#000000" d="M16 6v-4.5c0-0.276-0.224-0.5-0.5-0.5h-15c-0.276 0-0.5 0.224-0.5 0.5v4.5c0 0.739 0.403 1.385 1 1.731v7.269h-0.5c-0.276 0-0.5 0.224-0.5 0.5s0.224 0.5 0.5 0.5h15c0.276 0 0.5-0.224 0.5-0.5s-0.224-0.5-0.5-0.5h-0.5v-7.269c0.597-0.346 1-0.992 1-1.731zM10 2h2v4c0 0.551-0.449 1-1 1s-1-0.449-1-1v-4zM4 2h2v4c0 0.551-0.449 1-1 1s-1-0.449-1-1v-4zM12 15h-2v-4h2v4zM14 15h-1v-4.5c0-0.276-0.224-0.5-0.5-0.5h-3c-0.276 0-0.5 0.224-0.5 0.5v4.5h-7v-7c0.597 0 1.133-0.263 1.5-0.679 0.367 0.416 0.903 0.679 1.5 0.679s1.133-0.263 1.5-0.679c0.367 0.416 0.903 0.679 1.5 0.679s1.133-0.263 1.5-0.679c0.367 0.416 0.903 0.679 1.5 0.679s1.133-0.263 1.5-0.679c0.367 0.416 0.903 0.679 1.5 0.679v7z"></path>
</svg>
