<?xml version="1.0" encoding="utf-8"?>
<!-- Generated by IcoMoon.io -->
<!DOCTYPE svg PUBLIC "-//W3C//DTD SVG 1.1//EN" "http://www.w3.org/Graphics/SVG/1.1/DTD/svg11.dtd">
<svg version="1.1" xmlns="http://www.w3.org/2000/svg" xmlns:xlink="http://www.w3.org/1999/xlink" width="16" height="16" viewBox="0 0 16 16">
<path fill="#000000" d="M15 8v1h-2.842c0.532 0.715 0.842 1.575 0.842 2.5 0 2.485-2.239 4.5-5 4.5-2.574 0-4.693-1.75-4.969-4h2.031c0.109 0.442 0.363 0.855 0.741 1.195 0.577 0.519 1.357 0.805 2.198 0.805s1.621-0.286 2.198-0.805c0.517-0.466 0.802-1.068 0.802-1.695s-0.285-1.23-0.802-1.695c-0.576-0.519-1.357-0.805-2.198-0.805h-7v-1h14zM8 7h-4.158c-0.532-0.715-0.842-1.575-0.842-2.5 0-2.485 2.239-4.5 5-4.5 2.574 0 4.693 1.75 4.969 4h-2.031c-0.11-0.442-0.363-0.855-0.741-1.195-0.576-0.519-1.357-0.805-2.198-0.805s-1.621 0.286-2.198 0.805c-0.517 0.466-0.802 1.068-0.802 1.695s0.285 1.23 0.802 1.695c0.577 0.519 1.357 0.805 2.198 0.805z"></path>
</svg>
