<?xml version="1.0" encoding="utf-8"?>
<!-- Generated by IcoMoon.io -->
<!DOCTYPE svg PUBLIC "-//W3C//DTD SVG 1.1//EN" "http://www.w3.org/Graphics/SVG/1.1/DTD/svg11.dtd">
<svg version="1.1" xmlns="http://www.w3.org/2000/svg" xmlns:xlink="http://www.w3.org/1999/xlink" width="16" height="16" viewBox="0 0 16 16">
<path fill="#000000" d="M10 7.5c0 0.275-0.225 0.5-0.5 0.5h-3c-0.275 0-0.5-0.225-0.5-0.5v-3c0-0.275 0.225-0.5 0.5-0.5h3c0.275 0 0.5 0.225 0.5 0.5v3z"></path>
<path fill="#000000" d="M15 0h-14c-0.55 0-1 0.45-1 1v14c0 0.55 0.45 1 1 1h14c0.55 0 1-0.45 1-1v-14c0-0.55-0.45-1-1-1zM2 15c-0.552 0-1-0.448-1-1s0.448-1 1-1 1 0.448 1 1-0.448 1-1 1zM2 3c-0.552 0-1-0.448-1-1s0.448-1 1-1 1 0.448 1 1-0.448 1-1 1zM11 12.5c0 0.276-0.224 0.5-0.5 0.5h-5c-0.276 0-0.5-0.224-0.5-0.5v-9c0-0.276 0.224-0.5 0.5-0.5h5c0.276 0 0.5 0.224 0.5 0.5v9zM14 15c-0.552 0-1-0.448-1-1s0.448-1 1-1 1 0.448 1 1-0.448 1-1 1zM14 3c-0.552 0-1-0.448-1-1s0.448-1 1-1 1 0.448 1 1-0.448 1-1 1z"></path>
</svg>
