<?xml version="1.0" encoding="utf-8"?>
<!-- Generated by IcoMoon.io -->
<!DOCTYPE svg PUBLIC "-//W3C//DTD SVG 1.1//EN" "http://www.w3.org/Graphics/SVG/1.1/DTD/svg11.dtd">
<svg version="1.1" xmlns="http://www.w3.org/2000/svg" xmlns:xlink="http://www.w3.org/1999/xlink" width="16" height="16" viewBox="0 0 16 16">
<path fill="#000000" d="M15.707 14.293l-3.146-3.146 2.293-2.293c0.195-0.195 0.195-0.512 0-0.707l-1-1c-0.195-0.195-0.512-0.195-0.707 0l-1.646 1.646-8.646-8.646c-0.094-0.094-0.221-0.146-0.354-0.146h-2c-0.276 0-0.5 0.224-0.5 0.5v2c0 0.133 0.053 0.26 0.146 0.354l8.646 8.646-1.646 1.646c-0.195 0.195-0.195 0.512 0 0.707l1 1c0.098 0.098 0.226 0.146 0.354 0.146s0.256-0.049 0.354-0.146l2.293-2.293 3.146 3.146c0.39 0.391 1.024 0.391 1.414 0s0.39-1.024 0-1.414zM9.5 11l-8.75-8.75 0.5-0.5 8.75 8.75-0.5 0.5z"></path>
</svg>
