<?xml version="1.0" encoding="utf-8"?>
<!-- Generated by IcoMoon.io -->
<!DOCTYPE svg PUBLIC "-//W3C//DTD SVG 1.1//EN" "http://www.w3.org/Graphics/SVG/1.1/DTD/svg11.dtd">
<svg version="1.1" xmlns="http://www.w3.org/2000/svg" xmlns:xlink="http://www.w3.org/1999/xlink" width="16" height="16" viewBox="0 0 16 16">
<path fill="#000000" d="M8 0c-4.418 0-8 3.582-8 8s3.582 8 8 8 8-3.582 8-8-3.582-8-8-8zM12.243 12.243c-0.894 0.894-2.020 1.471-3.243 1.675v-2.917h-2v2.917c-1.222-0.204-2.349-0.781-3.243-1.675s-1.471-2.020-1.675-3.243h2.917v-2h-2.917c0.204-1.222 0.781-2.349 1.675-3.243s2.020-1.471 3.243-1.675v2.917h2v-2.917c1.222 0.204 2.349 0.781 3.243 1.675s1.471 2.020 1.675 3.243h-2.917v2h2.917c-0.204 1.222-0.781 2.349-1.675 3.243z"></path>
</svg>
