<?xml version="1.0" encoding="utf-8"?>
<!-- Generated by IcoMoon.io -->
<!DOCTYPE svg PUBLIC "-//W3C//DTD SVG 1.1//EN" "http://www.w3.org/Graphics/SVG/1.1/DTD/svg11.dtd">
<svg version="1.1" xmlns="http://www.w3.org/2000/svg" xmlns:xlink="http://www.w3.org/1999/xlink" width="19" height="16" viewBox="0 0 19 16">
<path fill="#000000" d="M16.25 6c-0.763 0-1.455 0.313-1.953 0.817-1.091-1.12-2.614-1.817-4.297-1.817-1.502 0-2.943 0.563-4.060 1.585-0.758 0.694-1.32 1.556-1.644 2.505-0.026-0.029-0.053-0.058-0.081-0.087-0.646-0.666-1.559-1.004-2.715-1.004h-1c-0.276 0-0.5 0.224-0.5 0.5v0.5c0 0.276 0.224 0.5 0.5 0.5 0.735 0 1.298 0.283 1.773 0.892 0.453 0.58 0.756 1.358 1.050 2.11 0.236 0.604 0.458 1.175 0.751 1.619 0.385 0.584 0.865 0.88 1.426 0.88h9c0.133 0 0.26-0.053 0.354-0.146 0.555-0.555 0.841-1.255 0.989-1.936 0.628-0.165 1.299-0.573 1.858-1.143 0.838-0.856 1.3-1.93 1.3-3.025 0-1.516-1.234-2.75-2.75-2.75zM16.628 10.725c-0.205 0.209-0.422 0.377-0.629 0.503 0.001-0.080 0.001-0.157 0.001-0.228 0-1.074-0.284-2.083-0.78-2.956 0.225-0.328 0.603-0.544 1.030-0.544 0.689 0 1.25 0.561 1.25 1.25 0 0.944-0.546 1.643-0.872 1.975z"></path>
<path fill="#000000" d="M11 4c0 0.552-0.448 1-1 1s-1-0.448-1-1c0-0.552 0.448-1 1-1s1 0.448 1 1z"></path>
</svg>
