<?xml version="1.0" encoding="utf-8"?>
<!-- Generated by IcoMoon.io -->
<!DOCTYPE svg PUBLIC "-//W3C//DTD SVG 1.1//EN" "http://www.w3.org/Graphics/SVG/1.1/DTD/svg11.dtd">
<svg version="1.1" xmlns="http://www.w3.org/2000/svg" xmlns:xlink="http://www.w3.org/1999/xlink" width="16" height="16" viewBox="0 0 16 16">
<path fill="#000000" d="M6 10.268v-6.268c0-0.552-0.448-1-1-1s-1 0.448-1 1v6.268c-0.598 0.346-1 0.992-1 1.732 0 1.105 0.895 2 2 2s2-0.895 2-2c0-0.74-0.402-1.386-1-1.732z"></path>
<path fill="#000000" d="M5 16c-2.206 0-4-1.794-4-4 0-0.983 0.354-1.915 1-2.646v-6.354c0-1.654 1.346-3 3-3s3 1.346 3 3l0 6.354c0.646 0.731 1 1.663 1 2.646 0 2.206-1.794 4-4 4zM5 1c-1.103 0-2 0.897-2 2v6.551c0 0.131-0.051 0.257-0.143 0.35-0.553 0.564-0.857 1.31-0.857 2.1 0 1.654 1.346 3 3 3s3-1.346 3-3c0-0.79-0.304-1.535-0.857-2.1-0.092-0.093-0.143-0.219-0.143-0.35l-0-6.551c0-1.103-0.897-2-2-2z"></path>
<path fill="#000000" d="M14.5 2h-4c-0.276 0-0.5-0.224-0.5-0.5s0.224-0.5 0.5-0.5h4c0.276 0 0.5 0.224 0.5 0.5s-0.224 0.5-0.5 0.5z"></path>
<path fill="#000000" d="M13.5 4h-3c-0.276 0-0.5-0.224-0.5-0.5s0.224-0.5 0.5-0.5h3c0.276 0 0.5 0.224 0.5 0.5s-0.224 0.5-0.5 0.5z"></path>
<path fill="#000000" d="M14.5 6h-4c-0.276 0-0.5-0.224-0.5-0.5s0.224-0.5 0.5-0.5h4c0.276 0 0.5 0.224 0.5 0.5s-0.224 0.5-0.5 0.5z"></path>
<path fill="#000000" d="M13.5 8h-3c-0.276 0-0.5-0.224-0.5-0.5s0.224-0.5 0.5-0.5h3c0.276 0 0.5 0.224 0.5 0.5s-0.224 0.5-0.5 0.5z"></path>
<path fill="#000000" d="M14.5 10h-4c-0.276 0-0.5-0.224-0.5-0.5s0.224-0.5 0.5-0.5h4c0.276 0 0.5 0.224 0.5 0.5s-0.224 0.5-0.5 0.5z"></path>
</svg>
