<?xml version="1.0" encoding="utf-8"?>
<!-- Generated by IcoMoon.io -->
<!DOCTYPE svg PUBLIC "-//W3C//DTD SVG 1.1//EN" "http://www.w3.org/Graphics/SVG/1.1/DTD/svg11.dtd">
<svg version="1.1" xmlns="http://www.w3.org/2000/svg" xmlns:xlink="http://www.w3.org/1999/xlink" width="16" height="16" viewBox="0 0 16 16">
<path fill="#000000" d="M13 11.5c-1-1-1-2.5-1-4.5l-0 0c0.001-1.682-0.72-3.472-2.124-4.876-1.403-1.403-3.191-2.125-4.872-2.124-1.35 0-2.631 0.466-3.584 1.42-2.14 2.14-1.825 5.926 0.705 8.456 1.403 1.403 3.191 2.124 4.872 2.124 2.004 0 3.504 0 4.504 1l3 3c1 0 1.5-0.5 1.5-1.5l-3-3zM8 2.048c0.383 0.246 0.746 0.538 1.080 0.872s0.625 0.695 0.872 1.080h-1.952v-1.952zM4 9.952c-0.383-0.246-0.746-0.538-1.080-0.871s-0.625-0.695-0.872-1.080h1.952v1.952zM4 7h-2.471c-0.212-0.522-0.342-1.056-0.387-1.592-0.011-0.138-0.017-0.274-0.017-0.408h2.875v2zM4 4h-2.762c0.161-0.688 0.492-1.299 0.978-1.785 0.355-0.355 0.777-0.629 1.255-0.814 0.171-0.066 0.348-0.121 0.53-0.163v2.762zM7 10.875c-0.001 0-0.003 0-0.004 0-0.67 0-1.348-0.14-1.996-0.403v-2.472h2v2.875zM7 7h-2v-2h2v2zM7 4h-2v-2.875c0.001 0 0.003-0 0.004-0h0c0.67 0 1.348 0.14 1.996 0.403v2.472zM9.785 9.785c-0.355 0.355-0.777 0.629-1.255 0.814-0.171 0.066-0.348 0.121-0.53 0.163v-2.762h2.762c-0.161 0.688-0.492 1.299-0.978 1.785zM8 7v-2h2.471c0.212 0.522 0.342 1.056 0.387 1.592 0.011 0.138 0.017 0.274 0.017 0.408h-2.875z"></path>
<path fill="#000000" d="M3 13.5c0 0.828-0.672 1.5-1.5 1.5s-1.5-0.672-1.5-1.5c0-0.828 0.672-1.5 1.5-1.5s1.5 0.672 1.5 1.5z"></path>
</svg>
