<?xml version="1.0" encoding="utf-8"?>
<!-- Generated by IcoMoon.io -->
<!DOCTYPE svg PUBLIC "-//W3C//DTD SVG 1.1//EN" "http://www.w3.org/Graphics/SVG/1.1/DTD/svg11.dtd">
<svg version="1.1" xmlns="http://www.w3.org/2000/svg" xmlns:xlink="http://www.w3.org/1999/xlink" width="17" height="16" viewBox="0 0 17 16">
<path fill="#000000" d="M16.977 0c-1.721 0.611-3.773 1.215-5.977 1.215s-4.256-0.605-5.977-1.215c-0.015 0.318-0.023 0.64-0.023 0.965 0 6.094 2.686 11.035 6 11.035s6-4.94 6-11.035c0-0.325-0.008-0.647-0.023-0.965zM7 4c0-0.552 0.672-1 1.5-1s1.5 0.448 1.5 1h-3zM11 10c-1.314 0-2.431-1.268-2.837-3.033 0.725 0.638 1.728 1.033 2.837 1.033s2.112-0.395 2.837-1.033c-0.406 1.765-1.522 3.033-2.837 3.033zM12 4c0-0.552 0.672-1 1.5-1s1.5 0.448 1.5 1h-3z"></path>
<path fill="#000000" d="M7.935 12.089c-0.844-0.657-1.592-1.577-2.221-2.735-0.562-1.034-1.008-2.219-1.327-3.502-1.597-0.096-3.082-0.396-4.366-0.852-0.014 0.292-0.021 0.587-0.021 0.885 0 5.586 2.462 10.115 5.5 10.115 1.547 0 2.945-1.175 3.944-3.066-0.52-0.187-1.024-0.469-1.508-0.845zM2 8h2c0 0.552-0.448 1-1 1s-1-0.448-1-1zM5.5 12.969c-0.672 0-1.309 0.131-1.881 0.365 0.458-0.837 1.131-1.365 1.881-1.365s1.423 0.529 1.881 1.365c-0.572-0.234-1.209-0.365-1.881-0.365z"></path>
</svg>
