<?xml version="1.0" encoding="utf-8"?>
<!-- Generated by IcoMoon.io -->
<!DOCTYPE svg PUBLIC "-//W3C//DTD SVG 1.1//EN" "http://www.w3.org/Graphics/SVG/1.1/DTD/svg11.dtd">
<svg version="1.1" xmlns="http://www.w3.org/2000/svg" xmlns:xlink="http://www.w3.org/1999/xlink" width="16" height="16" viewBox="0 0 16 16">
<path fill="#000000" d="M13.5 16h-9.5c-0.172 0-0.333-0.089-0.424-0.235l-2.5-4c-0.143-0.229-0.078-0.531 0.147-0.681l1.5-1c0.213-0.142 0.498-0.1 0.661 0.096l1.616 1.939v-7.619c0-0.276 0.224-0.5 0.5-0.5h2c0.276 0 0.5 0.224 0.5 0.5v3.11l5.621 1.405c0.223 0.056 0.379 0.256 0.379 0.485v6c0 0.276-0.224 0.5-0.5 0.5zM4.277 15h8.723v-5.11l-1-0.25v2.86c0 0.276-0.224 0.5-0.5 0.5s-0.5-0.224-0.5-0.5v-3.11l-1-0.25v2.36c0 0.276-0.224 0.5-0.5 0.5s-0.5-0.224-0.5-0.5v-2.61l-1-0.25v3.86c0 0.276-0.224 0.5-0.5 0.5s-0.5-0.224-0.5-0.5v-7.5h-1v8.5c0 0.21-0.132 0.398-0.33 0.47s-0.42 0.012-0.554-0.15l-2.212-2.655-0.722 0.481 2.096 3.353z"></path>
<path fill="#000000" d="M10 6.938c-0.082 0-0.165-0.020-0.242-0.063-0.242-0.134-0.329-0.438-0.195-0.68 0.286-0.515 0.437-1.102 0.437-1.695 0-1.93-1.57-3.5-3.5-3.5s-3.5 1.57-3.5 3.5c0 0.594 0.151 1.18 0.437 1.695 0.134 0.241 0.047 0.546-0.195 0.68s-0.546 0.047-0.68-0.195c-0.368-0.663-0.563-1.417-0.563-2.18 0-2.481 2.019-4.5 4.5-4.5s4.5 2.019 4.5 4.5c0 0.763-0.195 1.517-0.563 2.181-0.091 0.165-0.262 0.258-0.438 0.258z"></path>
</svg>
