<?xml version="1.0" encoding="utf-8"?>
<!-- Generated by IcoMoon.io -->
<!DOCTYPE svg PUBLIC "-//W3C//DTD SVG 1.1//EN" "http://www.w3.org/Graphics/SVG/1.1/DTD/svg11.dtd">
<svg version="1.1" xmlns="http://www.w3.org/2000/svg" xmlns:xlink="http://www.w3.org/1999/xlink" width="16" height="16" viewBox="0 0 16 16">
<path fill="#000000" d="M15.621 9.015l-5.621-1.405v-3.11c0-0.276-0.224-0.5-0.5-0.5h-2c-0.276 0-0.5 0.224-0.5 0.5v8.133l-3.25-1.879c-0.218-0.126-0.495-0.070-0.648 0.13l-1 1.313c-0.161 0.211-0.129 0.51 0.072 0.683l3.5 3c0.091 0.078 0.206 0.12 0.325 0.12h9.5c0.276 0 0.5-0.224 0.5-0.5v-6c0-0.229-0.156-0.429-0.379-0.485zM15 15h-8.815l-3.001-2.572 0.447-0.587 3.619 2.092c0.155 0.089 0.345 0.089 0.5 0s0.25-0.254 0.25-0.433v-8.5h1v7.5c0 0.276 0.224 0.5 0.5 0.5s0.5-0.224 0.5-0.5v-3.86l1 0.25v2.61c0 0.276 0.224 0.5 0.5 0.5s0.5-0.224 0.5-0.5v-2.36l1 0.25v3.11c0 0.276 0.224 0.5 0.5 0.5s0.5-0.224 0.5-0.5v-2.86l1 0.25v5.11z"></path>
<path fill="#000000" d="M5.5 4h-2c-0.202 0-0.385 0.122-0.462 0.309s-0.035 0.402 0.108 0.545l0.75 0.75-2.293 2.293-0.75-0.75c-0.143-0.143-0.358-0.186-0.545-0.108s-0.309 0.26-0.309 0.462v2c0 0.276 0.224 0.5 0.5 0.5h2c0.202 0 0.385-0.122 0.462-0.309s0.035-0.402-0.108-0.545l-0.75-0.75 2.293-2.293 0.75 0.75c0.143 0.143 0.358 0.186 0.545 0.108s0.309-0.26 0.309-0.462v-2c0-0.276-0.224-0.5-0.5-0.5z"></path>
</svg>
