<?xml version="1.0" encoding="utf-8"?>
<!-- Generated by IcoMoon.io -->
<!DOCTYPE svg PUBLIC "-//W3C//DTD SVG 1.1//EN" "http://www.w3.org/Graphics/SVG/1.1/DTD/svg11.dtd">
<svg version="1.1" xmlns="http://www.w3.org/2000/svg" xmlns:xlink="http://www.w3.org/1999/xlink" width="16" height="16" viewBox="0 0 16 16">
<path fill="#000000" d="M13 10l1.5-3h-2.5v-1h1l1.5-3h-2.5v-1c0-0.55-0.45-1-1-1h-7c-0.55 0-1 0.45-1 1v1h-2.5l1.5 3h1v1h-2.5l1.5 3h1v1h-2.5l1.5 3h1v1c0 0.55 0.45 1 1 1h7c0.55 0 1-0.45 1-1v-1h1l1.5-3h-2.5v-1h1zM7.5 14c-0.828 0-1.5-0.672-1.5-1.5s0.672-1.5 1.5-1.5 1.5 0.672 1.5 1.5-0.672 1.5-1.5 1.5zM7.5 10c-0.828 0-1.5-0.672-1.5-1.5s0.672-1.5 1.5-1.5 1.5 0.672 1.5 1.5-0.672 1.5-1.5 1.5zM7.5 6c-0.828 0-1.5-0.672-1.5-1.5s0.672-1.5 1.5-1.5 1.5 0.672 1.5 1.5-0.672 1.5-1.5 1.5z"></path>
</svg>
