<?xml version="1.0" encoding="utf-8"?>
<!-- Generated by IcoMoon.io -->
<!DOCTYPE svg PUBLIC "-//W3C//DTD SVG 1.1//EN" "http://www.w3.org/Graphics/SVG/1.1/DTD/svg11.dtd">
<svg version="1.1" xmlns="http://www.w3.org/2000/svg" xmlns:xlink="http://www.w3.org/1999/xlink" width="16" height="16" viewBox="0 0 16 16">
<path fill="#000000" d="M14 11v-10c0-0.55-0.45-1-1-1h-11c-0.55 0-1 0.45-1 1v10c0 0.55 0.45 1 1 1h1.5l-2.4 3.201c-0.063 0.084-0.1 0.187-0.1 0.299 0 0.276 0.224 0.5 0.5 0.5l0 0c0 0 0-0 0.001-0h12c0 0 0 0 0.001 0 0.104 0 0.21-0.033 0.3-0.1 0.221-0.166 0.266-0.479 0.1-0.7l-2.4-3.2h1.5c0.55 0 1-0.45 1-1zM13 3.5v4c0 0.276-0.224 0.5-0.5 0.5h-4.5v-5h4.5c0.276 0 0.5 0.224 0.5 0.5zM5 1h5v1h-5v-1zM2 3.5c0-0.276 0.224-0.5 0.5-0.5h4.5v5h-4.5c-0.276 0-0.5-0.224-0.5-0.5v-4zM2 10c0-0.552 0.448-1 1-1s1 0.448 1 1-0.448 1-1 1-1-0.448-1-1zM12.5 15h-10l0.75-1h8.5l0.75 1zM11 13h-7l0.75-1h5.5l0.75 1zM12 11c-0.552 0-1-0.448-1-1s0.448-1 1-1 1 0.448 1 1-0.448 1-1 1z"></path>
</svg>
