<?xml version="1.0" encoding="utf-8"?>
<!-- Generated by IcoMoon.io -->
<!DOCTYPE svg PUBLIC "-//W3C//DTD SVG 1.1//EN" "http://www.w3.org/Graphics/SVG/1.1/DTD/svg11.dtd">
<svg version="1.1" xmlns="http://www.w3.org/2000/svg" xmlns:xlink="http://www.w3.org/1999/xlink" width="16" height="16" viewBox="0 0 16 16">
<path fill="#000000" d="M11.852 3.354c-0.508-1.928-2.266-3.354-4.352-3.354s-3.844 1.426-4.352 3.354c-1.891 0.754-3.148 2.596-3.148 4.646 0 2.757 2.243 5 5 5h1v2.5c0 0.276 0.224 0.5 0.5 0.5h2c0.276 0 0.5-0.224 0.5-0.5v-2.5h1c2.757 0 5-2.243 5-5 0-2.060-1.254-3.892-3.148-4.646zM8 15h-1v-2h1v2zM10 12h-5c-2.206 0-4-1.794-4-4 0-1.444 0.781-2.76 2.001-3.465 0.003 0.369 0.050 0.735 0.141 1.090 0.058 0.226 0.261 0.375 0.484 0.375 0.041 0 0.083-0.005 0.125-0.016 0.267-0.069 0.428-0.341 0.36-0.609-0.073-0.284-0.11-0.579-0.11-0.875 0-1.93 1.57-3.5 3.5-3.5s3.5 1.57 3.5 3.5c0 0.297-0.037 0.591-0.11 0.875-0.069 0.267 0.092 0.54 0.36 0.609s0.54-0.092 0.609-0.36c0.091-0.355 0.139-0.722 0.141-1.091 1.222 0.704 2.001 2.014 2.001 3.466 0 2.206-1.794 4-4 4z"></path>
</svg>
