<?xml version="1.0" encoding="utf-8"?>
<!-- Generated by IcoMoon.io -->
<!DOCTYPE svg PUBLIC "-//W3C//DTD SVG 1.1//EN" "http://www.w3.org/Graphics/SVG/1.1/DTD/svg11.dtd">
<svg version="1.1" xmlns="http://www.w3.org/2000/svg" xmlns:xlink="http://www.w3.org/1999/xlink" width="16" height="16" viewBox="0 0 16 16">
<path fill="#000000" d="M11.852 3.354c-0.508-1.928-2.266-3.354-4.352-3.354s-3.844 1.426-4.352 3.354c-1.891 0.754-3.148 2.596-3.148 4.646 0 2.757 2.243 5 5 5 0.34 0 0.674-0.035 1-0.101v2.601c0 0.276 0.224 0.5 0.5 0.5h2c0.276 0 0.5-0.224 0.5-0.5v-2.601c0.327 0.066 0.661 0.101 1 0.101 2.757 0 5-2.243 5-5 0-2.060-1.254-3.892-3.148-4.646z"></path>
</svg>
