<?xml version="1.0" encoding="utf-8"?>
<!-- Generated by IcoMoon.io -->
<!DOCTYPE svg PUBLIC "-//W3C//DTD SVG 1.1//EN" "http://www.w3.org/Graphics/SVG/1.1/DTD/svg11.dtd">
<svg version="1.1" xmlns="http://www.w3.org/2000/svg" xmlns:xlink="http://www.w3.org/1999/xlink" width="16" height="16" viewBox="0 0 16 16">
<path fill="#000000" d="M15.25 11h-1.575l-3.675-6.124v-3.126c0-0.413-0.338-0.75-0.75-0.75h-2.5c-0.412 0-0.75 0.337-0.75 0.75v3.126l-3.675 6.124h-1.575c-0.412 0-0.75 0.338-0.75 0.75v2.5c0 0.412 0.338 0.75 0.75 0.75h2.5c0.413 0 0.75-0.338 0.75-0.75v-3.126l3.675-6.124h0.651l3.675 6.124v3.126c0 0.412 0.338 0.75 0.75 0.75h2.5c0.412 0 0.75-0.338 0.75-0.75v-2.5c0-0.412-0.338-0.75-0.75-0.75z"></path>
</svg>
