<?xml version="1.0" encoding="utf-8"?>
<!-- Generated by IcoMoon.io -->
<!DOCTYPE svg PUBLIC "-//W3C//DTD SVG 1.1//EN" "http://www.w3.org/Graphics/SVG/1.1/DTD/svg11.dtd">
<svg version="1.1" xmlns="http://www.w3.org/2000/svg" xmlns:xlink="http://www.w3.org/1999/xlink" width="16" height="16" viewBox="0 0 16 16">
<path fill="#000000" d="M15.5 3c-0.276 0-0.5 0.224-0.5 0.5 0 1.271-0.739 2.080-1.358 2.534-0.837 0.614-1.982 0.966-3.142 0.966h-0.5v-1.5c0-0.276-0.224-0.5-0.5-0.5s-0.5 0.224-0.5 0.5v1.5h-1v-1.5c0-0.276-0.224-0.5-0.5-0.5s-0.5 0.224-0.5 0.5v1.5h-1v-1.5c0-0.276-0.224-0.5-0.5-0.5s-0.5 0.224-0.5 0.5v1.5h-4v-0.5c0-0.276-0.224-0.5-0.5-0.5s-0.5 0.224-0.5 0.5v3c0 0.276 0.224 0.5 0.5 0.5s0.5-0.224 0.5-0.5v-0.5h2.172c-0.111 0.313-0.172 0.649-0.172 1 0 1.654 1.346 3 3 3h3c1.654 0 3-1.346 3-3 0-0.289-0.041-0.568-0.118-0.833 0.654 0.161 1.262 0.433 1.76 0.799 0.62 0.454 1.358 1.263 1.358 2.534 0 0.276 0.224 0.5 0.5 0.5s0.5-0.224 0.5-0.5v-9c0-0.276-0.224-0.5-0.5-0.5zM9 11h-3c-0.551 0-1-0.449-1-1s0.449-1 1-1h3c0.551 0 1 0.449 1 1s-0.449 1-1 1z"></path>
</svg>
