<?xml version="1.0" encoding="utf-8"?>
<!-- Generated by IcoMoon.io -->
<!DOCTYPE svg PUBLIC "-//W3C//DTD SVG 1.1//EN" "http://www.w3.org/Graphics/SVG/1.1/DTD/svg11.dtd">
<svg version="1.1" xmlns="http://www.w3.org/2000/svg" xmlns:xlink="http://www.w3.org/1999/xlink" width="16" height="16" viewBox="0 0 16 16">
<path fill="#000000" d="M11 4v-4h-11v11h4v5h12v-12h-5zM10 5.125h-5v-0.125h5v0.125zM14 6.125h-3v-0.125h3v0.125zM5 9.875h5v0.125h-5v-0.125zM2 8.875h2v0.125h-2v-0.125zM4 5.875v0.25h-2v-0.25h2zM2 5.625v-0.25h2v0.25h-2zM4 6.375v0.25h-2v-0.25h2zM5 8.125v-0.25h5v0.25h-5zM10 8.375v0.25h-5v-0.25h5zM5 7.625v-0.25h5v0.25h-5zM5 7.125v-0.25h5v0.25h-5zM5 6.625v-0.25h5v0.25h-5zM4 6.875v0.25h-2v-0.25h2zM4 7.375v0.25h-2v-0.25h2zM4 7.875v0.25h-2v-0.25h2zM4 8.375v0.25h-2v-0.25h2zM5 8.875h5v0.25h-5v-0.25zM10 9.375v0.25h-5v-0.25h5zM6 14v-0.125h8v0.125h-8zM6 13.625v-0.25h8v0.25h-8zM6 13.125v-0.25h8v0.25h-8zM6 12.625v-0.25h8v0.25h-8zM6 12.125v-0.25h8v0.25h-8zM6 11.625v-0.25h8v0.25h-8zM6 11.125v-0.125h5v-0.125h3v0.25h-8zM11 10.625v-0.25h3v0.25h-3zM11 10.125v-0.25h3v0.25h-3zM11 9.625v-0.25h3v0.25h-3zM11 9.125v-0.25h3v0.25h-3zM11 8.625v-0.25h3v0.25h-3zM11 8.125v-0.25h3v0.25h-3zM11 7.625v-0.25h3v0.25h-3zM11 7.125v-0.25h3v0.25h-3zM11 6.625v-0.25h3v0.25h-3zM10 6.125h-5v-0.25h5v0.25zM5 5.625v-0.25h5v0.25h-5zM4 5.125h-2v-0.25h2v0.25zM9 2v0.125h-7v-0.125h7zM9 2.375v0.25h-7v-0.25h7zM9 2.875v0.25h-7v-0.25h7zM9 3.375v0.25h-7v-0.25h7zM9 3.875v0.125h-5v0.125h-2v-0.25h7zM4 4.375v0.25h-2v-0.25h2z"></path>
</svg>
