<?xml version="1.0" encoding="utf-8"?>
<!-- Generated by IcoMoon.io -->
<!DOCTYPE svg PUBLIC "-//W3C//DTD SVG 1.1//EN" "http://www.w3.org/Graphics/SVG/1.1/DTD/svg11.dtd">
<svg version="1.1" xmlns="http://www.w3.org/2000/svg" xmlns:xlink="http://www.w3.org/1999/xlink" width="16" height="16" viewBox="0 0 16 16">
<path fill="#000000" d="M7.451 10.549c0.071 0.141 0.109 0.299 0.109 0.464 0 0.275-0.105 0.532-0.297 0.724l-2.553 2.553c-0.191 0.191-0.448 0.297-0.724 0.297s-0.532-0.105-0.724-0.297l-1.553-1.553c-0.191-0.191-0.297-0.448-0.297-0.724s0.105-0.532 0.297-0.724l2.553-2.553c0.191-0.191 0.448-0.297 0.724-0.297 0.165 0 0.323 0.038 0.464 0.109l1.021-1.021c-0.435-0.335-0.96-0.502-1.485-0.502-0.625 0-1.25 0.237-1.724 0.711l-2.553 2.553c-0.948 0.948-0.948 2.499 0 3.447l1.553 1.553c0.474 0.474 1.099 0.711 1.724 0.711s1.25-0.237 1.724-0.711l2.553-2.553c0.872-0.872 0.941-2.255 0.209-3.209l-1.021 1.021zM15.289 2.264l-1.553-1.553c-0.474-0.474-1.099-0.711-1.724-0.711s-1.25 0.237-1.724 0.711l-2.553 2.553c-0.872 0.872-0.941 2.255-0.208 3.208l1.021-1.021c-0.071-0.141-0.109-0.299-0.109-0.464 0-0.275 0.105-0.532 0.297-0.724l2.553-2.553c0.191-0.191 0.448-0.297 0.724-0.297s0.532 0.105 0.724 0.297l1.553 1.553c0.191 0.191 0.297 0.448 0.297 0.724s-0.105 0.532-0.297 0.724l-2.553 2.553c-0.191 0.191-0.448 0.297-0.724 0.297-0.165 0-0.323-0.038-0.464-0.109l-1.021 1.021c0.435 0.335 0.96 0.502 1.485 0.502 0.625 0 1.25-0.237 1.724-0.711l2.553-2.553c0.948-0.948 0.948-2.499 0-3.447zM3.646 4.354l-3-3 0.707-0.707 3 3zM6 0h1v3h-1zM0 6h3v1h-3zM12.354 11.646l3 3-0.707 0.707-3-3zM9 13h1v3h-1zM13 9h3v1h-3z"></path>
</svg>
