<?xml version="1.0" encoding="utf-8"?>
<!-- Generated by IcoMoon.io -->
<!DOCTYPE svg PUBLIC "-//W3C//DTD SVG 1.1//EN" "http://www.w3.org/Graphics/SVG/1.1/DTD/svg11.dtd">
<svg version="1.1" xmlns="http://www.w3.org/2000/svg" xmlns:xlink="http://www.w3.org/1999/xlink" width="16" height="16" viewBox="0 0 16 16">
<path fill="#000000" d="M7 10h2v-4h3.5l-4.5-4-4.5 4h3.5zM10 8.095v0.519c2.33 0.275 4 1.015 4 1.886 0 1.105-2.686 2-6 2s-6-0.895-6-2c0-0.871 1.67-1.611 4-1.886v-0.519c-3.45 0.333-6 1.508-6 2.905 0 1.657 3.582 3 8 3s8-1.343 8-3c0-1.398-2.55-2.572-6-2.905z"></path>
</svg>
