<?xml version="1.0" encoding="utf-8"?>
<!-- Generated by IcoMoon.io -->
<!DOCTYPE svg PUBLIC "-//W3C//DTD SVG 1.1//EN" "http://www.w3.org/Graphics/SVG/1.1/DTD/svg11.dtd">
<svg version="1.1" xmlns="http://www.w3.org/2000/svg" xmlns:xlink="http://www.w3.org/1999/xlink" width="16" height="16" viewBox="0 0 16 16">
<path fill="#000000" d="M6.5 16h-5.977c-0.14 0-0.274-0.059-0.369-0.163s-0.141-0.242-0.129-0.382c0.11-1.22 0.585-2.363 1.373-3.305 0.697-0.832 1.59-1.452 2.602-1.809l0-0.475c-0.562-0.385-1.037-0.926-1.385-1.582-0.402-0.758-0.615-1.634-0.615-2.535 0-1.251 0.405-2.431 1.139-3.323 0.758-0.92 1.774-1.427 2.861-1.427s2.103 0.507 2.861 1.427c0.735 0.892 1.139 2.072 1.139 3.323 0 0.901-0.213 1.777-0.615 2.535-0.348 0.655-0.823 1.197-1.385 1.582l-0 0.634c-0 0.276-0.224 0.5-0.5 0.5-0 0 0 0-0 0-0.276-0-0.5-0.224-0.5-0.5l0-0.909c0-0.179 0.095-0.344 0.25-0.433 1.063-0.613 1.75-1.951 1.75-3.408 0-2.068-1.346-3.75-3-3.75s-3 1.682-3 3.75c0 1.457 0.687 2.795 1.75 3.408 0.155 0.089 0.25 0.254 0.25 0.433l-0 1.116c0 0.224-0.149 0.42-0.364 0.481-0.967 0.274-1.822 0.828-2.471 1.604-0.538 0.643-0.901 1.397-1.064 2.208h5.4c0.276 0 0.5 0.224 0.5 0.5s-0.224 0.5-0.5 0.5z"></path>
<path fill="#000000" d="M10 16c-0.128 0-0.256-0.049-0.354-0.146l-2-2c-0.195-0.195-0.195-0.512 0-0.707s0.512-0.195 0.707 0l1.646 1.646 4.646-4.646c0.195-0.195 0.512-0.195 0.707 0s0.195 0.512 0 0.707l-5 5c-0.098 0.098-0.226 0.146-0.354 0.146z"></path>
</svg>
