<?xml version="1.0" encoding="utf-8"?>
<!-- Generated by IcoMoon.io -->
<!DOCTYPE svg PUBLIC "-//W3C//DTD SVG 1.1//EN" "http://www.w3.org/Graphics/SVG/1.1/DTD/svg11.dtd">
<svg version="1.1" xmlns="http://www.w3.org/2000/svg" xmlns:xlink="http://www.w3.org/1999/xlink" width="16" height="16" viewBox="0 0 16 16">
<path fill="#000000" d="M11.635 8c0.44-0.275 0.825-0.606 1.153-0.993 0.824-0.972 1.126-2.108 1.223-3.007h0.989v-3h-3v3h1.001c-0.092 0.731-0.346 1.622-0.981 2.367-0.683 0.803-1.696 1.312-3.020 1.522v-0.889h-3v1h-4c0-0.552-0.448-1-1-1s-1 0.448-1 1v1h3.365c-0.44 0.275-0.825 0.606-1.153 0.993-0.824 0.972-1.127 2.108-1.223 3.007h-0.989v3h3v-3h-1.001c0.092-0.731 0.346-1.622 0.981-2.367 0.683-0.803 1.696-1.312 3.020-1.522v0.889h3v-1h5c0 0.552 0.448 1 1 1s1-0.448 1-1v-1h-4.365zM13 3v-1h1v1h-1zM2 14v1h-1v-1h1zM8 9h-1v-1h1v1z"></path>
</svg>
