<?xml version="1.0" encoding="utf-8"?>
<!-- Generated by IcoMoon.io -->
<!DOCTYPE svg PUBLIC "-//W3C//DTD SVG 1.1//EN" "http://www.w3.org/Graphics/SVG/1.1/DTD/svg11.dtd">
<svg version="1.1" xmlns="http://www.w3.org/2000/svg" xmlns:xlink="http://www.w3.org/1999/xlink" width="16" height="16" viewBox="0 0 16 16">
<path fill="#000000" d="M15.294 4.004c-0.165 0-0.335 0.058-0.491 0.168l-2.803 1.978v-1.651c0-0.825-0.675-1.5-1.5-1.5h-9c-0.825 0-1.5 0.675-1.5 1.5v7c0 0.825 0.675 1.5 1.5 1.5h9c0.825 0 1.5-0.675 1.5-1.5v-1.65l2.803 1.978c0.156 0.11 0.326 0.168 0.491 0.168 0 0 0 0 0 0 0.22 0 0.421-0.101 0.551-0.278 0.101-0.137 0.154-0.313 0.154-0.51v-6.415c-0-0.518-0.355-0.788-0.706-0.788zM15 10.743l-2.469-1.743h-1.531v2.5c0 0.271-0.229 0.5-0.5 0.5h-9c-0.271 0-0.5-0.229-0.5-0.5v-7c0-0.271 0.229-0.5 0.5-0.5h9c0.271 0 0.5 0.229 0.5 0.5v2.5h1.531l2.469-1.743v5.486z"></path>
<path fill="#000000" d="M4 5l5 3-5 3z"></path>
</svg>
