<?xml version="1.0" encoding="utf-8"?>
<!-- Generated by IcoMoon.io -->
<!DOCTYPE svg PUBLIC "-//W3C//DTD SVG 1.1//EN" "http://www.w3.org/Graphics/SVG/1.1/DTD/svg11.dtd">
<svg version="1.1" xmlns="http://www.w3.org/2000/svg" xmlns:xlink="http://www.w3.org/1999/xlink" width="16" height="16" viewBox="0 0 16 16">
<path fill="#000000" d="M15.294 4.004c-0.165 0-0.335 0.058-0.491 0.168l-2.803 1.978v-1.651c0-0.825-0.675-1.5-1.5-1.5h-0.213l1.617-2.204c0.163-0.223 0.115-0.536-0.107-0.699s-0.536-0.115-0.699 0.107l-2.050 2.796h-7.547c-0.825 0-1.5 0.675-1.5 1.5v7c0 0.825 0.675 1.5 1.5 1.5h0.213l-1.617 2.204c-0.163 0.223-0.115 0.536 0.107 0.699 0.089 0.065 0.193 0.097 0.295 0.097 0.154 0 0.306-0.071 0.404-0.204l2.050-2.796h7.547c0.825 0 1.5-0.675 1.5-1.5v-1.65l2.803 1.978c0.156 0.11 0.326 0.168 0.491 0.168 0 0 0 0 0 0 0.22 0 0.421-0.101 0.551-0.278 0.101-0.137 0.154-0.313 0.154-0.51v-6.415c-0-0.518-0.355-0.788-0.706-0.788zM1.5 12c-0.271 0-0.5-0.229-0.5-0.5v-7c0-0.271 0.229-0.5 0.5-0.5h6.813l-5.867 8h-0.947zM15 10.743l-2.469-1.743h-1.531v2.5c0 0.271-0.229 0.5-0.5 0.5h-6.813l5.867-8h0.947c0.271 0 0.5 0.229 0.5 0.5v2.5h1.531l2.469-1.743v5.486z"></path>
</svg>
