<?xml version="1.0" encoding="utf-8"?>
<!-- Generated by IcoMoon.io -->
<!DOCTYPE svg PUBLIC "-//W3C//DTD SVG 1.1//EN" "http://www.w3.org/Graphics/SVG/1.1/DTD/svg11.dtd">
<svg version="1.1" xmlns="http://www.w3.org/2000/svg" xmlns:xlink="http://www.w3.org/1999/xlink" width="17" height="16" viewBox="0 0 17 16">
<path fill="#000000" d="M15 2h-13c-1.105 0-2 0.895-2 2v10c0 0.55 0.45 1 1 1h12c0.55 0 1-0.45 1-1v-1h1c0.55 0 1-0.45 1-1v-9c0-0.55-0.45-1-1-1zM1 6h0.5v1h-0.5v-1zM1 8h0.5v1h-0.5v-1zM1 10h0.5v1h-0.5v-1zM1 12h0.5v1h-0.5v-1zM2 14h-1v-0.5h1v0.5zM2 5.5h-1v-0.5h1v0.5zM4 14h-1v-0.5h1v0.5zM4 5.5h-1v-0.5h1v0.5zM6 14h-1v-0.5h1v0.5zM6 5.5h-1v-0.5h1v0.5zM8 14h-1v-0.5h1v0.5zM8 5.5h-1v-0.5h1v0.5zM10 14h-1v-0.5h1v0.5zM12 14h-1v-0.5h1v0.5zM15 7h-4v3h4v1.998c-0.001 0.001-0.001 0.001-0.002 0.002h-0.998v-1h-4v-5h4v-1c0-0.55-0.45-1-1-1h-12c0-0.551 0.449-1 1-1h12.998c0.001 0.001 0.001 0.001 0.002 0.002v3.998zM13 8.5c0 0.276-0.224 0.5-0.5 0.5s-0.5-0.224-0.5-0.5 0.224-0.5 0.5-0.5 0.5 0.224 0.5 0.5z"></path>
</svg>
