<?xml version="1.0" encoding="utf-8"?>
<!-- Generated by IcoMoon.io -->
<!DOCTYPE svg PUBLIC "-//W3C//DTD SVG 1.1//EN" "http://www.w3.org/Graphics/SVG/1.1/DTD/svg11.dtd">
<svg version="1.1" xmlns="http://www.w3.org/2000/svg" xmlns:xlink="http://www.w3.org/1999/xlink" width="16" height="16" viewBox="0 0 16 16">
<path fill="#000000" d="M0 13h4v2h-4v-2z"></path>
<path fill="#000000" d="M5 13h4v2h-4v-2z"></path>
<path fill="#000000" d="M10 13h6v2h-6v-2z"></path>
<path fill="#000000" d="M0 10h6v2h-6v-2z"></path>
<path fill="#000000" d="M7 10h4v2h-4v-2z"></path>
<path fill="#000000" d="M12 10h4v2h-4v-2z"></path>
<path fill="#000000" d="M0 7h4v2h-4v-2z"></path>
<path fill="#000000" d="M5 7h4v2h-4v-2z"></path>
<path fill="#000000" d="M10 7h6v2h-6v-2z"></path>
<path fill="#000000" d="M0 4h6v2h-6v-2z"></path>
<path fill="#000000" d="M7 4h4v2h-4v-2z"></path>
<path fill="#000000" d="M12 4h4v2h-4v-2z"></path>
<path fill="#000000" d="M0 1h4v2h-4v-2z"></path>
<path fill="#000000" d="M5 1h4v2h-4v-2z"></path>
<path fill="#000000" d="M10 1h6v2h-6v-2z"></path>
</svg>
