<?xml version="1.0" encoding="utf-8"?>
<!-- Generated by IcoMoon.io -->
<!DOCTYPE svg PUBLIC "-//W3C//DTD SVG 1.1//EN" "http://www.w3.org/Graphics/SVG/1.1/DTD/svg11.dtd">
<svg version="1.1" xmlns="http://www.w3.org/2000/svg" xmlns:xlink="http://www.w3.org/1999/xlink" width="18" height="16" viewBox="0 0 18 16">
<path fill="#000000" d="M16 4h2v8c0 1.654-1.346 3-3 3s-3-1.346-3-3v-8c0-0.551-0.449-1-1-1s-1 0.449-1 1v8c0 1.654-1.346 3-3 3s-3-1.346-3-3v-8c0-0.551-0.449-1-1-1s-1 0.449-1 1v8h-2v-8c0-1.654 1.346-3 3-3s3 1.346 3 3v8c0 0.551 0.449 1 1 1s1-0.449 1-1v-8c0-1.654 1.346-3 3-3s3 1.346 3 3v8c0 0.551 0.449 1 1 1s1-0.449 1-1v-8z"></path>
</svg>
