<?xml version="1.0" encoding="utf-8"?>
<!-- Generated by IcoMoon.io -->
<!DOCTYPE svg PUBLIC "-//W3C//DTD SVG 1.1//EN" "http://www.w3.org/Graphics/SVG/1.1/DTD/svg11.dtd">
<svg version="1.1" xmlns="http://www.w3.org/2000/svg" xmlns:xlink="http://www.w3.org/1999/xlink" width="16" height="16" viewBox="0 0 16 16">
<path fill="#000000" d="M13 5h2v6c0 0.539-0.106 1.063-0.315 1.558-0.202 0.477-0.49 0.904-0.856 1.271s-0.794 0.655-1.271 0.856c-0.494 0.209-1.018 0.315-1.558 0.315s-1.063-0.106-1.558-0.315c-0.477-0.202-0.904-0.49-1.271-0.856s-0.655-0.794-0.856-1.271c-0.209-0.494-0.315-1.018-0.315-1.558v-6c0-1.105-0.895-2-2-2s-2 0.895-2 2v6h-2v-6c0-0.539 0.106-1.063 0.315-1.558 0.202-0.477 0.49-0.904 0.856-1.271s0.794-0.655 1.271-0.856c0.494-0.209 1.019-0.315 1.558-0.315s1.063 0.106 1.558 0.315c0.477 0.202 0.904 0.49 1.271 0.856s0.655 0.794 0.856 1.271c0.209 0.494 0.315 1.018 0.315 1.558v6c0 1.105 0.895 2 2 2s2-0.895 2-2v-6z"></path>
</svg>
