<?xml version="1.0" encoding="utf-8"?>
<!-- Generated by IcoMoon.io -->
<!DOCTYPE svg PUBLIC "-//W3C//DTD SVG 1.1//EN" "http://www.w3.org/Graphics/SVG/1.1/DTD/svg11.dtd">
<svg version="1.1" xmlns="http://www.w3.org/2000/svg" xmlns:xlink="http://www.w3.org/1999/xlink" width="16" height="16" viewBox="0 0 16 16">
<path fill="#000000" d="M12 2c-0.385 0-0.761 0.054-1.12 0.158-0.366-1.251-1.526-2.158-2.88-2.158-1.335 0-2.469 0.876-2.857 2.084-0.209-0.055-0.425-0.084-0.643-0.084-1.378 0-2.5 1.121-2.5 2.5 0 0.182 0.020 0.363 0.059 0.54-1.169 0.209-2.059 1.232-2.059 2.46 0 1.379 1.121 2.5 2.5 2.5h3c0.276 0 0.5-0.224 0.5-0.5s-0.224-0.5-0.5-0.5h-3c-0.827 0-1.5-0.673-1.5-1.5s0.673-1.5 1.5-1.5h1c0.276 0 0.5-0.224 0.5-0.5s-0.224-0.5-0.5-0.5h-0.414c-0.056-0.16-0.086-0.329-0.086-0.5 0-0.827 0.673-1.5 1.5-1.5 0.172 0 0.341 0.030 0.501 0.086 0.005 0.174 0.025 0.348 0.060 0.518 0.048 0.237 0.257 0.4 0.489 0.4 0.033 0 0.067-0.003 0.101-0.010 0.271-0.055 0.445-0.32 0.39-0.59-0.027-0.132-0.041-0.268-0.041-0.404 0-1.103 0.897-2 2-2 0.947 0 1.751 0.665 1.952 1.562-0.292 0.175-0.564 0.388-0.809 0.638-0.193 0.197-0.19 0.514 0.007 0.707s0.514 0.19 0.707-0.007c0.569-0.581 1.33-0.901 2.143-0.901 1.654 0 3 1.346 3 3 0 0.801-0.312 1.555-0.879 2.121-0.195 0.195-0.195 0.512-0 0.707 0.098 0.098 0.226 0.146 0.354 0.146s0.256-0.049 0.354-0.146c0.756-0.755 1.172-1.76 1.172-2.828 0-2.206-1.794-4-4-4z"></path>
<path fill="#000000" d="M4.253 12.936c-1.328 0-2.656-0.33-3.976-0.989-0.247-0.123-0.347-0.424-0.224-0.671s0.424-0.347 0.671-0.224c1.176 0.587 2.364 0.885 3.53 0.885s2.351-0.298 3.523-0.885c2.641-1.319 5.315-1.318 7.948 0 0.247 0.124 0.347 0.424 0.223 0.671s-0.424 0.347-0.671 0.223c-1.172-0.587-2.357-0.885-3.523-0.885s-2.354 0.298-3.53 0.885c-1.316 0.659-2.643 0.989-3.97 0.989z"></path>
<path fill="#000000" d="M4.253 15.936c-1.328 0-2.656-0.33-3.976-0.989-0.247-0.123-0.347-0.424-0.224-0.671s0.424-0.347 0.671-0.224c1.176 0.587 2.364 0.885 3.53 0.885s2.351-0.298 3.523-0.885c2.641-1.319 5.315-1.318 7.948 0 0.247 0.124 0.347 0.424 0.223 0.671s-0.424 0.347-0.671 0.223c-1.172-0.587-2.357-0.885-3.523-0.885s-2.354 0.298-3.53 0.885c-1.316 0.659-2.643 0.989-3.97 0.989z"></path>
</svg>
