<?xml version="1.0" encoding="utf-8"?>
<!-- Generated by IcoMoon.io -->
<!DOCTYPE svg PUBLIC "-//W3C//DTD SVG 1.1//EN" "http://www.w3.org/Graphics/SVG/1.1/DTD/svg11.dtd">
<svg version="1.1" xmlns="http://www.w3.org/2000/svg" xmlns:xlink="http://www.w3.org/1999/xlink" width="16" height="16" viewBox="0 0 16 16">
<path fill="#000000" d="M6.5 0c0.276 0 0.5 0.224 0.5 0.5v1c0 0.276-0.224 0.5-0.5 0.5s-0.5-0.224-0.5-0.5v-1c0-0.276 0.224-0.5 0.5-0.5z"></path>
<path fill="#000000" d="M0 6.5c0-0.276 0.224-0.5 0.5-0.5h1c0.276 0 0.5 0.224 0.5 0.5s-0.224 0.5-0.5 0.5h-1c-0.276 0-0.5-0.224-0.5-0.5z"></path>
<path fill="#000000" d="M10.5 3c-0.128 0-0.256-0.049-0.354-0.146-0.195-0.195-0.195-0.512 0-0.707l1-1c0.195-0.195 0.512-0.195 0.707 0s0.195 0.512 0 0.707l-1 1c-0.098 0.098-0.226 0.146-0.354 0.146z"></path>
<path fill="#000000" d="M2.5 3c-0.128 0-0.256-0.049-0.354-0.146l-1-1c-0.195-0.195-0.195-0.512 0-0.707s0.512-0.195 0.707 0l1 1c0.195 0.195 0.195 0.512 0 0.707-0.098 0.098-0.226 0.146-0.354 0.146z"></path>
<path fill="#000000" d="M12 8c-0.385 0-0.761 0.054-1.12 0.158-0.161-0.549-0.474-1.032-0.89-1.4 0.006-0.086 0.010-0.172 0.010-0.258 0-1.93-1.57-3.5-3.5-3.5s-3.5 1.57-3.5 3.5c0 0.612 0.159 1.206 0.457 1.729-0.859 0.396-1.457 1.265-1.457 2.271 0 0.182 0.020 0.363 0.059 0.54-1.169 0.209-2.059 1.232-2.059 2.46 0 1.379 1.121 2.5 2.5 2.5h9.5c1.068 0 2.073-0.416 2.828-1.172s1.172-1.76 1.172-2.828c0-2.206-1.794-4-4-4zM4 6.5c0-1.378 1.122-2.5 2.5-2.5 1.264 0 2.312 0.944 2.477 2.164-0.307-0.106-0.636-0.164-0.977-0.164-1.335 0-2.469 0.876-2.857 2.084-0.209-0.055-0.425-0.084-0.643-0.084-0 0-0 0-0 0-0.324-0.431-0.5-0.956-0.5-1.5zM14.121 14.121c-0.567 0.567-1.32 0.879-2.121 0.879h-9.5c-0.827 0-1.5-0.673-1.5-1.5s0.673-1.5 1.5-1.5h1c0.276 0 0.5-0.224 0.5-0.5s-0.224-0.5-0.5-0.5h-0.414c-0.056-0.16-0.086-0.329-0.086-0.5 0-0.827 0.673-1.5 1.5-1.5 0.172 0 0.341 0.030 0.501 0.086 0.005 0.174 0.025 0.348 0.060 0.518 0.048 0.237 0.257 0.4 0.489 0.4 0.033 0 0.067-0.003 0.101-0.010 0.271-0.055 0.445-0.32 0.39-0.59-0.027-0.132-0.041-0.268-0.041-0.404 0-1.103 0.897-2 2-2 0.947 0 1.751 0.665 1.952 1.562-0.292 0.175-0.564 0.388-0.809 0.638-0.193 0.197-0.19 0.514 0.007 0.707s0.514 0.19 0.707-0.007c0.245-0.251 0.527-0.452 0.832-0.601 0.014-0.006 0.027-0.012 0.040-0.019 0.392-0.183 0.823-0.28 1.27-0.28 1.654 0 3 1.346 3 3 0 0.801-0.312 1.555-0.879 2.121z"></path>
</svg>
