<?xml version="1.0" encoding="utf-8"?>
<!-- Generated by IcoMoon.io -->
<!DOCTYPE svg PUBLIC "-//W3C//DTD SVG 1.1//EN" "http://www.w3.org/Graphics/SVG/1.1/DTD/svg11.dtd">
<svg version="1.1" xmlns="http://www.w3.org/2000/svg" xmlns:xlink="http://www.w3.org/1999/xlink" width="16" height="16" viewBox="0 0 16 16">
<path fill="#000000" d="M6.5 10c1.933 0 3.5-1.567 3.5-3.5s-1.567-3.5-3.5-3.5c-1.933 0-3.5 1.567-3.5 3.5s1.567 3.5 3.5 3.5v0z"></path>
<path fill="#000000" d="M6.5 0c0.276 0 0.5 0.224 0.5 0.5v1c0 0.276-0.224 0.5-0.5 0.5s-0.5-0.224-0.5-0.5v-1c0-0.276 0.224-0.5 0.5-0.5z"></path>
<path fill="#000000" d="M11 6.5c0-0.276 0.224-0.5 0.5-0.5h1c0.276 0 0.5 0.224 0.5 0.5s-0.224 0.5-0.5 0.5h-1c-0.276 0-0.5-0.224-0.5-0.5z"></path>
<path fill="#000000" d="M0 6.5c0-0.276 0.224-0.5 0.5-0.5h1c0.276 0 0.5 0.224 0.5 0.5s-0.224 0.5-0.5 0.5h-1c-0.276 0-0.5-0.224-0.5-0.5z"></path>
<path fill="#000000" d="M4.253 12.936c-1.328 0-2.656-0.33-3.976-0.989-0.247-0.123-0.347-0.424-0.224-0.671s0.424-0.347 0.671-0.224c1.176 0.587 2.364 0.885 3.53 0.885s2.351-0.298 3.523-0.885c2.641-1.319 5.315-1.318 7.948 0 0.247 0.124 0.347 0.424 0.223 0.671s-0.424 0.347-0.671 0.223c-1.172-0.587-2.357-0.885-3.523-0.885s-2.354 0.298-3.53 0.885c-1.316 0.659-2.643 0.989-3.97 0.989z"></path>
<path fill="#000000" d="M4.253 15.936c-1.328 0-2.656-0.33-3.976-0.989-0.247-0.123-0.347-0.424-0.224-0.671s0.424-0.347 0.671-0.224c1.176 0.587 2.364 0.885 3.53 0.885s2.351-0.298 3.523-0.885c2.641-1.319 5.315-1.318 7.948 0 0.247 0.124 0.347 0.424 0.223 0.671s-0.424 0.347-0.671 0.223c-1.172-0.587-2.357-0.885-3.523-0.885s-2.354 0.298-3.53 0.885c-1.316 0.659-2.643 0.989-3.97 0.989z"></path>
<path fill="#000000" d="M10.5 3c-0.128 0-0.256-0.049-0.354-0.146-0.195-0.195-0.195-0.512 0-0.707l1-1c0.195-0.195 0.512-0.195 0.707 0s0.195 0.512 0 0.707l-1 1c-0.098 0.098-0.226 0.146-0.354 0.146z"></path>
<path fill="#000000" d="M2.5 3c-0.128 0-0.256-0.049-0.354-0.146l-1-1c-0.195-0.195-0.195-0.512 0-0.707s0.512-0.195 0.707 0l1 1c0.195 0.195 0.195 0.512 0 0.707-0.098 0.098-0.226 0.146-0.354 0.146z"></path>
</svg>
