<?xml version="1.0" encoding="utf-8"?>
<!-- Generated by IcoMoon.io -->
<!DOCTYPE svg PUBLIC "-//W3C//DTD SVG 1.1//EN" "http://www.w3.org/Graphics/SVG/1.1/DTD/svg11.dtd">
<svg version="1.1" xmlns="http://www.w3.org/2000/svg" xmlns:xlink="http://www.w3.org/1999/xlink" width="16" height="16" viewBox="0 0 16 16">
<path fill="#000000" d="M13.922 4.626c1.192 0.29 2.078 1.365 2.078 2.648 0 1.504-1.217 2.723-2.719 2.726v0h-10.254c-1.672 0-3.027-1.356-3.027-3.029s1.355-3.029 3.027-3.029c0.184 0 0.365 0.017 0.54 0.049-0.014-0.097-0.021-0.196-0.021-0.296 0-1.154 0.935-2.089 2.088-2.089 0.672 0 1.27 0.318 1.652 0.812 0.681-0.863 1.735-1.418 2.92-1.418 2.022 0 3.666 1.615 3.717 3.626zM13.999 12.628c0.005 0.078-0.026 0.133-0.094 0.164l-1.732 0.709 1.732 0.715c0.067 0.027 0.098 0.079 0.094 0.157s-0.062 0.204-0.173 0.378c-0.11 0.178-0.2 0.287-0.27 0.328s-0.133 0.040-0.19 0l-1.531-1.036 0.201 1.751c0.014 0.067-0.017 0.118-0.094 0.154s-0.225 0.054-0.446 0.054c-0.22 0-0.369-0.018-0.445-0.054s-0.108-0.087-0.094-0.154l0.201-1.751-1.524 1.036c-0.057 0.040-0.122 0.040-0.194 0s-0.163-0.149-0.273-0.328c-0.111-0.174-0.167-0.3-0.169-0.378s0.030-0.13 0.097-0.157l1.732-0.715-1.732-0.709c-0.067-0.031-0.1-0.086-0.097-0.164s0.058-0.204 0.169-0.378c0.11-0.174 0.201-0.28 0.273-0.321s0.136-0.040 0.194 0l1.524 1.029-0.201-1.745c-0.014-0.071 0.017-0.125 0.094-0.16s0.225-0.054 0.445-0.054c0.22 0 0.369 0.018 0.446 0.054s0.108 0.089 0.094 0.16l-0.201 1.745 1.531-1.029c0.057-0.040 0.121-0.040 0.19 0s0.159 0.149 0.27 0.327c0.111 0.169 0.168 0.293 0.173 0.371zM7 12.628c0.005 0.078-0.026 0.133-0.093 0.164l-1.732 0.709 1.732 0.715c0.067 0.027 0.098 0.079 0.093 0.157s-0.062 0.204-0.173 0.378c-0.11 0.178-0.2 0.287-0.27 0.328s-0.133 0.040-0.19 0l-1.531-1.036 0.201 1.751c0.014 0.067-0.017 0.118-0.094 0.154s-0.225 0.054-0.446 0.054c-0.22 0-0.369-0.018-0.445-0.054s-0.108-0.087-0.094-0.154l0.201-1.751-1.524 1.036c-0.058 0.040-0.122 0.040-0.194 0s-0.163-0.149-0.273-0.328c-0.111-0.174-0.167-0.3-0.169-0.378s0.030-0.13 0.097-0.157l1.732-0.715-1.732-0.709c-0.067-0.031-0.1-0.086-0.097-0.164s0.058-0.204 0.169-0.378c0.11-0.174 0.201-0.28 0.273-0.321s0.136-0.040 0.194 0l1.524 1.029-0.201-1.745c-0.014-0.071 0.017-0.125 0.094-0.16s0.225-0.054 0.445-0.054c0.221 0 0.369 0.018 0.446 0.054s0.108 0.089 0.094 0.16l-0.201 1.745 1.531-1.029c0.058-0.040 0.121-0.040 0.19 0s0.159 0.149 0.27 0.327c0.111 0.169 0.168 0.293 0.173 0.371z"></path>
</svg>
