<?xml version="1.0" encoding="utf-8"?>
<!-- Generated by IcoMoon.io -->
<!DOCTYPE svg PUBLIC "-//W3C//DTD SVG 1.1//EN" "http://www.w3.org/Graphics/SVG/1.1/DTD/svg11.dtd">
<svg version="1.1" xmlns="http://www.w3.org/2000/svg" xmlns:xlink="http://www.w3.org/1999/xlink" width="16" height="16" viewBox="0 0 16 16">
<path fill="#000000" d="M13.922 4.626c1.192 0.29 2.078 1.365 2.078 2.648 0 1.504-1.217 2.723-2.719 2.726v0h-10.254c-1.672 0-3.027-1.356-3.027-3.029s1.355-3.029 3.027-3.029c0.184 0 0.365 0.017 0.54 0.049-0.014-0.097-0.021-0.196-0.021-0.296 0-1.154 0.935-2.089 2.088-2.089 0.672 0 1.27 0.318 1.652 0.812 0.681-0.863 1.735-1.418 2.92-1.418 2.022 0 3.666 1.615 3.717 3.626v0z"></path>
<path fill="#000000" d="M13.999 14.449c-0.004-0.13-0.025-0.255-0.060-0.374-0.282-1.147-1.438-3.075-1.438-3.075s-1.157 1.928-1.438 3.075c-0.035 0.119-0.056 0.244-0.060 0.374-0.001 0.017-0.001 0.035-0.001 0.051 0 0.828 0.672 1.5 1.5 1.5s1.5-0.672 1.5-1.5c0-0.017-0-0.034-0.001-0.051z"></path>
<path fill="#000000" d="M9.499 13.449c-0.004-0.13-0.025-0.255-0.060-0.374-0.282-1.147-1.438-3.075-1.438-3.075s-1.157 1.928-1.438 3.075c-0.035 0.119-0.056 0.244-0.060 0.374-0.001 0.017-0.001 0.035-0.001 0.051 0 0.828 0.672 1.5 1.5 1.5s1.5-0.672 1.5-1.5c0-0.017-0-0.034-0.001-0.051z"></path>
<path fill="#000000" d="M4.999 14.449c-0.004-0.13-0.025-0.255-0.060-0.374-0.282-1.147-1.438-3.075-1.438-3.075s-1.157 1.928-1.438 3.075c-0.035 0.119-0.056 0.244-0.060 0.374-0.001 0.017-0.001 0.035-0.001 0.051 0 0.828 0.672 1.5 1.5 1.5s1.5-0.672 1.5-1.5c0-0.017-0-0.034-0.001-0.051z"></path>
</svg>
