<?xml version="1.0" encoding="utf-8"?>
<!-- Generated by IcoMoon.io -->
<!DOCTYPE svg PUBLIC "-//W3C//DTD SVG 1.1//EN" "http://www.w3.org/Graphics/SVG/1.1/DTD/svg11.dtd">
<svg version="1.1" xmlns="http://www.w3.org/2000/svg" xmlns:xlink="http://www.w3.org/1999/xlink" width="16" height="16" viewBox="0 0 16 16">
<path fill="#000000" d="M4.253 12.936c-1.328 0-2.656-0.33-3.976-0.989-0.247-0.123-0.347-0.424-0.224-0.671s0.424-0.347 0.671-0.224c1.176 0.587 2.364 0.885 3.53 0.885s2.351-0.298 3.523-0.885c2.641-1.319 5.315-1.318 7.948 0 0.247 0.124 0.347 0.424 0.223 0.671s-0.424 0.347-0.671 0.223c-1.172-0.587-2.357-0.885-3.523-0.885s-2.354 0.298-3.53 0.885c-1.316 0.659-2.643 0.989-3.97 0.989z"></path>
<path fill="#000000" d="M4.253 15.936c-1.328 0-2.656-0.33-3.976-0.989-0.247-0.123-0.347-0.424-0.224-0.671s0.424-0.347 0.671-0.224c1.176 0.587 2.364 0.885 3.53 0.885s2.351-0.298 3.523-0.885c2.641-1.319 5.315-1.318 7.948 0 0.247 0.124 0.347 0.424 0.223 0.671s-0.424 0.347-0.671 0.223c-1.172-0.587-2.357-0.885-3.523-0.885s-2.354 0.298-3.53 0.885c-1.316 0.659-2.643 0.989-3.97 0.989z"></path>
<path fill="#000000" d="M13.922 3.626c1.192 0.29 2.078 1.365 2.078 2.648 0 1.504-1.217 2.723-2.719 2.726v0h-10.254c-1.672 0-3.027-1.356-3.027-3.029s1.355-3.029 3.027-3.029c0.184 0 0.365 0.017 0.54 0.049-0.014-0.097-0.021-0.196-0.021-0.296 0-1.154 0.935-2.089 2.088-2.089 0.672 0 1.27 0.318 1.652 0.812 0.681-0.863 1.735-1.418 2.92-1.418 2.022 0 3.666 1.615 3.717 3.626v0z"></path>
</svg>
