<?xml version="1.0" encoding="utf-8"?>
<!-- Generated by IcoMoon.io -->
<!DOCTYPE svg PUBLIC "-//W3C//DTD SVG 1.1//EN" "http://www.w3.org/Graphics/SVG/1.1/DTD/svg11.dtd">
<svg version="1.1" xmlns="http://www.w3.org/2000/svg" xmlns:xlink="http://www.w3.org/1999/xlink" width="16" height="16" viewBox="0 0 16 16">
<path fill="#000000" d="M0 7.5c0 1.378 1.121 2.5 2.5 2.5h9.5c1.068 0 2.073-0.416 2.828-1.172s1.172-1.76 1.172-2.828c0-2.206-1.794-4-4-4-0.385 0-0.761 0.054-1.12 0.158-0.366-1.251-1.526-2.158-2.88-2.158-1.335 0-2.469 0.876-2.857 2.084-0.209-0.055-0.425-0.084-0.643-0.084-1.378 0-2.5 1.121-2.5 2.5 0 0.182 0.020 0.363 0.059 0.54-1.169 0.209-2.059 1.232-2.059 2.46zM1 7.5c0-0.827 0.673-1.5 1.5-1.5h1c0.276 0 0.5-0.224 0.5-0.5s-0.224-0.5-0.5-0.5h-0.414c-0.056-0.16-0.086-0.329-0.086-0.5 0-0.827 0.673-1.5 1.5-1.5 0.172 0 0.341 0.030 0.501 0.086 0.005 0.174 0.025 0.348 0.060 0.518 0.048 0.237 0.257 0.4 0.489 0.4 0.033 0 0.067-0.003 0.101-0.010 0.271-0.055 0.445-0.32 0.39-0.59-0.027-0.132-0.041-0.268-0.041-0.404 0-1.103 0.897-2 2-2 0.947 0 1.751 0.665 1.952 1.562-0.292 0.175-0.564 0.388-0.809 0.638-0.193 0.197-0.19 0.514 0.007 0.707s0.514 0.19 0.707-0.007c0.569-0.581 1.33-0.9 2.143-0.9 1.654 0 3 1.346 3 3 0 0.801-0.312 1.555-0.879 2.121s-1.32 0.879-2.121 0.879h-9.5c-0.827 0-1.5-0.673-1.5-1.5z"></path>
<path fill="#000000" d="M13.999 12.628c0.005 0.078-0.026 0.133-0.094 0.164l-1.732 0.709 1.732 0.715c0.067 0.027 0.098 0.079 0.094 0.157s-0.062 0.204-0.173 0.378c-0.11 0.178-0.2 0.287-0.27 0.328s-0.133 0.040-0.19 0l-1.531-1.036 0.201 1.751c0.014 0.067-0.017 0.118-0.094 0.154s-0.225 0.054-0.446 0.054c-0.22 0-0.369-0.018-0.445-0.054s-0.108-0.087-0.094-0.154l0.201-1.751-1.524 1.036c-0.057 0.040-0.122 0.040-0.194 0s-0.163-0.149-0.273-0.327c-0.111-0.174-0.167-0.3-0.169-0.378s0.030-0.13 0.097-0.157l1.732-0.715-1.732-0.709c-0.067-0.031-0.1-0.086-0.097-0.164s0.058-0.204 0.169-0.378c0.11-0.174 0.201-0.28 0.273-0.321s0.136-0.040 0.194 0l1.524 1.029-0.201-1.745c-0.014-0.071 0.017-0.125 0.094-0.16s0.225-0.054 0.445-0.054c0.22 0 0.369 0.018 0.446 0.054s0.108 0.089 0.094 0.16l-0.201 1.745 1.531-1.029c0.057-0.040 0.121-0.040 0.19 0s0.159 0.149 0.27 0.327c0.111 0.169 0.168 0.293 0.173 0.371v0zM7 12.628c0.005 0.078-0.026 0.133-0.093 0.164l-1.732 0.709 1.732 0.715c0.067 0.027 0.098 0.079 0.093 0.157s-0.062 0.204-0.173 0.378c-0.11 0.178-0.2 0.287-0.27 0.328s-0.133 0.040-0.19 0l-1.531-1.036 0.201 1.751c0.014 0.067-0.017 0.118-0.094 0.154s-0.225 0.054-0.446 0.054c-0.22 0-0.369-0.018-0.445-0.054s-0.108-0.087-0.094-0.154l0.201-1.751-1.524 1.036c-0.058 0.040-0.122 0.040-0.194 0s-0.163-0.149-0.273-0.327c-0.111-0.174-0.167-0.3-0.169-0.378s0.030-0.13 0.097-0.157l1.732-0.715-1.732-0.709c-0.067-0.031-0.1-0.086-0.097-0.164s0.058-0.204 0.169-0.378c0.11-0.174 0.201-0.28 0.273-0.321s0.136-0.040 0.194 0l1.524 1.029-0.201-1.745c-0.014-0.071 0.017-0.125 0.094-0.16s0.225-0.054 0.445-0.054c0.221 0 0.369 0.018 0.446 0.054s0.108 0.089 0.094 0.16l-0.201 1.745 1.531-1.029c0.058-0.040 0.121-0.040 0.19 0s0.159 0.149 0.27 0.327c0.111 0.169 0.168 0.293 0.173 0.371v0z"></path>
</svg>
