<?xml version="1.0" encoding="utf-8"?>
<!-- Generated by IcoMoon.io -->
<!DOCTYPE svg PUBLIC "-//W3C//DTD SVG 1.1//EN" "http://www.w3.org/Graphics/SVG/1.1/DTD/svg11.dtd">
<svg version="1.1" xmlns="http://www.w3.org/2000/svg" xmlns:xlink="http://www.w3.org/1999/xlink" width="16" height="16" viewBox="0 0 16 16">
<path fill="#000000" d="M13.139 16c0 0 0 0 0 0-0.396 0-0.774-0.176-1.038-0.483l-5.534-6.456c-0.582 0.247-1.213 0.377-1.849 0.377-2.602 0-4.719-2.117-4.719-4.719 0-0.466 0.068-0.927 0.202-1.37l0.242-0.799 3.027 3.027c0.082 0.082 0.192 0.127 0.309 0.127s0.227-0.045 0.309-0.127l1.487-1.487c0.171-0.171 0.171-0.448 0-0.619l-3.027-3.027 0.799-0.242c0.443-0.134 0.904-0.202 1.37-0.202 2.602 0 4.719 2.117 4.719 4.719 0 0.635-0.129 1.267-0.377 1.849l6.456 5.534c0.296 0.254 0.468 0.604 0.482 0.986s-0.129 0.744-0.405 1.020l-1.487 1.487c-0.262 0.262-0.606 0.406-0.968 0.406zM6.817 7.815l6.043 7.051c0.074 0.086 0.173 0.134 0.278 0.134 0.068 0 0.168-0.020 0.261-0.113l1.487-1.487c0.077-0.077 0.117-0.174 0.113-0.275s-0.051-0.195-0.134-0.265l-7.051-6.043 0.188-0.354c0.284-0.533 0.434-1.136 0.434-1.744 0-2.051-1.668-3.719-3.719-3.719-0.065 0-0.13 0.002-0.194 0.005l1.76 1.76c0.56 0.56 0.56 1.472 0 2.033l-1.487 1.487c-0.271 0.271-0.632 0.42-1.016 0.42s-0.746-0.149-1.016-0.42l-1.76-1.76c-0.003 0.065-0.005 0.129-0.005 0.194 0 2.051 1.668 3.719 3.719 3.719 0.608 0 1.211-0.15 1.744-0.434l0.354-0.188z"></path>
</svg>
