<?xml version="1.0" encoding="utf-8"?>
<!-- Generated by IcoMoon.io -->
<!DOCTYPE svg PUBLIC "-//W3C//DTD SVG 1.1//EN" "http://www.w3.org/Graphics/SVG/1.1/DTD/svg11.dtd">
<svg version="1.1" xmlns="http://www.w3.org/2000/svg" xmlns:xlink="http://www.w3.org/1999/xlink" width="16" height="16" viewBox="0 0 16 16">
<path fill="#000000" d="M15.947 9.276l-2-4c-0.085-0.169-0.258-0.276-0.447-0.276h-2.5v-1.5c0-0.276-0.224-0.5-0.5-0.5h-1.5v-1h-3v1h-5.5c-0.276 0-0.5 0.224-0.5 0.5v9c0 0.276 0.224 0.5 0.5 0.5h1.769c-0.171 0.294-0.269 0.636-0.269 1 0 1.103 0.897 2 2 2s2-0.897 2-2c0-0.364-0.098-0.706-0.269-1h5.538c-0.171 0.294-0.269 0.636-0.269 1 0 1.103 0.897 2 2 2s2-0.897 2-2c0-0.364-0.098-0.706-0.269-1h0.769c0.276 0 0.5-0.224 0.5-0.5v-3c0-0.078-0.018-0.154-0.053-0.224zM11 6h2.191l1 2h-3.191v-2zM15 12h-14v-8h9v4.5c0 0.276 0.224 0.5 0.5 0.5h4.191l0.309 0.618v2.382z"></path>
<path fill="#000000" d="M6 5h-2v2h-2v2h2v2h2v-2h2v-2h-2z"></path>
</svg>
