<?xml version="1.0" encoding="utf-8"?>
<!-- Generated by IcoMoon.io -->
<!DOCTYPE svg PUBLIC "-//W3C//DTD SVG 1.1//EN" "http://www.w3.org/Graphics/SVG/1.1/DTD/svg11.dtd">
<svg version="1.1" xmlns="http://www.w3.org/2000/svg" xmlns:xlink="http://www.w3.org/1999/xlink" width="16" height="16" viewBox="0 0 16 16">
<path fill="#000000" d="M15 13h-3.046c-0.101-1.132-0.375-2.232-0.819-3.282-0.554-1.31-1.347-2.486-2.357-3.496-0.022-0.022-0.045-0.044-0.068-0.067l1.929-2.357c0.35-0.427 0.287-1.057-0.141-1.407s-1.057-0.287-1.407 0.141l-8.863 10.832c-0 0-0.001 0.001-0.001 0.001l-0.002 0.002 0 0c-0.141 0.172-0.226 0.393-0.226 0.633 0 0.552 0.447 1 0.999 1v0c0 0 0.001-0 0.001-0h13.999c0.552 0 1-0.448 1-1s-0.448-1-1-1zM8.075 6.933c1.649 1.651 2.65 3.776 2.876 6.067h-7.84l4.964-6.067z"></path>
</svg>
