<?xml version="1.0" encoding="utf-8"?>
<!-- Generated by IcoMoon.io -->
<!DOCTYPE svg PUBLIC "-//W3C//DTD SVG 1.1//EN" "http://www.w3.org/Graphics/SVG/1.1/DTD/svg11.dtd">
<svg version="1.1" xmlns="http://www.w3.org/2000/svg" xmlns:xlink="http://www.w3.org/1999/xlink" width="16" height="16" viewBox="0 0 16 16">
<path fill="#000000" d="M5 16h6l-2-2v-7.268c0.598-0.346 1-0.992 1-1.732 0-1.105-0.895-2-2-2s-2 0.895-2 2c0 0.74 0.402 1.386 1 1.732v7.268l-2 2zM11.122 2.5c0.549 0.685 0.878 1.554 0.878 2.5s-0.329 1.815-0.878 2.5l0.781 0.625c0.686-0.856 1.097-1.942 1.097-3.125s-0.411-2.269-1.097-3.125l-0.781 0.625zM4.097 1.875c-0.686 0.856-1.097 1.942-1.097 3.125s0.411 2.269 1.097 3.125l0.781-0.625c-0.549-0.685-0.878-1.554-0.878-2.5s0.329-1.815 0.878-2.5l-0.781-0.625zM1.755 0c-1.098 1.37-1.755 3.108-1.755 5s0.657 3.63 1.755 5l0.781-0.625c-0.961-1.198-1.536-2.719-1.536-4.375s0.575-3.176 1.536-4.375l-0.781-0.625zM14.245 0l-0.781 0.625c0.961 1.198 1.536 2.719 1.536 4.375s-0.575 3.176-1.536 4.375l0.781 0.625c1.098-1.37 1.755-3.108 1.755-5s-0.657-3.63-1.755-5z"></path>
</svg>
