<?xml version="1.0" encoding="utf-8"?>
<!-- Generated by IcoMoon.io -->
<!DOCTYPE svg PUBLIC "-//W3C//DTD SVG 1.1//EN" "http://www.w3.org/Graphics/SVG/1.1/DTD/svg11.dtd">
<svg version="1.1" xmlns="http://www.w3.org/2000/svg" xmlns:xlink="http://www.w3.org/1999/xlink" width="16" height="16" viewBox="0 0 16 16">
<path fill="#000000" d="M11.182 11.932c-0.192 0-0.384-0.073-0.53-0.22-0.293-0.293-0.293-0.768 0-1.061 1.462-1.462 1.462-3.841 0-5.303s-3.841-1.462-5.303 0c-0.708 0.708-1.098 1.65-1.098 2.652s0.39 1.943 1.098 2.652c0.293 0.293 0.293 0.768 0 1.061s-0.768 0.293-1.061 0c-0.992-0.992-1.538-2.31-1.538-3.712s0.546-2.721 1.538-3.712c2.047-2.047 5.378-2.047 7.425 0s2.047 5.378 0 7.425c-0.146 0.146-0.338 0.22-0.53 0.22v0z"></path>
<path fill="#000000" d="M13.127 13.877c-0.192 0-0.384-0.073-0.53-0.22-0.293-0.293-0.293-0.768 0-1.061 2.534-2.534 2.534-6.658 0-9.192s-6.658-2.534-9.192 0c-2.534 2.534-2.534 6.658 0 9.192 0.293 0.293 0.293 0.768 0 1.061s-0.768 0.293-1.061 0c-1.511-1.511-2.343-3.52-2.343-5.657s0.832-4.146 2.343-5.657c1.511-1.511 3.52-2.343 5.657-2.343s4.146 0.832 5.657 2.343c1.511 1.511 2.343 3.52 2.343 5.657s-0.832 4.146-2.343 5.657c-0.146 0.146-0.338 0.22-0.53 0.22v0z"></path>
<path fill="#000000" d="M9.5 15h-0.501l0.001-5.268c0.598-0.346 1-0.992 1-1.732 0-1.105-0.895-2-2-2s-2 0.895-2 2c0 0.74 0.402 1.386 1 1.732l-0.001 5.268h-0.499c-0.276 0-0.5 0.224-0.5 0.5s0.224 0.5 0.5 0.5h3c0.276 0 0.5-0.224 0.5-0.5s-0.224-0.5-0.5-0.5z"></path>
</svg>
