<?xml version="1.0" encoding="utf-8"?>
<!-- Generated by IcoMoon.io -->
<!DOCTYPE svg PUBLIC "-//W3C//DTD SVG 1.1//EN" "http://www.w3.org/Graphics/SVG/1.1/DTD/svg11.dtd">
<svg version="1.1" xmlns="http://www.w3.org/2000/svg" xmlns:xlink="http://www.w3.org/1999/xlink" width="16" height="16" viewBox="0 0 16 16">
<path fill="#000000" d="M8 4.958c-1.321-1.351-7-2.22-7 4.193 0 3.962 5.016 8.348 6.999 6.35h0.002c1.983 1.998 6.999-2.388 6.999-6.35 0-6.413-5.679-5.544-7-4.193zM13.017 10.664c-0.376 1.45-1.622 2.798-3.086 3.751 1.53-1.821 2.473-4.905 1.561-7.296-0.271-0.712-0.583-1.315-0.923-1.822 1.797 0.603 3.279 2.166 2.448 5.368zM7.505 3.188c0.213-0.051 0.415-0.117 0.608-0.196-0.070 0.323-0.113 0.663-0.113 1.007h0.333c0.29-1.355 1.381-2.938 2.835-2.938 0-0.745-0.505-1.063-1.074-1.063-0.541 0.268-1.013 0.749-1.394 1.429-0.206 0.367-0.421 0.87-0.557 1.433-0.027-0.159-0.068-0.318-0.124-0.477-0.617-1.735-2.768-2.748-4.803-2.262-0.231 0.055-0.449 0.128-0.656 0.214 0.026 0.196 0.072 0.393 0.142 0.59 0.617 1.735 2.767 2.748 4.803 2.262z"></path>
</svg>
