<?xml version="1.0" encoding="utf-8"?>
<!-- Generated by IcoMoon.io -->
<!DOCTYPE svg PUBLIC "-//W3C//DTD SVG 1.1//EN" "http://www.w3.org/Graphics/SVG/1.1/DTD/svg11.dtd">
<svg version="1.1" xmlns="http://www.w3.org/2000/svg" xmlns:xlink="http://www.w3.org/1999/xlink" width="16" height="16" viewBox="0 0 16 16">
<path fill="#000000" d="M13.5 3h-1.5v-1.5c0-0.276-0.224-0.5-0.5-0.5s-0.5 0.224-0.5 0.5v1c0-0.276-0.224-0.5-0.5-0.5s-0.5 0.224-0.5 0.5v1.793l-0.549 0.549c-0.678-0.527-1.528-0.841-2.451-0.841-2.206 0-4 1.794-4 4s1.794 4 4 4c2.206 0 4-1.794 4-4 0-0.923-0.314-1.774-0.841-2.451l0.549-0.549h1.793c0.276 0 0.5-0.224 0.5-0.5s-0.224-0.5-0.5-0.5h1c0.276 0 0.5-0.224 0.5-0.5s-0.224-0.5-0.5-0.5zM10 8c0 1.654-1.346 3-3 3s-3-1.346-3-3 1.346-3 3-3c0.647 0 1.247 0.206 1.737 0.556l-1.478 1.478c-0.083-0.022-0.169-0.034-0.259-0.034-0.552 0-1 0.448-1 1s0.448 1 1 1 1-0.448 1-1c0-0.090-0.012-0.176-0.034-0.259l1.478-1.478c0.35 0.491 0.556 1.090 0.556 1.737z"></path>
<path fill="#000000" d="M13.063 8c0-0.561-0.077-1.118-0.228-1.653-0.085-0.299-0.395-0.473-0.694-0.388s-0.473 0.395-0.388 0.694c0.123 0.436 0.186 0.889 0.186 1.347 0 2.723-2.215 4.938-4.938 4.938s-4.938-2.215-4.938-4.938c0-2.723 2.215-4.938 4.938-4.938 0.458 0 0.911 0.063 1.347 0.186 0.299 0.085 0.61-0.089 0.694-0.388s-0.089-0.61-0.388-0.694c-0.536-0.151-1.092-0.228-1.653-0.228-3.343 0-6.063 2.72-6.063 6.063 0 1.746 0.742 3.321 1.927 4.428l-1.718 1.718c-0.195 0.195-0.195 0.512 0 0.707 0.098 0.098 0.226 0.146 0.354 0.146s0.256-0.049 0.354-0.146l1.801-1.801c0.96 0.637 2.11 1.010 3.346 1.010s2.386-0.372 3.346-1.010l1.801 1.801c0.098 0.098 0.226 0.146 0.354 0.146s0.256-0.049 0.354-0.146c0.195-0.195 0.195-0.512 0-0.707l-1.718-1.718c1.185-1.107 1.927-2.683 1.927-4.428z"></path>
</svg>
