<?xml version="1.0" encoding="utf-8"?>
<!-- Generated by IcoMoon.io -->
<!DOCTYPE svg PUBLIC "-//W3C//DTD SVG 1.1//EN" "http://www.w3.org/Graphics/SVG/1.1/DTD/svg11.dtd">
<svg version="1.1" xmlns="http://www.w3.org/2000/svg" xmlns:xlink="http://www.w3.org/1999/xlink" width="16" height="16" viewBox="0 0 16 16">
<path fill="#000000" d="M8 16l8-8h-5v-8l-6-0v8h-5l8 8zM7.039 13.625l-0.25-0.25h2.422l-0.25 0.25h-1.922zM8.711 13.875l-0.25 0.25h-0.922l-0.25-0.25h1.422zM6.539 13.125l-0.25-0.25h3.422l-0.25 0.25h-2.922zM6.039 12.625l-0.25-0.25h4.422l-0.25 0.25h-3.922zM5.539 12.125l-0.25-0.25h5.422l-0.25 0.25h-4.922zM5.039 11.625l-0.25-0.25h6.422l-0.25 0.25h-5.922zM4.539 11.125l-0.25-0.25h7.422l-0.25 0.25h-6.922zM4.039 10.625l-0.25-0.25h8.422l-0.25 0.25h-7.922zM3.539 10.125l-0.25-0.25h9.422l-0.25 0.25h-8.922zM3.039 9.625l-0.25-0.25h10.422l-0.25 0.25h-9.922zM7.789 14.375h0.422l-0.211 0.211-0.211-0.211zM10 8.625h-4v-0.25h4v0.25zM10 8.125h-4v-0.25h4v0.25zM10 7.625h-4v-0.25h4v0.25zM10 7.125h-4v-0.25h4v0.25zM10 6.625h-4v-0.25h4v0.25zM10 6.125h-4v-0.25h4v0.25zM10 5.625h-4v-0.25h4v0.25zM10 5.125h-4v-0.25h4v0.25zM10 4.625h-4v-0.25h4v0.25zM10 4.125h-4v-0.25h4v0.25zM10 3.625h-4v-0.25h4v0.25zM10 3.125h-4v-0.25h4v0.25zM10 2.625h-4v-0.25h4v0.25zM10 2.125h-4v-0.25h4v0.25zM10 1.625h-4v-0.25h4v0.25zM10 1v0.125h-4v-0.125l4 0zM6 9v-0.125h4v0.125h3.586l-0.125 0.125h-10.922l-0.125-0.125h3.586z"></path>
</svg>
