<?xml version="1.0" encoding="utf-8"?>
<!-- Generated by IcoMoon.io -->
<!DOCTYPE svg PUBLIC "-//W3C//DTD SVG 1.1//EN" "http://www.w3.org/Graphics/SVG/1.1/DTD/svg11.dtd">
<svg version="1.1" xmlns="http://www.w3.org/2000/svg" xmlns:xlink="http://www.w3.org/1999/xlink" width="16" height="16" viewBox="0 0 16 16">
<path fill="#000000" d="M13 4h-9c-2.209 0-4 1.791-4 4s1.791 4 4 4h9v-1h-9c-1.657 0-3-1.343-3-3s1.343-3 3-3h9c1.105 0 2 0.895 2 2s-0.895 2-2 2h-7c-0.552 0-1-0.448-1-1s0.448-1 1-1h7v-1h-7c-1.105 0-2 0.895-2 2s0.895 2 2 2h7c1.657 0 3-1.343 3-3s-1.343-3-3-3z"></path>
</svg>
