<?xml version="1.0" encoding="utf-8"?>
<!-- Generated by IcoMoon.io -->
<!DOCTYPE svg PUBLIC "-//W3C//DTD SVG 1.1//EN" "http://www.w3.org/Graphics/SVG/1.1/DTD/svg11.dtd">
<svg version="1.1" xmlns="http://www.w3.org/2000/svg" xmlns:xlink="http://www.w3.org/1999/xlink" width="16" height="16" viewBox="0 0 16 16">
<path fill="#000000" d="M15.25 3h-9c-0.412 0-0.989 0.239-1.28 0.53l-4.439 4.439c-0.292 0.292-0.292 0.769 0 1.061l4.439 4.439c0.292 0.292 0.868 0.53 1.28 0.53h9c0.412 0 0.75-0.338 0.75-0.75v-9.5c0-0.413-0.338-0.75-0.75-0.75zM14 10.5l-1.5 1.5-2-2-2 2-1.5-1.5 2-2-2-2 1.5-1.5 2 2 2-2 1.5 1.5-2 2 2 2z"></path>
</svg>
