<?xml version="1.0" encoding="utf-8"?>
<!-- Generated by IcoMoon.io -->
<!DOCTYPE svg PUBLIC "-//W3C//DTD SVG 1.1//EN" "http://www.w3.org/Graphics/SVG/1.1/DTD/svg11.dtd">
<svg version="1.1" xmlns="http://www.w3.org/2000/svg" xmlns:xlink="http://www.w3.org/1999/xlink" width="16" height="16" viewBox="0 0 16 16">
<path fill="#000000" d="M6 7.5v-0.5h-6v0.5c0 0.828 0.672 1.5 1.5 1.5h3c0.828 0 1.5-0.672 1.5-1.5z"></path>
<path fill="#000000" d="M10 7.5c0 0.828 0.672 1.5 1.5 1.5h3c0.828 0 1.5-0.672 1.5-1.5v-0.5h-6v0.5z"></path>
<path fill="#000000" d="M9 2h3.15l-2.087 3.757c-0.134 0.241-0.047 0.546 0.194 0.68s0.546 0.047 0.68-0.194l2.063-3.713 2.063 3.713c0.091 0.164 0.262 0.257 0.438 0.257 0.082 0 0.165-0.020 0.242-0.063 0.241-0.134 0.328-0.439 0.194-0.68l-2.5-4.5c-0.088-0.159-0.255-0.257-0.437-0.257h-4c0-0.552-0.448-1-1-1s-1 0.448-1 1h-4c-0.182 0-0.349 0.098-0.437 0.257l-2.5 4.5c-0.134 0.241-0.047 0.546 0.194 0.68s0.546 0.047 0.68-0.194l2.063-3.713 2.063 3.713c0.091 0.164 0.262 0.257 0.438 0.257 0.082 0 0.165-0.020 0.242-0.063 0.241-0.134 0.328-0.439 0.194-0.68l-2.087-3.757h3.15v12l-3 1v1h8v-1l-3-1v-12z"></path>
</svg>
