<?xml version="1.0" encoding="utf-8"?>
<!-- Generated by IcoMoon.io -->
<!DOCTYPE svg PUBLIC "-//W3C//DTD SVG 1.1//EN" "http://www.w3.org/Graphics/SVG/1.1/DTD/svg11.dtd">
<svg version="1.1" xmlns="http://www.w3.org/2000/svg" xmlns:xlink="http://www.w3.org/1999/xlink" width="16" height="16" viewBox="0 0 16 16">
<path fill="#000000" d="M14.983 8c-0.108-1.643-0.745-3.141-1.743-4.326-0.117 0.101-0.231 0.208-0.342 0.318-1.085 1.085-1.731 2.493-1.848 4.008h3.932zM12.453 2.869c-1.204-1.060-2.751-1.74-4.453-1.852v6.983h1.923c0.134-2.041 1.085-3.86 2.53-5.131zM2.102 3.992c-0.111-0.111-0.225-0.217-0.342-0.318-0.997 1.185-1.634 2.683-1.743 4.326h3.932c-0.117-1.514-0.762-2.922-1.848-4.008zM5.077 8h1.923v-6.983c-1.702 0.112-3.249 0.792-4.453 1.852 1.444 1.271 2.395 3.090 2.53 5.131zM12.898 13.008c0.111 0.111 0.225 0.217 0.342 0.318 0.997-1.185 1.634-2.683 1.743-4.326h-3.932c0.117 1.514 0.762 2.922 1.848 4.008zM9.923 9h-1.923v6.983c1.702-0.112 3.249-0.792 4.453-1.852-1.444-1.271-2.395-3.090-2.53-5.131zM0.017 9c0.108 1.643 0.745 3.141 1.743 4.326 0.117-0.101 0.231-0.207 0.342-0.318 1.085-1.085 1.731-2.493 1.848-4.008h-3.932zM2.547 14.131c1.204 1.060 2.751 1.74 4.453 1.852v-6.983h-1.923c-0.134 2.041-1.085 3.86-2.53 5.131z"></path>
</svg>
