<?xml version="1.0" encoding="utf-8"?>
<!-- Generated by IcoMoon.io -->
<!DOCTYPE svg PUBLIC "-//W3C//DTD SVG 1.1//EN" "http://www.w3.org/Graphics/SVG/1.1/DTD/svg11.dtd">
<svg version="1.1" xmlns="http://www.w3.org/2000/svg" xmlns:xlink="http://www.w3.org/1999/xlink" width="17" height="16" viewBox="0 0 17 16">
<path fill="#000000" d="M2 6h11v6h-11v-6z"></path>
<path fill="#000000" d="M14 4h-13c-0.55 0-1 0.45-1 1v8c0 0.55 0.45 1 1 1h13c0.55 0 1-0.45 1-1v-8c0-0.55-0.45-1-1-1zM14 13h-13v-8h13v8z"></path>
<path fill="#000000" d="M16.5 7h-1v4h1c0.276 0 0.5-0.224 0.5-0.5v-3c0-0.276-0.224-0.5-0.5-0.5z"></path>
</svg>
