<?xml version="1.0" encoding="utf-8"?>
<!-- Generated by IcoMoon.io -->
<!DOCTYPE svg PUBLIC "-//W3C//DTD SVG 1.1//EN" "http://www.w3.org/Graphics/SVG/1.1/DTD/svg11.dtd">
<svg version="1.1" xmlns="http://www.w3.org/2000/svg" xmlns:xlink="http://www.w3.org/1999/xlink" width="16" height="16" viewBox="0 0 16 16">
<path fill="#000000" d="M0 14h2v2h2v-2h8v2h2v-2h2v-1h-16zM13 5h-10l-3 7h16zM5.5 4c1.381 0 2.5 0.448 2.5 1 0-0.552 1.119-1 2.5-1s2.5 0.448 2.5 1v-4c0-0.552-0.448-1-1-1h-8c-0.552 0-1 0.448-1 1v4c0-0.552 1.119-1 2.5-1z"></path>
</svg>
