<?xml version="1.0" encoding="utf-8"?>
<!-- Generated by IcoMoon.io -->
<!DOCTYPE svg PUBLIC "-//W3C//DTD SVG 1.1//EN" "http://www.w3.org/Graphics/SVG/1.1/DTD/svg11.dtd">
<svg version="1.1" xmlns="http://www.w3.org/2000/svg" xmlns:xlink="http://www.w3.org/1999/xlink" width="19" height="16" viewBox="0 0 19 16">
<path fill="#000000" d="M15.5 7c-0.453 0-0.887 0.087-1.285 0.244l-2.853-4.992c-0.089-0.156-0.255-0.252-0.434-0.252l-1.429-0c-0 0 0 0-0 0-0.276 0-0.5 0.224-0.5 0.5s0.224 0.5 0.5 0.5l1.139 0 1.143 2h-4.848l-0.571-1h0.138c0.276 0 0.5-0.224 0.5-0.5s-0.224-0.5-0.5-0.5h-2c-0.276 0-0.5 0.224-0.5 0.5s0.224 0.5 0.5 0.5h0.71l0.784 1.372-1.14 1.901c-0.417-0.175-0.874-0.272-1.353-0.272-1.93 0-3.5 1.57-3.5 3.5s1.57 3.5 3.5 3.5c1.76 0 3.221-1.306 3.464-3h1.122c0.206 0.583 0.761 1 1.414 1 0.828 0 1.5-0.672 1.5-1.5 0-0.363-0.129-0.696-0.344-0.955l1.906-3.177 0.785 1.374c-0.82 0.641-1.348 1.639-1.348 2.758 0 1.93 1.57 3.5 3.5 3.5s3.5-1.57 3.5-3.5-1.57-3.5-3.5-3.5zM3.5 13c-1.378 0-2.5-1.121-2.5-2.5s1.122-2.5 2.5-2.5c0.291 0 0.571 0.051 0.831 0.143l-1.26 2.1c-0.093 0.154-0.095 0.347-0.006 0.504s0.255 0.254 0.435 0.254h2.45c-0.232 1.14-1.242 2-2.45 2zM4.383 10l0.805-1.342c0.381 0.35 0.654 0.816 0.761 1.342h-1.567zM8.086 10h-1.122c-0.128-0.888-0.59-1.669-1.254-2.212l0.853-1.421 1.802 3.153c-0.121 0.14-0.216 0.302-0.279 0.479zM9.5 11c-0.276 0-0.5-0.224-0.5-0.5s0.224-0.5 0.5-0.5 0.5 0.224 0.5 0.5-0.224 0.5-0.5 0.5zM9.799 9.030c-0.097-0.020-0.197-0.030-0.299-0.030-0.091 0-0.181 0.009-0.267 0.024l-1.728-3.024h4.112l-1.818 3.030zM15.5 13c-1.379 0-2.5-1.121-2.5-2.5 0-0.747 0.33-1.419 0.851-1.877l1.214 2.125c0.092 0.162 0.261 0.252 0.435 0.252 0.084 0 0.169-0.021 0.248-0.066 0.24-0.137 0.323-0.442 0.186-0.682l-1.215-2.126c0.246-0.081 0.508-0.126 0.781-0.126 1.379 0 2.5 1.121 2.5 2.5s-1.122 2.5-2.5 2.5z"></path>
</svg>
