<?xml version="1.0" encoding="utf-8"?>
<!-- Generated by IcoMoon.io -->
<!DOCTYPE svg PUBLIC "-//W3C//DTD SVG 1.1//EN" "http://www.w3.org/Graphics/SVG/1.1/DTD/svg11.dtd">
<svg version="1.1" xmlns="http://www.w3.org/2000/svg" xmlns:xlink="http://www.w3.org/1999/xlink" width="16" height="16" viewBox="0 0 16 16">
<path fill="#000000" d="M10.024 7.453v-0.135c1.817-0.337 3.954-1.262 3.954-3.651 0-1.211-0.572-2.221-1.497-2.81-0.959-0.622-2.204-0.858-4.122-0.858h-7.352v0.875c1.767 0.168 2.019 0.32 2.019 2.423v9.388c0 2.059-0.238 2.245-2.025 2.424v0.891h6.265c2.103 0 4.004-0.37 5.266-1.060 1.447-0.757 2.355-2.053 2.355-3.668 0-2.355-1.918-3.499-4.862-3.819zM6 2.406c0-0.505 0.050-0.858 0.219-1.043 0.151-0.135 0.589-0.32 1.144-0.32 1.38 0 2.726 0.841 2.726 3.079 0 2.002-1.11 2.927-3.533 2.927l-0.555-0v-4.643zM7.885 14.94c-1.38 0.034-1.885-0.488-1.885-2.322h0v-4.559h0.488c2.911 0 4.391 1.178 4.391 3.483 0 2.372-1.598 3.382-2.995 3.399z"></path>
</svg>
