<?xml version="1.0" encoding="utf-8"?>
<!-- Generated by IcoMoon.io -->
<!DOCTYPE svg PUBLIC "-//W3C//DTD SVG 1.1//EN" "http://www.w3.org/Graphics/SVG/1.1/DTD/svg11.dtd">
<svg version="1.1" xmlns="http://www.w3.org/2000/svg" xmlns:xlink="http://www.w3.org/1999/xlink" width="16" height="16" viewBox="0 0 16 16">
<path fill="#000000" d="M12 4.5c0-0.827-0.673-1.5-1.5-1.5-0.276 0-0.5-0.224-0.5-0.5v-2c0-0.276-0.224-0.5-0.5-0.5h-3c-0.276 0-0.5 0.224-0.5 0.5v2c0 0.276-0.224 0.5-0.5 0.5-0.827 0-1.5 0.673-1.5 1.5v1c0 0.384 0.145 0.734 0.383 1-0.238 0.266-0.383 0.616-0.383 1v1c0 0.384 0.145 0.734 0.383 1-0.238 0.266-0.383 0.616-0.383 1v1c0 0.384 0.145 0.734 0.383 1-0.238 0.266-0.383 0.616-0.383 1v1c0 0.827 0.673 1.5 1.5 1.5h5c0.827 0 1.5-0.673 1.5-1.5v-1c0-0.384-0.145-0.734-0.383-1 0.238-0.266 0.383-0.616 0.383-1v-1c0-0.384-0.145-0.734-0.383-1 0.238-0.266 0.383-0.616 0.383-1v-1c0-0.384-0.145-0.734-0.383-1 0.238-0.266 0.383-0.616 0.383-1v-1zM10.25 15v-0.25h-0.25v0.25h-0.25v-0.25h-0.25v0.25h-0.25v-0.25h-0.25v0.25h-0.25v-0.25h-0.25v0.25h-0.25v-0.25h-0.25v0.25h-0.25v-0.25h-0.25v0.25h-0.25v-0.25h-0.25v0.25h-0.25v-0.25h-0.25v0.25h-0.25v-0.25h-0.25v0.25h-0.25v-0.25h-0.25v0.25c-0.091 0-0.176-0.025-0.25-0.068v-0.182h-0.182c-0.043-0.074-0.068-0.159-0.068-0.25h0.25v-0.25h-0.25v-0.25h0.25v-0.25h-0.25v-0.25h0.25v-0.25h-0.182c0.044-0.076 0.107-0.139 0.182-0.182v0.182h0.25v-0.25h0.25v-0.067c0.076-0.044 0.139-0.107 0.183-0.183h0.067v-0.25c0-0.091-0.025-0.176-0.067-0.25h0.067v-0.25h-0.25v0.067c-0.074-0.043-0.159-0.067-0.25-0.067s-0.176-0.025-0.25-0.068v-0.182h-0.182c-0.043-0.074-0.068-0.159-0.068-0.25h0.25v-0.25h-0.25v-0.25h0.25v-0.25h-0.25v-0.25h0.25v-0.25h-0.182c0.044-0.076 0.107-0.139 0.182-0.182v0.182h0.25v-0.25h0.25v-0.067c0.076-0.044 0.139-0.107 0.183-0.183h0.067v-0.25c0-0.091-0.025-0.176-0.067-0.25h0.067v-0.25h-0.25v0.067c-0.074-0.043-0.159-0.067-0.25-0.067s-0.176-0.025-0.25-0.068v-0.182h-0.182c-0.043-0.074-0.068-0.159-0.068-0.25h0.25v-0.25h-0.25v-0.25h0.25v-0.25h-0.25v-0.25h0.25v-0.25h-0.182c0.044-0.076 0.107-0.138 0.182-0.182v0.182h0.25v-0.25h0.25v-0.067c0.076-0.044 0.139-0.107 0.183-0.183h0.067v-0.25c0-0.091-0.025-0.176-0.067-0.25h0.067v-0.25h-0.25v0.067c-0.074-0.043-0.159-0.067-0.25-0.067s-0.176-0.025-0.25-0.068v-0.182h-0.182c-0.043-0.074-0.068-0.159-0.068-0.25h0.25v-0.25h-0.25v-0.75c0-0.276 0.224-0.5 0.5-0.5 0.827 0 1.5-0.673 1.5-1.5v-0.5h2v0.5c0 0.827 0.673 1.5 1.5 1.5 0.276 0 0.5 0.224 0.5 0.5v0.5h-0.25v0.25h0.25v0.25h-0.25v0.25h0.182c-0.044 0.076-0.107 0.138-0.182 0.182v-0.182h-0.25v0.25h-0.25v0.067c-0.076 0.044-0.139 0.107-0.183 0.183h-0.067v0.25c0 0.091 0.025 0.176 0.067 0.25h-0.067v0.25h0.25v-0.067c0.074 0.043 0.159 0.067 0.25 0.067s0.176 0.025 0.25 0.068v0.182h0.182c0.043 0.074 0.068 0.159 0.068 0.25h-0.25v0.25h0.25v0.25h-0.25v0.25h0.25v0.25h-0.25v0.25h0.182c-0.044 0.076-0.107 0.139-0.182 0.182v-0.182h-0.25v0.25h-0.25v0.067c-0.076 0.044-0.139 0.107-0.183 0.183h-0.067v0.25c0 0.091 0.025 0.176 0.067 0.25h-0.067v0.25h0.25v-0.067c0.074 0.043 0.159 0.067 0.25 0.067s0.176 0.025 0.25 0.068v0.182h0.182c0.043 0.074 0.068 0.159 0.068 0.25h-0.25v0.25h0.25v0.25h-0.25v0.25h0.25v0.25h-0.25v0.25h0.182c-0.044 0.076-0.107 0.139-0.182 0.182v-0.182h-0.25v0.25h-0.25v0.067c-0.076 0.044-0.139 0.107-0.183 0.183h-0.067v0.25c0 0.091 0.025 0.176 0.067 0.25h-0.067v0.25h0.25v-0.067c0.074 0.043 0.159 0.067 0.25 0.067s0.176 0.025 0.25 0.068v0.182h0.182c0.043 0.074 0.068 0.159 0.068 0.25h-0.25v0.25h0.25v0.25h-0.25v0.25h0.25v0.25h-0.25v0.25h0.182c-0.044 0.076-0.107 0.139-0.182 0.182v-0.182h-0.25v0.25h-0.25z"></path>
<path fill="#000000" d="M5.25 8h0.25v0.25h-0.25v-0.25z"></path>
<path fill="#000000" d="M5.5 8.25h0.25v0.25h-0.25v-0.25z"></path>
<path fill="#000000" d="M5.75 8h0.25v0.25h-0.25v-0.25z"></path>
<path fill="#000000" d="M5.25 8.5h0.25v0.25h-0.25v-0.25z"></path>
<path fill="#000000" d="M5.5 8.75h0.25v0.25h-0.25v-0.25z"></path>
<path fill="#000000" d="M5.75 8.5h0.25v0.25h-0.25v-0.25z"></path>
<path fill="#000000" d="M6 8.25h0.25v0.25h-0.25v-0.25z"></path>
<path fill="#000000" d="M6.25 8h0.25v0.25h-0.25v-0.25z"></path>
<path fill="#000000" d="M6.5 8.25h0.25v0.25h-0.25v-0.25z"></path>
<path fill="#000000" d="M6.75 8h0.25v0.25h-0.25v-0.25z"></path>
<path fill="#000000" d="M6 8.75h0.25v0.25h-0.25v-0.25z"></path>
<path fill="#000000" d="M6.25 8.5h0.25v0.25h-0.25v-0.25z"></path>
<path fill="#000000" d="M6.5 8.75h0.25v0.25h-0.25v-0.25z"></path>
<path fill="#000000" d="M6.75 8.5h0.25v0.25h-0.25v-0.25z"></path>
<path fill="#000000" d="M7 8.25h0.25v0.25h-0.25v-0.25z"></path>
<path fill="#000000" d="M7.25 8h0.25v0.25h-0.25v-0.25z"></path>
<path fill="#000000" d="M7.5 8.25h0.25v0.25h-0.25v-0.25z"></path>
<path fill="#000000" d="M7.75 8h0.25v0.25h-0.25v-0.25z"></path>
<path fill="#000000" d="M7 8.75h0.25v0.25h-0.25v-0.25z"></path>
<path fill="#000000" d="M7.25 8.5h0.25v0.25h-0.25v-0.25z"></path>
<path fill="#000000" d="M7.5 8.75h0.25v0.25h-0.25v-0.25z"></path>
<path fill="#000000" d="M7.75 8.5h0.25v0.25h-0.25v-0.25z"></path>
<path fill="#000000" d="M6 9.25h0.25v0.25h-0.25v-0.25z"></path>
<path fill="#000000" d="M6.25 9h0.25v0.25h-0.25v-0.25z"></path>
<path fill="#000000" d="M6.5 9.25h0.25v0.25h-0.25v-0.25z"></path>
<path fill="#000000" d="M6.75 9h0.25v0.25h-0.25v-0.25z"></path>
<path fill="#000000" d="M6 9.75h0.25v0.25h-0.25v-0.25z"></path>
<path fill="#000000" d="M6.25 9.5h0.25v0.25h-0.25v-0.25z"></path>
<path fill="#000000" d="M6.5 9.75h0.25v0.25h-0.25v-0.25z"></path>
<path fill="#000000" d="M6.75 9.5h0.25v0.25h-0.25v-0.25z"></path>
<path fill="#000000" d="M7 9.25h0.25v0.25h-0.25v-0.25z"></path>
<path fill="#000000" d="M7.25 9h0.25v0.25h-0.25v-0.25z"></path>
<path fill="#000000" d="M7.5 9.25h0.25v0.25h-0.25v-0.25z"></path>
<path fill="#000000" d="M7.75 9h0.25v0.25h-0.25v-0.25z"></path>
<path fill="#000000" d="M7 9.75h0.25v0.25h-0.25v-0.25z"></path>
<path fill="#000000" d="M7.25 9.5h0.25v0.25h-0.25v-0.25z"></path>
<path fill="#000000" d="M7.5 9.75h0.25v0.25h-0.25v-0.25z"></path>
<path fill="#000000" d="M7.75 9.5h0.25v0.25h-0.25v-0.25z"></path>
<path fill="#000000" d="M5.5 10.25h0.25v0.25h-0.25v-0.25z"></path>
<path fill="#000000" d="M5.75 10h0.25v0.25h-0.25v-0.25z"></path>
<path fill="#000000" d="M5.25 10.5h0.25v0.25h-0.25v-0.25z"></path>
<path fill="#000000" d="M5.5 10.75h0.25v0.25h-0.25v-0.25z"></path>
<path fill="#000000" d="M5.75 10.5h0.25v0.25h-0.25v-0.25z"></path>
<path fill="#000000" d="M5.25 11h0.25v0.25h-0.25v-0.25z"></path>
<path fill="#000000" d="M5.5 11.25h0.25v0.25h-0.25v-0.25z"></path>
<path fill="#000000" d="M5.75 11h0.25v0.25h-0.25v-0.25z"></path>
<path fill="#000000" d="M5.25 11.5h0.25v0.25h-0.25v-0.25z"></path>
<path fill="#000000" d="M5.5 11.75h0.25v0.25h-0.25v-0.25z"></path>
<path fill="#000000" d="M5.75 11.5h0.25v0.25h-0.25v-0.25z"></path>
<path fill="#000000" d="M6 10.25h0.25v0.25h-0.25v-0.25z"></path>
<path fill="#000000" d="M6.25 10h0.25v0.25h-0.25v-0.25z"></path>
<path fill="#000000" d="M6.5 10.25h0.25v0.25h-0.25v-0.25z"></path>
<path fill="#000000" d="M6.75 10h0.25v0.25h-0.25v-0.25z"></path>
<path fill="#000000" d="M6 10.75h0.25v0.25h-0.25v-0.25z"></path>
<path fill="#000000" d="M6.25 10.5h0.25v0.25h-0.25v-0.25z"></path>
<path fill="#000000" d="M6.5 10.75h0.25v0.25h-0.25v-0.25z"></path>
<path fill="#000000" d="M6.75 10.5h0.25v0.25h-0.25v-0.25z"></path>
<path fill="#000000" d="M7 10.25h0.25v0.25h-0.25v-0.25z"></path>
<path fill="#000000" d="M7.25 10h0.25v0.25h-0.25v-0.25z"></path>
<path fill="#000000" d="M7.5 10.25h0.25v0.25h-0.25v-0.25z"></path>
<path fill="#000000" d="M7.75 10h0.25v0.25h-0.25v-0.25z"></path>
<path fill="#000000" d="M7 10.75h0.25v0.25h-0.25v-0.25z"></path>
<path fill="#000000" d="M7.25 10.5h0.25v0.25h-0.25v-0.25z"></path>
<path fill="#000000" d="M7.5 10.75h0.25v0.25h-0.25v-0.25z"></path>
<path fill="#000000" d="M7.75 10.5h0.25v0.25h-0.25v-0.25z"></path>
<path fill="#000000" d="M6 11.25h0.25v0.25h-0.25v-0.25z"></path>
<path fill="#000000" d="M6.25 11h0.25v0.25h-0.25v-0.25z"></path>
<path fill="#000000" d="M6.5 11.25h0.25v0.25h-0.25v-0.25z"></path>
<path fill="#000000" d="M6.75 11h0.25v0.25h-0.25v-0.25z"></path>
<path fill="#000000" d="M6 11.75h0.25v0.25h-0.25v-0.25z"></path>
<path fill="#000000" d="M6.25 11.5h0.25v0.25h-0.25v-0.25z"></path>
<path fill="#000000" d="M6.5 11.75h0.25v0.25h-0.25v-0.25z"></path>
<path fill="#000000" d="M6.75 11.5h0.25v0.25h-0.25v-0.25z"></path>
<path fill="#000000" d="M7 11.25h0.25v0.25h-0.25v-0.25z"></path>
<path fill="#000000" d="M7.25 11h0.25v0.25h-0.25v-0.25z"></path>
<path fill="#000000" d="M7.5 11.25h0.25v0.25h-0.25v-0.25z"></path>
<path fill="#000000" d="M7.75 11h0.25v0.25h-0.25v-0.25z"></path>
<path fill="#000000" d="M7 11.75h0.25v0.25h-0.25v-0.25z"></path>
<path fill="#000000" d="M7.25 11.5h0.25v0.25h-0.25v-0.25z"></path>
<path fill="#000000" d="M7.5 11.75h0.25v0.25h-0.25v-0.25z"></path>
<path fill="#000000" d="M7.75 11.5h0.25v0.25h-0.25v-0.25z"></path>
<path fill="#000000" d="M5.5 13.25h0.25v0.25h-0.25v-0.25z"></path>
<path fill="#000000" d="M5.75 13h0.25v0.25h-0.25v-0.25z"></path>
<path fill="#000000" d="M5.25 13.5h0.25v0.25h-0.25v-0.25z"></path>
<path fill="#000000" d="M5.5 13.75h0.25v0.25h-0.25v-0.25z"></path>
<path fill="#000000" d="M5.75 13.5h0.25v0.25h-0.25v-0.25z"></path>
<path fill="#000000" d="M6 12.25h0.25v0.25h-0.25v-0.25z"></path>
<path fill="#000000" d="M6.25 12h0.25v0.25h-0.25v-0.25z"></path>
<path fill="#000000" d="M6.5 12.25h0.25v0.25h-0.25v-0.25z"></path>
<path fill="#000000" d="M6.75 12h0.25v0.25h-0.25v-0.25z"></path>
<path fill="#000000" d="M6 12.75h0.25v0.25h-0.25v-0.25z"></path>
<path fill="#000000" d="M6.25 12.5h0.25v0.25h-0.25v-0.25z"></path>
<path fill="#000000" d="M6.5 12.75h0.25v0.25h-0.25v-0.25z"></path>
<path fill="#000000" d="M6.75 12.5h0.25v0.25h-0.25v-0.25z"></path>
<path fill="#000000" d="M7 12.25h0.25v0.25h-0.25v-0.25z"></path>
<path fill="#000000" d="M7.25 12h0.25v0.25h-0.25v-0.25z"></path>
<path fill="#000000" d="M7.5 12.25h0.25v0.25h-0.25v-0.25z"></path>
<path fill="#000000" d="M7.75 12h0.25v0.25h-0.25v-0.25z"></path>
<path fill="#000000" d="M7 12.75h0.25v0.25h-0.25v-0.25z"></path>
<path fill="#000000" d="M7.25 12.5h0.25v0.25h-0.25v-0.25z"></path>
<path fill="#000000" d="M7.5 12.75h0.25v0.25h-0.25v-0.25z"></path>
<path fill="#000000" d="M7.75 12.5h0.25v0.25h-0.25v-0.25z"></path>
<path fill="#000000" d="M6 13.25h0.25v0.25h-0.25v-0.25z"></path>
<path fill="#000000" d="M6.25 13h0.25v0.25h-0.25v-0.25z"></path>
<path fill="#000000" d="M6.5 13.25h0.25v0.25h-0.25v-0.25z"></path>
<path fill="#000000" d="M6.75 13h0.25v0.25h-0.25v-0.25z"></path>
<path fill="#000000" d="M6 13.75h0.25v0.25h-0.25v-0.25z"></path>
<path fill="#000000" d="M6.25 13.5h0.25v0.25h-0.25v-0.25z"></path>
<path fill="#000000" d="M6.5 13.75h0.25v0.25h-0.25v-0.25z"></path>
<path fill="#000000" d="M6.75 13.5h0.25v0.25h-0.25v-0.25z"></path>
<path fill="#000000" d="M7 13.25h0.25v0.25h-0.25v-0.25z"></path>
<path fill="#000000" d="M7.25 13h0.25v0.25h-0.25v-0.25z"></path>
<path fill="#000000" d="M7.5 13.25h0.25v0.25h-0.25v-0.25z"></path>
<path fill="#000000" d="M7.75 13h0.25v0.25h-0.25v-0.25z"></path>
<path fill="#000000" d="M7 13.75h0.25v0.25h-0.25v-0.25z"></path>
<path fill="#000000" d="M7.25 13.5h0.25v0.25h-0.25v-0.25z"></path>
<path fill="#000000" d="M7.5 13.75h0.25v0.25h-0.25v-0.25z"></path>
<path fill="#000000" d="M7.75 13.5h0.25v0.25h-0.25v-0.25z"></path>
<path fill="#000000" d="M5.25 14h0.25v0.25h-0.25v-0.25z"></path>
<path fill="#000000" d="M5.5 14.25h0.25v0.25h-0.25v-0.25z"></path>
<path fill="#000000" d="M5.75 14h0.25v0.25h-0.25v-0.25z"></path>
<path fill="#000000" d="M5.25 14.5h0.25v0.25h-0.25v-0.25z"></path>
<path fill="#000000" d="M5.75 14.5h0.25v0.25h-0.25v-0.25z"></path>
<path fill="#000000" d="M6 14.25h0.25v0.25h-0.25v-0.25z"></path>
<path fill="#000000" d="M6.25 14h0.25v0.25h-0.25v-0.25z"></path>
<path fill="#000000" d="M6.5 14.25h0.25v0.25h-0.25v-0.25z"></path>
<path fill="#000000" d="M6.75 14h0.25v0.25h-0.25v-0.25z"></path>
<path fill="#000000" d="M6.25 14.5h0.25v0.25h-0.25v-0.25z"></path>
<path fill="#000000" d="M6.75 14.5h0.25v0.25h-0.25v-0.25z"></path>
<path fill="#000000" d="M7 14.25h0.25v0.25h-0.25v-0.25z"></path>
<path fill="#000000" d="M7.25 14h0.25v0.25h-0.25v-0.25z"></path>
<path fill="#000000" d="M7.5 14.25h0.25v0.25h-0.25v-0.25z"></path>
<path fill="#000000" d="M7.75 14h0.25v0.25h-0.25v-0.25z"></path>
<path fill="#000000" d="M7.25 14.5h0.25v0.25h-0.25v-0.25z"></path>
<path fill="#000000" d="M7.75 14.5h0.25v0.25h-0.25v-0.25z"></path>
<path fill="#000000" d="M8 8.25h0.25v0.25h-0.25v-0.25z"></path>
<path fill="#000000" d="M8.25 8h0.25v0.25h-0.25v-0.25z"></path>
<path fill="#000000" d="M8.5 8.25h0.25v0.25h-0.25v-0.25z"></path>
<path fill="#000000" d="M8.75 8h0.25v0.25h-0.25v-0.25z"></path>
<path fill="#000000" d="M8 8.75h0.25v0.25h-0.25v-0.25z"></path>
<path fill="#000000" d="M8.25 8.5h0.25v0.25h-0.25v-0.25z"></path>
<path fill="#000000" d="M8.5 8.75h0.25v0.25h-0.25v-0.25z"></path>
<path fill="#000000" d="M8.75 8.5h0.25v0.25h-0.25v-0.25z"></path>
<path fill="#000000" d="M9 8.25h0.25v0.25h-0.25v-0.25z"></path>
<path fill="#000000" d="M9.25 8h0.25v0.25h-0.25v-0.25z"></path>
<path fill="#000000" d="M9.5 8.25h0.25v0.25h-0.25v-0.25z"></path>
<path fill="#000000" d="M9.75 8h0.25v0.25h-0.25v-0.25z"></path>
<path fill="#000000" d="M9 8.75h0.25v0.25h-0.25v-0.25z"></path>
<path fill="#000000" d="M9.25 8.5h0.25v0.25h-0.25v-0.25z"></path>
<path fill="#000000" d="M9.5 8.75h0.25v0.25h-0.25v-0.25z"></path>
<path fill="#000000" d="M9.75 8.5h0.25v0.25h-0.25v-0.25z"></path>
<path fill="#000000" d="M8 9.25h0.25v0.25h-0.25v-0.25z"></path>
<path fill="#000000" d="M8.25 9h0.25v0.25h-0.25v-0.25z"></path>
<path fill="#000000" d="M8.5 9.25h0.25v0.25h-0.25v-0.25z"></path>
<path fill="#000000" d="M8.75 9h0.25v0.25h-0.25v-0.25z"></path>
<path fill="#000000" d="M8 9.75h0.25v0.25h-0.25v-0.25z"></path>
<path fill="#000000" d="M8.25 9.5h0.25v0.25h-0.25v-0.25z"></path>
<path fill="#000000" d="M8.5 9.75h0.25v0.25h-0.25v-0.25z"></path>
<path fill="#000000" d="M8.75 9.5h0.25v0.25h-0.25v-0.25z"></path>
<path fill="#000000" d="M9 9.25h0.25v0.25h-0.25v-0.25z"></path>
<path fill="#000000" d="M9.25 9h0.25v0.25h-0.25v-0.25z"></path>
<path fill="#000000" d="M9.5 9.25h0.25v0.25h-0.25v-0.25z"></path>
<path fill="#000000" d="M9.75 9h0.25v0.25h-0.25v-0.25z"></path>
<path fill="#000000" d="M9 9.75h0.25v0.25h-0.25v-0.25z"></path>
<path fill="#000000" d="M9.25 9.5h0.25v0.25h-0.25v-0.25z"></path>
<path fill="#000000" d="M9.5 9.75h0.25v0.25h-0.25v-0.25z"></path>
<path fill="#000000" d="M9.75 9.5h0.25v0.25h-0.25v-0.25z"></path>
<path fill="#000000" d="M10 8.25h0.25v0.25h-0.25v-0.25z"></path>
<path fill="#000000" d="M10.25 8h0.25v0.25h-0.25v-0.25z"></path>
<path fill="#000000" d="M10.5 8.25h0.25v0.25h-0.25v-0.25z"></path>
<path fill="#000000" d="M10 8.75h0.25v0.25h-0.25v-0.25z"></path>
<path fill="#000000" d="M10.25 8.5h0.25v0.25h-0.25v-0.25z"></path>
<path fill="#000000" d="M8 10.25h0.25v0.25h-0.25v-0.25z"></path>
<path fill="#000000" d="M8.25 10h0.25v0.25h-0.25v-0.25z"></path>
<path fill="#000000" d="M8.5 10.25h0.25v0.25h-0.25v-0.25z"></path>
<path fill="#000000" d="M8.75 10h0.25v0.25h-0.25v-0.25z"></path>
<path fill="#000000" d="M8 10.75h0.25v0.25h-0.25v-0.25z"></path>
<path fill="#000000" d="M8.25 10.5h0.25v0.25h-0.25v-0.25z"></path>
<path fill="#000000" d="M8.5 10.75h0.25v0.25h-0.25v-0.25z"></path>
<path fill="#000000" d="M8.75 10.5h0.25v0.25h-0.25v-0.25z"></path>
<path fill="#000000" d="M9 10.25h0.25v0.25h-0.25v-0.25z"></path>
<path fill="#000000" d="M9.25 10h0.25v0.25h-0.25v-0.25z"></path>
<path fill="#000000" d="M9.5 10.25h0.25v0.25h-0.25v-0.25z"></path>
<path fill="#000000" d="M9.75 10h0.25v0.25h-0.25v-0.25z"></path>
<path fill="#000000" d="M9 10.75h0.25v0.25h-0.25v-0.25z"></path>
<path fill="#000000" d="M9.25 10.5h0.25v0.25h-0.25v-0.25z"></path>
<path fill="#000000" d="M9.5 10.75h0.25v0.25h-0.25v-0.25z"></path>
<path fill="#000000" d="M9.75 10.5h0.25v0.25h-0.25v-0.25z"></path>
<path fill="#000000" d="M8 11.25h0.25v0.25h-0.25v-0.25z"></path>
<path fill="#000000" d="M8.25 11h0.25v0.25h-0.25v-0.25z"></path>
<path fill="#000000" d="M8.5 11.25h0.25v0.25h-0.25v-0.25z"></path>
<path fill="#000000" d="M8.75 11h0.25v0.25h-0.25v-0.25z"></path>
<path fill="#000000" d="M8 11.75h0.25v0.25h-0.25v-0.25z"></path>
<path fill="#000000" d="M8.25 11.5h0.25v0.25h-0.25v-0.25z"></path>
<path fill="#000000" d="M8.5 11.75h0.25v0.25h-0.25v-0.25z"></path>
<path fill="#000000" d="M8.75 11.5h0.25v0.25h-0.25v-0.25z"></path>
<path fill="#000000" d="M9 11.25h0.25v0.25h-0.25v-0.25z"></path>
<path fill="#000000" d="M9.25 11h0.25v0.25h-0.25v-0.25z"></path>
<path fill="#000000" d="M9.5 11.25h0.25v0.25h-0.25v-0.25z"></path>
<path fill="#000000" d="M9.75 11h0.25v0.25h-0.25v-0.25z"></path>
<path fill="#000000" d="M9 11.75h0.25v0.25h-0.25v-0.25z"></path>
<path fill="#000000" d="M9.25 11.5h0.25v0.25h-0.25v-0.25z"></path>
<path fill="#000000" d="M9.5 11.75h0.25v0.25h-0.25v-0.25z"></path>
<path fill="#000000" d="M9.75 11.5h0.25v0.25h-0.25v-0.25z"></path>
<path fill="#000000" d="M10 10.25h0.25v0.25h-0.25v-0.25z"></path>
<path fill="#000000" d="M10.25 10h0.25v0.25h-0.25v-0.25z"></path>
<path fill="#000000" d="M10.5 10.25h0.25v0.25h-0.25v-0.25z"></path>
<path fill="#000000" d="M10 10.75h0.25v0.25h-0.25v-0.25z"></path>
<path fill="#000000" d="M10.25 10.5h0.25v0.25h-0.25v-0.25z"></path>
<path fill="#000000" d="M10.5 10.75h0.25v0.25h-0.25v-0.25z"></path>
<path fill="#000000" d="M10 11.25h0.25v0.25h-0.25v-0.25z"></path>
<path fill="#000000" d="M10.25 11h0.25v0.25h-0.25v-0.25z"></path>
<path fill="#000000" d="M10.5 11.25h0.25v0.25h-0.25v-0.25z"></path>
<path fill="#000000" d="M10 11.75h0.25v0.25h-0.25v-0.25z"></path>
<path fill="#000000" d="M10.25 11.5h0.25v0.25h-0.25v-0.25z"></path>
<path fill="#000000" d="M8 12.25h0.25v0.25h-0.25v-0.25z"></path>
<path fill="#000000" d="M8.25 12h0.25v0.25h-0.25v-0.25z"></path>
<path fill="#000000" d="M8.5 12.25h0.25v0.25h-0.25v-0.25z"></path>
<path fill="#000000" d="M8.75 12h0.25v0.25h-0.25v-0.25z"></path>
<path fill="#000000" d="M8 12.75h0.25v0.25h-0.25v-0.25z"></path>
<path fill="#000000" d="M8.25 12.5h0.25v0.25h-0.25v-0.25z"></path>
<path fill="#000000" d="M8.5 12.75h0.25v0.25h-0.25v-0.25z"></path>
<path fill="#000000" d="M8.75 12.5h0.25v0.25h-0.25v-0.25z"></path>
<path fill="#000000" d="M9 12.25h0.25v0.25h-0.25v-0.25z"></path>
<path fill="#000000" d="M9.25 12h0.25v0.25h-0.25v-0.25z"></path>
<path fill="#000000" d="M9.5 12.25h0.25v0.25h-0.25v-0.25z"></path>
<path fill="#000000" d="M9.75 12h0.25v0.25h-0.25v-0.25z"></path>
<path fill="#000000" d="M9 12.75h0.25v0.25h-0.25v-0.25z"></path>
<path fill="#000000" d="M9.25 12.5h0.25v0.25h-0.25v-0.25z"></path>
<path fill="#000000" d="M9.5 12.75h0.25v0.25h-0.25v-0.25z"></path>
<path fill="#000000" d="M9.75 12.5h0.25v0.25h-0.25v-0.25z"></path>
<path fill="#000000" d="M8 13.25h0.25v0.25h-0.25v-0.25z"></path>
<path fill="#000000" d="M8.25 13h0.25v0.25h-0.25v-0.25z"></path>
<path fill="#000000" d="M8.5 13.25h0.25v0.25h-0.25v-0.25z"></path>
<path fill="#000000" d="M8.75 13h0.25v0.25h-0.25v-0.25z"></path>
<path fill="#000000" d="M8 13.75h0.25v0.25h-0.25v-0.25z"></path>
<path fill="#000000" d="M8.25 13.5h0.25v0.25h-0.25v-0.25z"></path>
<path fill="#000000" d="M8.5 13.75h0.25v0.25h-0.25v-0.25z"></path>
<path fill="#000000" d="M8.75 13.5h0.25v0.25h-0.25v-0.25z"></path>
<path fill="#000000" d="M9 13.25h0.25v0.25h-0.25v-0.25z"></path>
<path fill="#000000" d="M9.25 13h0.25v0.25h-0.25v-0.25z"></path>
<path fill="#000000" d="M9.5 13.25h0.25v0.25h-0.25v-0.25z"></path>
<path fill="#000000" d="M9.75 13h0.25v0.25h-0.25v-0.25z"></path>
<path fill="#000000" d="M9 13.75h0.25v0.25h-0.25v-0.25z"></path>
<path fill="#000000" d="M9.25 13.5h0.25v0.25h-0.25v-0.25z"></path>
<path fill="#000000" d="M9.5 13.75h0.25v0.25h-0.25v-0.25z"></path>
<path fill="#000000" d="M9.75 13.5h0.25v0.25h-0.25v-0.25z"></path>
<path fill="#000000" d="M10 13.25h0.25v0.25h-0.25v-0.25z"></path>
<path fill="#000000" d="M10.25 13h0.25v0.25h-0.25v-0.25z"></path>
<path fill="#000000" d="M10.5 13.25h0.25v0.25h-0.25v-0.25z"></path>
<path fill="#000000" d="M10 13.75h0.25v0.25h-0.25v-0.25z"></path>
<path fill="#000000" d="M10.25 13.5h0.25v0.25h-0.25v-0.25z"></path>
<path fill="#000000" d="M10.5 13.75h0.25v0.25h-0.25v-0.25z"></path>
<path fill="#000000" d="M8 14.25h0.25v0.25h-0.25v-0.25z"></path>
<path fill="#000000" d="M8.25 14h0.25v0.25h-0.25v-0.25z"></path>
<path fill="#000000" d="M8.5 14.25h0.25v0.25h-0.25v-0.25z"></path>
<path fill="#000000" d="M8.75 14h0.25v0.25h-0.25v-0.25z"></path>
<path fill="#000000" d="M8.25 14.5h0.25v0.25h-0.25v-0.25z"></path>
<path fill="#000000" d="M8.75 14.5h0.25v0.25h-0.25v-0.25z"></path>
<path fill="#000000" d="M9 14.25h0.25v0.25h-0.25v-0.25z"></path>
<path fill="#000000" d="M9.25 14h0.25v0.25h-0.25v-0.25z"></path>
<path fill="#000000" d="M9.5 14.25h0.25v0.25h-0.25v-0.25z"></path>
<path fill="#000000" d="M9.75 14h0.25v0.25h-0.25v-0.25z"></path>
<path fill="#000000" d="M9.25 14.5h0.25v0.25h-0.25v-0.25z"></path>
<path fill="#000000" d="M9.75 14.5h0.25v0.25h-0.25v-0.25z"></path>
<path fill="#000000" d="M10 14.25h0.25v0.25h-0.25v-0.25z"></path>
<path fill="#000000" d="M10.25 14h0.25v0.25h-0.25v-0.25z"></path>
<path fill="#000000" d="M10.5 14.25h0.25v0.25h-0.25v-0.25z"></path>
<path fill="#000000" d="M10.25 14.5h0.25v0.25h-0.25v-0.25z"></path>
<path fill="#000000" d="M5.25 5h0.25v0.25h-0.25v-0.25z"></path>
<path fill="#000000" d="M5.5 5.25h0.25v0.25h-0.25v-0.25z"></path>
<path fill="#000000" d="M5.75 5h0.25v0.25h-0.25v-0.25z"></path>
<path fill="#000000" d="M5.25 5.5h0.25v0.25h-0.25v-0.25z"></path>
<path fill="#000000" d="M5.5 5.75h0.25v0.25h-0.25v-0.25z"></path>
<path fill="#000000" d="M5.75 5.5h0.25v0.25h-0.25v-0.25z"></path>
<path fill="#000000" d="M6 5.25h0.25v0.25h-0.25v-0.25z"></path>
<path fill="#000000" d="M6.25 5h0.25v0.25h-0.25v-0.25z"></path>
<path fill="#000000" d="M6.5 5.25h0.25v0.25h-0.25v-0.25z"></path>
<path fill="#000000" d="M6.75 5h0.25v0.25h-0.25v-0.25z"></path>
<path fill="#000000" d="M6 5.75h0.25v0.25h-0.25v-0.25z"></path>
<path fill="#000000" d="M6.25 5.5h0.25v0.25h-0.25v-0.25z"></path>
<path fill="#000000" d="M6.5 5.75h0.25v0.25h-0.25v-0.25z"></path>
<path fill="#000000" d="M6.75 5.5h0.25v0.25h-0.25v-0.25z"></path>
<path fill="#000000" d="M7 5.25h0.25v0.25h-0.25v-0.25z"></path>
<path fill="#000000" d="M7.25 5h0.25v0.25h-0.25v-0.25z"></path>
<path fill="#000000" d="M7.5 5.25h0.25v0.25h-0.25v-0.25z"></path>
<path fill="#000000" d="M7.75 5h0.25v0.25h-0.25v-0.25z"></path>
<path fill="#000000" d="M7 5.75h0.25v0.25h-0.25v-0.25z"></path>
<path fill="#000000" d="M7.25 5.5h0.25v0.25h-0.25v-0.25z"></path>
<path fill="#000000" d="M7.5 5.75h0.25v0.25h-0.25v-0.25z"></path>
<path fill="#000000" d="M7.75 5.5h0.25v0.25h-0.25v-0.25z"></path>
<path fill="#000000" d="M5.5 7.25h0.25v0.25h-0.25v-0.25z"></path>
<path fill="#000000" d="M5.75 7h0.25v0.25h-0.25v-0.25z"></path>
<path fill="#000000" d="M5.25 7.5h0.25v0.25h-0.25v-0.25z"></path>
<path fill="#000000" d="M5.5 7.75h0.25v0.25h-0.25v-0.25z"></path>
<path fill="#000000" d="M5.75 7.5h0.25v0.25h-0.25v-0.25z"></path>
<path fill="#000000" d="M6 6.25h0.25v0.25h-0.25v-0.25z"></path>
<path fill="#000000" d="M6.25 6h0.25v0.25h-0.25v-0.25z"></path>
<path fill="#000000" d="M6.5 6.25h0.25v0.25h-0.25v-0.25z"></path>
<path fill="#000000" d="M6.75 6h0.25v0.25h-0.25v-0.25z"></path>
<path fill="#000000" d="M6 6.75h0.25v0.25h-0.25v-0.25z"></path>
<path fill="#000000" d="M6.25 6.5h0.25v0.25h-0.25v-0.25z"></path>
<path fill="#000000" d="M6.5 6.75h0.25v0.25h-0.25v-0.25z"></path>
<path fill="#000000" d="M6.75 6.5h0.25v0.25h-0.25v-0.25z"></path>
<path fill="#000000" d="M7 6.25h0.25v0.25h-0.25v-0.25z"></path>
<path fill="#000000" d="M7.25 6h0.25v0.25h-0.25v-0.25z"></path>
<path fill="#000000" d="M7.5 6.25h0.25v0.25h-0.25v-0.25z"></path>
<path fill="#000000" d="M7.75 6h0.25v0.25h-0.25v-0.25z"></path>
<path fill="#000000" d="M7 6.75h0.25v0.25h-0.25v-0.25z"></path>
<path fill="#000000" d="M7.25 6.5h0.25v0.25h-0.25v-0.25z"></path>
<path fill="#000000" d="M7.5 6.75h0.25v0.25h-0.25v-0.25z"></path>
<path fill="#000000" d="M7.75 6.5h0.25v0.25h-0.25v-0.25z"></path>
<path fill="#000000" d="M6 7.25h0.25v0.25h-0.25v-0.25z"></path>
<path fill="#000000" d="M6.25 7h0.25v0.25h-0.25v-0.25z"></path>
<path fill="#000000" d="M6.5 7.25h0.25v0.25h-0.25v-0.25z"></path>
<path fill="#000000" d="M6.75 7h0.25v0.25h-0.25v-0.25z"></path>
<path fill="#000000" d="M6 7.75h0.25v0.25h-0.25v-0.25z"></path>
<path fill="#000000" d="M6.25 7.5h0.25v0.25h-0.25v-0.25z"></path>
<path fill="#000000" d="M6.5 7.75h0.25v0.25h-0.25v-0.25z"></path>
<path fill="#000000" d="M6.75 7.5h0.25v0.25h-0.25v-0.25z"></path>
<path fill="#000000" d="M7 7.25h0.25v0.25h-0.25v-0.25z"></path>
<path fill="#000000" d="M7.25 7h0.25v0.25h-0.25v-0.25z"></path>
<path fill="#000000" d="M7.5 7.25h0.25v0.25h-0.25v-0.25z"></path>
<path fill="#000000" d="M7.75 7h0.25v0.25h-0.25v-0.25z"></path>
<path fill="#000000" d="M7 7.75h0.25v0.25h-0.25v-0.25z"></path>
<path fill="#000000" d="M7.25 7.5h0.25v0.25h-0.25v-0.25z"></path>
<path fill="#000000" d="M7.5 7.75h0.25v0.25h-0.25v-0.25z"></path>
<path fill="#000000" d="M7.75 7.5h0.25v0.25h-0.25v-0.25z"></path>
<path fill="#000000" d="M8 5.25h0.25v0.25h-0.25v-0.25z"></path>
<path fill="#000000" d="M8.25 5h0.25v0.25h-0.25v-0.25z"></path>
<path fill="#000000" d="M8.5 5.25h0.25v0.25h-0.25v-0.25z"></path>
<path fill="#000000" d="M8.75 5h0.25v0.25h-0.25v-0.25z"></path>
<path fill="#000000" d="M8 5.75h0.25v0.25h-0.25v-0.25z"></path>
<path fill="#000000" d="M8.25 5.5h0.25v0.25h-0.25v-0.25z"></path>
<path fill="#000000" d="M8.5 5.75h0.25v0.25h-0.25v-0.25z"></path>
<path fill="#000000" d="M8.75 5.5h0.25v0.25h-0.25v-0.25z"></path>
<path fill="#000000" d="M9 5.25h0.25v0.25h-0.25v-0.25z"></path>
<path fill="#000000" d="M9.25 5h0.25v0.25h-0.25v-0.25z"></path>
<path fill="#000000" d="M9.5 5.25h0.25v0.25h-0.25v-0.25z"></path>
<path fill="#000000" d="M9.75 5h0.25v0.25h-0.25v-0.25z"></path>
<path fill="#000000" d="M9 5.75h0.25v0.25h-0.25v-0.25z"></path>
<path fill="#000000" d="M9.25 5.5h0.25v0.25h-0.25v-0.25z"></path>
<path fill="#000000" d="M9.5 5.75h0.25v0.25h-0.25v-0.25z"></path>
<path fill="#000000" d="M9.75 5.5h0.25v0.25h-0.25v-0.25z"></path>
<path fill="#000000" d="M10 5.25h0.25v0.25h-0.25v-0.25z"></path>
<path fill="#000000" d="M10.25 5h0.25v0.25h-0.25v-0.25z"></path>
<path fill="#000000" d="M10.5 5.25h0.25v0.25h-0.25v-0.25z"></path>
<path fill="#000000" d="M10 5.75h0.25v0.25h-0.25v-0.25z"></path>
<path fill="#000000" d="M10.25 5.5h0.25v0.25h-0.25v-0.25z"></path>
<path fill="#000000" d="M8 6.25h0.25v0.25h-0.25v-0.25z"></path>
<path fill="#000000" d="M8.25 6h0.25v0.25h-0.25v-0.25z"></path>
<path fill="#000000" d="M8.5 6.25h0.25v0.25h-0.25v-0.25z"></path>
<path fill="#000000" d="M8.75 6h0.25v0.25h-0.25v-0.25z"></path>
<path fill="#000000" d="M8 6.75h0.25v0.25h-0.25v-0.25z"></path>
<path fill="#000000" d="M8.25 6.5h0.25v0.25h-0.25v-0.25z"></path>
<path fill="#000000" d="M8.5 6.75h0.25v0.25h-0.25v-0.25z"></path>
<path fill="#000000" d="M8.75 6.5h0.25v0.25h-0.25v-0.25z"></path>
<path fill="#000000" d="M9 6.25h0.25v0.25h-0.25v-0.25z"></path>
<path fill="#000000" d="M9.25 6h0.25v0.25h-0.25v-0.25z"></path>
<path fill="#000000" d="M9.5 6.25h0.25v0.25h-0.25v-0.25z"></path>
<path fill="#000000" d="M9.75 6h0.25v0.25h-0.25v-0.25z"></path>
<path fill="#000000" d="M9 6.75h0.25v0.25h-0.25v-0.25z"></path>
<path fill="#000000" d="M9.25 6.5h0.25v0.25h-0.25v-0.25z"></path>
<path fill="#000000" d="M9.5 6.75h0.25v0.25h-0.25v-0.25z"></path>
<path fill="#000000" d="M9.75 6.5h0.25v0.25h-0.25v-0.25z"></path>
<path fill="#000000" d="M8 7.25h0.25v0.25h-0.25v-0.25z"></path>
<path fill="#000000" d="M8.25 7h0.25v0.25h-0.25v-0.25z"></path>
<path fill="#000000" d="M8.5 7.25h0.25v0.25h-0.25v-0.25z"></path>
<path fill="#000000" d="M8.75 7h0.25v0.25h-0.25v-0.25z"></path>
<path fill="#000000" d="M8 7.75h0.25v0.25h-0.25v-0.25z"></path>
<path fill="#000000" d="M8.25 7.5h0.25v0.25h-0.25v-0.25z"></path>
<path fill="#000000" d="M8.5 7.75h0.25v0.25h-0.25v-0.25z"></path>
<path fill="#000000" d="M8.75 7.5h0.25v0.25h-0.25v-0.25z"></path>
<path fill="#000000" d="M9 7.25h0.25v0.25h-0.25v-0.25z"></path>
<path fill="#000000" d="M9.25 7h0.25v0.25h-0.25v-0.25z"></path>
<path fill="#000000" d="M9.5 7.25h0.25v0.25h-0.25v-0.25z"></path>
<path fill="#000000" d="M9.75 7h0.25v0.25h-0.25v-0.25z"></path>
<path fill="#000000" d="M9 7.75h0.25v0.25h-0.25v-0.25z"></path>
<path fill="#000000" d="M9.25 7.5h0.25v0.25h-0.25v-0.25z"></path>
<path fill="#000000" d="M9.5 7.75h0.25v0.25h-0.25v-0.25z"></path>
<path fill="#000000" d="M9.75 7.5h0.25v0.25h-0.25v-0.25z"></path>
<path fill="#000000" d="M10 7.25h0.25v0.25h-0.25v-0.25z"></path>
<path fill="#000000" d="M10.25 7h0.25v0.25h-0.25v-0.25z"></path>
<path fill="#000000" d="M10.5 7.25h0.25v0.25h-0.25v-0.25z"></path>
<path fill="#000000" d="M10 7.75h0.25v0.25h-0.25v-0.25z"></path>
<path fill="#000000" d="M10.25 7.5h0.25v0.25h-0.25v-0.25z"></path>
<path fill="#000000" d="M10.5 7.75h0.25v0.25h-0.25v-0.25z"></path>
</svg>
