<?xml version="1.0" encoding="utf-8"?>
<!-- Generated by IcoMoon.io -->
<!DOCTYPE svg PUBLIC "-//W3C//DTD SVG 1.1//EN" "http://www.w3.org/Graphics/SVG/1.1/DTD/svg11.dtd">
<svg version="1.1" xmlns="http://www.w3.org/2000/svg" xmlns:xlink="http://www.w3.org/1999/xlink" width="16" height="16" viewBox="0 0 16 16">
<path fill="#000000" d="M14.331 2.783c-0.151-0.186-0.412-0.239-0.624-0.126l-4.394 2.344h-2.625l-4.394-2.344c-0.211-0.113-0.473-0.060-0.624 0.126-1.077 1.329-1.669 3.004-1.669 4.717s0.593 3.388 1.669 4.717c0.098 0.121 0.242 0.185 0.389 0.185 0.080 0 0.161-0.019 0.235-0.059l4.394-2.344h2.625l4.394 2.344c0.074 0.040 0.155 0.059 0.235 0.059 0.147 0 0.291-0.065 0.389-0.185 1.077-1.329 1.669-3.004 1.669-4.717s-0.593-3.388-1.669-4.717zM2.199 11.261c-0.679-0.958-1.088-2.089-1.179-3.261h2.481c0.276 0 0.5-0.224 0.5-0.5s-0.224-0.5-0.5-0.5h-2.481c0.091-1.171 0.5-2.303 1.179-3.261l3.801 2.027v3.467l-3.801 2.027zM13.801 11.261l-3.801-2.027v-3.467l3.801-2.027c0.679 0.958 1.088 2.089 1.179 3.261h-2.481c-0.276 0-0.5 0.224-0.5 0.5s0.224 0.5 0.5 0.5h2.481c-0.091 1.171-0.5 2.303-1.179 3.261z"></path>
</svg>
