<?xml version="1.0" encoding="utf-8"?>
<!-- Generated by IcoMoon.io -->
<!DOCTYPE svg PUBLIC "-//W3C//DTD SVG 1.1//EN" "http://www.w3.org/Graphics/SVG/1.1/DTD/svg11.dtd">
<svg version="1.1" xmlns="http://www.w3.org/2000/svg" xmlns:xlink="http://www.w3.org/1999/xlink" width="16" height="16" viewBox="0 0 16 16">
<path fill="#000000" d="M13 2h-9c-0.816 0-1.556 0.327-2.097 0.857l-0-0-1.070 1.071c-0.516 0.539-0.833 1.269-0.833 2.072 0 0.874 0.382 1.678 1 2.233v7.267c0 0.276 0.224 0.5 0.5 0.5h12c0 0 0 0 0 0 0.138 0 0.263-0.056 0.354-0.147l0.999-0.999c0.091-0.091 0.147-0.216 0.147-0.354v-7.267c0.618-0.555 1-1.359 1-2.233 0-1.654-1.346-3-3-3zM12.401 7.96c-0.271 0.055-0.445 0.319-0.391 0.589 0.048 0.237 0.257 0.401 0.489 0.401 0.033 0 0.066-0.003 0.1-0.010 0.137-0.028 0.271-0.066 0.401-0.111v6.171h-11v-6.172c0.128 0.045 0.26 0.083 0.396 0.111 0.271 0.055 0.535-0.119 0.59-0.39s-0.119-0.535-0.39-0.59c-0.214-0.044-0.415-0.122-0.596-0.227v-0c-0.603-0.35-1-1.005-1-1.732 0-1.103 0.897-2 2-2h9c1.103 0 2 0.897 2 2 0 0.948-0.673 1.772-1.599 1.96z"></path>
<path fill="#000000" d="M4 5.5c0 0.276-0.224 0.5-0.5 0.5s-0.5-0.224-0.5-0.5c0-0.276 0.224-0.5 0.5-0.5s0.5 0.224 0.5 0.5z"></path>
<path fill="#000000" d="M4 13.5c0 0.276-0.224 0.5-0.5 0.5s-0.5-0.224-0.5-0.5c0-0.276 0.224-0.5 0.5-0.5s0.5 0.224 0.5 0.5z"></path>
<path fill="#000000" d="M7 6.5c0 0.276-0.224 0.5-0.5 0.5s-0.5-0.224-0.5-0.5c0-0.276 0.224-0.5 0.5-0.5s0.5 0.224 0.5 0.5z"></path>
<path fill="#000000" d="M5 10.5c0 0.276-0.224 0.5-0.5 0.5s-0.5-0.224-0.5-0.5c0-0.276 0.224-0.5 0.5-0.5s0.5 0.224 0.5 0.5z"></path>
<path fill="#000000" d="M8 9.5c0 0.276-0.224 0.5-0.5 0.5s-0.5-0.224-0.5-0.5c0-0.276 0.224-0.5 0.5-0.5s0.5 0.224 0.5 0.5z"></path>
<path fill="#000000" d="M11 10.5c0 0.276-0.224 0.5-0.5 0.5s-0.5-0.224-0.5-0.5c0-0.276 0.224-0.5 0.5-0.5s0.5 0.224 0.5 0.5z"></path>
<path fill="#000000" d="M10 7.5c0 0.276-0.224 0.5-0.5 0.5s-0.5-0.224-0.5-0.5c0-0.276 0.224-0.5 0.5-0.5s0.5 0.224 0.5 0.5z"></path>
<path fill="#000000" d="M8 12.5c0 0.276-0.224 0.5-0.5 0.5s-0.5-0.224-0.5-0.5c0-0.276 0.224-0.5 0.5-0.5s0.5 0.224 0.5 0.5z"></path>
<path fill="#000000" d="M12 13.5c0 0.276-0.224 0.5-0.5 0.5s-0.5-0.224-0.5-0.5c0-0.276 0.224-0.5 0.5-0.5s0.5 0.224 0.5 0.5z"></path>
<path fill="#000000" d="M12 5.5c0 0.276-0.224 0.5-0.5 0.5s-0.5-0.224-0.5-0.5c0-0.276 0.224-0.5 0.5-0.5s0.5 0.224 0.5 0.5z"></path>
</svg>
