<?xml version="1.0" encoding="utf-8"?>
<!-- Generated by IcoMoon.io -->
<!DOCTYPE svg PUBLIC "-//W3C//DTD SVG 1.1//EN" "http://www.w3.org/Graphics/SVG/1.1/DTD/svg11.dtd">
<svg version="1.1" xmlns="http://www.w3.org/2000/svg" xmlns:xlink="http://www.w3.org/1999/xlink" width="18" height="16" viewBox="0 0 18 16">
<path fill="#000000" d="M12 0c1.1 0 2 0.9 2 2v5c0 1.1-0.9 2-2 2h-9l-3 3v-10c0-1.1 0.9-2 2-2h10zM16 3c1.1 0 2 0.9 2 2v11l-3-3h-9c-1.1 0-2-0.9-2-2v-1h2v0.996c0.001 0.001 0.002 0.003 0.004 0.004h9.996v-5.996c-0.001-0.001-0.002-0.003-0.004-0.004h-0.996v-2h1z"></path>
</svg>
