<?xml version="1.0" encoding="utf-8"?>
<!-- Generated by IcoMoon.io -->
<!DOCTYPE svg PUBLIC "-//W3C//DTD SVG 1.1//EN" "http://www.w3.org/Graphics/SVG/1.1/DTD/svg11.dtd">
<svg version="1.1" xmlns="http://www.w3.org/2000/svg" xmlns:xlink="http://www.w3.org/1999/xlink" width="16" height="16" viewBox="0 0 16 16">
<path fill="#000000" d="M8 1c-4.418 0-8 2.91-8 6.5 0 2.040 1.157 3.86 2.966 5.052 0.022 0.146 0.034 0.296 0.034 0.448 0 1.092-0.929 2.048-2 2.572v0.421c1.983-0.045 4.034-0.353 5.753-2.072 0.406 0.052 0.823 0.079 1.247 0.079 4.418 0 8-2.91 8-6.5s-3.582-6.5-8-6.5zM9 11h-2v-2h2v2zM9 8h-2v-4h2v4z"></path>
</svg>
