<?xml version="1.0" encoding="utf-8"?>
<!-- Generated by IcoMoon.io -->
<!DOCTYPE svg PUBLIC "-//W3C//DTD SVG 1.1//EN" "http://www.w3.org/Graphics/SVG/1.1/DTD/svg11.dtd">
<svg version="1.1" xmlns="http://www.w3.org/2000/svg" xmlns:xlink="http://www.w3.org/1999/xlink" width="16" height="16" viewBox="0 0 16 16">
<path fill="#000000" d="M14.5 0h-13c-0.825 0-1.5 0.675-1.5 1.5v9c0 0.825 0.675 1.5 1.5 1.5h2.5v4l4.8-4h5.7c0.825 0 1.5-0.675 1.5-1.5v-9c0-0.825-0.675-1.5-1.5-1.5zM3.132 2.082c0.138 0.641 0.427 1.23 0.877 1.719 0.967 1.050 2.459 1.401 3.987 1.092v-3.392l4.5 4.5-4.5 4.5v-3.5c-2.759 0-4.996-1.791-4.996-4 0-0.316 0.046-0.623 0.132-0.918z"></path>
</svg>
