<?xml version="1.0" encoding="utf-8"?>
<!-- Generated by IcoMoon.io -->
<!DOCTYPE svg PUBLIC "-//W3C//DTD SVG 1.1//EN" "http://www.w3.org/Graphics/SVG/1.1/DTD/svg11.dtd">
<svg version="1.1" xmlns="http://www.w3.org/2000/svg" xmlns:xlink="http://www.w3.org/1999/xlink" width="16" height="16" viewBox="0 0 16 16">
<path fill="#000000" d="M9 8c0 0.552-0.448 1-1 1s-1-0.448-1-1c0-0.552 0.448-1 1-1s1 0.448 1 1z"></path>
<path fill="#000000" d="M9 3h-2c-0.551 0-1 0.449-1 1v1h4v-1c0-0.551-0.449-1-1-1z"></path>
<path fill="#000000" d="M14.5 0h-13c-0.825 0-1.5 0.675-1.5 1.5v9c0 0.825 0.675 1.5 1.5 1.5h2.5v4l4.8-4h5.7c0.825 0 1.5-0.675 1.5-1.5v-9c0-0.825-0.675-1.5-1.5-1.5zM12 9.25c0 0.412-0.338 0.75-0.75 0.75h-6.5c-0.412 0-0.75-0.338-0.75-0.75v-3.5c0-0.412 0.338-0.75 0.75-0.75h0.25v-1c0-1.103 0.897-2 2-2h2c1.103 0 2 0.897 2 2v1h0.25c0.412 0 0.75 0.338 0.75 0.75v3.5z"></path>
</svg>
