<?xml version="1.0" encoding="utf-8"?>
<!-- Generated by IcoMoon.io -->
<!DOCTYPE svg PUBLIC "-//W3C//DTD SVG 1.1//EN" "http://www.w3.org/Graphics/SVG/1.1/DTD/svg11.dtd">
<svg version="1.1" xmlns="http://www.w3.org/2000/svg" xmlns:xlink="http://www.w3.org/1999/xlink" width="16" height="16" viewBox="0 0 16 16">
<path fill="#000000" d="M13.265 5.651c-0.312-0.134-0.745-0.252-1.287-0.35-1.067-0.194-2.48-0.301-3.979-0.301s-2.911 0.107-3.979 0.301c-0.542 0.099-0.975 0.216-1.287 0.35-0.488 0.21-0.735 0.495-0.735 0.849 0 0.047 0.005 0.092 0.013 0.136l0.988 7.902c0.034 0.703 0.988 0.997 1.709 1.157 0.885 0.197 2.053 0.305 3.29 0.305s2.406-0.108 3.29-0.305c0.721-0.16 1.675-0.454 1.709-1.157l0.988-7.902c0.009-0.044 0.013-0.090 0.013-0.136 0-0.354-0.247-0.639-0.735-0.849zM4.539 6.228c0.964-0.147 2.193-0.228 3.461-0.228s2.497 0.081 3.461 0.228c0.601 0.092 0.984 0.191 1.223 0.272-0.239 0.081-0.622 0.18-1.223 0.272-0.964 0.147-2.193 0.228-3.461 0.228s-2.497-0.081-3.461-0.228c-0.601-0.092-0.984-0.191-1.223-0.272 0.239-0.081 0.622-0.18 1.223-0.272zM12.010 14.388c-0.087 0.063-0.387 0.235-1.227 0.39-0.776 0.143-1.764 0.222-2.783 0.222s-2.007-0.079-2.783-0.222c-0.84-0.155-1.14-0.326-1.227-0.39l-0.862-6.898c0.252 0.077 0.551 0.147 0.894 0.209 0.301 0.055 0.629 0.102 0.979 0.143v2.158c0 0.552 0.448 1 1 1s1-0.448 1-1v-2.016c0.327 0.011 0.661 0.016 1 0.016v4.5c0 0.276 0.224 0.5 0.5 0.5s0.5-0.224 0.5-0.5v-4.516c0.343-0.011 0.677-0.028 1-0.051v1.567c0 0.276 0.224 0.5 0.5 0.5s0.5-0.224 0.5-0.5v-1.658c0.35-0.040 0.678-0.088 0.979-0.143 0.343-0.062 0.642-0.132 0.894-0.209l-0.862 6.898z"></path>
<path fill="#000000" d="M13.696 2.040c-0.549-0.656-1.284-1.16-2.184-1.498-0.959-0.36-2.141-0.542-3.512-0.542s-2.552 0.182-3.511 0.542c-0.9 0.338-1.635 0.842-2.184 1.498-0.89 1.063-1.304 2.48-1.304 4.46 0 0.276 0.224 0.5 0.5 0.5s0.5-0.224 0.5-0.5c0-1.732 0.34-2.945 1.071-3.818 0.443-0.53 1.022-0.923 1.769-1.203 0.847-0.318 1.91-0.478 3.16-0.478s2.314 0.161 3.16 0.478c0.747 0.28 1.325 0.674 1.769 1.203 0.731 0.873 1.071 2.086 1.071 3.818 0 0.276 0.224 0.5 0.5 0.5s0.5-0.224 0.5-0.5c0-1.98-0.414-3.397-1.304-4.46z"></path>
</svg>
