<?xml version="1.0" encoding="utf-8"?>
<!-- Generated by IcoMoon.io -->
<!DOCTYPE svg PUBLIC "-//W3C//DTD SVG 1.1//EN" "http://www.w3.org/Graphics/SVG/1.1/DTD/svg11.dtd">
<svg version="1.1" xmlns="http://www.w3.org/2000/svg" xmlns:xlink="http://www.w3.org/1999/xlink" width="16" height="16" viewBox="0 0 16 16">
<path fill="#000000" d="M15 5l1-2v-2l-1.5 3h-1.778c-0.134-0.147-0.33-0.287-0.617-0.447l-2.211-1.106c-0.492-0.246-1.344-0.447-1.894-0.447s-1.403 0.201-1.894 0.447l-2.211 1.106c-0.287 0.161-0.483 0.301-0.617 0.447h-1.778l-1.5-3v2l1 2h2v2l-3 1v1l3-1v3h-1l-2 5h1l1.6-4h0.522c0.139 0.39 0.383 0.771 0.659 0.992l3.438 2.751c0.215 0.172 0.498 0.258 0.781 0.258s0.566-0.086 0.781-0.258l3.438-2.751c0.276-0.221 0.52-0.602 0.659-0.992h0.522l1.6 4h1l-2-5h-1v-3l3 1v-1l-3-1v-2h2zM8.5 14h-1v-10h1v10zM10 1.944v-0.944c0-0.55-0.45-1-1-1h-2c-0.55 0-1 0.45-1 1v0.944c0.567-0.253 1.415-0.444 2-0.444s1.433 0.191 2 0.444z"></path>
</svg>
