<?xml version="1.0" encoding="utf-8"?>
<!-- Generated by IcoMoon.io -->
<!DOCTYPE svg PUBLIC "-//W3C//DTD SVG 1.1//EN" "http://www.w3.org/Graphics/SVG/1.1/DTD/svg11.dtd">
<svg version="1.1" xmlns="http://www.w3.org/2000/svg" xmlns:xlink="http://www.w3.org/1999/xlink" width="16" height="16" viewBox="0 0 16 16">
<path fill="#000000" d="M14.985 7.379l-1.25-6c-0.056-0.223-0.256-0.379-0.485-0.379h-10.5c-0.229 0-0.429 0.156-0.485 0.379l-1.25 6c-0.010 0.040-0.015 0.080-0.015 0.121v6c0 0.276 0.224 0.5 0.5 0.5h1.5v1c0 0.552 0.448 1 1 1s1-0.448 1-1v-1h6v1c0 0.552 0.448 1 1 1s1-0.448 1-1v-1h1.5c0.276 0 0.5-0.224 0.5-0.5v-6c0-0.041-0.005-0.082-0.015-0.121zM5.5 2h5c0.276 0 0.5 0.224 0.5 0.5s-0.224 0.5-0.5 0.5h-5c-0.276 0-0.5-0.224-0.5-0.5s0.224-0.5 0.5-0.5zM4 12c-0.552 0-1-0.448-1-1s0.448-1 1-1 1 0.448 1 1-0.448 1-1 1zM3.5 8c-0.147 0-0.287-0.065-0.381-0.177s-0.136-0.26-0.112-0.405l0.5-3c0.040-0.241 0.249-0.418 0.493-0.418h8c0.244 0 0.453 0.177 0.493 0.418l0.5 3c0.024 0.145-0.017 0.293-0.112 0.405s-0.235 0.177-0.382 0.177h-9zM12 12c-0.552 0-1-0.448-1-1s0.448-1 1-1 1 0.448 1 1-0.448 1-1 1z"></path>
</svg>
