<?xml version="1.0" encoding="utf-8"?>
<!-- Generated by IcoMoon.io -->
<!DOCTYPE svg PUBLIC "-//W3C//DTD SVG 1.1//EN" "http://www.w3.org/Graphics/SVG/1.1/DTD/svg11.dtd">
<svg version="1.1" xmlns="http://www.w3.org/2000/svg" xmlns:xlink="http://www.w3.org/1999/xlink" width="16" height="16" viewBox="0 0 16 16">
<path fill="#000000" d="M0 15c0 0.552 0.448 1 1 1h14c0.552 0 1-0.448 1-1v-9h-16v9zM11 7h4v2h-4v-2zM11 10h4v2h-4v-2zM11 13h4v2h-4v-2zM6 7h4v2h-4v-2zM6 10h4v2h-4v-2zM6 13h4v2h-4v-2zM1 7h4v2h-4v-2zM1 10h4v2h-4v-2zM1 13h4v2h-4v-2zM15 2h-2v-1.429c0-0.316-0.224-0.571-0.5-0.571s-0.5 0.256-0.5 0.571v1.429h-8v-1.429c0-0.316-0.224-0.571-0.5-0.571s-0.5 0.256-0.5 0.571v1.429h-2c-0.552 0-1 0.448-1 1v2h16v-2c0-0.552-0.448-1-1-1zM3.5 4.5c-0.552 0-1-0.448-1-1 0-0.37 0.201-0.693 0.5-0.866v0.866c0 0.276 0.224 0.5 0.5 0.5s0.5-0.224 0.5-0.5v-0.866c0.299 0.173 0.5 0.496 0.5 0.866 0 0.552-0.448 1-1 1zM12.5 4.5c-0.552 0-1-0.448-1-1 0-0.37 0.201-0.693 0.5-0.866v0.866c0 0.276 0.224 0.5 0.5 0.5s0.5-0.224 0.5-0.5v-0.866c0.299 0.173 0.5 0.496 0.5 0.866 0 0.552-0.448 1-1 1z"></path>
</svg>
