<?xml version="1.0" encoding="utf-8"?>
<!-- Generated by IcoMoon.io -->
<!DOCTYPE svg PUBLIC "-//W3C//DTD SVG 1.1//EN" "http://www.w3.org/Graphics/SVG/1.1/DTD/svg11.dtd">
<svg version="1.1" xmlns="http://www.w3.org/2000/svg" xmlns:xlink="http://www.w3.org/1999/xlink" width="16" height="16" viewBox="0 0 16 16">
<path fill="#000000" d="M15 5h-3c-0.086 0-0.238-0.094-0.276-0.171l-0.553-1.106c-0.206-0.413-0.71-0.724-1.171-0.724h-4c-0.461 0-0.965 0.311-1.171 0.724l-0.553 1.106c-0.038 0.077-0.191 0.171-0.276 0.171v-0.5c0-0.276-0.224-0.5-0.5-0.5h-2c-0.276 0-0.5 0.224-0.5 0.5v0.5c-0.551 0-1 0.449-1 1v9c0 0.551 0.449 1 1 1h14c0.551 0 1-0.449 1-1v-9c0-0.551-0.449-1-1-1zM1 15v-9h3c0.461 0 0.965-0.311 1.171-0.724l0.553-1.106c0.038-0.077 0.191-0.171 0.276-0.171h4c0.086 0 0.238 0.094 0.276 0.171l0.553 1.106c0.206 0.412 0.71 0.724 1.171 0.724h3l0 9h-14z"></path>
<path fill="#000000" d="M8 5.875c-2.275 0-4.125 1.85-4.125 4.125s1.85 4.125 4.125 4.125 4.125-1.85 4.125-4.125-1.85-4.125-4.125-4.125zM8 13.094c-1.706 0-3.094-1.388-3.094-3.094s1.388-3.094 3.094-3.094 3.094 1.388 3.094 3.094-1.388 3.094-3.094 3.094z"></path>
<path fill="#000000" d="M10 10c0 1.105-0.895 2-2 2s-2-0.895-2-2c0-1.105 0.895-2 2-2s2 0.895 2 2z"></path>
<path fill="#000000" d="M13 7h1v1h-1v-1z"></path>
</svg>
