<?xml version="1.0" encoding="utf-8"?>
<!-- Generated by IcoMoon.io -->
<!DOCTYPE svg PUBLIC "-//W3C//DTD SVG 1.1//EN" "http://www.w3.org/Graphics/SVG/1.1/DTD/svg11.dtd">
<svg version="1.1" xmlns="http://www.w3.org/2000/svg" xmlns:xlink="http://www.w3.org/1999/xlink" width="16" height="16" viewBox="0 0 16 16">
<path fill="#000000" d="M13 1h-10c-1.1 0-2 0.9-2 2v10c0 1.1 0.9 2 2 2h10c1.1 0 2-0.9 2-2v-10c0-1.1-0.9-2-2-2zM10.5 9c0 1.379-1.121 2.5-2.5 2.5s-2.5-1.121-2.5-2.5c0-0.817 0.394-1.544 1.002-2h2.997c0.608 0.456 1.002 1.183 1.002 2zM5 3h1v2h-1v-2zM3 3h1v2h-1v-2zM13 12.996c-0.001 0.001-0.002 0.003-0.004 0.004h-9.993c-0.001-0.001-0.003-0.002-0.004-0.004v-5.996h1.535c-0.34 0.588-0.535 1.271-0.535 2 0 2.209 1.791 4 4 4s4-1.791 4-4c0-0.729-0.195-1.412-0.535-2h1.535v5.996z"></path>
</svg>
