<?xml version="1.0" encoding="utf-8"?>
<!-- Generated by IcoMoon.io -->
<!DOCTYPE svg PUBLIC "-//W3C//DTD SVG 1.1//EN" "http://www.w3.org/Graphics/SVG/1.1/DTD/svg11.dtd">
<svg version="1.1" xmlns="http://www.w3.org/2000/svg" xmlns:xlink="http://www.w3.org/1999/xlink" width="16" height="16" viewBox="0 0 16 16">
<path fill="#000000" d="M13.996 2c0.001 0.001 0.003 0.002 0.004 0.004v11.993c-0.001 0.001-0.002 0.003-0.004 0.004h-11.993c-0.001-0.001-0.003-0.002-0.004-0.004v-11.993c0.001-0.001 0.002-0.003 0.004-0.004h11.993zM14 0h-12c-1.1 0-2 0.9-2 2v12c0 1.1 0.9 2 2 2h12c1.1 0 2-0.9 2-2v-12c0-1.1-0.9-2-2-2v0z"></path>
<path fill="#000000" d="M10.5 4l-2.5 2.5-2.5-2.5-1.5 1.5 2.5 2.5-2.5 2.5 1.5 1.5 2.5-2.5 2.5 2.5 1.5-1.5-2.5-2.5 2.5-2.5z"></path>
</svg>
