<?xml version="1.0" encoding="utf-8"?>
<!-- Generated by IcoMoon.io -->
<!DOCTYPE svg PUBLIC "-//W3C//DTD SVG 1.1//EN" "http://www.w3.org/Graphics/SVG/1.1/DTD/svg11.dtd">
<svg version="1.1" xmlns="http://www.w3.org/2000/svg" xmlns:xlink="http://www.w3.org/1999/xlink" width="16" height="16" viewBox="0 0 16 16">
<path fill="#000000" d="M13.238 9c0.55 0 1.124-0.433 1.275-0.962l1.451-5.077c0.151-0.529-0.175-0.962-0.725-0.962h-10.238c0-1.105-0.895-2-2-2h-3v2h3v8.5c0 0.828 0.672 1.5 1.5 1.5h9.5c0.552 0 1-0.448 1-1s-0.448-1-1-1h-9v-1h8.238zM5 4h9.044l-0.857 3h-8.187v-3z"></path>
<path fill="#000000" d="M6 14.5c0 0.828-0.672 1.5-1.5 1.5s-1.5-0.672-1.5-1.5c0-0.828 0.672-1.5 1.5-1.5s1.5 0.672 1.5 1.5z"></path>
<path fill="#000000" d="M15 14.5c0 0.828-0.672 1.5-1.5 1.5s-1.5-0.672-1.5-1.5c0-0.828 0.672-1.5 1.5-1.5s1.5 0.672 1.5 1.5z"></path>
</svg>
