<?xml version="1.0" encoding="utf-8"?>
<!-- Generated by IcoMoon.io -->
<!DOCTYPE svg PUBLIC "-//W3C//DTD SVG 1.1//EN" "http://www.w3.org/Graphics/SVG/1.1/DTD/svg11.dtd">
<svg version="1.1" xmlns="http://www.w3.org/2000/svg" xmlns:xlink="http://www.w3.org/1999/xlink" width="16" height="16" viewBox="0 0 16 16">
<path fill="#000000" d="M13 12h-8.5c-0.504 0-0.93-0.376-0.992-0.876l-0.89-7.124h-1.617c-0.552 0-1-0.448-1-1s0.448-1 1-1h2.5c0.504 0 0.93 0.376 0.992 0.876l0.891 7.124h6.863l1.793-6.275c0.152-0.531 0.705-0.838 1.236-0.687s0.839 0.705 0.687 1.236l-2 7c-0.123 0.429-0.515 0.725-0.962 0.725zM4 14.5c0-0.828 0.672-1.5 1.5-1.5s1.5 0.672 1.5 1.5c0 0.828-0.672 1.5-1.5 1.5s-1.5-0.672-1.5-1.5zM10 14.5c0-0.828 0.672-1.5 1.5-1.5s1.5 0.672 1.5 1.5c0 0.828-0.672 1.5-1.5 1.5s-1.5-0.672-1.5-1.5zM12 7h-2v2h-2v-2h-2v-2h2v-2h2v2h2z"></path>
</svg>
