<?xml version="1.0" encoding="utf-8"?>
<!-- Generated by IcoMoon.io -->
<!DOCTYPE svg PUBLIC "-//W3C//DTD SVG 1.1//EN" "http://www.w3.org/Graphics/SVG/1.1/DTD/svg11.dtd">
<svg version="1.1" xmlns="http://www.w3.org/2000/svg" xmlns:xlink="http://www.w3.org/1999/xlink" width="16" height="16" viewBox="0 0 16 16">
<path fill="#000000" d="M7.989 0c-2.192 0-4.121 0.811-5.611 2.323-1.534 1.556-2.367 3.573-2.367 5.677 0 2.126 0.811 4.098 2.345 5.633s3.529 2.367 5.633 2.367 4.143-0.833 5.721-2.389c1.491-1.469 2.279-3.419 2.279-5.611 0-2.17-0.789-4.143-2.301-5.655-1.534-1.534-3.507-2.345-5.699-2.345zM8.011 1.447c1.797 0 3.397 0.679 4.647 1.929 1.227 1.228 1.885 2.849 1.885 4.625 0 1.797-0.636 3.375-1.863 4.581-1.293 1.271-2.959 1.951-4.669 1.951-1.731 0-3.354-0.679-4.603-1.929s-1.951-2.893-1.951-4.603c0-1.732 0.702-3.375 1.951-4.647 1.227-1.249 2.806-1.907 4.603-1.907zM7.908 6.671c-0.452-0.824-1.223-1.152-2.118-1.152-1.303 0-2.34 0.922-2.34 2.481 0 1.586 0.975 2.481 2.384 2.481 0.904 0 1.675-0.496 2.1-1.249l-0.993-0.505c-0.222 0.532-0.558 0.691-0.984 0.691-0.735 0-1.072-0.611-1.072-1.418s0.284-1.418 1.072-1.418c0.213 0 0.638 0.115 0.886 0.647l1.063-0.558zM12.523 6.671c-0.452-0.824-1.223-1.152-2.118-1.152-1.303 0-2.34 0.922-2.34 2.481 0 1.586 0.975 2.481 2.384 2.481 0.904 0 1.675-0.496 2.1-1.249l-0.993-0.505c-0.221 0.532-0.558 0.691-0.984 0.691-0.735 0-1.072-0.611-1.072-1.418s0.284-1.418 1.072-1.418c0.213 0 0.638 0.115 0.887 0.647l1.063-0.558z"></path>
</svg>
