<?xml version="1.0" encoding="utf-8"?>
<!-- Generated by IcoMoon.io -->
<!DOCTYPE svg PUBLIC "-//W3C//DTD SVG 1.1//EN" "http://www.w3.org/Graphics/SVG/1.1/DTD/svg11.dtd">
<svg version="1.1" xmlns="http://www.w3.org/2000/svg" xmlns:xlink="http://www.w3.org/1999/xlink" width="16" height="16" viewBox="0 0 16 16">
<path fill="#000000" d="M1 0v16h14v-16h-14zM14 15h-12v-14h12v14zM3 3h5v1h-5v-1zM3 5h5v1h-5v-1zM3 7h5v1h-5v-1zM3 8.99h5v1h-5v-1zM3 11h5v1h-5v-1zM3 13h10v1h-10v-1zM13 3.414l-0.586 0.586 0.586 0.586v0.414h-1v1h-0.414l-0.586-0.586-0.586 0.586h-0.414v-1h-1v-0.414l0.586-0.586-0.586-0.586v-0.414h1v-1h0.414l0.586 0.586 0.586-0.586h0.414v1h1v0.414z"></path>
<path fill="#000000" d="M12 7v4.5l-1-1-1 1v-4.5z"></path>
</svg>
