<?xml version="1.0" encoding="utf-8"?>
<!-- Generated by IcoMoon.io -->
<!DOCTYPE svg PUBLIC "-//W3C//DTD SVG 1.1//EN" "http://www.w3.org/Graphics/SVG/1.1/DTD/svg11.dtd">
<svg version="1.1" xmlns="http://www.w3.org/2000/svg" xmlns:xlink="http://www.w3.org/1999/xlink" width="16" height="16" viewBox="0 0 16 16">
<path fill="#000000" d="M15.5 15h-3.5v-0.5h-0.5v0.5h-5v-0.5h-0.5v0.5h-3.5v-0.5h-0.5v0.5h-1v-4.5h0.5v-0.5h-0.5v-3.5h0.5v-0.5h-0.5v-3.5h0.5v-0.5h-0.5v-2h-1v16h16v-1.5h-0.5zM6.875 6.125l-0.25 0.25v3.939l0.25-0.25zM6.375 6.625l-0.25 0.25v3.939l0.25-0.25zM5.875 11.064v-4.127l-0.25-0.125v4.161l0.227 0.113zM8.375 4.625l-0.25 0.25v3.939l0.25-0.25zM7.375 5.625l-0.25 0.25v3.939l0.25-0.25zM5.375 6.688l-0.25-0.125v4.161l0.25 0.125zM7.875 5.125l-0.25 0.25v3.939l0.25-0.25zM3.875 5.938l-0.25-0.125v4.161l0.25 0.125zM2.875 5.438l-0.25-0.125v4.161l0.25 0.125zM4.875 6.438l-0.25-0.125v4.161l0.25 0.125zM3.375 5.688l-0.25-0.125v4.161l0.25 0.125zM2.375 5.188l-0.25-0.125v4.161l0.25 0.125zM8.875 4.125l-0.25 0.25v3.939l0.25-0.25zM4.375 6.188l-0.25-0.125v4.161l0.25 0.125zM12.875 5.125l-0.25 0.25v5.335l0.25-0.375zM13.375 4.625l-0.25 0.25v5.085l0.25-0.375zM13.875 4.125l-0.25 0.25v4.835l0.25-0.375zM14.875 3.125l-0.25 0.25v4.335l0.25-0.375zM14.375 3.625l-0.25 0.25v4.585l0.25-0.375zM15.875 2.125l-0.25 0.25v3.835l0.25-0.375zM15.375 2.625l-0.25 0.25v4.085l0.25-0.375zM10.875 5.25l-0.25-0.167v4.833l0.25 0.333zM10.375 4.917l-0.25-0.167v4.5l0.25 0.333zM9.375 4.25l-0.25-0.167v3.833l0.25 0.333zM9.875 4.583l-0.25-0.167v4.167l0.25 0.333zM11.375 5.583l-0.25-0.167v5.167l0.25 0.333zM12.375 5.625l-0.25 0.25v5.585l0.25-0.375zM11.875 5.917l-0.25-0.167v5.5l0.25 0.333zM12 13l-3-4-3 3-4-2v4h14v-7z"></path>
</svg>
