<?xml version="1.0" encoding="utf-8"?>
<!-- Generated by IcoMoon.io -->
<!DOCTYPE svg PUBLIC "-//W3C//DTD SVG 1.1//EN" "http://www.w3.org/Graphics/SVG/1.1/DTD/svg11.dtd">
<svg version="1.1" xmlns="http://www.w3.org/2000/svg" xmlns:xlink="http://www.w3.org/1999/xlink" width="16" height="16" viewBox="0 0 16 16">
<path fill="#000000" d="M8 15c-1.79 0-3.528-0.155-4.891-0.437-0.037-0.008-0.073-0.015-0.109-0.023v1.021c1.37 0.274 3.108 0.439 5 0.439s3.63-0.164 5-0.439v-1.021c-0.036 0.008-0.072 0.015-0.109 0.023-1.364 0.282-3.101 0.437-4.891 0.437zM12 13.469v-0.469l-0.5-1h-7l-0.5 1v0.469c1.177 0.17 2.543 0.268 4 0.268s2.823-0.097 4-0.268zM15.649 4.401c-0.469-0.469-1.228-0.469-1.697 0-0.398 0.398-0.458 1.005-0.181 1.466l-3.052 1.831 0.602-2.839c0.526 0.112 1.081-0.143 1.327-0.648 0.291-0.596 0.043-1.314-0.553-1.605s-1.314-0.043-1.605 0.553c-0.247 0.505-0.106 1.099 0.307 1.445l-1.847 2.198-0.659-2.638c0.522-0.13 0.909-0.602 0.909-1.164 0-0.663-0.537-1.2-1.2-1.2s-1.2 0.537-1.2 1.2c0 0.562 0.387 1.034 0.909 1.164l-0.659 2.638-1.847-2.198c0.412-0.346 0.553-0.939 0.307-1.445-0.291-0.596-1.009-0.843-1.605-0.553s-0.843 1.009-0.552 1.605c0.247 0.505 0.801 0.76 1.327 0.648l0.602 2.839-3.052-1.831c0.277-0.461 0.217-1.068-0.181-1.466-0.469-0.469-1.228-0.469-1.697 0s-0.469 1.228 0 1.697c0.398 0.398 1.005 0.458 1.466 0.181l2.833 4.722h6.699l2.833-4.722c0.461 0.277 1.068 0.217 1.466-0.181 0.469-0.469 0.469-1.228 0-1.697z"></path>
</svg>
