<?xml version="1.0" encoding="utf-8"?>
<!-- Generated by IcoMoon.io -->
<!DOCTYPE svg PUBLIC "-//W3C//DTD SVG 1.1//EN" "http://www.w3.org/Graphics/SVG/1.1/DTD/svg11.dtd">
<svg version="1.1" xmlns="http://www.w3.org/2000/svg" xmlns:xlink="http://www.w3.org/1999/xlink" width="16" height="16" viewBox="0 0 16 16">
<path fill="#000000" d="M15.5 15h-11.5l-0.5 1h12.5zM8.867 8c0.21 3.248-2.649 4.524-3.635 6.5h9.768c0-1.119 0-2.905 0-5.5 0-3.474-1.361-5.982-2.967-7.19-0.074-0.315-0.186-0.664-0.311-0.947l-0.193-0.438c-0.222-0.503-0.692-0.57-1.045-0.148l-0.604 0.722c-0.004-0-0.009-0-0.013-0-0.257 0-0.494 0.008-0.714 0.023l-1.321-0.881c-0.458-0.305-0.832-0.105-0.832 0.445v1.018c-0.406 0.23-0.746 0.508-1.133 0.803-1 0.762-3.404 3.783-5 5.591-1.476 1.672-0.679 3 0.719 2.688-0.070 1.313 1.024 0.891 1.781 0.313 1.747-1.333 5.649-0.703 5.5-3zM12.108 2.704c0.539 0.546 1.005 1.244 1.367 2.055 0.556 1.246 0.838 2.672 0.838 4.241v4.5l-1.5-1.5v-3c0-1.357-0.238-2.578-0.707-3.63-0.288-0.645-0.648-1.19-1.057-1.605l1.061-1.061zM2.5 9.207c-0.391 0-0.707-0.317-0.707-0.707s0.317-0.707 0.707-0.707c0.39 0 0.707 0.317 0.707 0.707s-0.317 0.707-0.707 0.707zM7.53 4.499c-0.586 0.586-1.298 0.823-1.591 0.53s-0.055-1.005 0.53-1.591 1.298-0.823 1.591-0.53c0.293 0.293 0.055 1.005-0.53 1.591z"></path>
</svg>
