<?xml version="1.0" encoding="utf-8"?>
<!-- Generated by IcoMoon.io -->
<!DOCTYPE svg PUBLIC "-//W3C//DTD SVG 1.1//EN" "http://www.w3.org/Graphics/SVG/1.1/DTD/svg11.dtd">
<svg version="1.1" xmlns="http://www.w3.org/2000/svg" xmlns:xlink="http://www.w3.org/1999/xlink" width="16" height="16" viewBox="0 0 16 16">
<path fill="#000000" d="M15.5 5c-0.276 0-0.5 0.224-0.5 0.5v0.875l-5 1.458v-0.833c0-1.103-0.897-2-2-2h-2v-1h5.5c0.276 0 0.5-0.224 0.5-0.5s-0.224-0.5-0.5-0.5h-11c-0.276 0-0.5 0.224-0.5 0.5s0.224 0.5 0.5 0.5h4.5v1c-1.058 0-2.086 0.58-2.896 1.633-0.681 0.885-1.104 1.984-1.104 2.867v0.938c0 0.074 0.016 0.144 0.045 0.207 0.18 0.775 0.876 1.355 1.705 1.355h0.25v1h-1.5c-0.276 0-0.5-0.224-0.5-0.5s-0.224-0.5-0.5-0.5-0.5 0.224-0.5 0.5c0 0.827 0.673 1.5 1.5 1.5h8c0.276 0 0.5-0.224 0.5-0.5s-0.224-0.5-0.5-0.5h-2.5v-1.11c0.441-0.099 0.861-0.264 1.244-0.491 0-0 0.001-0 0.001-0.001l6.755-3.794v0.896c0 0.276 0.224 0.5 0.5 0.5s0.5-0.224 0.5-0.5v-3c0-0.276-0.224-0.5-0.5-0.5zM2.896 7.242c0.357-0.464 1.105-1.242 2.104-1.242h1v2.5c0 0.276-0.224 0.5-0.5 0.5h-3.442c0.122-0.571 0.429-1.225 0.838-1.758zM2 10.25v-0.25h3.5c0.827 0 1.5-0.673 1.5-1.5v-2.5h1c0.551 0 1 0.449 1 1v1.49c-0 0.001 0 0.002 0 0.003v0.007c0 0.803-0.47 1.563-1.257 2.033-0.511 0.305-1.114 0.467-1.743 0.467h-3.25c-0.414 0-0.75-0.336-0.75-0.75zM6 13h-2v-1h2v1z"></path>
</svg>
