<?xml version="1.0" encoding="utf-8"?>
<!-- Generated by IcoMoon.io -->
<!DOCTYPE svg PUBLIC "-//W3C//DTD SVG 1.1//EN" "http://www.w3.org/Graphics/SVG/1.1/DTD/svg11.dtd">
<svg version="1.1" xmlns="http://www.w3.org/2000/svg" xmlns:xlink="http://www.w3.org/1999/xlink" width="16" height="16" viewBox="0 0 16 16">
<path fill="#000000" d="M15.5 5c-0.276 0-0.5 0.224-0.5 0.5v0.764l-5 1.532v-0.796c0-1.103-0.897-2-2-2h-2v-1h5.5c0.276 0 0.5-0.224 0.5-0.5s-0.224-0.5-0.5-0.5h-11c-0.276 0-0.5 0.224-0.5 0.5s0.224 0.5 0.5 0.5h4.5v1c-1.058 0-2.086 0.58-2.896 1.633-0.681 0.885-1.104 1.984-1.104 2.867v0.938c0 0.074 0.016 0.144 0.045 0.207 0.18 0.775 0.876 1.355 1.705 1.355h0.25v1h-1.5c-0.276 0-0.5-0.224-0.5-0.5s-0.224-0.5-0.5-0.5-0.5 0.224-0.5 0.5c0 0.827 0.673 1.5 1.5 1.5h8c0.276 0 0.5-0.224 0.5-0.5s-0.224-0.5-0.5-0.5h-2.5v-1.111c0.437-0.099 0.845-0.26 1.21-0.473 0.015-0.007 0.030-0.015 0.045-0.024l6.744-3.689v0.797c0 0.276 0.224 0.5 0.5 0.5s0.5-0.224 0.5-0.5v-3c0-0.276-0.224-0.5-0.5-0.5zM2.058 9c0.122-0.571 0.429-1.225 0.838-1.758 0.357-0.464 1.105-1.242 2.104-1.242h1v2.5c0 0.276-0.224 0.5-0.5 0.5h-3.442zM4 13v-1h2v1h-2z"></path>
</svg>
