<?xml version="1.0" encoding="utf-8"?>
<!-- Generated by IcoMoon.io -->
<!DOCTYPE svg PUBLIC "-//W3C//DTD SVG 1.1//EN" "http://www.w3.org/Graphics/SVG/1.1/DTD/svg11.dtd">
<svg version="1.1" xmlns="http://www.w3.org/2000/svg" xmlns:xlink="http://www.w3.org/1999/xlink" width="16" height="16" viewBox="0 0 16 16">
<path fill="#000000" d="M16 8c0-4.418-3.582-8-8-8s-8 3.582-8 8c0 4.418 3.582 8 8 8s8-3.582 8-8zM1.5 8c0-3.59 2.91-6.5 6.5-6.5s6.5 2.91 6.5 6.5c0 3.59-2.91 6.5-6.5 6.5s-6.5-2.91-6.5-6.5z"></path>
<path fill="#000000" d="M4 8.5l4 4 4-4-1.5-1.5-1.5 1.5v-4.5h-2v4.5l-1.5-1.5z"></path>
</svg>
