<?xml version="1.0" encoding="utf-8"?>
<!-- Generated by IcoMoon.io -->
<!DOCTYPE svg PUBLIC "-//W3C//DTD SVG 1.1//EN" "http://www.w3.org/Graphics/SVG/1.1/DTD/svg11.dtd">
<svg version="1.1" xmlns="http://www.w3.org/2000/svg" xmlns:xlink="http://www.w3.org/1999/xlink" width="16" height="16" viewBox="0 0 16 16">
<path fill="#000000" d="M15.707 14.293l-13-13-1.414 1.414 2.326 2.326c-0.453 0.758-0.837 1.547-1.129 2.36-0.635 1.772-0.698 3.696 0.197 5.397 1.029 1.955 3.104 3.21 5.313 3.21 1.739 0 3.395-0.778 4.523-2.063l1.77 1.77 1.414-1.414z"></path>
<path fill="#000000" d="M13.51 7.393c-1.027-2.866-3.205-5.44-5.51-7.393-0.805 0.682-1.595 1.441-2.325 2.261l8.288 8.288c0.090-1.054-0.085-2.13-0.453-3.155z"></path>
</svg>
