<?xml version="1.0" encoding="utf-8"?>
<!-- Generated by IcoMoon.io -->
<!DOCTYPE svg PUBLIC "-//W3C//DTD SVG 1.1//EN" "http://www.w3.org/Graphics/SVG/1.1/DTD/svg11.dtd">
<svg version="1.1" xmlns="http://www.w3.org/2000/svg" xmlns:xlink="http://www.w3.org/1999/xlink" width="16" height="16" viewBox="0 0 16 16">
<path fill="#000000" d="M16 6.5v-4c0-0.275-0.225-0.5-0.5-0.5h-15c-0.275 0-0.5 0.225-0.5 0.5v4c0 0.275 0.225 0.5 0.5 0.5h1.88l-2.38 7h3l1.020-3h7.96l1.020 3h3l-2.38-7h1.88c0.275 0 0.5-0.225 0.5-0.5zM13 3l-3 3h-3l3-3h3zM4 3h3l-3 3h-3l3-3zM11.64 10h-7.279l1.020-3h5.239l1.020 3zM15 6h-2l2-2v2z"></path>
</svg>
