<?xml version="1.0" encoding="utf-8"?>
<!-- Generated by IcoMoon.io -->
<!DOCTYPE svg PUBLIC "-//W3C//DTD SVG 1.1//EN" "http://www.w3.org/Graphics/SVG/1.1/DTD/svg11.dtd">
<svg version="1.1" xmlns="http://www.w3.org/2000/svg" xmlns:xlink="http://www.w3.org/1999/xlink" width="16" height="16" viewBox="0 0 16 16">
<path fill="#000000" d="M4 12h8v2h-8zM15 3c-0.552 0-1 0.448-1 1 0 0.205 0.062 0.396 0.168 0.555l-3.668 2.445-0.376-3.008c0.494-0.061 0.876-0.482 0.876-0.992 0-0.552-0.448-1-1-1s-1 0.448-1 1c0 0.392 0.225 0.73 0.553 0.894l-1.553 3.106-1.553-3.106c0.328-0.164 0.553-0.503 0.553-0.894 0-0.552-0.448-1-1-1s-1 0.448-1 1c0 0.51 0.382 0.931 0.876 0.992l-0.376 3.008-3.668-2.445c0.106-0.159 0.168-0.349 0.168-0.555 0-0.552-0.448-1-1-1s-1 0.448-1 1 0.448 1 1 1c0.14 0 0.273-0.029 0.394-0.081l2.606 6.081h8l2.606-6.081c0.121 0.052 0.254 0.081 0.394 0.081 0.552 0 1-0.448 1-1s-0.448-1-1-1z"></path>
</svg>
