<?xml version="1.0" encoding="utf-8"?>
<!-- Generated by IcoMoon.io -->
<!DOCTYPE svg PUBLIC "-//W3C//DTD SVG 1.1//EN" "http://www.w3.org/Graphics/SVG/1.1/DTD/svg11.dtd">
<svg version="1.1" xmlns="http://www.w3.org/2000/svg" xmlns:xlink="http://www.w3.org/1999/xlink" width="16" height="16" viewBox="0 0 16 16">
<path fill="#000000" d="M7.625 0h-0.251l-7.375 3.951v7.129l7.348 4.921h0.304l7.348-4.921v-7.129l-7.375-3.951zM13.441 4.25l-2.391 1.281-2.657-1.423 2.391-1.281 2.657 1.423zM7.5 1.067l2.391 1.281-2.391 1.281-2.391-1.281 2.391-1.281zM4.215 2.827l2.391 1.281-2.657 1.423-2.391-1.281 2.657-1.423zM3.079 11.938l-2.079-1.393v-2.424l2.079 1.3v2.517zM3.079 8.426l-2.079-1.3v-2.042l2.079 1.114v2.227zM7 14.563l-3.077-2.060v-2.554l3.077 1.923v2.692zM7 10.877l-3.077-1.923v-2.303l3.077 1.648v2.577zM7.5 7.433l-2.657-1.423 2.657-1.423 2.657 1.423-2.657 1.423zM11.077 12.503l-3.077 2.060v-2.692l3.077-1.923v2.554zM11.077 8.954l-3.077 1.923v-2.577l3.077-1.648v2.303zM14 10.546l-2.079 1.392v-2.517l2.079-1.3v2.424zM14 7.127l-2.079 1.3v-2.227l2.079-1.114v2.042z"></path>
</svg>
