<?xml version="1.0" encoding="utf-8"?>
<!-- Generated by IcoMoon.io -->
<!DOCTYPE svg PUBLIC "-//W3C//DTD SVG 1.1//EN" "http://www.w3.org/Graphics/SVG/1.1/DTD/svg11.dtd">
<svg version="1.1" xmlns="http://www.w3.org/2000/svg" xmlns:xlink="http://www.w3.org/1999/xlink" width="16" height="16" viewBox="0 0 16 16">
<path fill="#000000" d="M7.5 10l-3.5-3.5v2.5h-4v2h4v2.5z"></path>
<path fill="#000000" d="M10.5 2c-3.038 0-5.5 1.119-5.5 2.5s2.462 2.5 5.5 2.5c1.86 0 3.505-0.42 4.5-1.062v2.531c-0.084 0.115-0.396 0.402-1.158 0.677-0.913 0.329-2.1 0.51-3.342 0.51-0.889 0-1.748-0.093-2.5-0.266v1.306c0.75 0.174 1.6 0.273 2.5 0.273 1.86 0 3.505-0.42 4.5-1.062v2.594c-0.084 0.115-0.396 0.402-1.158 0.677-0.913 0.329-2.1 0.51-3.342 0.51s-2.429-0.181-3.342-0.51c-0.055-0.020-0.108-0.040-0.158-0.060v1.311c0.951 0.357 2.17 0.571 3.5 0.571 3.038 0 5.5-1.119 5.5-2.5v-8c0-1.381-2.462-2.5-5.5-2.5zM13.598 5.177c-0.846 0.329-1.946 0.51-3.098 0.51s-2.252-0.181-3.098-0.51c-0.707-0.275-0.995-0.562-1.074-0.677 0.078-0.115 0.367-0.402 1.074-0.677 0.846-0.329 1.946-0.51 3.098-0.51s2.252 0.181 3.098 0.51c0.707 0.275 0.995 0.562 1.074 0.677-0.078 0.115-0.367 0.402-1.074 0.677z"></path>
</svg>
