<?xml version="1.0" encoding="utf-8"?>
<!-- Generated by IcoMoon.io -->
<!DOCTYPE svg PUBLIC "-//W3C//DTD SVG 1.1//EN" "http://www.w3.org/Graphics/SVG/1.1/DTD/svg11.dtd">
<svg version="1.1" xmlns="http://www.w3.org/2000/svg" xmlns:xlink="http://www.w3.org/1999/xlink" width="16" height="16" viewBox="0 0 16 16">
<path fill="#000000" d="M8 0c-4.418 0-8 1.343-8 3v10c0 1.657 3.582 3 8 3s8-1.343 8-3v-10c0-1.657-3.582-3-8-3zM15 13c0 0.143-0.311 0.666-1.694 1.185-0.672 0.252-1.462 0.451-2.348 0.592-0.935 0.148-1.93 0.223-2.957 0.223s-2.023-0.075-2.957-0.223c-0.886-0.141-1.676-0.34-2.348-0.592-1.383-0.519-1.694-1.042-1.694-1.185v-3.547c1.365 0.922 3.988 1.547 7 1.547s5.635-0.624 7-1.547v3.547zM15 8c0 0.143-0.311 0.666-1.694 1.185-0.672 0.252-1.462 0.451-2.348 0.592-0.935 0.148-1.93 0.223-2.957 0.223s-2.023-0.075-2.957-0.223c-0.886-0.141-1.676-0.34-2.348-0.592-1.383-0.519-1.694-1.042-1.694-1.185v-3.547c1.365 0.922 3.988 1.547 7 1.547s5.635-0.624 7-1.547v3.547zM13.755 4c-0.136 0.061-0.285 0.123-0.45 0.185-0.672 0.252-1.462 0.451-2.348 0.592-0.935 0.148-1.93 0.223-2.957 0.223s-2.023-0.075-2.957-0.223c-0.886-0.141-1.676-0.34-2.348-0.592-0.165-0.062-0.314-0.124-0.45-0.185-1.003-0.453-1.245-0.874-1.245-1 0-0.143 0.311-0.666 1.694-1.185 0.672-0.252 1.462-0.451 2.348-0.592 0.935-0.148 1.93-0.223 2.957-0.223s2.023 0.075 2.957 0.223c0.886 0.141 1.677 0.34 2.348 0.592 1.383 0.519 1.694 1.042 1.694 1.185 0 0.126-0.242 0.547-1.245 1z"></path>
</svg>
