<?xml version="1.0" encoding="utf-8"?>
<!-- Generated by IcoMoon.io -->
<!DOCTYPE svg PUBLIC "-//W3C//DTD SVG 1.1//EN" "http://www.w3.org/Graphics/SVG/1.1/DTD/svg11.dtd">
<svg version="1.1" xmlns="http://www.w3.org/2000/svg" xmlns:xlink="http://www.w3.org/1999/xlink" width="16" height="16" viewBox="0 0 16 16">
<path fill="#000000" d="M5 2c-2.761 0-5 1.119-5 2.5v8c0 1.381 2.239 2.5 5 2.5s5-1.119 5-2.5v-8c0-1.381-2.239-2.5-5-2.5zM9 8.576c-0.141 0.142-0.431 0.36-0.962 0.57-0.83 0.329-1.909 0.51-3.038 0.51s-2.208-0.181-3.038-0.51c-0.53-0.21-0.821-0.428-0.962-0.57v-2.576c0.912 0.607 2.364 1 4 1s3.088-0.393 4-1v2.576zM2.184 3.823c0.769-0.329 1.77-0.51 2.816-0.51s2.047 0.181 2.816 0.51c0.643 0.275 0.905 0.562 0.976 0.677-0.071 0.115-0.333 0.402-0.976 0.677-0.769 0.329-1.77 0.51-2.816 0.51s-2.047-0.181-2.816-0.51c-0.643-0.275-0.905-0.562-0.976-0.677 0.071-0.115 0.333-0.402 0.976-0.677zM8.038 13.177c-0.83 0.329-1.909 0.51-3.038 0.51s-2.208-0.181-3.038-0.51c-0.53-0.21-0.821-0.428-0.962-0.57v-2.638c0.912 0.607 2.364 1 4 1s3.088-0.393 4-1v2.638c-0.141 0.142-0.431 0.36-0.962 0.57z"></path>
<path fill="#000000" d="M11 5h5v2h-5v-2z"></path>
<path fill="#000000" d="M11 8h5v2h-5v-2z"></path>
<path fill="#000000" d="M11 11h5v2h-5v-2z"></path>
</svg>
