<?xml version="1.0" encoding="utf-8"?>
<!-- Generated by IcoMoon.io -->
<!DOCTYPE svg PUBLIC "-//W3C//DTD SVG 1.1//EN" "http://www.w3.org/Graphics/SVG/1.1/DTD/svg11.dtd">
<svg version="1.1" xmlns="http://www.w3.org/2000/svg" xmlns:xlink="http://www.w3.org/1999/xlink" width="16" height="16" viewBox="0 0 16 16">
<path fill="#000000" d="M14.422 7.078c-0.786-0.672-1.807-1.078-2.922-1.078-2.202 0-4.035 1.582-4.424 3.672h1.54c0.36-1.253 1.517-2.172 2.884-2.172 0.7 0 1.344 0.241 1.855 0.645l-1.855 1.855h4.5v-4.5l-1.578 1.578z"></path>
<path fill="#000000" d="M11.5 13.5c-0.7 0-1.344-0.241-1.855-0.645l1.855-1.855h-4.5v4.5l1.578-1.578c0.786 0.672 1.807 1.078 2.922 1.078 2.202 0 4.035-1.582 4.424-3.672h-1.54c-0.36 1.253-1.517 2.172-2.884 2.172z"></path>
<path fill="#000000" d="M2.158 9.146c-0.762-0.275-1.074-0.562-1.158-0.677v-2.531c0.995 0.643 2.64 1.062 4.5 1.062 0.169 0 0.335-0.004 0.5-0.010v-1.314c-0.165 0.008-0.332 0.012-0.5 0.012-1.152 0-2.252-0.181-3.098-0.51-0.707-0.275-0.996-0.562-1.074-0.677 0.078-0.115 0.367-0.402 1.074-0.677 0.846-0.329 1.946-0.51 3.098-0.51s2.252 0.181 3.098 0.51c0.707 0.275 0.995 0.562 1.074 0.677-0.061 0.090-0.252 0.287-0.674 0.5h1.892c0.072-0.162 0.11-0.329 0.11-0.5 0-1.381-2.462-2.5-5.5-2.5s-5.5 1.119-5.5 2.5v8c0 1.381 2.462 2.5 5.5 2.5 0.169 0 0.335-0.004 0.5-0.010v-1.312c-0.165 0.007-0.332 0.010-0.5 0.010-1.242 0-2.429-0.181-3.342-0.51-0.763-0.275-1.074-0.562-1.158-0.677v-2.594c0.995 0.643 2.64 1.062 4.5 1.062 0.169 0 0.335-0.004 0.5-0.010v-1.312c-0.165 0.007-0.332 0.010-0.5 0.010-1.242 0-2.429-0.181-3.342-0.51z"></path>
</svg>
