<?xml version="1.0" encoding="utf-8"?>
<!-- Generated by IcoMoon.io -->
<!DOCTYPE svg PUBLIC "-//W3C//DTD SVG 1.1//EN" "http://www.w3.org/Graphics/SVG/1.1/DTD/svg11.dtd">
<svg version="1.1" xmlns="http://www.w3.org/2000/svg" xmlns:xlink="http://www.w3.org/1999/xlink" width="16" height="16" viewBox="0 0 16 16">
<path fill="#000000" d="M8.813 13.187c-0.909 0.323-2.083 0.5-3.313 0.5-1.242 0-2.429-0.181-3.342-0.51-0.763-0.275-1.074-0.562-1.158-0.677v-2.594c0.995 0.643 2.64 1.062 4.5 1.062 0.12 0 0.239-0.002 0.357-0.005l1.439-1.439c-0.567 0.087-1.175 0.132-1.796 0.132-1.242 0-2.429-0.181-3.342-0.51-0.762-0.275-1.074-0.562-1.158-0.677v-2.531c0.995 0.643 2.64 1.062 4.5 1.062s3.505-0.42 4.5-1.062v0.883l1-1v-1.321c0-1.381-2.462-2.5-5.5-2.5s-5.5 1.119-5.5 2.5v8c0 1.381 2.462 2.5 5.5 2.5 1.244 0 2.391-0.188 3.313-0.504v-1.309zM2.402 3.823c0.846-0.329 1.946-0.51 3.098-0.51s2.252 0.181 3.098 0.51c0.707 0.275 0.995 0.562 1.074 0.677-0.078 0.115-0.367 0.402-1.074 0.677-0.846 0.329-1.946 0.51-3.098 0.51s-2.252-0.181-3.098-0.51c-0.707-0.275-0.996-0.562-1.074-0.677 0.078-0.115 0.367-0.402 1.074-0.677z"></path>
<path fill="#000000" d="M11 7.5l-3.5 3.5h2.5v4h2v-4h2.5z"></path>
</svg>
