<?xml version="1.0" encoding="utf-8"?>
<!-- Generated by IcoMoon.io -->
<!DOCTYPE svg PUBLIC "-//W3C//DTD SVG 1.1//EN" "http://www.w3.org/Graphics/SVG/1.1/DTD/svg11.dtd">
<svg version="1.1" xmlns="http://www.w3.org/2000/svg" xmlns:xlink="http://www.w3.org/1999/xlink" width="16" height="16" viewBox="0 0 16 16">
<path fill="#000000" d="M5.5 7c3.038 0 5.5-1.119 5.5-2.5s-2.462-2.5-5.5-2.5-5.5 1.119-5.5 2.5v8c0 1.381 2.462 2.5 5.5 2.5 0.503 0 0.99-0.031 1.452-0.088-0.287-0.381-0.526-0.8-0.711-1.246-0.244 0.014-0.491 0.022-0.741 0.022-1.242 0-2.429-0.181-3.342-0.51-0.763-0.275-1.074-0.562-1.158-0.677v-2.594c0.995 0.643 2.64 1.062 4.5 1.062 0.114 0 0.226-0.002 0.338-0.005 0.043-0.459 0.141-0.902 0.287-1.324-0.206 0.010-0.415 0.016-0.625 0.016-1.242 0-2.429-0.181-3.342-0.51-0.762-0.275-1.074-0.562-1.158-0.677v-2.531c0.995 0.643 2.64 1.062 4.5 1.062zM2.402 3.823c0.846-0.329 1.946-0.51 3.098-0.51s2.252 0.181 3.098 0.51c0.707 0.275 0.995 0.562 1.074 0.677-0.078 0.115-0.367 0.402-1.074 0.677-0.846 0.329-1.946 0.51-3.098 0.51s-2.252-0.181-3.098-0.51c-0.707-0.275-0.996-0.562-1.074-0.677 0.078-0.115 0.367-0.402 1.074-0.677z"></path>
<path fill="#000000" d="M11.5 7c-2.485 0-4.5 2.015-4.5 4.5s2.015 4.5 4.5 4.5 4.5-2.015 4.5-4.5-2.015-4.5-4.5-4.5zM14 12h-3v-3h1v2h2v1z"></path>
</svg>
