<?xml version="1.0" encoding="utf-8"?>
<!-- Generated by IcoMoon.io -->
<!DOCTYPE svg PUBLIC "-//W3C//DTD SVG 1.1//EN" "http://www.w3.org/Graphics/SVG/1.1/DTD/svg11.dtd">
<svg version="1.1" xmlns="http://www.w3.org/2000/svg" xmlns:xlink="http://www.w3.org/1999/xlink" width="16" height="16" viewBox="0 0 16 16">
<path fill="#000000" d="M16 3.5c0-0.444-0.157-1.106-0.905-1.737-0.444-0.375-1.053-0.702-1.809-0.972-1.427-0.51-3.305-0.79-5.286-0.79s-3.859 0.281-5.286 0.79c-0.756 0.27-1.365 0.597-1.809 0.972-0.748 0.632-0.905 1.293-0.905 1.737h-0.003v9h0.003c0 0.444 0.157 1.106 0.905 1.737 0.444 0.375 1.053 0.702 1.809 0.972 1.427 0.51 3.305 0.79 5.286 0.79s3.859-0.281 5.286-0.79c0.756-0.27 1.365-0.597 1.809-0.972 0.748-0.632 0.905-1.293 0.905-1.737v-9zM3.612 2.597c1.192-0.385 2.75-0.597 4.388-0.597s3.196 0.212 4.388 0.597c1.165 0.377 1.546 0.781 1.607 0.903-0.061 0.121-0.442 0.526-1.607 0.903-1.192 0.385-2.75 0.597-4.388 0.597s-3.196-0.212-4.388-0.597c-1.165-0.377-1.546-0.781-1.607-0.903 0.061-0.121 0.442-0.526 1.607-0.903zM12.388 13.403c-1.192 0.385-2.75 0.597-4.388 0.597s-3.196-0.212-4.388-0.597c-1.165-0.376-1.546-0.781-1.607-0.903h-0.003v-2.082c0.22 0.103 0.457 0.201 0.711 0.291 1.427 0.51 3.305 0.79 5.286 0.79s3.859-0.281 5.286-0.79c0.253-0.090 0.489-0.187 0.709-0.29v2.081c-0.061 0.121-0.442 0.526-1.607 0.903zM12.388 8.903c-1.192 0.385-2.75 0.597-4.388 0.597s-3.196-0.212-4.388-0.597c-1.165-0.377-1.546-0.781-1.607-0.903h-0.003v-2.082c0.22 0.103 0.457 0.201 0.711 0.291 1.427 0.51 3.305 0.79 5.286 0.79s3.859-0.281 5.286-0.79c0.253-0.090 0.489-0.187 0.709-0.29v2.081c-0.061 0.121-0.442 0.526-1.607 0.903z"></path>
</svg>
