<?xml version="1.0" encoding="utf-8"?>
<!-- Generated by IcoMoon.io -->
<!DOCTYPE svg PUBLIC "-//W3C//DTD SVG 1.1//EN" "http://www.w3.org/Graphics/SVG/1.1/DTD/svg11.dtd">
<svg version="1.1" xmlns="http://www.w3.org/2000/svg" xmlns:xlink="http://www.w3.org/1999/xlink" width="16" height="16" viewBox="0 0 16 16">
<path fill="#000000" d="M10 1.5c2.123 0.449 3.5 2.853 3.5 5 0 2.406-1.993 4.246-4.5 4.369v-2.869l-3.5 4 3.5 4v-2.891c3.356-0.216 6-2.714 6-5.609 0-2.664-2.028-5.494-5-6z"></path>
<path fill="#000000" d="M6 13.677c-0.165 0.007-0.332 0.010-0.5 0.010-1.242 0-2.429-0.181-3.342-0.51-0.763-0.275-1.074-0.562-1.158-0.677v-2.594c0.905 0.584 2.347 0.984 4 1.052v-1.312c-1.058-0.042-2.052-0.216-2.842-0.5-0.762-0.275-1.074-0.562-1.158-0.677v-2.531c0.995 0.643 2.64 1.062 4.5 1.062s3.505-0.42 4.5-1.062v3.062h1v-4.5c0-1.381-2.462-2.5-5.5-2.5s-5.5 1.119-5.5 2.5v8c0 1.381 2.462 2.5 5.5 2.5 0.169 0 0.335-0.004 0.5-0.010v-1.312zM2.402 3.823c0.846-0.329 1.946-0.51 3.098-0.51s2.252 0.181 3.098 0.51c0.707 0.275 0.995 0.562 1.074 0.677-0.078 0.115-0.367 0.402-1.074 0.677-0.846 0.329-1.946 0.51-3.098 0.51s-2.252-0.181-3.098-0.51c-0.707-0.275-0.996-0.562-1.074-0.677 0.078-0.115 0.367-0.402 1.074-0.677z"></path>
</svg>
