<?xml version="1.0" encoding="utf-8"?>
<!-- Generated by IcoMoon.io -->
<!DOCTYPE svg PUBLIC "-//W3C//DTD SVG 1.1//EN" "http://www.w3.org/Graphics/SVG/1.1/DTD/svg11.dtd">
<svg version="1.1" xmlns="http://www.w3.org/2000/svg" xmlns:xlink="http://www.w3.org/1999/xlink" width="16" height="16" viewBox="0 0 16 16">
<path fill="#000000" d="M8 6.508c-0.823 0-1.492 0.669-1.492 1.492s0.669 1.492 1.492 1.492c0.823 0 1.492-0.669 1.492-1.492s-0.669-1.492-1.492-1.492zM8 0c-4.418 0-8 3.582-8 8s3.582 8 8 8 8-3.582 8-8-3.582-8-8-8zM13.733 3.874c-0.060-0.083-0.122-0.166-0.186-0.246 0.064 0.081 0.126 0.163 0.186 0.246zM13.336 3.374c-0.036-0.041-0.072-0.082-0.108-0.122 0.037 0.040 0.073 0.081 0.108 0.122zM13.217 3.24c-0.035-0.039-0.071-0.077-0.107-0.115 0.036 0.038 0.072 0.076 0.107 0.115zM3.141 13.125c0.044 0.041 0.088 0.082 0.132 0.122-0.044-0.040-0.089-0.081-0.132-0.122zM3.279 13.252c0.046 0.041 0.092 0.082 0.139 0.122-0.047-0.040-0.093-0.080-0.139-0.122zM4.256 13.99c-0.060-0.037-0.119-0.076-0.177-0.115h0.249l-0.072 0.115zM4.484 13.625h-0.755c0.056 0.043 0.113 0.085 0.17 0.126-0.165-0.118-0.325-0.243-0.48-0.376h1.222l-0.156 0.25zM4.078 13.875c-0.059-0.040-0.118-0.080-0.175-0.121 0.058 0.041 0.116 0.082 0.175 0.121zM4.797 13.125h-1.656c-0.045-0.043-0.090-0.087-0.135-0.131-0.076-0.076-0.15-0.155-0.223-0.234 0.035 0.039 0.071 0.077 0.107 0.115h2.063l-0.156 0.25zM2.663 12.625c0.036 0.041 0.072 0.082 0.109 0.123-0.037-0.040-0.073-0.081-0.109-0.123zM5.109 12.625h-2.446c-0.14-0.161-0.272-0.328-0.396-0.499 0.061 0.084 0.123 0.168 0.188 0.249h2.81l-0.156 0.25zM5.422 12.125h-3.155c-0.090-0.124-0.176-0.251-0.257-0.381 0.028 0.044 0.056 0.088 0.085 0.131h3.483l-0.156 0.25zM5.734 11.625h-3.534l0.4-0.25h3.291l-0.156 0.25zM6.047 11.125h-3.047l0.4-0.25h2.803l-0.156 0.25zM13.249 4.72l0.151-0.095h-3.291l-0.156 0.25h3.047l-0.4 0.25h-2.803l-0.156 0.25h2.559l-0.4 0.25h-2.236c0.115 0.076 0.223 0.159 0.325 0.25h1.51l-0.4 0.25h-0.862c0.070 0.080 0.135 0.163 0.196 0.25h0.266l-0.188 0.118c0.274 0.437 0.432 0.954 0.432 1.507 0 1.571-1.273 2.844-2.844 2.844-0.554 0-1.070-0.158-1.507-0.432l-0.133 0.213h-2.559l0.4-0.25h2.236c-0.115-0.076-0.223-0.159-0.325-0.25h-1.51l0.988-0.618c-0.274-0.437-0.432-0.954-0.432-1.507 0-1.571 1.273-2.844 2.844-2.844 0.554 0 1.070 0.158 1.507 0.432l2.236-3.578c0.12 0.075 0.238 0.154 0.354 0.237-0.058-0.042-0.117-0.082-0.176-0.122l-0.406 0.25h0.755c-0.056-0.043-0.113-0.085-0.171-0.126 0.165 0.118 0.326 0.244 0.481 0.376h-1.222l-0.156 0.25h1.656c-0.043-0.041-0.087-0.082-0.132-0.121 0.091 0.082 0.18 0.166 0.266 0.253 0.039 0.039 0.078 0.079 0.116 0.119h-2.063l-0.156 0.25h2.446c0.071 0.082 0.141 0.165 0.208 0.25h-2.81l-0.156 0.25h3.155c0.090 0.124 0.176 0.251 0.257 0.381l-0.741 0.463zM12.582 2.626c0.047 0.040 0.093 0.080 0.139 0.121-0.046-0.041-0.092-0.082-0.139-0.121zM10.422 4.125l-0.156 0.25h3.534l0.19-0.119c-0.028-0.044-0.056-0.088-0.085-0.131h-3.483zM5.4 9.625l-0.4 0.25h0.862c-0.070-0.080-0.135-0.163-0.196-0.25h-0.266z"></path>
</svg>
