<?xml version="1.0" encoding="utf-8"?>
<!-- Generated by IcoMoon.io -->
<!DOCTYPE svg PUBLIC "-//W3C//DTD SVG 1.1//EN" "http://www.w3.org/Graphics/SVG/1.1/DTD/svg11.dtd">
<svg version="1.1" xmlns="http://www.w3.org/2000/svg" xmlns:xlink="http://www.w3.org/1999/xlink" width="16" height="16" viewBox="0 0 16 16">
<path fill="#000000" d="M8 6.508c-0.823 0-1.492 0.669-1.492 1.492s0.669 1.492 1.492 1.492 1.492-0.669 1.492-1.492-0.669-1.492-1.492-1.492z"></path>
<path fill="#000000" d="M8 0c-4.418 0-8 3.582-8 8s3.582 8 8 8 8-3.582 8-8-3.582-8-8-8zM10.609 8c0 1.439-1.171 2.609-2.609 2.609s-2.609-1.171-2.609-2.609 1.171-2.609 2.609-2.609 2.609 1.171 2.609 2.609zM2.064 11.71l3.3-2.063c0.25 0.399 0.589 0.738 0.988 0.988l-2.063 3.3c-0.9-0.564-1.662-1.326-2.226-2.226zM10.636 6.353c-0.251-0.399-0.589-0.738-0.988-0.988l2.063-3.3c0.9 0.564 1.662 1.326 2.226 2.226l-3.3 2.063z"></path>
</svg>
