<?xml version="1.0" encoding="utf-8"?>
<!-- Generated by IcoMoon.io -->
<!DOCTYPE svg PUBLIC "-//W3C//DTD SVG 1.1//EN" "http://www.w3.org/Graphics/SVG/1.1/DTD/svg11.dtd">
<svg version="1.1" xmlns="http://www.w3.org/2000/svg" xmlns:xlink="http://www.w3.org/1999/xlink" width="16" height="16" viewBox="0 0 16 16">
<path fill="#000000" d="M1.5 7.375h8.906l-0.438-0.25h-8.469zM1.5 6.875h8.031l-0.438-0.25h-7.594zM1.5 6.375h7.156l-0.438-0.25h-6.719zM1.5 5.875h6.281l-0.438-0.25h-5.844zM1.5 7.875h9.781l-0.438-0.25h-9.344zM1.5 8.375h10.656l-0.438-0.25h-10.219zM1.5 8.875h11.531l-0.438-0.25h-11.094zM1.5 2.875h1.031l-0.438-0.25h-0.594zM1.5 9.125v0.25h12.406l-0.438-0.25zM1.5 3.375h1.906l-0.438-0.25h-1.469zM1.5 3.875h2.781l-0.438-0.25h-2.344zM1.5 4.875h4.531l-0.438-0.25h-4.094zM1.5 4.375h3.656l-0.438-0.25h-3.219zM1.5 5.375h5.406l-0.438-0.25h-4.969zM0 1v10h16v-10h-16zM15 10h-14v-8h14v8zM10.5 12h-5l-0.5 2-1 1h8l-1-1z"></path>
</svg>
