<?xml version="1.0" encoding="utf-8"?>
<!-- Generated by IcoMoon.io -->
<!DOCTYPE svg PUBLIC "-//W3C//DTD SVG 1.1//EN" "http://www.w3.org/Graphics/SVG/1.1/DTD/svg11.dtd">
<svg version="1.1" xmlns="http://www.w3.org/2000/svg" xmlns:xlink="http://www.w3.org/1999/xlink" width="16" height="16" viewBox="0 0 16 16">
<path fill="#000000" d="M15.89 10.188l-4-5c-0.172-0.216-0.487-0.251-0.703-0.078s-0.251 0.487-0.078 0.703l3.89 4.863v0.325h-3.5l-2 2h-3l-2-2h-3.5v-0.325l3.89-4.863c0.173-0.216 0.138-0.53-0.078-0.703s-0.53-0.138-0.703 0.078l-4 5c-0.071 0.089-0.11 0.199-0.11 0.312v4.5c0 0.552 0.448 1 1 1h14c0.552 0 1-0.448 1-1v-4.5c0-0.114-0.039-0.224-0.11-0.312z"></path>
<path fill="#000000" d="M8 0.5l-3.5 3.5h2.5v5h2v-5h2.5z"></path>
</svg>
