<?xml version="1.0" encoding="utf-8"?>
<!-- Generated by IcoMoon.io -->
<!DOCTYPE svg PUBLIC "-//W3C//DTD SVG 1.1//EN" "http://www.w3.org/Graphics/SVG/1.1/DTD/svg11.dtd">
<svg version="1.1" xmlns="http://www.w3.org/2000/svg" xmlns:xlink="http://www.w3.org/1999/xlink" width="16" height="16" viewBox="0 0 16 16">
<path fill="#000000" d="M8 0c-4.418 0-8 3.582-8 8s3.582 8 8 8 8-3.582 8-8-3.582-8-8-8zM5.5 1.46v0.54l-2.5 2.5h-1.063c0.799-1.381 2.056-2.463 3.563-3.040zM8 10l-3.573 4.020c-0.146-0.087-0.288-0.178-0.427-0.275v-3.245l-2-1.5v-2.5c0-0.276 0.224-0.5 0.5-0.5h1.5c0 0 1.5 2 4 2.5v1.5zM14.049 7.668c-0.247-0.832-0.461-0.913-1.549-1.283v-0c-0.372-0.117-0.723-0.322-1.018-0.617-0.976-0.976-0.976-2.559 0-3.536 0.066-0.066 0.134-0.126 0.205-0.183 1.988 1.235 3.313 3.438 3.313 5.951 0 1.296-0.353 2.51-0.967 3.551 0.257-1.664 0.162-2.997 0.016-3.883z"></path>
</svg>
