<?xml version="1.0" encoding="utf-8"?>
<!-- Generated by IcoMoon.io -->
<!DOCTYPE svg PUBLIC "-//W3C//DTD SVG 1.1//EN" "http://www.w3.org/Graphics/SVG/1.1/DTD/svg11.dtd">
<svg version="1.1" xmlns="http://www.w3.org/2000/svg" xmlns:xlink="http://www.w3.org/1999/xlink" width="16" height="16" viewBox="0 0 16 16">
<path fill="#000000" d="M0 0v16h16v-16h-16zM15 15h-14v-14h14v14zM10.5 2.5l4.5-1.5-1.5 4.5zM5.25 4h0.5v1h-0.5zM6.25 4h0.5v1h-0.5zM7.25 4h0.5v1h-0.5zM8.25 4h0.5v1h-0.5zM9.25 4h0.5v1h-0.5zM10.25 4h0.5v1h-0.5zM5.25 11h0.5v1h-0.5zM6.25 11h0.5v1h-0.5zM7.25 11h0.5v1h-0.5zM8.25 11h0.5v1h-0.5zM9.25 11h0.5v1h-0.5zM10.25 11h0.5v1h-0.5zM4 10.25h1v0.5h-1zM4 9.25h1v0.5h-1zM4 8.25h1v0.5h-1zM4 7.25h1v0.5h-1zM4 6.25h1v0.5h-1zM4 5.25h1v0.5h-1zM11 10.25h1v0.5h-1zM11 9.25h1v0.5h-1zM11 8.25h1v0.5h-1zM11 7.25h1v0.5h-1zM11 6.25h1v0.5h-1zM11 5.25h1v0.5h-1zM2.5 5.5l-1.5-4.5 4.5 1.5zM5.5 13.5l-4.5 1.5 1.5-4.5zM13.5 10.5l1.5 4.5-4.5-1.5z"></path>
</svg>
