<?xml version="1.0" encoding="utf-8"?>
<!-- Generated by IcoMoon.io -->
<!DOCTYPE svg PUBLIC "-//W3C//DTD SVG 1.1//EN" "http://www.w3.org/Graphics/SVG/1.1/DTD/svg11.dtd">
<svg version="1.1" xmlns="http://www.w3.org/2000/svg" xmlns:xlink="http://www.w3.org/1999/xlink" width="16" height="16" viewBox="0 0 16 16">
<path fill="#000000" d="M15 1h-14c-0.55 0-1 0.45-1 1v12c0 0.55 0.45 1 1 1h14c0.55 0 1-0.45 1-1v-12c0-0.55-0.45-1-1-1zM15 13.998c-0.001 0.001-0.001 0.001-0.002 0.002h-13.996c-0.001-0.001-0.001-0.001-0.002-0.002v-11.996c0.001-0.001 0.001-0.001 0.002-0.002h13.996c0.001 0.001 0.001 0.001 0.002 0.002l-0 11.996zM6.75 11h-0.75v-8h-2v8h-0.75c-0.138 0-0.25 0.113-0.25 0.25v1.5c0 0.137 0.112 0.25 0.25 0.25h3.5c0.138 0 0.25-0.113 0.25-0.25v-1.5c0-0.137-0.112-0.25-0.25-0.25zM9.25 5h0.75v8h2v-8h0.75c0.137 0 0.25-0.112 0.25-0.25v-1.5c0-0.138-0.113-0.25-0.25-0.25h-3.5c-0.137 0-0.25 0.112-0.25 0.25v1.5c0 0.138 0.113 0.25 0.25 0.25z"></path>
</svg>
