<?xml version="1.0" encoding="utf-8"?>
<!-- Generated by IcoMoon.io -->
<!DOCTYPE svg PUBLIC "-//W3C//DTD SVG 1.1//EN" "http://www.w3.org/Graphics/SVG/1.1/DTD/svg11.dtd">
<svg version="1.1" xmlns="http://www.w3.org/2000/svg" xmlns:xlink="http://www.w3.org/1999/xlink" width="16" height="16" viewBox="0 0 16 16">
<path fill="#000000" d="M2.905 11.18c-0.109-0.068-0.211-0.133-0.303-0.194-0.685-0.453-1.315-0.972-1.775-1.461-0.556-0.591-0.827-1.090-0.827-1.526s0.27-0.934 0.827-1.526c0.46-0.489 1.090-1.007 1.775-1.461 1.022-0.676 3.083-1.811 5.398-1.811 0.197 0 0.392 0.009 0.586 0.024l-1.069 1.496c-1.642 0.137-3.122 0.928-3.897 1.418-1.212 0.766-1.922 1.542-2.095 1.858 0.172 0.317 0.883 1.093 2.095 1.858 0.050 0.032 0.103 0.065 0.159 0.098l-0.874 1.223zM15.173 6.474c-0.46-0.489-1.090-1.007-1.775-1.461-0.51-0.338-1.279-0.789-2.209-1.156l1.794-2.512-0.966-0.69-10 14 0.966 0.69 2.19-3.066c0.85 0.301 1.814 0.518 2.827 0.518 2.315 0 4.376-1.134 5.398-1.811 0.685-0.453 1.315-0.972 1.775-1.461 0.556-0.591 0.827-1.090 0.827-1.526s-0.27-0.934-0.827-1.526zM12.38 9.858c-0.85 0.537-2.549 1.438-4.38 1.438-0.667 0-1.316-0.12-1.913-0.298l0.907-1.27c0.295 0.172 0.639 0.271 1.005 0.271 1.105 0 2-0.895 2-2 0-0.604-0.268-1.145-0.691-1.511l0.977-1.367c0.88 0.307 1.619 0.72 2.094 1.020 1.212 0.766 1.922 1.541 2.095 1.858-0.172 0.317-0.883 1.093-2.095 1.858z"></path>
</svg>
