<?xml version="1.0" encoding="utf-8"?>
<!-- Generated by IcoMoon.io -->
<!DOCTYPE svg PUBLIC "-//W3C//DTD SVG 1.1//EN" "http://www.w3.org/Graphics/SVG/1.1/DTD/svg11.dtd">
<svg version="1.1" xmlns="http://www.w3.org/2000/svg" xmlns:xlink="http://www.w3.org/1999/xlink" width="16" height="16" viewBox="0 0 16 16">
<path fill="#000000" d="M12 5h-1.75c-1 0-0.25-1-0.25-3 0-0.236-0.028-0.416-0.077-0.55-0.239-0.837-1.009-1.45-1.923-1.45s-1.684 0.613-1.923 1.45c-0.049 0.134-0.077 0.314-0.077 0.55 0 2 0.75 3-0.25 3h-1.75v2h2v7.75c0 0.137 0.112 0.25 0.25 0.25h0.5c0.138 0 0.25 0.113 0.25 0.25v0.5c0 0.137 0.112 0.25 0.25 0.25h1.5c0.137 0 0.25-0.113 0.25-0.25v-0.5c0-0.137 0.113-0.25 0.25-0.25h0.5c0.137 0 0.25-0.113 0.25-0.25v-7.75h2v-2zM9 14.025c-0.489 0.1-0.875 0.486-0.975 0.975h-0.050c-0.1-0.489-0.486-0.875-0.975-0.975v-7.025h2v7.025z"></path>
</svg>
