<?xml version="1.0" encoding="utf-8"?>
<!-- Generated by IcoMoon.io -->
<!DOCTYPE svg PUBLIC "-//W3C//DTD SVG 1.1//EN" "http://www.w3.org/Graphics/SVG/1.1/DTD/svg11.dtd">
<svg version="1.1" xmlns="http://www.w3.org/2000/svg" xmlns:xlink="http://www.w3.org/1999/xlink" width="16" height="16" viewBox="0 0 16 16">
<path fill="#000000" d="M11 4h3.627c-0.078-0.126-0.172-0.266-0.286-0.421-0.347-0.473-0.831-1.027-1.362-1.558s-1.085-1.015-1.558-1.362c-0.155-0.114-0.295-0.208-0.421-0.286v3.627z"></path>
<path fill="#000000" d="M10.5 5c-0.276 0-0.5-0.224-0.5-0.5v-4.5h-7.75c-0.689 0-1.25 0.561-1.25 1.25v13.5c0 0.689 0.561 1.25 1.25 1.25h11.5c0.689 0 1.25-0.561 1.25-1.25v-9.75h-4.5zM12 12.5c0 0.828-0.895 1.5-2 1.5s-2-0.672-2-1.5 0.895-1.5 2-1.5c0.364 0 0.706 0.073 1 0.201v-2.091l-4 0.8v3.59c0 0.828-0.895 1.5-2 1.5s-2-0.672-2-1.5 0.895-1.5 2-1.5c0.364 0 0.706 0.073 1 0.201v-3.701c0-0.238 0.168-0.444 0.402-0.49l5-1c0.147-0.029 0.299 0.009 0.415 0.104s0.183 0.237 0.183 0.387v5z"></path>
</svg>
