<?xml version="1.0" encoding="utf-8"?>
<!-- Generated by IcoMoon.io -->
<!DOCTYPE svg PUBLIC "-//W3C//DTD SVG 1.1//EN" "http://www.w3.org/Graphics/SVG/1.1/DTD/svg11.dtd">
<svg version="1.1" xmlns="http://www.w3.org/2000/svg" xmlns:xlink="http://www.w3.org/1999/xlink" width="16" height="16" viewBox="0 0 16 16">
<path fill="#000000" d="M11 4h3.627c-0.078-0.126-0.172-0.266-0.286-0.421-0.347-0.473-0.831-1.027-1.362-1.558s-1.085-1.015-1.558-1.362c-0.155-0.114-0.295-0.208-0.421-0.286v3.627z"></path>
<path fill="#000000" d="M5.755 15.881c-1.241-0.806-2.19-1.932-2.743-3.254-0.167-0.399-0.167-0.856 0-1.254 0.553-1.322 1.502-2.448 2.743-3.254 1.253-0.814 2.721-1.244 4.245-1.244s2.992 0.43 4.245 1.244c0.266 0.172 0.518 0.36 0.755 0.56v-3.679h-4.5c-0.276 0-0.5-0.224-0.5-0.5v-4.5h-7.75c-0.689 0-1.25 0.561-1.25 1.25v13.5c0 0.689 0.561 1.25 1.25 1.25h3.695c-0.064-0.039-0.127-0.078-0.19-0.119z"></path>
<path fill="#000000" d="M15.95 11.807c-0.466-1.113-1.267-2.062-2.318-2.745-1.070-0.695-2.326-1.062-3.632-1.062s-2.562 0.367-3.632 1.062c-1.051 0.683-1.853 1.632-2.318 2.745-0.052 0.123-0.052 0.262 0 0.386 0.466 1.113 1.267 2.062 2.318 2.745 1.070 0.695 2.326 1.062 3.632 1.062s2.562-0.367 3.632-1.062c1.051-0.683 1.853-1.632 2.318-2.745 0.052-0.123 0.052-0.262-0-0.386zM10 11c0 0.552-0.448 1-1 1s-1-0.448-1-1 0.448-1 1-1 1 0.448 1 1zM13.087 14.099c-0.908 0.589-1.975 0.901-3.087 0.901s-2.18-0.312-3.087-0.901c-0.82-0.533-1.458-1.255-1.855-2.099 0.397-0.844 1.035-1.566 1.855-2.099 0.102-0.066 0.206-0.128 0.311-0.188-0.199 0.405-0.311 0.86-0.311 1.342 0 1.681 1.363 3.044 3.044 3.044s3.044-1.363 3.044-3.044c0-0.508-0.125-0.986-0.344-1.407 0.147 0.078 0.292 0.162 0.432 0.253 0.82 0.533 1.457 1.255 1.855 2.099-0.397 0.844-1.035 1.566-1.855 2.099v0 0z"></path>
</svg>
