<?xml version="1.0" encoding="utf-8"?>
<!-- Generated by IcoMoon.io -->
<!DOCTYPE svg PUBLIC "-//W3C//DTD SVG 1.1//EN" "http://www.w3.org/Graphics/SVG/1.1/DTD/svg11.dtd">
<svg version="1.1" xmlns="http://www.w3.org/2000/svg" xmlns:xlink="http://www.w3.org/1999/xlink" width="16" height="16" viewBox="0 0 16 16">
<path fill="#000000" d="M0 1v14h16v-14h-16zM3 14h-2v-2h2v2zM3 11h-2v-2h2v2zM3 7h-2v-2h2v2zM3 4h-2v-2h2v2zM12 14h-8v-5h8v5zM12 7h-8v-5h8v5zM15 14h-2v-2h2v2zM15 11h-2v-2h2v2zM15 7h-2v-2h2v2zM15 4h-2v-2h2v2z"></path>
</svg>
