<?xml version="1.0" encoding="utf-8"?>
<!-- Generated by IcoMoon.io -->
<!DOCTYPE svg PUBLIC "-//W3C//DTD SVG 1.1//EN" "http://www.w3.org/Graphics/SVG/1.1/DTD/svg11.dtd">
<svg version="1.1" xmlns="http://www.w3.org/2000/svg" xmlns:xlink="http://www.w3.org/1999/xlink" width="16" height="16" viewBox="0 0 16 16">
<path fill="#000000" d="M5 6h2v2h-2v-2z"></path>
<path fill="#000000" d="M9 6h2v2h-2v-2z"></path>
<path fill="#000000" d="M15 1c-0.552 0-1 0.448-1 1v1h-12v-1c0-0.552-0.448-1-1-1s-1 0.448-1 1v13c0 0.552 0.448 1 1 1s1-0.448 1-1v-4h12v4c0 0.552 0.448 1 1 1s1-0.448 1-1v-13c0-0.552-0.448-1-1-1zM13 10v-2h-2v2h-2v-2h-2v2h-2v-2h-2v2h-1v-2h1v-2h-1v-2h1v2h2v-2h2v2h2v-2h2v2h2v-2h1v2h-1v2h1v2h-1z"></path>
</svg>
