<?xml version="1.0" encoding="utf-8"?>
<!-- Generated by IcoMoon.io -->
<!DOCTYPE svg PUBLIC "-//W3C//DTD SVG 1.1//EN" "http://www.w3.org/Graphics/SVG/1.1/DTD/svg11.dtd">
<svg version="1.1" xmlns="http://www.w3.org/2000/svg" xmlns:xlink="http://www.w3.org/1999/xlink" width="16" height="16" viewBox="0 0 16 16">
<path fill="#000000" d="M4 1.016c0.606 0.025 1.053 0.084 1.449 0.216 0.599 0.199 1.115 0.594 1.725 1.319 1.693 2.011 3.404 2.87 5.722 2.87 0.242 0 0.493-0.010 0.755-0.029-0.315 0.371-0.647 0.733-0.992 1.064-0.483 0.464-0.953 0.829-1.398 1.084-0.468 0.269-0.923 0.425-1.352 0.464-0.057 0.005-0.11 0.008-0.165 0.008-0.526 0-0.93-0.244-1.545-0.643-0.705-0.457-1.583-1.025-2.861-1.025-0.428 0-0.872 0.064-1.339 0.193v-5.52zM3 0v8c0.956-0.477 1.711-0.657 2.339-0.657 1.917 0 2.668 1.668 4.406 1.668 0.083 0 0.167-0.004 0.255-0.012 2.492-0.226 4.595-3.111 6-5-1.194 0.276-2.21 0.42-3.104 0.42-2.085 0-3.503-0.785-4.957-2.513-1.506-1.789-2.647-1.907-4.939-1.907v0zM0 0h2v16h-2z"></path>
</svg>
