<?xml version="1.0" encoding="utf-8"?>
<!-- Generated by IcoMoon.io -->
<!DOCTYPE svg PUBLIC "-//W3C//DTD SVG 1.1//EN" "http://www.w3.org/Graphics/SVG/1.1/DTD/svg11.dtd">
<svg version="1.1" xmlns="http://www.w3.org/2000/svg" xmlns:xlink="http://www.w3.org/1999/xlink" width="16" height="16" viewBox="0 0 16 16">
<path fill="#000000" d="M0 0h2v16h-2v-16z"></path>
<path fill="#000000" d="M14.512 9c-0-0-0-0-0.001 0h-11.012c-0.276 0-0.5-0.224-0.5-0.5v-7c0-0.276 0.224-0.5 0.5-0.5h11.012c0.202 0 0.385 0.122 0.462 0.309s0.035 0.402-0.108 0.545l-3.146 3.146 3.132 3.132c0.099 0.091 0.162 0.223 0.162 0.368 0 0.276-0.224 0.5-0.5 0.5zM4 8h9.305l-2.646-2.646c-0.195-0.195-0.195-0.512 0-0.707l2.646-2.646h-9.305v6z"></path>
</svg>
