<?xml version="1.0" encoding="utf-8"?>
<!-- Generated by IcoMoon.io -->
<!DOCTYPE svg PUBLIC "-//W3C//DTD SVG 1.1//EN" "http://www.w3.org/Graphics/SVG/1.1/DTD/svg11.dtd">
<svg version="1.1" xmlns="http://www.w3.org/2000/svg" xmlns:xlink="http://www.w3.org/1999/xlink" width="16" height="16" viewBox="0 0 16 16">
<path fill="#000000" d="M10.723 15.749c-0.791 0-1.544-0.334-2.119-0.939-0.234-0.247-0.437-0.534-0.605-0.854-0.168 0.321-0.37 0.608-0.605 0.854-0.575 0.606-1.328 0.939-2.119 0.939-0.696 0-1.419-0.256-2.090-0.742-0.977-0.707-1.47-1.677-1.388-2.73 0.064-0.82 0.466-1.61 1.128-2.265-1.026-0.15-1.873-0.614-2.388-1.323-0.553-0.762-0.67-1.758-0.329-2.804 0.457-1.4 1.422-2.204 2.648-2.204 0.555 0 1.136 0.166 1.708 0.481-0.103-0.847 0.056-1.671 0.477-2.359 0.605-0.988 1.683-1.555 2.956-1.555s2.351 0.567 2.956 1.555c0.421 0.687 0.58 1.511 0.477 2.358 0.572-0.315 1.153-0.481 1.708-0.481 1.226 0 2.191 0.803 2.649 2.204 0.341 1.046 0.225 2.042-0.329 2.804-0.514 0.709-1.362 1.172-2.388 1.322 0.662 0.655 1.064 1.444 1.128 2.264 0.082 1.054-0.411 2.023-1.388 2.73-0.671 0.485-1.393 0.742-2.090 0.742zM8 11.844c0.246 0 0.455 0.178 0.494 0.421 0.242 1.509 1.117 2.485 2.23 2.485 0.492 0 0.997-0.186 1.504-0.552 0.694-0.502 1.032-1.139 0.977-1.842-0.072-0.917-0.811-1.84-1.931-2.409-0.219-0.111-0.325-0.366-0.249-0.6s0.31-0.378 0.553-0.34c0.253 0.040 0.506 0.060 0.75 0.060 0 0 0 0 0 0 1.033 0 1.88-0.351 2.324-0.963 0.365-0.503 0.43-1.163 0.187-1.906-0.225-0.691-0.703-1.514-1.698-1.514-0.705 0-1.539 0.427-2.288 1.172-0.174 0.173-0.449 0.194-0.647 0.049s-0.262-0.412-0.151-0.631c0.527-1.033 0.545-2.133 0.049-2.945-0.425-0.695-1.172-1.077-2.104-1.077s-1.678 0.383-2.103 1.077c-0.497 0.811-0.479 1.912 0.049 2.945 0.112 0.219 0.048 0.486-0.151 0.631s-0.473 0.124-0.647-0.049c-0.749-0.745-1.583-1.172-2.288-1.172-0.995 0-1.472 0.823-1.698 1.514-0.243 0.744-0.178 1.403 0.187 1.906 0.444 0.612 1.291 0.963 2.324 0.963 0.244 0 0.496-0.020 0.75-0.060 0.243-0.038 0.477 0.106 0.553 0.34s-0.030 0.488-0.249 0.6c-1.12 0.569-1.859 1.493-1.931 2.41-0.055 0.703 0.283 1.34 0.977 1.842 0.499 0.361 1.019 0.552 1.503 0.552 1.113 0 1.988-0.975 2.23-2.485 0.039-0.243 0.248-0.421 0.494-0.421z"></path>
<path fill="#000000" d="M8 10.717c-1.275 0-2.313-1.037-2.313-2.313s1.037-2.313 2.313-2.313c1.275 0 2.313 1.038 2.313 2.313s-1.038 2.313-2.313 2.313zM8 7.092c-0.724 0-1.313 0.589-1.313 1.313s0.589 1.313 1.313 1.313c0.724 0 1.313-0.589 1.313-1.313s-0.589-1.313-1.313-1.313z"></path>
</svg>
