<?xml version="1.0" encoding="utf-8"?>
<!-- Generated by IcoMoon.io -->
<!DOCTYPE svg PUBLIC "-//W3C//DTD SVG 1.1//EN" "http://www.w3.org/Graphics/SVG/1.1/DTD/svg11.dtd">
<svg version="1.1" xmlns="http://www.w3.org/2000/svg" xmlns:xlink="http://www.w3.org/1999/xlink" width="16" height="16" viewBox="0 0 16 16">
<path fill="#000000" d="M15 4h-14l1-2h5.5l0.5 1h6.5zM7.813 12.5c0 0.918 0.266 1.776 0.724 2.5h-7.537l-1-10h16l-0.399 3.988c-0.827-0.731-1.913-1.176-3.101-1.176-2.585 0-4.688 2.103-4.688 4.687zM12.5 9c-1.933 0-3.5 1.567-3.5 3.5s1.567 3.5 3.5 3.5 3.5-1.567 3.5-3.5-1.567-3.5-3.5-3.5zM13 13v2h-1v-2h-2v-1h2v-2h1v2h2v1h-2z"></path>
</svg>
