<?xml version="1.0" encoding="utf-8"?>
<!-- Generated by IcoMoon.io -->
<!DOCTYPE svg PUBLIC "-//W3C//DTD SVG 1.1//EN" "http://www.w3.org/Graphics/SVG/1.1/DTD/svg11.dtd">
<svg version="1.1" xmlns="http://www.w3.org/2000/svg" xmlns:xlink="http://www.w3.org/1999/xlink" width="16" height="16" viewBox="0 0 16 16">
<path fill="#000000" d="M14.854 4.146l-2-2c-0.094-0.094-0.221-0.146-0.354-0.146h-1c-0.276 0-0.5 0.224-0.5 0.5s0.224 0.5 0.5 0.5h0.543l1 1h-0.543c-0.276 0-0.5 0.224-0.5 0.5v2c0 0.276 0.224 0.5 0.5 0.5h1.5v4c0 0.551-0.449 1-1 1s-1-0.449-1-1v-2.5c0-0.276-0.224-0.5-0.5-0.5h-1.5v-5.5c0-0.825-0.675-1.5-1.5-1.5h-6c-0.825 0-1.5 0.675-1.5 1.5v12.5h-1v1h11v-1h-1v-6h1v2c0 1.103 0.897 2 2 2s2-0.897 2-2v-6.5c0-0.133-0.053-0.26-0.146-0.354zM2 5.5v-3c0-0.275 0.225-0.5 0.5-0.5h6c0.275 0 0.5 0.225 0.5 0.5v3c0 0.275-0.225 0.5-0.5 0.5h-6c-0.275 0-0.5-0.225-0.5-0.5zM13 6v-1h1v1h-1z"></path>
</svg>
