<?xml version="1.0" encoding="utf-8"?>
<!-- Generated by IcoMoon.io -->
<!DOCTYPE svg PUBLIC "-//W3C//DTD SVG 1.1//EN" "http://www.w3.org/Graphics/SVG/1.1/DTD/svg11.dtd">
<svg version="1.1" xmlns="http://www.w3.org/2000/svg" xmlns:xlink="http://www.w3.org/1999/xlink" width="16" height="16" viewBox="0 0 16 16">
<path fill="#000000" d="M15.948 5.412c-0.986-0.115-2.431-0.181-3.006-0.181s-2.447 0.066-2.99 0.328c-0.538 0.261-1.077 0.635-1.952 0.64-0.876-0.005-1.414-0.379-1.953-0.64-0.542-0.263-2.415-0.328-2.989-0.328s-2.020 0.066-3.006 0.181c0 0-0.117 0.908 0 1.199 0.506 0.3 0.534 1.714 0.974 2.933s2.496 1.218 2.953 1.218c0.457 0 1.587 0.075 2.138-0.305s1.030-2.236 1.162-2.778c0.112-0.461 0.568-0.482 0.702-0.478 0 0.001 0 0.002 0 0.002s0.007-0.001 0.019-0.001c0.012 0.001 0.019 0.001 0.019 0.001s0-0.001 0-0.002c0.134-0.004 0.59 0.017 0.702 0.478 0.131 0.542 0.61 2.398 1.162 2.778s1.681 0.305 2.138 0.305c0.457 0 2.513 0 2.953-1.218s0.468-2.633 0.974-2.933c0.117-0.291-0-1.199-0-1.199z"></path>
</svg>
