<?xml version="1.0" encoding="utf-8"?>
<!-- Generated by IcoMoon.io -->
<!DOCTYPE svg PUBLIC "-//W3C//DTD SVG 1.1//EN" "http://www.w3.org/Graphics/SVG/1.1/DTD/svg11.dtd">
<svg version="1.1" xmlns="http://www.w3.org/2000/svg" xmlns:xlink="http://www.w3.org/1999/xlink" width="16" height="16" viewBox="0 0 16 16">
<path fill="#000000" d="M0 0v16h16v-16h-16zM15 5h-4v-4h4v4zM6 10v-4h4v4h-4zM10 11v4h-4v-4h4zM5 10h-4v-4h4v4zM6 5v-4h4v4h-4zM11 6h4v4h-4v-4zM5 1v4h-4v-4h4zM1 11h4v4h-4v-4zM11 15v-4h4v4h-4z"></path>
</svg>
