<?xml version="1.0" encoding="utf-8"?>
<!-- Generated by IcoMoon.io -->
<!DOCTYPE svg PUBLIC "-//W3C//DTD SVG 1.1//EN" "http://www.w3.org/Graphics/SVG/1.1/DTD/svg11.dtd">
<svg version="1.1" xmlns="http://www.w3.org/2000/svg" xmlns:xlink="http://www.w3.org/1999/xlink" width="16" height="16" viewBox="0 0 16 16">
<path fill="#000000" d="M13.75 4l2.25-2c-0.189-1.010-0.99-1.811-2-2l-2 2.25v0.535l-2.835 2.835c-1.47-1.201-2.486-1.037-3.146-0.494-0.64 0.527-0.88 1.571-1.234 1.883-0.716 0.63-2.476-0.002-3.975 1.629-1.734 1.887-0.366 3.9 1.143 5.409s3.522 2.878 5.409 1.143c1.631-1.499 0.999-3.26 1.628-3.975 0.312-0.354 1.356-0.593 1.883-1.233 0.543-0.66 0.707-1.676-0.494-3.146l2.835-2.835h0.535zM4.58 13.42l-2-2 0.84-0.84 2 2-0.84 0.84zM7.5 10c-0.828 0-1.5-0.672-1.5-1.5s0.672-1.5 1.5-1.5 1.5 0.672 1.5 1.5-0.672 1.5-1.5 1.5z"></path>
</svg>
