<?xml version="1.0" encoding="utf-8"?>
<!-- Generated by IcoMoon.io -->
<!DOCTYPE svg PUBLIC "-//W3C//DTD SVG 1.1//EN" "http://www.w3.org/Graphics/SVG/1.1/DTD/svg11.dtd">
<svg version="1.1" xmlns="http://www.w3.org/2000/svg" xmlns:xlink="http://www.w3.org/1999/xlink" width="16" height="16" viewBox="0 0 16 16">
<path fill="#000000" d="M7 10c-0.364 0-0.706 0.098-1 0.269v-2.769c0-0.024-0.002-0.047-0.005-0.071l-1-7c-0.035-0.246-0.246-0.429-0.495-0.429s-0.46 0.183-0.495 0.429l-1 7c-0.003 0.023-0.005 0.047-0.005 0.071v2.769c-0.294-0.171-0.636-0.269-1-0.269-1.103 0-2 0.897-2 2s0.897 2 2 2 2-0.897 2-2v-4c0-0.276 0.224-0.5 0.5-0.5s0.5 0.224 0.5 0.5v4c0 0.801 0.474 1.494 1.156 1.813-0.1 0.214-0.156 0.449-0.156 0.687 0 0.827 0.673 1.5 1.5 1.5 0.276 0 0.5-0.224 0.5-0.5s-0.224-0.5-0.5-0.5c-0.276 0-0.5-0.224-0.5-0.5 0-0.197 0.115-0.41 0.277-0.52 0.972-0.135 1.723-0.972 1.723-1.98 0-1.103-0.897-2-2-2zM2 13c-0.551 0-1-0.449-1-1s0.449-1 1-1 1 0.449 1 1-0.449 1-1 1zM7 13c-0.551 0-1-0.449-1-1s0.449-1 1-1 1 0.449 1 1-0.449 1-1 1z"></path>
<path fill="#000000" d="M15 0h-3.5c-0.276 0-0.5 0.224-0.5 0.5s0.224 0.5 0.5 0.5h2.5v1h-2.5c-0.276 0-0.5 0.224-0.5 0.5s0.224 0.5 0.5 0.5h2.5v1h-2.5c-0.276 0-0.5 0.224-0.5 0.5s0.224 0.5 0.5 0.5h2.5v1h-2.5c-0.276 0-0.5 0.224-0.5 0.5s0.224 0.5 0.5 0.5h2.5v1h-2.5c-0.276 0-0.5 0.224-0.5 0.5s0.224 0.5 0.5 0.5h2.5v5c0 0.552 0.448 1 1 1s1-0.448 1-1v-13c0-0.552-0.448-1-1-1z"></path>
</svg>
