<?xml version="1.0" encoding="utf-8"?>
<!-- Generated by IcoMoon.io -->
<!DOCTYPE svg PUBLIC "-//W3C//DTD SVG 1.1//EN" "http://www.w3.org/Graphics/SVG/1.1/DTD/svg11.dtd">
<svg version="1.1" xmlns="http://www.w3.org/2000/svg" xmlns:xlink="http://www.w3.org/1999/xlink" width="16" height="16" viewBox="0 0 16 16">
<path fill="#000000" d="M8 15l-0.437-0.212c-0.309-0.15-7.563-3.733-7.563-9.179 0-2.541 2.117-4.609 4.719-4.609 1.245 0 2.414 0.476 3.281 1.296 0.867-0.82 2.037-1.296 3.281-1.296 2.602 0 4.719 2.068 4.719 4.609 0 5.446-7.255 9.029-7.563 9.179l-0.437 0.212zM4.719 3c-1.499 0-2.719 1.17-2.719 2.609 0 2.124 1.691 3.988 3.11 5.178 1.133 0.95 2.283 1.636 2.89 1.971 0.607-0.335 1.757-1.022 2.89-1.971 1.419-1.189 3.11-3.053 3.11-5.178 0-1.439-1.22-2.609-2.719-2.609-1.011 0-1.932 0.533-2.405 1.392l-0.876 1.589-0.876-1.589c-0.473-0.859-1.395-1.392-2.405-1.392z"></path>
</svg>
