<?xml version="1.0" encoding="utf-8"?>
<!-- Generated by IcoMoon.io -->
<!DOCTYPE svg PUBLIC "-//W3C//DTD SVG 1.1//EN" "http://www.w3.org/Graphics/SVG/1.1/DTD/svg11.dtd">
<svg version="1.1" xmlns="http://www.w3.org/2000/svg" xmlns:xlink="http://www.w3.org/1999/xlink" width="16" height="16" viewBox="0 0 16 16">
<path fill="#000000" d="M10.5 1.503l3.747 3.247 0.003-0.003-3.25-3.745 3.749 3.246 0.751 0.751-5.256 5.256c-0.463 0.463-1.174 0.534-1.714 0.214l0.719-0.722-3.25-3.745 3.747 3.247 0.003-0.003-3.25-3.745 3.747 3.247 0.003-0.003-3.25-3.745 3.747 3.247 0.003-0.003-3.25-3.745 3.747 3.247 0.003-0.003-3.25-3.745 3.747 3.247 0.003-0.003-3.25-3.745 3.747 3.247 0.003-0.003-3.25-3.745 3.747 3.247 0.003-0.003-3.25-3.745 3.747 3.247 0.003-0.003-3.25-3.745 3.747 3.247 0.003-0.003-3.25-3.745zM11.251 0.751l-6.221 6.218c-0.131-0.221-0.196-0.47-0.196-0.719 0-0.36 0.137-0.721 0.41-0.994l5.256-5.256 0.751 0.751zM5.031 6.969l3.5 3.5-2.531 2.531h-6v-1z"></path>
</svg>
