<?xml version="1.0" encoding="utf-8"?>
<!-- Generated by IcoMoon.io -->
<!DOCTYPE svg PUBLIC "-//W3C//DTD SVG 1.1//EN" "http://www.w3.org/Graphics/SVG/1.1/DTD/svg11.dtd">
<svg version="1.1" xmlns="http://www.w3.org/2000/svg" xmlns:xlink="http://www.w3.org/1999/xlink" width="16" height="16" viewBox="0 0 16 16">
<path fill="#000000" d="M10 13.201v0.486c0 0.552 1.343 1 3 1s3-0.448 3-1v-0.486c-0.518 0.485-1.765 0.736-3 0.736s-2.482-0.251-3-0.736zM10 12.625c0-0.552 1.343-1 3-1s3 0.448 3 1c0 0.552-1.343 1-3 1s-3-0.448-3-1zM14.2 3l-7.184 9.031c-0.49 0.563-3.949 0.403-5.78 0.122-0 0-0.001 0-0.001-0-0.833-0.092-1.055-0.428-1.19 0.318h-0c-0.154 1.178 0.135 2.198 0.135 2.198 0.611 0.64 6.238 0.263 6.836-0.358l8.984-11.311h-1.8z"></path>
</svg>
