<?xml version="1.0" encoding="utf-8"?>
<!-- Generated by IcoMoon.io -->
<!DOCTYPE svg PUBLIC "-//W3C//DTD SVG 1.1//EN" "http://www.w3.org/Graphics/SVG/1.1/DTD/svg11.dtd">
<svg version="1.1" xmlns="http://www.w3.org/2000/svg" xmlns:xlink="http://www.w3.org/1999/xlink" width="16" height="16" viewBox="0 0 16 16">
<path fill="#000000" d="M10.838 9.824c-1.169-0.761-1.838-1.188-1.838-1.824s0.67-1.064 1.838-1.824c1.882-1.183 3.162-3.505 3.162-6.176h-12c0 2.671 1.28 4.993 3.162 6.176 1.169 0.761 1.838 1.188 1.838 1.824s-0.67 1.064-1.838 1.824c-1.882 1.183-3.162 3.505-3.162 6.176h12c0-2.671-1.279-4.993-3.162-6.176zM4.057 3.028c-0.274-0.525-0.474-1.097-0.593-1.695h9.072c-0.119 0.598-0.318 1.17-0.593 1.695-0.184 0.352-0.399 0.678-0.64 0.972h-6.607c-0.241-0.294-0.455-0.619-0.64-0.972zM7.75 11.963c0 0.681-2.75 1.704-2.75 2.704h-1.536c0.119-0.598 0.318-1.17 0.593-1.695 0.447-0.855 1.074-1.553 1.814-2.018l0.009-0.006 0.009-0.006 0.048-0.031c0.73-0.475 1.376-0.896 1.813-1.399v2.451zM12.536 14.667h-1.536c0-1-2.75-2.023-2.75-2.704v-2.451c0.437 0.503 1.083 0.924 1.813 1.399l0.057 0.037 0.009 0.006c0.74 0.465 1.367 1.163 1.814 2.018 0.274 0.525 0.474 1.097 0.593 1.695z"></path>
</svg>
