<?xml version="1.0" encoding="utf-8"?>
<!-- Generated by IcoMoon.io -->
<!DOCTYPE svg PUBLIC "-//W3C//DTD SVG 1.1//EN" "http://www.w3.org/Graphics/SVG/1.1/DTD/svg11.dtd">
<svg version="1.1" xmlns="http://www.w3.org/2000/svg" xmlns:xlink="http://www.w3.org/1999/xlink" width="16" height="16" viewBox="0 0 16 16">
<path fill="#000000" d="M4.281 6.023c-0.528 0-1.025 0.206-1.398 0.579s-0.579 0.87-0.579 1.398 0.206 1.025 0.579 1.398c0.373 0.373 0.87 0.579 1.398 0.579s1.025-0.206 1.398-0.579l1.398-1.398-1.398-1.398c-0.373-0.373-0.87-0.579-1.398-0.579z"></path>
<path fill="#000000" d="M11.719 6.023c-0.528 0-1.025 0.206-1.398 0.579l-1.398 1.398 1.398 1.398c0.374 0.373 0.87 0.579 1.398 0.579s1.025-0.206 1.398-0.579c0.373-0.374 0.579-0.87 0.579-1.398s-0.206-1.025-0.579-1.398c-0.373-0.373-0.87-0.579-1.398-0.579z"></path>
<path fill="#000000" d="M14.5 0h-13c-0.825 0-1.5 0.675-1.5 1.5v13c0 0.825 0.675 1.5 1.5 1.5h13c0.825 0 1.5-0.675 1.5-1.5v-13c0-0.825-0.675-1.5-1.5-1.5zM14.039 10.32c-0.62 0.62-1.444 0.961-2.32 0.961s-1.7-0.341-2.32-0.961l-1.399-1.398-1.398 1.398c-0.62 0.62-1.444 0.961-2.32 0.961s-1.701-0.341-2.32-0.961c-0.62-0.62-0.961-1.444-0.961-2.32s0.341-1.7 0.961-2.32c0.62-0.62 1.444-0.961 2.32-0.961s1.701 0.341 2.32 0.961l1.398 1.398 1.398-1.398c0.62-0.62 1.444-0.961 2.32-0.961s1.701 0.341 2.32 0.961c0.62 0.62 0.961 1.444 0.961 2.32s-0.341 1.701-0.961 2.32z"></path>
</svg>
