<?xml version="1.0" encoding="utf-8"?>
<!-- Generated by IcoMoon.io -->
<!DOCTYPE svg PUBLIC "-//W3C//DTD SVG 1.1//EN" "http://www.w3.org/Graphics/SVG/1.1/DTD/svg11.dtd">
<svg version="1.1" xmlns="http://www.w3.org/2000/svg" xmlns:xlink="http://www.w3.org/1999/xlink" width="16" height="16" viewBox="0 0 16 16">
<path fill="#000000" d="M13 10h-10c-1.657 0-3 1.343-3 3s1.343 3 3 3h10c1.657 0 3-1.343 3-3s-1.343-3-3-3zM3 14c-0.552 0-1-0.448-1-1s0.448-1 1-1 1 0.448 1 1-0.448 1-1 1z"></path>
<path fill="#000000" d="M3 9h2.78l2.927-4.212c0.946-1.361 0.609-3.23-0.752-4.176l-5.909 8.503c0.306-0.075 0.625-0.115 0.954-0.115z"></path>
<path fill="#000000" d="M13 8h-5.308l-0.692 0.996v0.004h6c1.144 0 2.177 0.483 2.907 1.255-0.331-1.296-1.507-2.255-2.907-2.255z"></path>
</svg>
