<?xml version="1.0" encoding="utf-8"?>
<!-- Generated by IcoMoon.io -->
<!DOCTYPE svg PUBLIC "-//W3C//DTD SVG 1.1//EN" "http://www.w3.org/Graphics/SVG/1.1/DTD/svg11.dtd">
<svg version="1.1" xmlns="http://www.w3.org/2000/svg" xmlns:xlink="http://www.w3.org/1999/xlink" width="16" height="16" viewBox="0 0 16 16">
<path fill="#000000" d="M12 0c-0.552 0-1 0.448-1 1v2h-6v-2c0-0.552-0.448-1-1-1s-1 0.448-1 1v14c0 0.552 0.448 1 1 1s1-0.448 1-1v-2h6v2c0 0.552 0.448 1 1 1s1-0.448 1-1v-14c0-0.552-0.448-1-1-1zM11 11h-6v-2h6v2zM11 7h-6v-2h6v2z"></path>
</svg>
