<?xml version="1.0" encoding="utf-8"?>
<!-- Generated by IcoMoon.io -->
<!DOCTYPE svg PUBLIC "-//W3C//DTD SVG 1.1//EN" "http://www.w3.org/Graphics/SVG/1.1/DTD/svg11.dtd">
<svg version="1.1" xmlns="http://www.w3.org/2000/svg" xmlns:xlink="http://www.w3.org/1999/xlink" width="16" height="16" viewBox="0 0 16 16">
<path fill="#000000" d="M8 0c-3.314 0-6 2.686-6 6 0 2.221 1.207 4.16 3 5.197v3.803l1 1h4l1-1v-3.803c1.793-1.037 3-2.976 3-5.197 0-3.314-2.686-6-6-6zM7 10.625v-0.25h2v0.25h-2zM9 10.875v0.025c-0.326 0.066-0.66 0.1-1 0.1s-0.674-0.034-1-0.1v-0.025h2zM7 10.125v-0.25h2v0.25h-2zM7 9.625v-0.25h2v0.25h-2zM7 9.125v-0.25h2v0.25h-2zM7 8.625v-0.25h2v0.25h-2zM7 8.125v-0.25h2v0.25h-2zM7 7.625v-0.25h2v0.25h-2zM7 7.125v-0.25h2v0.25h-2zM7 6.625v-0.25h2v0.25h-2zM7 6.125v-0.25h2v0.25h-2zM7 5.625v-0.25h2v0.25h-2zM7 5.125v-0.125c0-0.042-0.003-0.084-0.008-0.125h2.016c-0.005 0.041-0.008 0.083-0.008 0.125v0.125h-2zM9.073 4.625h-2.146c0 0 0 0 0 0-0.037-0.091-0.086-0.175-0.147-0.25 0 0 0 0 0 0h2.439c-0.060 0.075-0.11 0.159-0.147 0.25zM9.051 4.684c-0 0-0 0.001-0 0.001s0-0.001 0-0.001zM6.949 4.686c-0-0-0-0.001-0-0.001s0 0.001 0 0.001zM6.484 4.125c0 0 0 0 0 0-0.144-0.080-0.309-0.125-0.484-0.125s-0.341 0.046-0.484 0.125c0-0 0-0 0-0h-2.154c0.069-0.171 0.147-0.338 0.235-0.5-0.044 0.082-0.087 0.165-0.126 0.25h9.057c0.039 0.082 0.075 0.166 0.109 0.25h-2.154c0 0 0 0 0 0-0.144-0.080-0.309-0.125-0.485-0.125s-0.341 0.046-0.485 0.125c0-0 0-0 0-0h-3.032zM9.474 4.15c-0 0-0.001 0.001-0.001 0.001s0.001-0.001 0.001-0.001zM9.433 4.176c-0.001 0-0.001 0.001-0.001 0.001 0.001-0 0.001-0.001 0.001-0.001zM9.394 4.205c-0 0-0.001 0.001-0.001 0.001s0.001-0.001 0.001-0.001zM9.355 4.236c-0 0-0 0-0.001 0.001s0-0 0.001-0.001zM9.319 4.268c-0 0-0 0-0 0s0-0 0-0zM6.749 4.338c0 0 0-0 0 0s0 0 0 0zM6.716 4.302c-0-0-0-0-0-0s0 0 0 0zM6.681 4.268c-0-0-0-0-0-0s0 0 0 0zM6.645 4.236c-0-0-0.001-0.001-0.001-0.001s0.001 0.001 0.001 0.001zM6.608 4.206c-0-0-0.001-0.001-0.002-0.001s0.001 0.001 0.002 0.001zM6.568 4.177c-0-0-0.001-0.001-0.002-0.001 0.001 0 0.001 0.001 0.002 0.001zM6.527 4.15c-0-0-0.001-0-0.001-0.001s0.001 0 0.001 0.001zM5.008 5.125h-1.932c-0.007 0.041-0.014 0.082-0.020 0.124 0.019-0.126 0.043-0.251 0.071-0.374h1.881c-0.005 0.041-0.008 0.083-0.008 0.125s0.003 0.084 0.008 0.125zM3.191 4.625c-0.012 0.041-0.023 0.082-0.033 0.123 0.043-0.169 0.096-0.335 0.156-0.498-0.015 0.041-0.030 0.083-0.045 0.125h1.951c0-0 0-0 0-0-0.060 0.075-0.11 0.159-0.147 0.25 0-0 0-0 0-0h-1.882zM5.051 4.684c-0 0-0 0.001-0 0.001s0-0.001 0-0.001zM3.127 4.874c0.010-0.041 0.020-0.083 0.030-0.124-0.011 0.041-0.021 0.082-0.030 0.124zM5.474 4.15c-0 0-0.001 0-0.001 0.001s0.001-0 0.001-0.001zM5.433 4.176c-0 0-0.001 0.001-0.002 0.001 0.001-0 0.001-0.001 0.002-0.001zM5.394 4.205c-0.001 0-0.001 0.001-0.002 0.001s0.001-0.001 0.002-0.001zM5.356 4.236c-0 0-0.001 0.001-0.001 0.001s0.001-0.001 0.001-0.001zM5.319 4.268c-0 0-0 0-0 0s0-0 0-0zM5.284 4.302c-0 0-0 0-0 0s0-0 0-0zM5.251 4.338c-0 0-0 0 0 0s-0 0 0 0zM3.314 4.248c0.015-0.041 0.031-0.082 0.048-0.123-0.017 0.041-0.033 0.082-0.048 0.123zM10.949 5.315c-0 0-0 0.001-0 0.001s0-0.001 0-0.001zM10.949 4.684c0 0 0 0.001 0 0.001s-0-0.001-0-0.001zM10.927 5.375h2.034c-0.010-0.084-0.023-0.167-0.037-0.25 0.029 0.165 0.050 0.331 0.062 0.5h-2.206c0.060-0.075 0.11-0.159 0.147-0.25v0zM10.992 5.125c0.005-0.041 0.008-0.083 0.008-0.125s-0.003-0.084-0.008-0.125h1.882c0.019 0.083 0.036 0.166 0.051 0.25h-1.932zM10.927 4.625c-0.037-0.091-0.086-0.175-0.147-0.25h1.951c0.028 0.083 0.054 0.166 0.078 0.25h-1.882zM12.809 4.625c0.012 0.041 0.023 0.082 0.033 0.124-0.011-0.041-0.022-0.083-0.033-0.124zM12.843 4.75c0.011 0.042 0.021 0.083 0.030 0.125-0.010-0.042-0.020-0.084-0.030-0.125zM12.638 4.125c0.016 0.041 0.032 0.082 0.048 0.123-0.015-0.041-0.031-0.082-0.048-0.123zM12.687 4.251c0.015 0.041 0.030 0.082 0.044 0.123-0.014-0.041-0.029-0.082-0.044-0.123zM10.681 4.268c-0-0-0-0-0-0s0 0 0 0zM10.645 4.236c-0-0-0.001-0-0.001-0.001s0 0 0.001 0.001zM10.608 4.206c-0-0-0.001-0.001-0.001-0.001s0.001 0.001 0.001 0.001zM10.568 4.177c-0.001-0-0.001-0.001-0.002-0.001 0.001 0 0.001 0.001 0.002 0.001zM10.527 4.15c-0-0-0.001-0.001-0.001-0.001s0.001 0.001 0.001 0.001zM10 8.875h2.092c-0.060 0.085-0.123 0.168-0.189 0.25h-1.903v-0.25zM10 8.375h2.402c0.044-0.082 0.087-0.165 0.126-0.25-0.081 0.171-0.171 0.338-0.271 0.5h-2.257v-0.25zM10 8.125v-0.25h2.638c-0.034 0.084-0.070 0.168-0.109 0.25h-2.529zM10 7.625v-0.25h2.809c-0.024 0.084-0.050 0.167-0.078 0.25h-2.731zM12.731 7.626c-0.014 0.041-0.029 0.082-0.044 0.123 0.015-0.041 0.030-0.082 0.044-0.123zM12.685 7.752c-0.015 0.041-0.031 0.082-0.048 0.123 0.016-0.041 0.032-0.082 0.048-0.123zM10 7.125v-0.25h2.924c-0.022 0.126-0.049 0.252-0.081 0.375 0.011-0.042 0.021-0.083 0.030-0.125h-2.873zM12.843 7.251c-0.011 0.041-0.022 0.083-0.033 0.124 0.012-0.041 0.023-0.082 0.033-0.124zM10 6.625v-0.25h2.986c-0.012 0.168-0.033 0.335-0.062 0.5 0.014-0.083 0.027-0.166 0.037-0.25h-2.961zM10 6.125v-0.125c0.176 0 0.341-0.046 0.485-0.125-0 0-0 0-0 0h2.514c-0.001-0.042-0.003-0.084-0.005-0.125 0.004 0.083 0.006 0.167 0.006 0.25s-0.002 0.167-0.006 0.25c0.002-0.042 0.004-0.083 0.005-0.125h-2.998zM12.994 6.254c-0.002 0.040-0.004 0.081-0.007 0.121 0.003-0.040 0.005-0.080 0.007-0.121zM10.681 5.732c-0 0-0 0-0 0s0-0 0-0zM10.645 5.764c-0 0-0.001 0-0.001 0.001s0-0 0.001-0.001zM10.608 5.794c-0 0-0.001 0.001-0.001 0.001s0.001-0.001 0.001-0.001zM10.568 5.823c-0.001 0-0.001 0.001-0.002 0.001 0.001-0 0.001-0.001 0.002-0.001zM10.527 5.85c-0 0-0.001 0.001-0.001 0.001s0.001-0.001 0.001-0.001zM12.986 5.626c0.003 0.040 0.005 0.080 0.007 0.121-0.002-0.040-0.004-0.081-0.007-0.121zM12.257 3.374c-0.025-0.041-0.051-0.081-0.077-0.121 0.026 0.040 0.052 0.080 0.077 0.121zM10.827 1.875c-0.065-0.045-0.131-0.088-0.198-0.13 0.233 0.144 0.454 0.308 0.663 0.492-0.043-0.038-0.087-0.076-0.132-0.112h-6.321c0.108-0.088 0.219-0.172 0.333-0.25h5.655zM5.173 1.875c0.033-0.022 0.065-0.044 0.099-0.066-0.033 0.022-0.066 0.044-0.099 0.066zM5.271 1.809c0.033-0.022 0.066-0.043 0.1-0.063-0.033 0.021-0.067 0.042-0.1 0.063zM5.372 1.745c0.033-0.021 0.067-0.041 0.1-0.061-0.034 0.020-0.067 0.040-0.1 0.061zM5.474 1.683c0.202-0.118 0.411-0.222 0.626-0.311-0.002 0.001-0.004 0.002-0.007 0.003h3.813c0.213 0.088 0.42 0.191 0.62 0.308-0.034-0.020-0.068-0.039-0.102-0.058h-4.849c-0.034 0.019-0.068 0.038-0.102 0.058zM10.528 1.684c0.034 0.020 0.067 0.040 0.1 0.061-0.033-0.021-0.067-0.041-0.1-0.061zM11.443 2.374c-0.041-0.039-0.083-0.077-0.125-0.115 0.042 0.038 0.084 0.076 0.125 0.115zM9.81 1.336c-0.019-0.007-0.038-0.014-0.056-0.021 0.019 0.007 0.038 0.014 0.056 0.021zM9.705 1.297c-0.020-0.007-0.039-0.014-0.059-0.021 0.020 0.007 0.039 0.014 0.059 0.021zM9.6 1.261c-0.020-0.007-0.041-0.014-0.061-0.020 0.020 0.007 0.041 0.013 0.061 0.020zM9.495 1.227c-0.021-0.007-0.043-0.013-0.064-0.020 0.021 0.006 0.043 0.013 0.064 0.020zM9.391 1.196c-0.023-0.007-0.046-0.013-0.069-0.020 0.023 0.006 0.046 0.013 0.069 0.020zM9.299 1.17c-0.059-0.016-0.118-0.031-0.178-0.044 0.060 0.014 0.119 0.028 0.178 0.044zM9.118 1.125h-2.237c0.363-0.082 0.737-0.125 1.118-0.125s0.756 0.043 1.118 0.125zM6.19 1.336c0.019-0.007 0.038-0.014 0.057-0.021-0.019 0.007-0.038 0.014-0.057 0.021zM6.295 1.297c0.020-0.007 0.040-0.014 0.059-0.021-0.020 0.007-0.040 0.014-0.059 0.021zM6.4 1.261c0.020-0.007 0.041-0.014 0.062-0.020-0.021 0.007-0.041 0.013-0.062 0.020zM6.505 1.227c0.021-0.007 0.043-0.013 0.064-0.020-0.022 0.006-0.043 0.013-0.064 0.020zM6.608 1.196c0.023-0.007 0.046-0.013 0.069-0.020-0.023 0.006-0.046 0.013-0.069 0.020zM6.701 1.17c0.060-0.016 0.12-0.031 0.18-0.045-0.060 0.014-0.12 0.029-0.18 0.045zM4.683 2.259c-0.043 0.038-0.085 0.076-0.126 0.116h6.888c0.031 0.029 0.062 0.059 0.092 0.089 0.053 0.053 0.104 0.106 0.153 0.161h-7.378c-0.075 0.081-0.146 0.165-0.215 0.25h7.807c-0.068-0.085-0.14-0.168-0.214-0.25 0.18 0.196 0.342 0.404 0.486 0.622-0.027-0.041-0.055-0.082-0.083-0.122h-8.185c-0.028 0.040-0.056 0.081-0.083 0.122 0.184-0.279 0.398-0.541 0.64-0.782 0.071-0.071 0.144-0.139 0.218-0.205v0zM4.839 2.125c-0.044 0.036-0.088 0.074-0.132 0.112 0.043-0.038 0.087-0.076 0.132-0.112zM3.82 3.254c-0.026 0.040-0.052 0.080-0.077 0.121h8.515c0.1 0.162 0.191 0.328 0.271 0.5-0.040-0.084-0.082-0.168-0.126-0.25h-8.805c0.068-0.127 0.143-0.25 0.222-0.371v0zM3.056 5.25c-0.006 0.041-0.012 0.083-0.017 0.125 0.005-0.042 0.011-0.083 0.017-0.125zM3.038 5.375h2.034c0-0-0-0-0-0 0.037 0.091 0.086 0.175 0.147 0.25 0-0-0-0-0-0h-2.206c-0.006 0.083-0.010 0.166-0.012 0.25h2.514c-0-0-0-0-0-0 0.144 0.080 0.309 0.125 0.484 0.125v0.125h-2.998c0.002 0.084 0.006 0.167 0.012 0.25h2.986v0.25h-2.962c0.010 0.084 0.023 0.167 0.037 0.25h2.924v0.25h-2.873c-0.083-0.365-0.127-0.742-0.127-1.125 0-0.211 0.013-0.419 0.038-0.625zM5.051 5.314c0 0 0 0.001 0 0.001s-0-0.001-0-0.001zM5.251 5.662c0 0 0 0 0 0s0 0 0 0zM5.284 5.698c0 0 0 0 0 0s-0-0-0-0zM5.319 5.732c0 0 0 0 0 0s-0-0-0-0zM5.355 5.764c0 0 0.001 0.001 0.001 0.001s-0.001-0.001-0.001-0.001zM5.392 5.794c0 0 0.001 0.001 0.002 0.001s-0.001-0.001-0.002-0.001zM5.432 5.823c0 0 0.001 0.001 0.002 0.001-0.001-0-0.001-0.001-0.002-0.001zM5.473 5.85c0 0 0.001 0 0.001 0.001s-0.001-0-0.001-0.001zM6 7.375v0.25h-2.731c-0.028-0.083-0.054-0.166-0.078-0.25h2.809zM3.191 7.375c-0.012-0.041-0.023-0.082-0.033-0.123 0.011 0.041 0.022 0.082 0.033 0.123zM3.157 7.25c-0.011-0.041-0.021-0.083-0.030-0.124 0.010 0.042 0.020 0.083 0.030 0.124zM3.314 7.751c0.015 0.041 0.031 0.083 0.048 0.124h2.638v0.25h-2.529c0.040 0.084 0.082 0.168 0.126 0.25h2.402v0.25h-2.257c0.025 0.041 0.051 0.081 0.077 0.121-0.206-0.313-0.375-0.646-0.505-0.994v0zM3.269 7.625c0.014 0.042 0.029 0.083 0.045 0.125-0.015-0.041-0.030-0.083-0.045-0.125zM6 8.875v0.25h-1.904c-0.097-0.12-0.187-0.244-0.272-0.372 0.027 0.041 0.055 0.081 0.083 0.122h2.092zM4.097 9.125c0.069 0.085 0.14 0.169 0.214 0.25h1.689v0.25h-1.444c0.044 0.042 0.089 0.083 0.134 0.122-0.077-0.068-0.152-0.139-0.226-0.212-0.131-0.131-0.253-0.268-0.368-0.41zM4.7 9.756c0.046 0.041 0.093 0.080 0.14 0.119h1.16v0.25h-0.828c0.098 0.067 0.197 0.131 0.299 0.19-0.272-0.16-0.53-0.347-0.771-0.559zM6 10.375v0.21c-0.181-0.079-0.357-0.169-0.527-0.269 0.034 0.020 0.068 0.040 0.103 0.059l0.425-0zM9.5 13h-3c-0.275 0-0.5-0.225-0.5-0.5s0.225-0.5 0.5-0.5h3c0.275 0 0.5 0.225 0.5 0.5s-0.225 0.5-0.5 0.5zM10 10.375h0.425c0.034-0.019 0.069-0.039 0.102-0.059-0.171 0.1-0.346 0.19-0.527 0.269v-0.21zM10.529 10.315c0.101-0.060 0.201-0.123 0.298-0.19h-0.828v-0.25h1.16c-0.2 0.164-0.411 0.311-0.631 0.44zM11.16 9.875c0.047-0.039 0.094-0.078 0.14-0.119-0.046 0.041-0.093 0.080-0.14 0.119zM11.31 9.748c0.045-0.040 0.089-0.080 0.133-0.122-0.044 0.042-0.088 0.082-0.133 0.122zM11.444 9.625h-1.444v-0.25h1.689c-0.050 0.054-0.101 0.108-0.153 0.161-0.030 0.030-0.061 0.060-0.092 0.089zM11.903 9.125c-0.068 0.085-0.14 0.168-0.214 0.25 0.074-0.081 0.146-0.164 0.214-0.25zM12.18 8.745c0.026-0.040 0.052-0.080 0.077-0.12-0.025 0.040-0.051 0.080-0.077 0.12zM12.093 8.875c0.028-0.040 0.056-0.080 0.083-0.121-0.027 0.041-0.054 0.081-0.083 0.121zM9.5 15h-3c-0.275 0-0.5-0.225-0.5-0.5s0.225-0.5 0.5-0.5h3c0.275 0 0.5 0.225 0.5 0.5s-0.225 0.5-0.5 0.5z"></path>
</svg>
