<?xml version="1.0" encoding="utf-8"?>
<!-- Generated by IcoMoon.io -->
<!DOCTYPE svg PUBLIC "-//W3C//DTD SVG 1.1//EN" "http://www.w3.org/Graphics/SVG/1.1/DTD/svg11.dtd">
<svg version="1.1" xmlns="http://www.w3.org/2000/svg" xmlns:xlink="http://www.w3.org/1999/xlink" width="16" height="16" viewBox="0 0 16 16">
<path fill="#000000" d="M14.894 5.157c-0.676-2.524-3.276-4.22-6.469-4.22-0.801 0-1.61 0.108-2.405 0.321-1.927 0.516-3.585 1.597-4.669 3.043-1.114 1.487-1.493 3.181-1.067 4.77 0.278 1.037 0.881 1.934 1.716 2.632v3.797c0 0.276 0.224 0.5 0.5 0.5s0.5-0.224 0.5-0.5v-2.586c0.156 0.055 0.325 0.086 0.5 0.086 0.218 0 0.425-0.047 0.612-0.13 0.806 0.274 1.697 0.422 2.641 0.422 0.801 0 1.61-0.108 2.405-0.321 1.927-0.516 3.585-1.597 4.669-3.043 1.114-1.487 1.493-3.181 1.067-4.77zM3.5 12c-0.276 0-0.5-0.224-0.5-0.5s0.224-0.5 0.5-0.5 0.5 0.224 0.5 0.5-0.224 0.5-0.5 0.5zM8.867 11.884c-0.7 0.188-1.412 0.283-2.114 0.283-0.641 0-1.252-0.078-1.819-0.225 0.043-0.14 0.066-0.288 0.066-0.442 0-0.828-0.672-1.5-1.5-1.5-0.451 0-0.855 0.199-1.13 0.515-0.478-0.493-0.823-1.078-0.999-1.734-0.335-1.249-0.022-2.6 0.881-3.804 0.933-1.245 2.375-2.18 4.060-2.631 0.7-0.188 1.411-0.283 2.114-0.283 2.677 0 4.84 1.361 5.382 3.386 0.705 2.63-1.512 5.517-4.94 6.435z"></path>
</svg>
