<?xml version="1.0" encoding="utf-8"?>
<!-- Generated by IcoMoon.io -->
<!DOCTYPE svg PUBLIC "-//W3C//DTD SVG 1.1//EN" "http://www.w3.org/Graphics/SVG/1.1/DTD/svg11.dtd">
<svg version="1.1" xmlns="http://www.w3.org/2000/svg" xmlns:xlink="http://www.w3.org/1999/xlink" width="16" height="16" viewBox="0 0 16 16">
<path fill="#000000" d="M12 2.5l-8-2-4 2.5v13l4-2.5 8 2 4-2.5v-13l-4 2.5zM5 12.719v-10.938l0.125 0.031v10.938l-0.125-0.031zM5.375 12.813v-10.938l0.25 0.063v10.938l-0.25-0.063zM5.875 12.938v-10.938l0.25 0.063v10.938l-0.25-0.063zM6.375 13.063v-10.938l0.25 0.063v10.938l-0.25-0.063zM6.875 13.188v-10.938l0.25 0.063v10.938l-0.25-0.063zM7.375 13.313v-10.938l0.25 0.063v10.938l-0.25-0.063zM7.875 13.438v-10.938l0.25 0.063v10.938l-0.25-0.063zM8.375 13.563v-10.938l0.25 0.063v10.938l-0.25-0.063zM8.875 13.688v-10.938l0.25 0.063v10.938l-0.25-0.063zM9.375 13.813v-10.938l0.25 0.063v10.938l-0.25-0.063zM9.875 13.938v-10.938l0.25 0.063v10.938l-0.25-0.063zM10.375 14.063v-10.938l0.25 0.063v10.938l-0.25-0.063zM11 14.219l-0.125-0.031v-10.938l0.125 0.031v10.938z"></path>
</svg>
