<?xml version="1.0" encoding="utf-8"?>
<!-- Generated by IcoMoon.io -->
<!DOCTYPE svg PUBLIC "-//W3C//DTD SVG 1.1//EN" "http://www.w3.org/Graphics/SVG/1.1/DTD/svg11.dtd">
<svg version="1.1" xmlns="http://www.w3.org/2000/svg" xmlns:xlink="http://www.w3.org/1999/xlink" width="16" height="16" viewBox="0 0 16 16">
<path fill="#000000" d="M15.726 3.301c-0.343-0.829-0.995-1.663-1.789-2.288-0.829-0.653-1.716-1.013-2.499-1.013-0.607 0-1.128 0.213-1.548 0.632l-7.171 7.171c-0.073 0.073-0.128 0.16-0.163 0.256l-2.513 6.644c-0.094 0.257-0.030 0.545 0.163 0.738l0.352 0.352c0.134 0.134 0.314 0.206 0.497 0.206 0.081 0 0.162-0.014 0.241-0.043l6.644-2.513c0.096-0.035 0.184-0.091 0.256-0.163l7.171-7.171c0.694-0.694 0.821-1.691 0.358-2.809zM7.495 11.995l-3.489-3.489 6-6 3.489 3.489-6 6z"></path>
</svg>
