<?xml version="1.0" encoding="utf-8"?>
<!-- Generated by IcoMoon.io -->
<!DOCTYPE svg PUBLIC "-//W3C//DTD SVG 1.1//EN" "http://www.w3.org/Graphics/SVG/1.1/DTD/svg11.dtd">
<svg version="1.1" xmlns="http://www.w3.org/2000/svg" xmlns:xlink="http://www.w3.org/1999/xlink" width="16" height="16" viewBox="0 0 16 16">
<path fill="#000000" d="M13 5c0-0.791-0.613-1.439-1.39-1.495 0.509-0.589 0.485-1.481-0.075-2.040s-1.451-0.584-2.040-0.075c-0.057-0.777-0.704-1.389-1.496-1.389s-1.439 0.613-1.495 1.389c-0.589-0.509-1.481-0.484-2.040 0.075s-0.584 1.451-0.075 2.040c-0.777 0.057-1.389 0.704-1.389 1.495s0.613 1.439 1.389 1.495c-0.509 0.589-0.485 1.481 0.075 2.040 0.415 0.415 1.014 0.536 1.536 0.362v6.603l2-2 2 2v-6.603c0.522 0.174 1.12 0.054 1.536-0.362 0.559-0.559 0.584-1.451 0.075-2.040 0.777-0.057 1.39-0.704 1.39-1.496zM8 8c-1.657 0-3-1.343-3-3s1.343-3 3-3c1.657 0 3 1.343 3 3s-1.343 3-3 3z"></path>
</svg>
