<?xml version="1.0" encoding="utf-8"?>
<!-- Generated by IcoMoon.io -->
<!DOCTYPE svg PUBLIC "-//W3C//DTD SVG 1.1//EN" "http://www.w3.org/Graphics/SVG/1.1/DTD/svg11.dtd">
<svg version="1.1" xmlns="http://www.w3.org/2000/svg" xmlns:xlink="http://www.w3.org/1999/xlink" width="16" height="16" viewBox="0 0 16 16">
<path fill="#000000" d="M11.321 6.116l2.819-6.116h-3.461l-2.311 5.013c-0.122-0.008-0.245-0.013-0.369-0.013s-0.247 0.005-0.369 0.013l-2.311-5.013h-3.461l2.819 6.116c-1.324 1.004-2.179 2.594-2.179 4.384 0 3.038 2.462 5.5 5.5 5.5s5.5-2.462 5.5-5.5c0-1.79-0.855-3.38-2.179-4.384zM11.319 1h1.258l-2.111 4.581-0.016-0.005c-0.334-0.167-0.688-0.301-1.057-0.397l1.925-4.178zM3.422 1h1.259l1.925 4.178c-0.369 0.096-0.723 0.23-1.057 0.397l-0.016 0.005-2.111-4.581zM8 14.5c-2.209 0-4-1.791-4-4s1.791-4 4-4 4 1.791 4 4-1.791 4-4 4z"></path>
<path fill="#000000" d="M9.5 12h-0.5v-3.5c0-0.276-0.224-0.5-0.5-0.5h-1c-0.276 0-0.5 0.224-0.5 0.5s0.224 0.5 0.5 0.5h0.5v3h-0.5c-0.276 0-0.5 0.224-0.5 0.5s0.224 0.5 0.5 0.5h2c0.276 0 0.5-0.224 0.5-0.5s-0.224-0.5-0.5-0.5z"></path>
</svg>
