<?xml version="1.0" encoding="utf-8"?>
<!-- Generated by IcoMoon.io -->
<!DOCTYPE svg PUBLIC "-//W3C//DTD SVG 1.1//EN" "http://www.w3.org/Graphics/SVG/1.1/DTD/svg11.dtd">
<svg version="1.1" xmlns="http://www.w3.org/2000/svg" xmlns:xlink="http://www.w3.org/1999/xlink" width="16" height="16" viewBox="0 0 16 16">
<path fill="#000000" d="M16 13.5c0 0.828-0.895 1.5-2 1.5s-2-0.672-2-1.5 0.895-1.5 2-1.5c0.364 0 0.706 0.073 1 0.201v-2.915l-4 1.429v3.786c0 0.828-0.895 1.5-2 1.5s-2-0.672-2-1.5 0.895-1.5 2-1.5c0.364 0 0.706 0.073 1 0.201v-4.201l6-2v6.5z"></path>
<path fill="#000000" d="M4.5 3c-0.827 0-1.5 0.673-1.5 1.5s0.673 1.5 1.5 1.5 1.5-0.673 1.5-1.5-0.673-1.5-1.5-1.5z"></path>
<path fill="#000000" d="M8.5 1h-2.191l-0.362-0.724c-0.085-0.169-0.258-0.276-0.447-0.276h-2c-0.189 0-0.362 0.107-0.447 0.276l-0.362 0.724h-2.191c-0.276 0-0.5 0.224-0.5 0.5v6c0 0.276 0.224 0.5 0.5 0.5h8c0.276 0 0.5-0.224 0.5-0.5v-6c0-0.276-0.224-0.5-0.5-0.5zM4.5 7c-1.378 0-2.5-1.122-2.5-2.5s1.122-2.5 2.5-2.5 2.5 1.122 2.5 2.5-1.121 2.5-2.5 2.5z"></path>
</svg>
