<?xml version="1.0" encoding="utf-8"?>
<!-- Generated by IcoMoon.io -->
<!DOCTYPE svg PUBLIC "-//W3C//DTD SVG 1.1//EN" "http://www.w3.org/Graphics/SVG/1.1/DTD/svg11.dtd">
<svg version="1.1" xmlns="http://www.w3.org/2000/svg" xmlns:xlink="http://www.w3.org/1999/xlink" width="17" height="16" viewBox="0 0 17 16">
<path fill="#000000" d="M16 0h-15c-0.55 0-1 0.45-1 1v3c0 0.55 0.45 1 1 1h2v10c0 0.55 0.45 1 1 1h12c0.55 0 1-0.45 1-1v-14c0-0.55-0.45-1-1-1zM15 14h-10v-2h10v2zM15 11h-10v-2h10v2zM15 8h-10v-2h10v2zM13 5l-2.5-3h5l-2.5 3z"></path>
</svg>
