<?xml version="1.0" encoding="utf-8"?>
<!-- Generated by IcoMoon.io -->
<!DOCTYPE svg PUBLIC "-//W3C//DTD SVG 1.1//EN" "http://www.w3.org/Graphics/SVG/1.1/DTD/svg11.dtd">
<svg version="1.1" xmlns="http://www.w3.org/2000/svg" xmlns:xlink="http://www.w3.org/1999/xlink" width="16" height="16" viewBox="0 0 16 16">
<path fill="#000000" d="M7.158 5.251l-7.158 8.749c0 1 1 2 2 2l8.749-7.158c-1.756-0.452-3.138-1.835-3.591-3.591z"></path>
<path fill="#000000" d="M9.109 1.236c-0.687 0.718-1.109 1.692-1.109 2.764 0 2.209 1.791 4 4 4 1.072 0 2.046-0.422 2.764-1.109-2.875-0.512-5.143-2.78-5.655-5.655z"></path>
<path fill="#000000" d="M12 0c-0.719 0-1.394 0.19-1.977 0.522 0.25 2.897 2.558 5.205 5.455 5.455 0.332-0.583 0.522-1.258 0.522-1.977 0-2.209-1.791-4-4-4zM13.5 1c0.276 0 0.5 0.224 0.5 0.5s-0.224 0.5-0.5 0.5-0.5-0.224-0.5-0.5 0.224-0.5 0.5-0.5zM11.5 2c-0.276 0-0.5-0.224-0.5-0.5s0.224-0.5 0.5-0.5 0.5 0.224 0.5 0.5-0.224 0.5-0.5 0.5zM12.5 3c-0.276 0-0.5-0.224-0.5-0.5s0.224-0.5 0.5-0.5 0.5 0.224 0.5 0.5-0.224 0.5-0.5 0.5zM13.5 4c-0.276 0-0.5-0.224-0.5-0.5s0.224-0.5 0.5-0.5 0.5 0.224 0.5 0.5-0.224 0.5-0.5 0.5zM14.5 5c-0.276 0-0.5-0.224-0.5-0.5s0.224-0.5 0.5-0.5 0.5 0.224 0.5 0.5-0.224 0.5-0.5 0.5zM14.5 3c-0.276 0-0.5-0.224-0.5-0.5s0.224-0.5 0.5-0.5 0.5 0.224 0.5 0.5-0.224 0.5-0.5 0.5z"></path>
</svg>
