<?xml version="1.0" encoding="utf-8"?>
<!-- Generated by IcoMoon.io -->
<!DOCTYPE svg PUBLIC "-//W3C//DTD SVG 1.1//EN" "http://www.w3.org/Graphics/SVG/1.1/DTD/svg11.dtd">
<svg version="1.1" xmlns="http://www.w3.org/2000/svg" xmlns:xlink="http://www.w3.org/1999/xlink" width="16" height="16" viewBox="0 0 16 16">
<path fill="#000000" d="M8 14.5c-0.811 0-1.587-0.15-2.303-0.422-0.435 0.521-0.697 1.191-0.697 1.922h6c0-0.731-0.262-1.401-0.697-1.922-0.716 0.272-1.493 0.422-2.303 0.422zM10 9v2h1.354c-0.056 0.062-0.113 0.123-0.172 0.182-0.85 0.85-1.98 1.318-3.182 1.318s-2.332-0.468-3.182-1.318c-0.85-0.85-1.318-1.98-1.318-3.182 0-1.135 0.448-2.236 1.212-3.069l3.674 2.858 1.228-1.579-7.985-6.211-1.629 1.267 3.525 2.742c-0.93 1.057-1.525 2.474-1.525 3.992 0 3.314 2.686 6 6 6 2.221 0 4.16-1.207 5.197-3h2.803v-2h-6z"></path>
</svg>
