<?xml version="1.0" encoding="utf-8"?>
<!-- Generated by IcoMoon.io -->
<!DOCTYPE svg PUBLIC "-//W3C//DTD SVG 1.1//EN" "http://www.w3.org/Graphics/SVG/1.1/DTD/svg11.dtd">
<svg version="1.1" xmlns="http://www.w3.org/2000/svg" xmlns:xlink="http://www.w3.org/1999/xlink" width="16" height="16" viewBox="0 0 16 16">
<path fill="#000000" d="M10.5 0c-0.276 0-0.5 0.224-0.5 0.5v1.5h-5.5c-0.276 0-0.5 0.224-0.5 0.5v13c0 0.276 0.224 0.5 0.5 0.5h6c0.276 0 0.5-0.224 0.5-0.5v-15c0-0.276-0.224-0.5-0.5-0.5zM6 15h-1v-1h1v1zM6 13h-1v-1h1v1zM6 11h-1v-1h1v1zM8 15h-1v-1h1v1zM8 13h-1v-1h1v1zM8 11h-1v-1h1v1zM10 15h-1v-1h1v1zM10 13h-1v-1h1v1zM10 11h-1v-1h1v1zM10 9h-5v-6h5v6z"></path>
</svg>
