<?xml version="1.0" encoding="utf-8"?>
<!-- Generated by IcoMoon.io -->
<!DOCTYPE svg PUBLIC "-//W3C//DTD SVG 1.1//EN" "http://www.w3.org/Graphics/SVG/1.1/DTD/svg11.dtd">
<svg version="1.1" xmlns="http://www.w3.org/2000/svg" xmlns:xlink="http://www.w3.org/1999/xlink" width="18" height="16" viewBox="0 0 18 16">
<path fill="#000000" d="M17.81 15.213l-4.9-7c-0.094-0.134-0.246-0.213-0.41-0.213s-0.316 0.080-0.41 0.213l-1.040 1.486-3.14-4.486c-0.094-0.134-0.246-0.213-0.41-0.213s-0.316 0.080-0.41 0.213l-7 10c-0.107 0.153-0.12 0.352-0.034 0.518s0.257 0.269 0.444 0.269h16.9c0.186 0 0.357-0.104 0.443-0.269s0.073-0.365-0.034-0.518zM7.5 6.372l2.54 3.628h-1.333l-0.854-0.854c-0.195-0.195-0.512-0.195-0.707 0l-0.854 0.854h-1.333l2.54-3.628zM14.76 15l-3.128-4.468 0.037 0.026 0.83-1.186 3.94 5.628h-1.679z"></path>
</svg>
