<?xml version="1.0" encoding="utf-8"?>
<!-- Generated by IcoMoon.io -->
<!DOCTYPE svg PUBLIC "-//W3C//DTD SVG 1.1//EN" "http://www.w3.org/Graphics/SVG/1.1/DTD/svg11.dtd">
<svg version="1.1" xmlns="http://www.w3.org/2000/svg" xmlns:xlink="http://www.w3.org/1999/xlink" width="16" height="16" viewBox="0 0 16 16">
<path fill="#000000" d="M14 3h-12c-1.1 0-2 0.9-2 2v7c0 1.1 0.9 2 2 2h12c1.1 0 2-0.9 2-2v-7c0-1.1-0.9-2-2-2zM5 11h-1l-2-3.333v3.333h-1v-5h1l2 3.333v-3.333h1v5zM9 7h-2v1h2v1h-2v1h2v1l-3 0v-5h3v1zM15 11h-1.5l-1-2-1 2h-1.5v-5h1v4l1-2h1l1 2v-4h1v5z"></path>
</svg>
