<?xml version="1.0" encoding="utf-8"?>
<!-- Generated by IcoMoon.io -->
<!DOCTYPE svg PUBLIC "-//W3C//DTD SVG 1.1//EN" "http://www.w3.org/Graphics/SVG/1.1/DTD/svg11.dtd">
<svg version="1.1" xmlns="http://www.w3.org/2000/svg" xmlns:xlink="http://www.w3.org/1999/xlink" width="16" height="16" viewBox="0 0 16 16">
<path fill="#000000" d="M4 5h1v4h-1zM11 5h1v3h-1zM11.875 1h-7.75c-2.46 1.365-4.125 3.988-4.125 7s1.665 5.635 4.125 7h7.75c2.46-1.365 4.125-3.988 4.125-7s-1.665-5.635-4.125-7zM11.607 14h-7.214c-0.98-0.591-1.805-1.415-2.396-2.398-0.652-1.084-0.997-2.33-0.997-3.602s0.345-2.518 0.997-3.602c0.591-0.982 1.416-1.807 2.396-2.398h7.214c0.98 0.591 1.805 1.415 2.396 2.398 0.652 1.084 0.997 2.33 0.997 3.602s-0.345 2.518-0.997 3.602c-0.591 0.982-1.416 1.807-2.396 2.398zM8 10c-1.105 0-2 0.448-2 1v2h4v-2c0-0.552-0.895-1-2-1z"></path>
</svg>
