<?xml version="1.0" encoding="utf-8"?>
<!-- Generated by IcoMoon.io -->
<!DOCTYPE svg PUBLIC "-//W3C//DTD SVG 1.1//EN" "http://www.w3.org/Graphics/SVG/1.1/DTD/svg11.dtd">
<svg version="1.1" xmlns="http://www.w3.org/2000/svg" xmlns:xlink="http://www.w3.org/1999/xlink" width="16" height="16" viewBox="0 0 16 16">
<path fill="#000000" d="M8 0c-4.418 0-8 3.582-8 8s3.582 8 8 8 8-3.582 8-8-3.582-8-8-8zM4.609 14.125c-0.142-0.079-0.28-0.162-0.416-0.25h7.613c-0.136 0.088-0.274 0.171-0.416 0.25h-6.781zM10.895 14.375c-0.205 0.093-0.415 0.177-0.63 0.25h-4.53c-0.215-0.073-0.425-0.157-0.63-0.25h5.789zM3.834 13.625c-0.108-0.080-0.215-0.164-0.318-0.25h8.968c-0.103 0.086-0.209 0.17-0.318 0.25h-8.333zM2.977 12.875h9.191l0.25 0.25h-9.185c-0.087-0.081-0.172-0.165-0.255-0.25zM9.168 9.875l0.25 0.25h-8.089c-0.026-0.083-0.051-0.166-0.074-0.25h7.913zM1.19 9.625c-0.020-0.083-0.037-0.166-0.054-0.25h7.532l0.25 0.25h-7.728zM9.668 10.375l0.25 0.25h-8.408c-0.033-0.083-0.066-0.166-0.096-0.25h8.254zM10.168 10.875l0.25 0.25h-8.683c-0.041-0.082-0.081-0.166-0.119-0.25h8.551zM10.668 11.375l0.25 0.25h-8.907c-0.050-0.082-0.098-0.166-0.145-0.25h8.801zM11.168 11.875l0.25 0.25h-9.073c-0.060-0.082-0.118-0.165-0.174-0.25h8.998zM11.668 12.375l0.25 0.25h-9.172c-0.072-0.082-0.142-0.165-0.21-0.25h9.132zM8.293 9l0.125 0.125h-7.327c-0.007-0.042-0.013-0.083-0.019-0.125h7.221zM8 1v7h-7c0-3.866 3.134-7 7-7zM6.678 14.875h2.644c-0.428 0.082-0.87 0.125-1.322 0.125s-0.894-0.043-1.322-0.125z"></path>
</svg>
