<?xml version="1.0" encoding="utf-8"?>
<!-- Generated by IcoMoon.io -->
<!DOCTYPE svg PUBLIC "-//W3C//DTD SVG 1.1//EN" "http://www.w3.org/Graphics/SVG/1.1/DTD/svg11.dtd">
<svg version="1.1" xmlns="http://www.w3.org/2000/svg" xmlns:xlink="http://www.w3.org/1999/xlink" width="16" height="16" viewBox="0 0 16 16">
<path fill="#000000" d="M15 1.5c0 0.828-0.672 1.5-1.5 1.5s-1.5-0.672-1.5-1.5 0.672-1.5 1.5-1.5c0.828 0 1.5 0.672 1.5 1.5z"></path>
<path fill="#000000" d="M15.16 13.287l-2.979-2.787c-0.496-0.39-0.343-0.5-0.146-1 0.001-0.001 0.001-0.002 0.001-0.003 0.95-2.098 0.466-4.772-1.392-6.63-1.238-1.238-2.839-1.866-4.39-1.866-1.384 0-2.729 0.5-3.742 1.513-2.148 2.148-1.99 5.789 0.354 8.132 1.238 1.238 2.839 1.866 4.39 1.866 0.776 0 1.54-0.157 2.239-0.474 0.002-0.001 0.003-0.001 0.005-0.002 0.249-0.098 0.404-0.181 0.543-0.181 0.141 0 0.266 0.085 0.457 0.327l2.787 2.979c0.136 0.174 0.328 0.262 0.521 0.262 0.168 0 0.337-0.067 0.473-0.202l0.939-0.939c0.292-0.292 0.265-0.739-0.059-0.994v0zM5.114 10.886l5.771-5.771c0.172 0.356 0.301 0.729 0.386 1.114l-5.045 5.045c-0.287-0.063-0.572-0.153-0.851-0.269-0.088-0.037-0.176-0.076-0.262-0.118v0z"></path>
</svg>
