<?xml version="1.0" encoding="utf-8"?>
<!-- Generated by IcoMoon.io -->
<!DOCTYPE svg PUBLIC "-//W3C//DTD SVG 1.1//EN" "http://www.w3.org/Graphics/SVG/1.1/DTD/svg11.dtd">
<svg version="1.1" xmlns="http://www.w3.org/2000/svg" xmlns:xlink="http://www.w3.org/1999/xlink" width="16" height="16" viewBox="0 0 16 16">
<path fill="#000000" d="M15.779 3.509c-0.312-0.541-0.943-0.815-1.876-0.815-0.672 0-1.501 0.146-2.425 0.417-0.981-0.699-2.181-1.111-3.478-1.111-3.314 0-6 2.686-6 6 0 0.19 0.009 0.378 0.027 0.563-0.17 0.162-0.331 0.323-0.482 0.483-0.597 0.63-1.023 1.217-1.268 1.743-0.213 0.458-0.396 1.127-0.062 1.706 0.312 0.541 0.943 0.815 1.876 0.815 0.674 0 1.506-0.147 2.433-0.419 0.981 0.699 2.18 1.11 3.476 1.11 3.314 0 6-2.686 6-6 0-0.191-0.009-0.379-0.027-0.565 0.167-0.16 0.326-0.319 0.476-0.477 0.597-0.63 1.024-1.217 1.268-1.743 0.213-0.458 0.396-1.126 0.062-1.705zM13.609 6.163c-1.102 1.163-2.754 2.408-4.652 3.503-2.617 1.511-5.312 2.487-6.866 2.487-0.544 0-0.809-0.122-0.875-0.237-0.119-0.206 0.081-0.904 1.097-1.999 0.123 0.366 0.281 0.715 0.469 1.046 1.269-0.21 3.301-0.935 5.614-2.271 1.806-1.043 3.368-2.216 4.397-3.303 0.148-0.157 0.274-0.3 0.38-0.43-0.194-0.329-0.419-0.638-0.67-0.923 0.527-0.121 1.001-0.185 1.399-0.185 0.544 0 0.809 0.122 0.875 0.237 0.121 0.21-0.089 0.937-1.168 2.076z"></path>
</svg>
