<?xml version="1.0" encoding="utf-8"?>
<!-- Generated by IcoMoon.io -->
<!DOCTYPE svg PUBLIC "-//W3C//DTD SVG 1.1//EN" "http://www.w3.org/Graphics/SVG/1.1/DTD/svg11.dtd">
<svg version="1.1" xmlns="http://www.w3.org/2000/svg" xmlns:xlink="http://www.w3.org/1999/xlink" width="16" height="16" viewBox="0 0 16 16">
<path fill="#000000" d="M13 0h-2v11.142c-0.313-0.092-0.649-0.142-1-0.142-1.657 0-3 1.119-3 2.5s1.343 2.5 3 2.5c1.657 0 3-1.119 3-2.5v-10.5l3 1v-2l-3-2z"></path>
<path fill="#000000" d="M5.031 14h-5.031v2h5.839c-0.44-0.596-0.718-1.283-0.807-2z"></path>
<path fill="#000000" d="M5.839 11h-5.839v2h5.031c0.089-0.717 0.368-1.404 0.807-2z"></path>
<path fill="#000000" d="M9 9.090v-1.090h-9v2h6.85c0.627-0.457 1.364-0.768 2.15-0.91z"></path>
<path fill="#000000" d="M7.031 3h-2.031v-2h-2v2h-2.031v2h2.031v2h2v-2h2.031z"></path>
</svg>
