<?xml version="1.0" encoding="utf-8"?>
<!-- Generated by IcoMoon.io -->
<!DOCTYPE svg PUBLIC "-//W3C//DTD SVG 1.1//EN" "http://www.w3.org/Graphics/SVG/1.1/DTD/svg11.dtd">
<svg version="1.1" xmlns="http://www.w3.org/2000/svg" xmlns:xlink="http://www.w3.org/1999/xlink" width="16" height="16" viewBox="0 0 16 16">
<path fill="#000000" d="M12 16h-5c-0.133 0-0.26-0.053-0.354-0.146l-3-3c-0.027-0.027-0.050-0.056-0.070-0.089l-2.5-4c-0.143-0.229-0.078-0.531 0.147-0.681l1.5-1c0.213-0.142 0.498-0.1 0.661 0.096l1.616 1.939v-7.619c0-0.276 0.224-0.5 0.5-0.5h2c0.276 0 0.5 0.224 0.5 0.5v3.11l5.621 1.405c0.223 0.056 0.379 0.256 0.379 0.485v6c0 0.078-0.018 0.154-0.053 0.224l-1.5 3c-0.085 0.169-0.258 0.276-0.447 0.276zM7.207 15h4.484l1.309-2.618v-5.492l-1-0.25v2.86c0 0.276-0.224 0.5-0.5 0.5s-0.5-0.224-0.5-0.5v-3.11l-1-0.25v2.36c0 0.276-0.224 0.5-0.5 0.5s-0.5-0.224-0.5-0.5v-2.61l-1-0.25v3.86c0 0.276-0.224 0.5-0.5 0.5s-0.5-0.224-0.5-0.5v-7.5h-1v8.5c0 0.21-0.132 0.398-0.33 0.47s-0.42 0.012-0.554-0.15l-2.212-2.655-0.722 0.481 2.213 3.54 2.813 2.813z"></path>
</svg>
