<?xml version="1.0" encoding="utf-8"?>
<!-- Generated by IcoMoon.io -->
<!DOCTYPE svg PUBLIC "-//W3C//DTD SVG 1.1//EN" "http://www.w3.org/Graphics/SVG/1.1/DTD/svg11.dtd">
<svg version="1.1" xmlns="http://www.w3.org/2000/svg" xmlns:xlink="http://www.w3.org/1999/xlink" width="16" height="16" viewBox="0 0 16 16">
<path fill="#000000" d="M11.25 9.25l2.75-2.75-1-1-2.75 2.75-2.5-2.5 2.75-2.75-1-1-2.75 2.75-1.72-1.72c-0.292-0.292-0.755-0.305-1.030-0.030s-0.261 0.739 0.030 1.030l1.141 1.141-2 2c-1.318 1.318-1.524 3.327-0.618 4.861l-2.261 2.261c-0.391 0.39-0.391 1.024 0 1.414 0.195 0.195 0.451 0.293 0.707 0.293s0.512-0.098 0.707-0.293l2.261-2.261c1.534 0.906 3.543 0.7 4.861-0.618l2-2 1.141 1.141c0.292 0.292 0.755 0.305 1.030 0.030s0.261-0.739-0.030-1.030l-1.72-1.72z"></path>
</svg>
