<?xml version="1.0" encoding="utf-8"?>
<!-- Generated by IcoMoon.io -->
<!DOCTYPE svg PUBLIC "-//W3C//DTD SVG 1.1//EN" "http://www.w3.org/Graphics/SVG/1.1/DTD/svg11.dtd">
<svg version="1.1" xmlns="http://www.w3.org/2000/svg" xmlns:xlink="http://www.w3.org/1999/xlink" width="16" height="16" viewBox="0 0 16 16">
<path fill="#000000" d="M6 8h1v2h-1zM8 11h1v2h-1zM12.514 4.47l-3.611-3.939c-0.267-0.292-0.796-0.53-1.174-0.53h-0.458c-0.378 0-0.906 0.239-1.174 0.53l-3.611 3.939c-0.267 0.292-0.486 0.868-0.486 1.28v9.5c0 0.412 0.309 0.75 0.688 0.75h9.625c0.378 0 0.688-0.338 0.688-0.75v-9.5c0-0.412-0.219-0.989-0.486-1.28zM10 8h-2v2h2v4h-2v1h-1v-1h-2v-1h2v-2h-2v-4h2v-1h1v1h2v1zM8.281 2.5c0 0.431-0.35 0.781-0.781 0.781s-0.781-0.35-0.781-0.781 0.35-0.781 0.781-0.781 0.781 0.35 0.781 0.781z"></path>
</svg>
