<?xml version="1.0" encoding="utf-8"?>
<!-- Generated by IcoMoon.io -->
<!DOCTYPE svg PUBLIC "-//W3C//DTD SVG 1.1//EN" "http://www.w3.org/Graphics/SVG/1.1/DTD/svg11.dtd">
<svg version="1.1" xmlns="http://www.w3.org/2000/svg" xmlns:xlink="http://www.w3.org/1999/xlink" width="16" height="16" viewBox="0 0 16 16">
<path fill="#000000" d="M3.293 9l3.854-3.854c0.143-0.143 0.358-0.186 0.545-0.108s0.309 0.26 0.309 0.462v3.793l2.146-2.146c0.143-0.143 0.358-0.186 0.545-0.108s0.309 0.26 0.309 0.462v1.5h3.873c0.681-1.133 1.127-2.393 1.127-3.75 0-2.347-1.903-4.25-4.25-4.25-1.624 0-3.034 0.911-3.75 2.249-0.716-1.338-2.126-2.249-3.75-2.249-2.347 0-4.25 1.903-4.25 4.25 0 1.357 0.446 2.617 1.127 3.75h2.166z"></path>
<path fill="#000000" d="M10.5 10c-0.276 0-0.5-0.224-0.5-0.5v-0.793l-2.146 2.146c-0.096 0.096-0.224 0.146-0.354 0.146-0.064 0-0.129-0.012-0.191-0.038-0.187-0.077-0.309-0.26-0.309-0.462v-3.793l-3.146 3.146c-0.094 0.094-0.221 0.146-0.354 0.146h-1.69c2.36 3.085 6.19 5 6.19 5s3.83-1.915 6.19-5h-3.69z"></path>
</svg>
