<?xml version="1.0" encoding="utf-8"?>
<!-- Generated by IcoMoon.io -->
<!DOCTYPE svg PUBLIC "-//W3C//DTD SVG 1.1//EN" "http://www.w3.org/Graphics/SVG/1.1/DTD/svg11.dtd">
<svg version="1.1" xmlns="http://www.w3.org/2000/svg" xmlns:xlink="http://www.w3.org/1999/xlink" width="16" height="16" viewBox="0 0 16 16">
<path fill="#000000" d="M15.692 7.254l-1.694-1.694c-1.304-1.305 0.365-1.201 1.335-2.070 0.005-0.004 0.010-0.009 0.014-0.013 0.022-0.021 0.045-0.041 0.066-0.063 0.781-0.781 0.781-2.047 0-2.828s-2.047-0.781-2.828 0c-0.022 0.022-0.043 0.044-0.063 0.066-0.004 0.005-0.009 0.010-0.013 0.014-0.87 0.969-0.765 2.639-2.071 1.334l-1.693-1.693c-0.41-0.41-1.081-0.41-1.492 0l-1.692 1.692c-0 0-0 0-0 0-1.306 1.306-1.202-0.364-2.071-1.333-0.004-0.005-0.009-0.010-0.013-0.014-0.021-0.022-0.041-0.045-0.063-0.066-0.781-0.781-2.047-0.781-2.828 0s-0.781 2.047 0 2.828c0.022 0.022 0.044 0.043 0.066 0.063 0.005 0.004 0.010 0.009 0.014 0.013 0.97 0.87 2.64 0.765 1.333 2.071-0 0-0 0-0 0l-1.692 1.692c-0.41 0.41-0.41 1.081 0 1.492l1.692 1.692c0 0 0 0 0 0 1.306 1.306-0.364 1.202-1.333 2.071-0.005 0.004-0.010 0.009-0.014 0.013-0.022 0.021-0.045 0.041-0.066 0.063-0.781 0.781-0.781 2.047 0 2.828s2.047 0.781 2.828 0c0.022-0.022 0.043-0.044 0.063-0.066 0.004-0.005 0.009-0.010 0.013-0.014 0.87-0.969 0.765-2.639 2.071-1.334l1.693 1.693c0.41 0.41 1.081 0.41 1.492 0l1.966-1.966c0.783-1.007-0.701-0.983-1.592-1.783-0.005-0.004-0.010-0.009-0.014-0.013-0.023-0.021-0.045-0.041-0.066-0.063-0.781-0.781-0.781-2.047 0-2.828s2.047-0.781 2.828 0c0.022 0.022 0.043 0.044 0.063 0.066 0.004 0.005 0.009 0.010 0.013 0.014 0.8 0.892 0.776 2.376 1.783 1.592l1.966-1.966c0.41-0.41 0.41-1.081 0-1.492z"></path>
</svg>
