<?xml version="1.0" encoding="utf-8"?>
<!-- Generated by IcoMoon.io -->
<!DOCTYPE svg PUBLIC "-//W3C//DTD SVG 1.1//EN" "http://www.w3.org/Graphics/SVG/1.1/DTD/svg11.dtd">
<svg version="1.1" xmlns="http://www.w3.org/2000/svg" xmlns:xlink="http://www.w3.org/1999/xlink" width="16" height="16" viewBox="0 0 16 16">
<path fill="#000000" d="M6 3h2v2h-2v-2zM8 5v2c1 0 1 1 2 1v-2c-1 0-1-1-2-1zM10 4h2v2h-2v-2zM10 1c-0.5 0-0.75-0.25-1-0.5s-0.5-0.5-1-0.5h-5v10h5c0.5 0 0.75 0.25 1 0.5s0.5 0.5 1 0.5h5v-10h-5zM14 6h-2v2h2v2h-2v-2h-2v2c-0.5 0-0.75-0.25-1-0.5s-0.5-0.5-1-0.5v-2h-2v2h-2v-2h2v-2h-2v-2h2v-2h2v2c0.5 0 0.75 0.25 1 0.5s0.5 0.5 1 0.5v-2h2v2h2v2z"></path>
<path fill="#000000" d="M0 0h2v16h-2v-16z"></path>
</svg>
