<?xml version="1.0" encoding="utf-8"?>
<!-- Generated by IcoMoon.io -->
<!DOCTYPE svg PUBLIC "-//W3C//DTD SVG 1.1//EN" "http://www.w3.org/Graphics/SVG/1.1/DTD/svg11.dtd">
<svg version="1.1" xmlns="http://www.w3.org/2000/svg" xmlns:xlink="http://www.w3.org/1999/xlink" width="16" height="16" viewBox="0 0 16 16">
<path fill="#000000" d="M5.5 2.5c0-1.381 1.119-2.5 2.5-2.5s2.5 1.119 2.5 2.5c0 1.381-1.119 2.5-2.5 2.5s-2.5-1.119-2.5-2.5zM15.781 11.375l-4-5c-0.197-0.247-0.488-0.375-0.781-0.375l-0-0-6 0c-0.293 0-0.583 0.128-0.781 0.375l-4 5c-0.263 0.328-0.292 0.786-0.073 1.145 0.184 0.302 0.51 0.48 0.854 0.48 0.065 0 0.131-0.006 0.196-0.019l2.804-0.561v3.58h8v-3.58l2.804 0.561c0.066 0.013 0.131 0.019 0.196 0.019 0.344 0 0.67-0.178 0.854-0.48 0.219-0.359 0.189-0.816-0.073-1.145zM11 10.18l-0.804-0.161c-0.541-0.108-1.068 0.243-1.177 0.784s0.243 1.068 0.784 1.177l1.196 0.239v0.78l-3 1-3-1v-0.78l1.196-0.239c0.542-0.108 0.893-0.635 0.784-1.177s-0.635-0.893-1.177-0.784l-0.804 0.161v-2.18l3 1 3-1v2.18z"></path>
</svg>
