<?xml version="1.0" encoding="utf-8"?>
<!-- Generated by IcoMoon.io -->
<!DOCTYPE svg PUBLIC "-//W3C//DTD SVG 1.1//EN" "http://www.w3.org/Graphics/SVG/1.1/DTD/svg11.dtd">
<svg version="1.1" xmlns="http://www.w3.org/2000/svg" xmlns:xlink="http://www.w3.org/1999/xlink" width="16" height="16" viewBox="0 0 16 16">
<path fill="#000000" d="M11 4c0 1.657-1.343 3-3 3s-3-1.343-3-3c0-1.657 1.343-3 3-3s3 1.343 3 3z"></path>
<path fill="#000000" d="M9.5 10c0.276 0 0.5-0.224 0.5-0.5s-0.224-0.5-0.5-0.5h-3c-0.276 0-0.5 0.224-0.5 0.5v6c0 0.276 0.224 0.5 0.5 0.5h3c0.276 0 0.5-0.224 0.5-0.5s-0.224-0.5-0.5-0.5h-2.5v-2h2.5c0.276 0 0.5-0.224 0.5-0.5s-0.224-0.5-0.5-0.5h-2.5v-2h2.5z"></path>
<path fill="#000000" d="M4 11c0-1.103-0.897-2-2-2h-1.5c-0.276 0-0.5 0.224-0.5 0.5v6c0 0.276 0.224 0.5 0.5 0.5s0.5-0.224 0.5-0.5v-2.5h0.691l1.362 2.724c0.088 0.175 0.264 0.277 0.448 0.277 0.075 0 0.151-0.017 0.223-0.053 0.247-0.123 0.347-0.424 0.224-0.671l-1.209-2.418c0.738-0.294 1.262-1.016 1.262-1.858zM2 12h-1v-2h1c0.551 0 1 0.449 1 1s-0.449 1-1 1z"></path>
<path fill="#000000" d="M15.5 15h-1.5c-0.551 0-1-0.449-1-1v-3c0-0.551 0.449-1 1-1h1.5c0.276 0 0.5-0.224 0.5-0.5s-0.224-0.5-0.5-0.5h-1.5c-1.103 0-2 0.897-2 2v3c0 1.103 0.897 2 2 2h1.5c0.276 0 0.5-0.224 0.5-0.5s-0.224-0.5-0.5-0.5z"></path>
</svg>
