<?xml version="1.0" encoding="utf-8"?>
<!-- Generated by IcoMoon.io -->
<!DOCTYPE svg PUBLIC "-//W3C//DTD SVG 1.1//EN" "http://www.w3.org/Graphics/SVG/1.1/DTD/svg11.dtd">
<svg version="1.1" xmlns="http://www.w3.org/2000/svg" xmlns:xlink="http://www.w3.org/1999/xlink" width="16" height="16" viewBox="0 0 16 16">
<path fill="#000000" d="M15.973 0.625c0.058-0.165 0.022-0.356-0.11-0.488s-0.323-0.168-0.488-0.11l-0-0-5.491 1.951c-0.338-0.234-0.678-0.446-1.014-0.634-1.124-0.628-2.171-0.96-3.026-0.96-0.679 0-1.25 0.212-1.651 0.613-0.201 0.201-0.352 0.44-0.454 0.712-0.474 1.018-0.739 2.152-0.739 3.348 0 4.387 3.556 7.944 7.944 7.944 1.201 0 2.339-0.267 3.36-0.744 0.269-0.103 0.505-0.253 0.7-0.448 0.757-0.757 0.813-2.049 0.158-3.639-0.274-0.665-0.661-1.36-1.14-2.053l1.95-5.49zM12.058 8.843c-0.087 0.244 0.041 0.512 0.285 0.599 0.052 0.018 0.105 0.027 0.157 0.027 0.193 0 0.373-0.12 0.442-0.312l0.653-1.837c0.264 0.435 0.485 0.863 0.656 1.278 0.427 1.037 0.483 1.891 0.147 2.228-0.145 0.145-0.382 0.218-0.705 0.218-1.159 0-3.319-0.99-5.532-3.203-1.302-1.302-2.31-2.726-2.838-4.009-0.427-1.037-0.484-1.891-0.147-2.228 0.145-0.145 0.382-0.218 0.705-0.218 0.664 0 1.658 0.326 2.801 1.020l-1.838 0.653c-0.244 0.087-0.371 0.355-0.285 0.599s0.355 0.371 0.599 0.285l6.574-2.336-4.563 4.563c-0.183 0.183-0.183 0.48 0 0.663 0.091 0.092 0.211 0.137 0.331 0.137s0.24-0.046 0.331-0.137l4.563-4.563-2.336 6.574z"></path>
<path fill="#000000" d="M9 15.5v-0.5c0-0.248-0.030-0.488-0.087-0.718-1.508-0.329-2.909-1.023-4.097-2.039-1.068 0.459-1.816 1.521-1.816 2.757v0.5c0 0.276 0.224 0.5 0.5 0.5h5c0.276 0 0.5-0.224 0.5-0.5z"></path>
</svg>
