<?xml version="1.0" encoding="utf-8"?>
<!-- Generated by IcoMoon.io -->
<!DOCTYPE svg PUBLIC "-//W3C//DTD SVG 1.1//EN" "http://www.w3.org/Graphics/SVG/1.1/DTD/svg11.dtd">
<svg version="1.1" xmlns="http://www.w3.org/2000/svg" xmlns:xlink="http://www.w3.org/1999/xlink" width="16" height="16" viewBox="0 0 16 16">
<path fill="#000000" d="M13.5 1h-12c-0.825 0-1.5 0.675-1.5 1.5v12c0 0.825 0.675 1.5 1.5 1.5h12c0.825 0 1.5-0.675 1.5-1.5v-12c0-0.825-0.675-1.5-1.5-1.5zM10.5 8h-2.5v-3.5c0-0.276-0.224-0.5-0.5-0.5s-0.5 0.224-0.5 0.5v3.5h-2.5l-1.933-1.933c0.898-1.817 2.769-3.067 4.933-3.067s4.035 1.25 4.933 3.067l-1.933 1.933z"></path>
</svg>
