<?xml version="1.0" encoding="utf-8"?>
<!-- Generated by IcoMoon.io -->
<!DOCTYPE svg PUBLIC "-//W3C//DTD SVG 1.1//EN" "http://www.w3.org/Graphics/SVG/1.1/DTD/svg11.dtd">
<svg version="1.1" xmlns="http://www.w3.org/2000/svg" xmlns:xlink="http://www.w3.org/1999/xlink" width="16" height="16" viewBox="0 0 16 16">
<path fill="#000000" d="M15.852 12.352l-3.403-3.403c-0.649 0.149-1.358-0.029-1.863-0.535s-0.683-1.214-0.535-1.863l-0.403-0.403c-0.345-0.345-1.2-0.067-2.043 0.617l-4.605-4.605-0.5-1.16-1.601-1-0.899 0.899 1 1.601 1.16 0.5 4.605 4.605c-0.685 0.843-0.962 1.698-0.617 2.043 0 0 0 0 0 0l0.403 0.403c0.649-0.149 1.358 0.029 1.863 0.535s0.683 1.214 0.535 1.863l3.403 3.403c0.405 0.405 1.518-0.049 2.484-1.016s1.421-2.079 1.016-2.484zM13.92 13.92c-0.116 0.116-0.268 0.174-0.42 0.174s-0.304-0.058-0.42-0.174l-5-5c-0.232-0.232-0.232-0.608 0-0.84s0.608-0.232 0.84 0l5 5c0.232 0.232 0.232 0.608 0 0.84z"></path>
</svg>
