<?xml version="1.0" encoding="utf-8"?>
<!-- Generated by IcoMoon.io -->
<!DOCTYPE svg PUBLIC "-//W3C//DTD SVG 1.1//EN" "http://www.w3.org/Graphics/SVG/1.1/DTD/svg11.dtd">
<svg version="1.1" xmlns="http://www.w3.org/2000/svg" xmlns:xlink="http://www.w3.org/1999/xlink" width="16" height="16" viewBox="0 0 16 16">
<path fill="#000000" d="M11 2l1-1-1-1h-6l-1 1 1 1zM12 1.5l-1 1v4l1 1 1-1v-4zM5 6.5v-4l-1-1-1 1v4l1 1zM11 9.5v4l1 1 1-1v-4l-1-1zM5 13.5v-4l-1-1-1 1v4l1 1zM4 8l1 1h6l1-1-1-1h-6zM5 14l-1 1 1 1h6l1-1-1-1z"></path>
</svg>
