<?xml version="1.0" encoding="utf-8"?>
<!-- Generated by IcoMoon.io -->
<!DOCTYPE svg PUBLIC "-//W3C//DTD SVG 1.1//EN" "http://www.w3.org/Graphics/SVG/1.1/DTD/svg11.dtd">
<svg version="1.1" xmlns="http://www.w3.org/2000/svg" xmlns:xlink="http://www.w3.org/1999/xlink" width="16" height="16" viewBox="0 0 16 16">
<path fill="#000000" d="M6 8c0-1.105 0.895-2 2-2s2 0.895 2 2c0 1.105-0.895 2-2 2s-2-0.895-2-2zM8 4c1.105 0 2.105 0.448 2.828 1.172l1.414-1.414c-1.086-1.086-2.586-1.757-4.243-1.757-2.612 0-4.834 1.67-5.658 4h-2.342v2h4c0-2.209 1.791-4 4-4zM12 8c0 2.209-1.791 4-4 4-1.105 0-2.105-0.448-2.828-1.172l-1.414 1.414c1.086 1.086 2.586 1.757 4.243 1.757 2.612 0 4.834-1.67 5.658-4h2.342v-2h-4z"></path>
</svg>
