<?xml version="1.0" encoding="utf-8"?>
<!-- Generated by IcoMoon.io -->
<!DOCTYPE svg PUBLIC "-//W3C//DTD SVG 1.1//EN" "http://www.w3.org/Graphics/SVG/1.1/DTD/svg11.dtd">
<svg version="1.1" xmlns="http://www.w3.org/2000/svg" xmlns:xlink="http://www.w3.org/1999/xlink" width="16" height="16" viewBox="0 0 16 16">
<path fill="#000000" d="M4.26 12.656c0.28-0.41 0.743-0.655 1.239-0.655h0.004c0.497 0.001 0.959 0.247 1.237 0.657 0.156 0.222 0.716 0.842 1.259 0.842 0.545 0 1.105-0.623 1.26-0.844 0.28-0.41 0.743-0.655 1.239-0.655h0.004c0.497 0.001 0.959 0.247 1.237 0.657 0.144 0.205 0.632 0.749 1.133 0.832 0.961-1.607 2.126-5.489 2.126-5.489l-2.057-0.881-0.827-4.961c-0.108-0.649-0.708-1.158-1.367-1.158h-5.5c-0.658 0-1.258 0.508-1.367 1.158l-0.827 4.961-2.057 0.881c0 0 1.165 3.882 2.126 5.489 0.503-0.083 0.991-0.629 1.135-0.833zM9 2h1.75c0.168 0 0.352 0.156 0.38 0.322l0.721 4.329-3.313-1.42 0.462-3.231zM4.87 2.322c0.028-0.166 0.212-0.322 0.38-0.322h1.75l0.462 3.231-3.313 1.42 0.721-4.329z"></path>
<path fill="#000000" d="M13 16c-1.143 0-2.018-0.707-2.5-1.216-0.482 0.509-1.357 1.216-2.5 1.216s-2.018-0.707-2.5-1.216c-0.482 0.509-1.357 1.216-2.5 1.216-1.748 0-2.869-1.652-2.916-1.723-0.153-0.23-0.091-0.54 0.139-0.693s0.539-0.091 0.693 0.138c0.012 0.017 0.879 1.278 2.085 1.278 1.208 0 2.076-1.266 2.085-1.279 0.093-0.138 0.249-0.221 0.415-0.221 0 0 0.001 0 0.001 0 0.167 0.001 0.323 0.083 0.415 0.222 0.008 0.012 0.876 1.277 2.084 1.277s2.076-1.266 2.085-1.279c0.093-0.138 0.249-0.221 0.415-0.221 0.001 0 0.001 0 0.001 0 0.167 0.001 0.323 0.083 0.415 0.222 0.008 0.012 0.876 1.277 2.084 1.277s2.076-1.266 2.085-1.279c0.154-0.228 0.465-0.29 0.693-0.136s0.291 0.463 0.138 0.692c-0.047 0.070-1.169 1.723-2.916 1.723z"></path>
</svg>
