<?xml version="1.0" encoding="utf-8"?>
<!-- Generated by IcoMoon.io -->
<!DOCTYPE svg PUBLIC "-//W3C//DTD SVG 1.1//EN" "http://www.w3.org/Graphics/SVG/1.1/DTD/svg11.dtd">
<svg version="1.1" xmlns="http://www.w3.org/2000/svg" xmlns:xlink="http://www.w3.org/1999/xlink" width="16" height="16" viewBox="0 0 16 16">
<path fill="#000000" d="M14.5 4.5l-4.5 1.5 1.5-4.5zM8.25 0h0.5v1h-0.5zM9.25 0h0.5v1h-0.5zM10.25 0h0.5v1h-0.5zM11.25 0h0.5v1h-0.5zM12.25 0h0.5v1h-0.5zM13.25 0h0.5v1h-0.5zM14.281 0h0.5v1h-0.5zM2.25 0h0.5v1h-0.5zM3.25 0h0.5v1h-0.5zM4.25 0h0.5v1h-0.5zM5.25 0h0.5v1h-0.5zM6.25 0h0.5v1h-0.5zM7.25 0h0.5v1h-0.5zM4.5 1.5l1.5 4.5-4.5-1.5zM1.5 11.5l4.5-1.5-1.5 4.5zM11.5 14.5l-1.5-4.5 4.5 1.5zM1.25 0h0.5v1h-0.5zM8.25 15h0.5v1h-0.5zM9.25 15h0.5v1h-0.5zM10.25 15h0.5v1h-0.5zM11.25 15h0.5v1h-0.5zM12.25 15h0.5v1h-0.5zM13.25 15h0.5v1h-0.5zM14.281 15h0.5v1h-0.5zM2.25 15h0.5v1h-0.5zM3.25 15h0.5v1h-0.5zM4.25 15h0.5v1h-0.5zM5.25 15h0.5v1h-0.5zM6.25 15h0.5v1h-0.5zM7.25 15h0.5v1h-0.5zM1.25 15h0.5v1h-0.5zM0.016 7.266h1v0.5h-1zM0.016 6.266h1v0.5h-1zM0.016 5.266h1v0.5h-1zM0.016 4.266h1v0.5h-1zM0.016 3.266h1v0.5h-1zM0.016 2.266h1v0.5h-1zM0.016 1.234h1v0.5h-1zM0.016 13.266h1v0.5h-1zM0.016 12.266h1v0.5h-1zM0.016 11.266h1v0.5h-1zM0.016 10.266h1v0.5h-1zM0.016 9.266h1v0.5h-1zM0.016 8.266h1v0.5h-1zM0.016 14.266h1v0.5h-1zM15.016 7.266h1v0.5h-1zM15.016 6.266h1v0.5h-1zM15.016 5.266h1v0.5h-1zM15.016 4.266h1v0.5h-1zM15.016 3.266h1v0.5h-1zM15.016 2.266h1v0.5h-1zM15.016 1.234h1v0.5h-1zM15.016 13.266h1v0.5h-1zM15.016 12.266h1v0.5h-1zM15.016 11.266h1v0.5h-1zM15.016 10.266h1v0.5h-1zM15.016 9.266h1v0.5h-1zM15.016 8.266h1v0.5h-1zM15.016 14.266h1v0.5h-1zM10 6h-4v4h4v-4zM11 5v0 6h-6v-6h6z"></path>
</svg>
