<?xml version="1.0" encoding="utf-8"?>
<!-- Generated by IcoMoon.io -->
<!DOCTYPE svg PUBLIC "-//W3C//DTD SVG 1.1//EN" "http://www.w3.org/Graphics/SVG/1.1/DTD/svg11.dtd">
<svg version="1.1" xmlns="http://www.w3.org/2000/svg" xmlns:xlink="http://www.w3.org/1999/xlink" width="16" height="16" viewBox="0 0 16 16">
<path fill="#000000" d="M12.803 3.197c-1.417-1.417-3.3-2.197-5.303-2.197s-3.887 0.78-5.303 2.197-2.197 3.3-2.197 5.303c0 0.276 0.224 0.5 0.5 0.5 1.93 0 3.5 1.57 3.5 3.5v2c0 0.276 0.224 0.5 0.5 0.5s0.5-0.224 0.5-0.5v-2c0-0.276 0.224-0.5 0.5-0.5s0.5 0.224 0.5 0.5v3c0 0.276 0.224 0.5 0.5 0.5s0.5-0.224 0.5-0.5v-3c0-0.276 0.224-0.5 0.5-0.5s0.5 0.224 0.5 0.5v3c0 0.276 0.224 0.5 0.5 0.5s0.5-0.224 0.5-0.5v-3c0-0.276 0.224-0.5 0.5-0.5s0.5 0.224 0.5 0.5v2c0 0.276 0.224 0.5 0.5 0.5s0.5-0.224 0.5-0.5v-2c0-1.93 1.57-3.5 3.5-3.5 0.276 0 0.5-0.224 0.5-0.5 0-2.003-0.78-3.887-2.197-5.303zM6 7c0 0.55-0.45 1-1 1h-1c-0.55 0-1-0.45-1-1v-1c0-0.55 0.45-1 1-1h1c0.55 0 1 0.45 1 1v1zM12 7c0 0.55-0.45 1-1 1h-1c-0.55 0-1-0.45-1-1v-1c0-0.55 0.45-1 1-1h1c0.55 0 1 0.45 1 1v1z"></path>
</svg>
