<?xml version="1.0" encoding="utf-8"?>
<!-- Generated by IcoMoon.io -->
<!DOCTYPE svg PUBLIC "-//W3C//DTD SVG 1.1//EN" "http://www.w3.org/Graphics/SVG/1.1/DTD/svg11.dtd">
<svg version="1.1" xmlns="http://www.w3.org/2000/svg" xmlns:xlink="http://www.w3.org/1999/xlink" width="16" height="16" viewBox="0 0 16 16">
<path fill="#000000" d="M6.5 15c-0.13 0-0.258-0.051-0.354-0.146l-3.854-3.854h-1.793c-0.276 0-0.5-0.224-0.5-0.5v-5c0-0.276 0.224-0.5 0.5-0.5h1.793l3.854-3.854c0.143-0.143 0.358-0.186 0.545-0.108s0.309 0.26 0.309 0.462v13c0 0.202-0.122 0.385-0.309 0.462-0.062 0.026-0.127 0.038-0.191 0.038z"></path>
<path fill="#000000" d="M14.854 11.146l-2.155-2.155c1.286-0.102 2.301-1.18 2.301-2.491 0-1.378-1.121-2.5-2.5-2.5h-3c-0.276 0-0.5 0.224-0.5 0.5v7c0 0.276 0.224 0.5 0.5 0.5s0.5-0.224 0.5-0.5v-2.5h1.293l2.854 2.854c0.098 0.098 0.226 0.146 0.354 0.146s0.256-0.049 0.354-0.146c0.195-0.195 0.195-0.512 0-0.707zM10 5h2.5c0.827 0 1.5 0.673 1.5 1.5s-0.673 1.5-1.5 1.5h-2.5v-3z"></path>
</svg>
