<?xml version="1.0" encoding="utf-8"?>
<!-- Generated by IcoMoon.io -->
<!DOCTYPE svg PUBLIC "-//W3C//DTD SVG 1.1//EN" "http://www.w3.org/Graphics/SVG/1.1/DTD/svg11.dtd">
<svg version="1.1" xmlns="http://www.w3.org/2000/svg" xmlns:xlink="http://www.w3.org/1999/xlink" width="16" height="16" viewBox="0 0 16 16">
<path fill="#000000" d="M8 0c-4.418 0-8 3.582-8 8s3.582 8 8 8 8-3.582 8-8-3.582-8-8-8zM8.282 14.698c-0.118 0.26-0.217 0.406-0.282 0.485-0.066-0.079-0.165-0.225-0.282-0.485-0.181-0.4-0.351-0.954-0.493-1.602-0.009-0.040-0.017-0.080-0.026-0.121 0.263 0.016 0.531 0.025 0.801 0.025s0.537-0.008 0.801-0.025c-0.008 0.041-0.017 0.081-0.026 0.121-0.141 0.648-0.312 1.202-0.493 1.602zM8 12.25c-0.317 0-0.631-0.012-0.941-0.036-0.111-0.688-0.194-1.443-0.246-2.236 0.387 0.014 0.783 0.022 1.186 0.022s0.799-0.008 1.186-0.022c-0.052 0.793-0.135 1.547-0.246 2.236-0.31 0.024-0.624 0.036-0.941 0.036zM8 9.25c-0.413 0-0.823-0.008-1.226-0.024-0.016-0.403-0.024-0.813-0.024-1.226s0.008-0.823 0.024-1.226c0.403-0.016 0.813-0.024 1.226-0.024s0.823 0.008 1.226 0.024c0.016 0.403 0.024 0.813 0.024 1.226s-0.008 0.823-0.024 1.226c-0.403 0.016-0.813 0.024-1.226 0.024zM3.75 8c0-0.317 0.012-0.631 0.036-0.941 0.688-0.111 1.443-0.194 2.236-0.246-0.014 0.387-0.022 0.783-0.022 1.186s0.008 0.799 0.022 1.186c-0.793-0.052-1.547-0.135-2.236-0.246-0.024-0.31-0.036-0.624-0.036-0.941zM3.025 8.801c-0.041-0.008-0.081-0.017-0.121-0.026-0.648-0.141-1.202-0.312-1.602-0.493-0.26-0.118-0.406-0.217-0.485-0.282 0.079-0.066 0.224-0.165 0.485-0.282 0.4-0.181 0.954-0.351 1.602-0.493 0.040-0.009 0.080-0.017 0.121-0.026-0.016 0.263-0.025 0.531-0.025 0.801s0.009 0.537 0.025 0.801zM7.718 1.302c0.118-0.26 0.217-0.406 0.282-0.485 0.066 0.079 0.165 0.224 0.282 0.485 0.181 0.4 0.351 0.954 0.493 1.602 0.009 0.040 0.017 0.080 0.026 0.121-0.263-0.016-0.531-0.025-0.801-0.025s-0.537 0.009-0.801 0.025c0.008-0.041 0.017-0.081 0.026-0.121 0.141-0.648 0.312-1.202 0.493-1.602zM8 3.75c0.317 0 0.631 0.012 0.941 0.036 0.111 0.688 0.194 1.443 0.246 2.236-0.387-0.014-0.783-0.022-1.186-0.022s-0.799 0.008-1.186 0.022c0.052-0.793 0.135-1.547 0.246-2.236 0.31-0.024 0.624-0.036 0.941-0.036zM9.978 6.814c0.793 0.052 1.547 0.135 2.236 0.246 0.024 0.31 0.036 0.624 0.036 0.941s-0.012 0.631-0.036 0.941c-0.688 0.111-1.443 0.194-2.236 0.246 0.014-0.387 0.022-0.783 0.022-1.186s-0.008-0.799-0.022-1.186zM12.975 7.199c0.041 0.008 0.081 0.017 0.121 0.026 0.648 0.141 1.202 0.312 1.602 0.493 0.26 0.118 0.406 0.217 0.485 0.282-0.079 0.066-0.225 0.165-0.485 0.282-0.4 0.181-0.954 0.351-1.602 0.493-0.040 0.009-0.080 0.017-0.121 0.026 0.016-0.263 0.025-0.531 0.025-0.801s-0.008-0.537-0.025-0.801zM12.902 6.42c-0.074-0.594-0.19-1.165-0.342-1.703 0.245 0.118 0.478 0.246 0.699 0.384 0.645 0.403 1.147 0.866 1.491 1.374 0.13 0.192 0.235 0.388 0.314 0.587-0.533-0.25-1.273-0.469-2.162-0.641zM11.882 5.078c0.104 0.393 0.186 0.797 0.246 1.209-0.671-0.101-1.406-0.178-2.187-0.227-0.049-0.781-0.126-1.516-0.227-2.187 0.412 0.060 0.816 0.142 1.209 0.246 0.253 0.067 0.498 0.142 0.735 0.225 0.083 0.237 0.158 0.482 0.225 0.735zM9.581 3.098c-0.173-0.889-0.391-1.629-0.641-2.162 0.199 0.079 0.395 0.184 0.587 0.314 0.508 0.344 0.97 0.845 1.374 1.491 0.138 0.221 0.266 0.454 0.384 0.699-0.539-0.152-1.109-0.267-1.703-0.342zM6.474 1.25c0.192-0.13 0.388-0.235 0.587-0.314-0.25 0.533-0.469 1.273-0.641 2.162-0.594 0.074-1.165 0.19-1.703 0.342 0.118-0.245 0.246-0.478 0.384-0.699 0.403-0.645 0.866-1.147 1.374-1.491zM5.078 4.118c0.393-0.104 0.797-0.186 1.209-0.246-0.101 0.671-0.178 1.406-0.227 2.187-0.781 0.049-1.516 0.126-2.187 0.227 0.060-0.412 0.142-0.816 0.246-1.209 0.067-0.253 0.142-0.498 0.225-0.735 0.237-0.083 0.482-0.158 0.735-0.225zM3.098 6.42c-0.889 0.173-1.629 0.391-2.162 0.641 0.079-0.199 0.184-0.394 0.314-0.587 0.344-0.508 0.845-0.97 1.491-1.374 0.221-0.138 0.454-0.266 0.699-0.384-0.152 0.539-0.267 1.109-0.342 1.703zM0.936 8.939c0.533 0.25 1.273 0.469 2.162 0.641 0.074 0.594 0.19 1.165 0.342 1.703-0.245-0.118-0.478-0.246-0.699-0.384-0.645-0.403-1.147-0.866-1.491-1.374-0.13-0.192-0.235-0.388-0.314-0.587zM4.118 10.922c-0.104-0.393-0.186-0.797-0.246-1.209 0.671 0.101 1.406 0.178 2.187 0.227 0.049 0.781 0.126 1.516 0.227 2.187-0.412-0.060-0.816-0.142-1.209-0.246-0.253-0.067-0.498-0.142-0.735-0.225-0.083-0.237-0.158-0.482-0.225-0.735zM6.42 12.902c0.173 0.889 0.391 1.629 0.641 2.162-0.199-0.079-0.394-0.184-0.587-0.314-0.508-0.344-0.97-0.845-1.374-1.491-0.138-0.221-0.266-0.454-0.384-0.699 0.539 0.152 1.109 0.267 1.703 0.342zM9.526 14.75c-0.192 0.13-0.388 0.235-0.587 0.314 0.25-0.533 0.469-1.273 0.641-2.162 0.594-0.074 1.165-0.19 1.703-0.342-0.118 0.245-0.246 0.478-0.384 0.699-0.403 0.645-0.866 1.147-1.374 1.491zM10.922 11.882c-0.393 0.104-0.797 0.186-1.209 0.246 0.101-0.671 0.178-1.406 0.227-2.187 0.781-0.049 1.516-0.126 2.187-0.227-0.060 0.412-0.142 0.816-0.246 1.209-0.067 0.253-0.142 0.498-0.225 0.735-0.237 0.083-0.482 0.158-0.735 0.225zM12.902 9.581c0.889-0.173 1.629-0.391 2.162-0.641-0.080 0.199-0.184 0.395-0.314 0.587-0.344 0.508-0.845 0.97-1.491 1.374-0.221 0.138-0.454 0.266-0.699 0.384 0.152-0.539 0.267-1.109 0.342-1.703zM13.127 2.873c0.666 0.666 1.189 1.442 1.554 2.305 0.016 0.038 0.032 0.077 0.047 0.116-0.638-0.619-1.489-1.143-2.487-1.534-0.391-0.999-0.915-1.849-1.534-2.487 0.039 0.016 0.077 0.031 0.116 0.047 0.863 0.365 1.639 0.888 2.305 1.554zM2.873 2.873c0.666-0.666 1.442-1.189 2.305-1.554 0.038-0.016 0.077-0.032 0.115-0.047-0.618 0.638-1.143 1.489-1.534 2.487-0.999 0.391-1.849 0.915-2.487 1.534 0.016-0.039 0.031-0.077 0.047-0.115 0.365-0.863 0.888-1.639 1.554-2.305zM2.873 13.127c-0.666-0.666-1.189-1.441-1.554-2.305-0.016-0.038-0.032-0.077-0.047-0.115 0.638 0.618 1.489 1.143 2.487 1.534 0.391 0.998 0.915 1.849 1.534 2.487-0.039-0.015-0.077-0.031-0.115-0.047-0.863-0.365-1.639-0.888-2.305-1.554zM13.127 13.127c-0.666 0.666-1.441 1.189-2.305 1.554-0.038 0.016-0.077 0.032-0.116 0.047 0.619-0.638 1.143-1.489 1.534-2.487 0.999-0.391 1.849-0.915 2.487-1.534-0.016 0.039-0.031 0.077-0.047 0.116-0.365 0.863-0.888 1.639-1.554 2.305z"></path>
</svg>
