<?xml version="1.0" encoding="utf-8"?>
<!-- Generated by IcoMoon.io -->
<!DOCTYPE svg PUBLIC "-//W3C//DTD SVG 1.1//EN" "http://www.w3.org/Graphics/SVG/1.1/DTD/svg11.dtd">
<svg version="1.1" xmlns="http://www.w3.org/2000/svg" xmlns:xlink="http://www.w3.org/1999/xlink" width="16" height="16" viewBox="0 0 16 16">
<path fill="#000000" d="M16 5v-3h-11l-1 1v2l-2 2v3l-2 2v3h11l1-1v-2h-11l0.125-0.125h11.089l0.237-0.25h-11.077l0.25-0.25h11.064l0.237-0.25h-11.051l0.25-0.25h11.038l0.237-0.25h-11.026l0.25-0.25h11.013l0.237-0.25h-11l0.125-0.125h11v-3h-11l0.125-0.125h11.024l0.247-0.25h-11.020l0.25-0.25h11.017l0.247-0.25h-11.014l0.25-0.25h11.010l0.247-0.25h-11.007l0.25-0.25h11.003l0.247-0.25h-11l0.125-0.125z"></path>
</svg>
