<?xml version="1.0" encoding="utf-8"?>
<!-- Generated by IcoMoon.io -->
<!DOCTYPE svg PUBLIC "-//W3C//DTD SVG 1.1//EN" "http://www.w3.org/Graphics/SVG/1.1/DTD/svg11.dtd">
<svg version="1.1" xmlns="http://www.w3.org/2000/svg" xmlns:xlink="http://www.w3.org/1999/xlink" width="16" height="16" viewBox="0 0 16 16">
<path fill="#000000" d="M3.128 11.347l0.643-1.415c-1.389-1.193-2.271-2.961-2.271-4.932 0-1.535 0.535-2.947 1.428-4.060l-1.174-0.94c-1.136 1.414-1.754 3.159-1.754 5 0 2.137 0.832 4.146 2.343 5.657 0.249 0.249 0.511 0.478 0.785 0.69z"></path>
<path fill="#000000" d="M12.229 9.932l0.643 1.415c0.274-0.211 0.536-0.441 0.785-0.69 1.511-1.511 2.343-3.52 2.343-5.657 0-1.84-0.618-3.585-1.754-5l-1.174 0.94c0.893 1.113 1.428 2.525 1.428 4.060 0 1.971-0.882 3.739-2.271 4.932z"></path>
<path fill="#000000" d="M11.006 7.242l0.68 1.496c0.009-0.009 0.018-0.017 0.026-0.025 1.909-1.909 2.037-4.934 0.386-6.993l-1.171 0.937c1.067 1.331 1.093 3.226 0.079 4.585z"></path>
<path fill="#000000" d="M4.288 8.712c0.009 0.009 0.017 0.017 0.026 0.025l0.68-1.496c-1.015-1.359-0.988-3.254 0.079-4.585l-1.171-0.937c-1.651 2.060-1.523 5.084 0.386 6.993z"></path>
<path fill="#000000" d="M10 5c0-1.105-0.895-2-2-2s-2 0.895-2 2c0 0.583 0.25 1.108 0.648 1.473l-4.33 9.527h1.648l0.909-2h6.252l0.909 2h1.648l-4.33-9.527c0.398-0.366 0.648-0.89 0.648-1.473zM8 7.123l1.308 2.877h-2.616l1.308-2.877zM10.671 13h-5.343l0.909-2h3.525l0.909 2z"></path>
</svg>
