<?xml version="1.0" encoding="utf-8"?>
<!-- Generated by IcoMoon.io -->
<!DOCTYPE svg PUBLIC "-//W3C//DTD SVG 1.1//EN" "http://www.w3.org/Graphics/SVG/1.1/DTD/svg11.dtd">
<svg version="1.1" xmlns="http://www.w3.org/2000/svg" xmlns:xlink="http://www.w3.org/1999/xlink" width="16" height="16" viewBox="0 0 16 16">
<path fill="#000000" d="M10 5c0-1.105-0.895-2-2-2s-2 0.895-2 2c0 0.709 0.369 1.331 0.925 1.686l-2.54 9.314h1.231l0.273-1h4.224l0.273 1h1.231l-2.54-9.314c0.556-0.355 0.925-0.977 0.925-1.686zM9.294 12h-2.587l0.273-1h2.042l0.273 1zM7.252 10l0.748-2.743 0.748 2.743h-1.496zM6.161 14l0.273-1h3.133l0.273 1h-3.678zM10.38 0.602c1.56 0.846 2.62 2.498 2.62 4.398s-1.059 3.552-2.62 4.398c0.689-1.096 1.12-2.66 1.12-4.398s-0.431-3.302-1.12-4.398zM13.38 0.602c1.56 0.846 2.62 2.498 2.62 4.398s-1.059 3.552-2.62 4.398c0.689-1.096 1.12-2.66 1.12-4.398s-0.431-3.302-1.12-4.398zM5.62 9.398c-1.56-0.846-2.62-2.498-2.62-4.398s1.059-3.552 2.62-4.398c-0.689 1.096-1.12 2.66-1.12 4.398s0.431 3.302 1.12 4.398zM0 5c0-1.9 1.059-3.552 2.62-4.398-0.689 1.096-1.12 2.66-1.12 4.398s0.431 3.302 1.12 4.398c-1.56-0.846-2.62-2.498-2.62-4.398z"></path>
</svg>
