<?xml version="1.0" encoding="utf-8"?>
<!-- Generated by IcoMoon.io -->
<!DOCTYPE svg PUBLIC "-//W3C//DTD SVG 1.1//EN" "http://www.w3.org/Graphics/SVG/1.1/DTD/svg11.dtd">
<svg version="1.1" xmlns="http://www.w3.org/2000/svg" xmlns:xlink="http://www.w3.org/1999/xlink" width="16" height="16" viewBox="0 0 16 16">
<path fill="#000000" d="M16 7c0-2.757-2.243-5-5-5-0.957 0-1.896 0.263-2.715 0.76-0.821 0.499-1.466 1.198-1.863 2.023-0.356 0.739-1.307 1.217-2.422 1.217h-1c-1.654 0-3 1.346-3 3v1c0 1.491 0.869 2.812 2.448 3.719 1.438 0.826 3.41 1.281 5.552 1.281 2.175 0 4.171-0.662 5.622-1.865 0.75-0.621 1.335-1.367 1.74-2.217 0.423-0.889 0.638-1.871 0.638-2.918 0-0.152-0.007-0.302-0.021-0.45 0.013-0.181 0.021-0.364 0.021-0.55zM12.984 11.365c-1.272 1.054-3.042 1.635-4.984 1.635-1.971 0-3.766-0.408-5.054-1.148-0.888-0.51-1.946-1.419-1.946-2.852 0-1.103 0.897-2 2-2h1c0.689 0 1.354-0.147 1.922-0.426 0.64-0.314 1.125-0.783 1.401-1.357 0.639-1.326 2.117-2.217 3.677-2.217 2.206 0 4 1.794 4 4 0 1.763-0.697 3.272-2.016 4.365z"></path>
<path fill="#000000" d="M11 4.125c-1.12 0-2.215 0.65-2.664 1.581-0.387 0.802-1.050 1.452-1.919 1.878-0.721 0.354-1.557 0.541-2.418 0.541h-1c-0.482 0-0.875 0.393-0.875 0.875 0 0.719 0.465 1.35 1.381 1.877 1.121 0.644 2.716 0.998 4.494 0.998 1.681 0 3.196-0.489 4.266-1.376 1.067-0.885 1.609-2.062 1.609-3.499 0-1.585-1.29-2.875-2.875-2.875zM11 8c-0.552 0-1-0.448-1-1s0.448-1 1-1 1 0.448 1 1-0.448 1-1 1z"></path>
</svg>
