<?xml version="1.0" encoding="utf-8"?>
<!-- Generated by IcoMoon.io -->
<!DOCTYPE svg PUBLIC "-//W3C//DTD SVG 1.1//EN" "http://www.w3.org/Graphics/SVG/1.1/DTD/svg11.dtd">
<svg version="1.1" xmlns="http://www.w3.org/2000/svg" xmlns:xlink="http://www.w3.org/1999/xlink" width="16" height="16" viewBox="0 0 16 16">
<path fill="#000000" d="M3.5 7c1.93 0 3.5-1.57 3.5-3.5s-1.57-3.5-3.5-3.5-3.5 1.57-3.5 3.5 1.57 3.5 3.5 3.5zM3.5 1c1.378 0 2.5 1.122 2.5 2.5s-1.122 2.5-2.5 2.5-2.5-1.122-2.5-2.5 1.122-2.5 2.5-2.5z"></path>
<path fill="#000000" d="M12.078 3h2.422l-3-3-3 3h2.422c0 0.891-0.25 1.842-0.724 2.748-0.485 0.929-1.207 1.814-2.087 2.562-1.984 1.685-4.654 2.613-7.516 2.613-0.319 0-0.578 0.259-0.578 0.578s0.259 0.578 0.578 0.578c3.136 0 6.072-1.025 8.265-2.887 0.993-0.843 1.81-1.848 2.364-2.907 0.56-1.071 0.856-2.206 0.856-3.284z"></path>
<path fill="#000000" d="M13.707 13l2.146-2.146c0.195-0.195 0.195-0.512 0-0.707s-0.512-0.195-0.707 0l-2.146 2.146-2.146-2.146c-0.195-0.195-0.512-0.195-0.707 0s-0.195 0.512 0 0.707l2.146 2.146-2.146 2.146c-0.195 0.195-0.195 0.512 0 0.707 0.098 0.098 0.226 0.146 0.354 0.146s0.256-0.049 0.354-0.146l2.146-2.146 2.146 2.146c0.098 0.098 0.226 0.146 0.354 0.146s0.256-0.049 0.354-0.146c0.195-0.195 0.195-0.512 0-0.707l-2.146-2.146z"></path>
</svg>
