<?xml version="1.0" encoding="utf-8"?>
<!-- Generated by IcoMoon.io -->
<!DOCTYPE svg PUBLIC "-//W3C//DTD SVG 1.1//EN" "http://www.w3.org/Graphics/SVG/1.1/DTD/svg11.dtd">
<svg version="1.1" xmlns="http://www.w3.org/2000/svg" xmlns:xlink="http://www.w3.org/1999/xlink" width="16" height="16" viewBox="0 0 16 16">
<path fill="#000000" d="M15.5 6l0.5-2-4-4-2 0.5 0.985 0.985-1.631 1.631-2.235-2.235-1.237 1.237 1.506 1.506c-0.033 0.025-0.064 0.053-0.094 0.083l-5.586 5.586c-0.389 0.389-0.389 1.025 0 1.414l0.293 0.293v1l0.646 0.646-2.646 2.646 0.707 0.707 2.646-2.646 0.646 0.646h1l0.293 0.293c0.194 0.194 0.451 0.292 0.707 0.292s0.513-0.097 0.707-0.292l5.586-5.586c0.030-0.030 0.057-0.062 0.083-0.094l1.506 1.506 1.237-1.237-2.235-2.235 1.631-1.631 0.985 0.985zM3.854 8.383l0.029-0.029 3.984 3.541-0.471 0.471-3.541-3.984zM7.367 12.396l-0.471 0.471-3.541-3.984 0.029-0.029 3.984 3.541zM4.354 7.883l0.029-0.029 3.984 3.541-0.471 0.471-3.541-3.984zM4.854 7.383l0.029-0.029 3.984 3.541-0.471 0.471-3.541-3.984zM5.354 6.883l0.029-0.029 3.984 3.541-0.471 0.471-3.541-3.984zM5.854 6.383l0.029-0.029 3.984 3.541-0.471 0.471-3.541-3.984zM6.354 5.883l0.029-0.029 3.984 3.541-0.471 0.471-3.541-3.984zM6.854 5.383l0.029-0.029 3.984 3.541-0.471 0.471-3.541-3.984zM7.354 4.883l0.029-0.029 3.984 3.541-0.471 0.471-3.541-3.984zM6 13.71c-0.024 0-0.059-0.006-0.088-0.035l-3.586-3.586c-0.029-0.029-0.035-0.064-0.035-0.088s0.006-0.059 0.035-0.088l0.057-0.057 3.984 3.541-0.279 0.279c-0.029 0.029-0.064 0.035-0.088 0.035zM6.396 13.367l-3.541-3.984 0.029-0.029 3.984 3.541-0.471 0.471zM11.674 8.088l-0.279 0.279-3.541-3.984 0.057-0.057c0.029-0.029 0.064-0.035 0.088-0.035s0.059 0.006 0.088 0.035l3.586 3.586c0.047 0.047 0.047 0.13 0 0.177zM12.354 6.116l-2.47-2.47 1.631-1.631 2.47 2.47-1.631 1.631z"></path>
</svg>
