<?xml version="1.0" encoding="utf-8"?>
<!-- Generated by IcoMoon.io -->
<!DOCTYPE svg PUBLIC "-//W3C//DTD SVG 1.1//EN" "http://www.w3.org/Graphics/SVG/1.1/DTD/svg11.dtd">
<svg version="1.1" xmlns="http://www.w3.org/2000/svg" xmlns:xlink="http://www.w3.org/1999/xlink" width="16" height="16" viewBox="0 0 16 16">
<path fill="#000000" d="M12.5 5c-1.933 0-3.5 1.567-3.5 3.5 0 0.537 0.121 1.045 0.337 1.5h-2.674c0.216-0.455 0.337-0.963 0.337-1.5 0-1.933-1.567-3.5-3.5-3.5s-3.5 1.567-3.5 3.5c0 1.933 1.567 3.5 3.5 3.5h9c1.933 0 3.5-1.567 3.5-3.5s-1.567-3.5-3.5-3.5zM2 8.5c0-0.828 0.672-1.5 1.5-1.5s1.5 0.672 1.5 1.5-0.672 1.5-1.5 1.5-1.5-0.672-1.5-1.5zM12.5 10c-0.828 0-1.5-0.672-1.5-1.5s0.672-1.5 1.5-1.5 1.5 0.672 1.5 1.5-0.672 1.5-1.5 1.5z"></path>
</svg>
