<?xml version="1.0" encoding="utf-8"?>
<!-- Generated by IcoMoon.io -->
<!DOCTYPE svg PUBLIC "-//W3C//DTD SVG 1.1//EN" "http://www.w3.org/Graphics/SVG/1.1/DTD/svg11.dtd">
<svg version="1.1" xmlns="http://www.w3.org/2000/svg" xmlns:xlink="http://www.w3.org/1999/xlink" width="16" height="16" viewBox="0 0 16 16">
<path fill="#000000" d="M0.5 6.5c0 0.514 0.281 0.968 0.708 1.238-0.132 0.223-0.208 0.484-0.208 0.762 0 0.828 0.672 1.5 1.5 1.5h2.934c-0.351 1.264-0.528 2.572-0.528 3.906 0 1.155 0.939 2.094 2.094 2.094s2.094-0.939 2.094-2.094c0-1.625 0.605-2.874 1.798-3.714 0.328-0.231 0.699-0.429 1.108-0.595v1.403h4v-10h-4v0.984c-0.936-0.061-1.39-0.296-1.831-0.523-0.439-0.227-0.893-0.461-1.669-0.461h-5c-0.828 0-1.5 0.672-1.5 1.5 0 0.195 0.038 0.382 0.106 0.553-0.637 0.173-1.106 0.755-1.106 1.447 0 0.278 0.076 0.538 0.208 0.762-0.427 0.27-0.708 0.724-0.708 1.238zM5.5 9h-3c-0.276 0-0.5-0.224-0.5-0.5s0.224-0.5 0.5-0.5h3c0.276 0 0.5 0.224 0.5 0.5s-0.224 0.5-0.5 0.5zM7.295 5.771c0.423-0.265 0.705-0.735 0.705-1.271 0-0.531-0.276-0.998-0.693-1.264 0.123-0.217 0.193-0.468 0.193-0.736 0-0.175-0.030-0.344-0.086-0.5h1.086c0.533 0 0.817 0.147 1.21 0.35 0.496 0.256 1.1 0.567 2.29 0.636v5.347c-0.671 0.225-1.272 0.522-1.792 0.888-1.506 1.060-2.302 2.68-2.302 4.685 0 0.5-0.407 0.906-0.906 0.906s-0.906-0.407-0.906-0.906c0-1.338 0.194-2.647 0.577-3.906 0.104-0.387 0.202-0.769 0.264-1.062 0.040-0.13 0.062-0.268 0.064-0.411 0-0.009 0.001-0.018 0.001-0.027 0-0.278-0.076-0.538-0.208-0.762 0.427-0.27 0.708-0.724 0.708-1.238 0-0.264-0.074-0.513-0.205-0.729zM3.5 2h2.5c0.276 0 0.5 0.224 0.5 0.5s-0.224 0.5-0.5 0.5h-2.5c-0.276 0-0.5-0.224-0.5-0.5s0.224-0.5 0.5-0.5zM2.5 4h4c0.276 0 0.5 0.224 0.5 0.5s-0.224 0.5-0.5 0.5h-4c-0.276 0-0.5-0.224-0.5-0.5s0.224-0.5 0.5-0.5zM2.125 6h3.75c0.339 0 0.625 0.229 0.625 0.5s-0.286 0.5-0.625 0.5h-3.75c-0.339 0-0.625-0.229-0.625-0.5s0.286-0.5 0.625-0.5zM14 2.5c0-0.276 0.224-0.5 0.5-0.5s0.5 0.224 0.5 0.5-0.224 0.5-0.5 0.5-0.5-0.224-0.5-0.5z"></path>
</svg>
