<?xml version="1.0" encoding="utf-8"?>
<!-- Generated by IcoMoon.io -->
<!DOCTYPE svg PUBLIC "-//W3C//DTD SVG 1.1//EN" "http://www.w3.org/Graphics/SVG/1.1/DTD/svg11.dtd">
<svg version="1.1" xmlns="http://www.w3.org/2000/svg" xmlns:xlink="http://www.w3.org/1999/xlink" width="17" height="16" viewBox="0 0 17 16">
<path fill="#000000" d="M16 6v-2.25c0-0.413-0.338-0.75-0.75-0.75h-11.5c0.138 0 0.25 0.112 0.25 0.25s-0.112 0.25-0.25 0.25-0.25-0.112-0.25-0.25 0.112-0.25 0.25-0.25h-3c-0.412 0-0.75 0.337-0.75 0.75v2.25c1.105 0 2 0.895 2 2s-0.895 2-2 2v2.25c0 0.412 0.338 0.75 0.75 0.75h3c-0.138 0-0.25-0.112-0.25-0.25s0.112-0.25 0.25-0.25 0.25 0.112 0.25 0.25-0.112 0.25-0.25 0.25h11.5c0.412 0 0.75-0.338 0.75-0.75v-2.25c-1.105 0-2-0.895-2-2s0.895-2 2-2zM3.75 12c-0.138 0-0.25-0.112-0.25-0.25s0.112-0.25 0.25-0.25 0.25 0.112 0.25 0.25-0.112 0.25-0.25 0.25zM3.75 11c-0.138 0-0.25-0.112-0.25-0.25s0.112-0.25 0.25-0.25 0.25 0.112 0.25 0.25-0.112 0.25-0.25 0.25zM3.75 10c-0.138 0-0.25-0.112-0.25-0.25s0.112-0.25 0.25-0.25 0.25 0.112 0.25 0.25-0.112 0.25-0.25 0.25zM3.75 9c-0.138 0-0.25-0.112-0.25-0.25s0.112-0.25 0.25-0.25 0.25 0.112 0.25 0.25-0.112 0.25-0.25 0.25zM3.75 7.5c-0.138 0-0.25-0.112-0.25-0.25s0.112-0.25 0.25-0.25 0.25 0.112 0.25 0.25-0.112 0.25-0.25 0.25zM3.75 6.5c-0.138 0-0.25-0.112-0.25-0.25s0.112-0.25 0.25-0.25 0.25 0.112 0.25 0.25-0.112 0.25-0.25 0.25zM3.75 5.5c-0.138 0-0.25-0.112-0.25-0.25s0.112-0.25 0.25-0.25 0.25 0.112 0.25 0.25-0.112 0.25-0.25 0.25zM3.75 4.5c-0.138 0-0.25-0.112-0.25-0.25s0.112-0.25 0.25-0.25 0.25 0.112 0.25 0.25-0.112 0.25-0.25 0.25zM10.373 10.578l-1.873-1.361-1.873 1.361 0.715-2.201-1.873-1.361h2.315l0.715-2.202 0.715 2.202h2.315l-1.873 1.361 0.715 2.201z"></path>
</svg>
