<?xml version="1.0" encoding="utf-8"?>
<!-- Generated by IcoMoon.io -->
<!DOCTYPE svg PUBLIC "-//W3C//DTD SVG 1.1//EN" "http://www.w3.org/Graphics/SVG/1.1/DTD/svg11.dtd">
<svg version="1.1" xmlns="http://www.w3.org/2000/svg" xmlns:xlink="http://www.w3.org/1999/xlink" width="16" height="16" viewBox="0 0 16 16">
<path fill="#000000" d="M8 16.043c-0.141 0-0.275-0.060-0.37-0.164l-2.457-2.707c-0.107-0.117-0.151-0.279-0.12-0.434l1.941-9.703-1.877-2.211c-0.126-0.149-0.154-0.357-0.073-0.534s0.259-0.29 0.454-0.29h5.006c0.195 0 0.372 0.113 0.454 0.29s0.053 0.385-0.073 0.534l-1.877 2.211 1.941 9.703c0.031 0.156-0.013 0.317-0.12 0.434l-2.457 2.707c-0.095 0.104-0.229 0.164-0.37 0.164z"></path>
</svg>
