<?xml version="1.0" encoding="utf-8"?>
<!-- Generated by IcoMoon.io -->
<!DOCTYPE svg PUBLIC "-//W3C//DTD SVG 1.1//EN" "http://www.w3.org/Graphics/SVG/1.1/DTD/svg11.dtd">
<svg version="1.1" xmlns="http://www.w3.org/2000/svg" xmlns:xlink="http://www.w3.org/1999/xlink" width="16" height="16" viewBox="0 0 16 16">
<path fill="#000000" d="M13.887 13.182l-2.387-3.182h1c0 0 0.001 0 0.001 0 0.276 0 0.5-0.224 0.5-0.5 0-0.121-0.043-0.231-0.114-0.318l-2.387-3.182h1c0.192 0 0.367-0.11 0.451-0.283s0.060-0.379-0.060-0.529l-4-5c-0.095-0.119-0.239-0.188-0.39-0.188s-0.296 0.069-0.39 0.188l-4 5c-0.12 0.15-0.143 0.356-0.060 0.529s0.258 0.283 0.451 0.283h1l-2.4 3.2c-0.114 0.152-0.132 0.354-0.047 0.524s0.258 0.276 0.447 0.276h1l-2.4 3.2c-0.114 0.152-0.132 0.354-0.047 0.524s0.258 0.276 0.447 0.276h4.5v1.5c0 0.276 0.224 0.5 0.5 0.5h2c0.276 0 0.5-0.224 0.5-0.5v-1.5h4.5c0 0 0 0 0.001 0 0.276 0 0.5-0.224 0.5-0.5 0-0.121-0.043-0.231-0.114-0.318zM8 15h-1v-1h1v1zM2.5 13l2.4-3.2c0.114-0.152 0.132-0.354 0.047-0.524s-0.258-0.276-0.447-0.276h-1l2.4-3.2c0.114-0.152 0.132-0.354 0.047-0.524s-0.258-0.276-0.447-0.276h-0.96l2.96-3.7 2.96 3.7h-0.96c-0.189 0-0.363 0.107-0.447 0.276s-0.066 0.372 0.047 0.524l2.4 3.2h-1c-0.189 0-0.363 0.107-0.447 0.276s-0.066 0.372 0.047 0.524l2.4 3.2h-10z"></path>
</svg>
