<?xml version="1.0" encoding="utf-8"?>
<!-- Generated by IcoMoon.io -->
<!DOCTYPE svg PUBLIC "-//W3C//DTD SVG 1.1//EN" "http://www.w3.org/Graphics/SVG/1.1/DTD/svg11.dtd">
<svg version="1.1" xmlns="http://www.w3.org/2000/svg" xmlns:xlink="http://www.w3.org/1999/xlink" width="16" height="16" viewBox="0 0 16 16">
<path fill="#000000" d="M8.998 1.062c3.947 0.491 7.002 3.858 7.002 7.938h-0.268c-0.346-0.598-0.992-1-1.732-1s-1.386 0.402-1.732 1h-0.537c-0.346-0.598-0.992-1-1.732-1-0.364 0-0.706 0.098-1 0.268v5.232c0 1.379-1.122 2.5-2.5 2.5s-2.5-1.121-2.5-2.5c0-0.552 0.448-1 1-1s1 0.448 1 1c0 0.276 0.224 0.5 0.5 0.5s0.5-0.224 0.5-0.5v-5.232c-0.294-0.17-0.636-0.268-1-0.268-0.74 0-1.386 0.402-1.732 1h-0.536c-0.346-0.598-0.992-1-1.732-1s-1.386 0.402-1.732 1h-0.268c0-4.080 3.055-7.447 7.002-7.938-0.001-0.020-0.002-0.041-0.002-0.062 0-0.552 0.448-1 1-1s1 0.448 1 1c0 0.021-0.001 0.041-0.002 0.062z"></path>
</svg>
