<?xml version="1.0" encoding="utf-8"?>
<!-- Generated by IcoMoon.io -->
<!DOCTYPE svg PUBLIC "-//W3C//DTD SVG 1.1//EN" "http://www.w3.org/Graphics/SVG/1.1/DTD/svg11.dtd">
<svg version="1.1" xmlns="http://www.w3.org/2000/svg" xmlns:xlink="http://www.w3.org/1999/xlink" width="16" height="16" viewBox="0 0 16 16">
<path fill="#000000" d="M8.086 10.586l-2.865 2.865c-0.354 0.354-0.829 0.549-1.337 0.549s-0.982-0.195-1.335-0.548c-0.354-0.354-0.548-0.828-0.548-1.336s0.195-0.983 0.549-1.337l2.865-2.865-1.414-1.414-2.865 2.865c-1.513 1.513-1.514 3.989-0.001 5.501 0.756 0.756 1.753 1.134 2.75 1.134s1.995-0.378 2.752-1.135l2.865-2.865-1.414-1.414z"></path>
<path fill="#000000" d="M10.586 8.086l2.865-2.865c0.354-0.354 0.549-0.829 0.549-1.337s-0.195-0.982-0.548-1.335c-0.354-0.354-0.828-0.548-1.336-0.548s-0.983 0.195-1.337 0.549l-2.865 2.865-1.414-1.414 2.865-2.865c1.513-1.513 3.989-1.514 5.501-0.001 0.756 0.756 1.134 1.753 1.134 2.75s-0.378 1.995-1.135 2.752l-2.865 2.865-1.414-1.414z"></path>
<path fill="#000000" d="M13 10h3v1h-3v-1z"></path>
<path fill="#000000" d="M10 13h1v3h-1v-3z"></path>
<path fill="#000000" d="M5 0h1v3h-1v-3z"></path>
<path fill="#000000" d="M0 5h3v1h-3v-1z"></path>
<path fill="#000000" d="M12.604 11.896l2.75 2.75-0.707 0.707-2.75-2.75 0.707-0.707z"></path>
<path fill="#000000" d="M1.354 0.646l2.75 2.75-0.707 0.707-2.75-2.75 0.707-0.707z"></path>
</svg>
