<?xml version="1.0" encoding="utf-8"?>
<!-- Generated by IcoMoon.io -->
<!DOCTYPE svg PUBLIC "-//W3C//DTD SVG 1.1//EN" "http://www.w3.org/Graphics/SVG/1.1/DTD/svg11.dtd">
<svg version="1.1" xmlns="http://www.w3.org/2000/svg" xmlns:xlink="http://www.w3.org/1999/xlink" width="16" height="16" viewBox="0 0 16 16">
<path fill="#000000" d="M3 16h10c1.657 0 3-1.343 3-3h-16c0 1.657 1.343 3 3 3zM13 14h1v1h-1v-1zM3.5 5l4.5-4.5 4.5 4.5h-3.5v3h-2v-3zM15.981 11.519c0.077 0.264-0.089 0.481-0.368 0.481h-15.226c-0.279 0-0.445-0.216-0.368-0.481l1.751-5.038c0.077-0.264 0.368-0.481 0.647-0.481h3.583v3h4v-3h3.583c0.279 0 0.57 0.216 0.647 0.481l1.751 5.038z"></path>
</svg>
