<?xml version="1.0" encoding="utf-8"?>
<!-- Generated by IcoMoon.io -->
<!DOCTYPE svg PUBLIC "-//W3C//DTD SVG 1.1//EN" "http://www.w3.org/Graphics/SVG/1.1/DTD/svg11.dtd">
<svg version="1.1" xmlns="http://www.w3.org/2000/svg" xmlns:xlink="http://www.w3.org/1999/xlink" width="16" height="16" viewBox="0 0 16 16">
<path fill="#000000" d="M3 6c0-1.105 0.895-2 2-2s2 0.895 2 2c0 1.105-0.895 2-2 2s-2-0.895-2-2zM9 3c0-1.105 0.895-2 2-2s2 0.895 2 2c0 1.105-0.895 2-2 2s-2-0.895-2-2zM5 9c-2.761 0-5 2.686-5 6h1.5c0-0.64 0.103-1.258 0.308-1.837 0.192-0.546 0.465-1.032 0.809-1.446 0.654-0.785 1.501-1.218 2.383-1.218s1.729 0.432 2.383 1.218c0.345 0.414 0.617 0.9 0.809 1.446 0.204 0.579 0.308 1.197 0.308 1.837h1.5c0-3.314-2.239-6-5-6zM11 6c-1.472 0-2.794 0.763-3.709 1.977 0.112 0.049 0.224 0.101 0.335 0.157 0.34 0.173 0.664 0.376 0.97 0.61 0.007-0.009 0.014-0.018 0.022-0.027 0.654-0.785 1.501-1.218 2.383-1.218s1.729 0.432 2.383 1.218c0.345 0.414 0.617 0.9 0.809 1.446 0.204 0.579 0.308 1.197 0.308 1.837h1.5c0-3.314-2.239-6-5-6z"></path>
</svg>
