<?xml version="1.0" encoding="utf-8"?>
<!-- Generated by IcoMoon.io -->
<!DOCTYPE svg PUBLIC "-//W3C//DTD SVG 1.1//EN" "http://www.w3.org/Graphics/SVG/1.1/DTD/svg11.dtd">
<svg version="1.1" xmlns="http://www.w3.org/2000/svg" xmlns:xlink="http://www.w3.org/1999/xlink" width="16" height="16" viewBox="0 0 16 16">
<path fill="#000000" d="M15.25 11h-0.25v-1c0-1.103-0.897-2-2-2s-2 0.897-2 2v1h-0.25c-0.412 0-0.75 0.338-0.75 0.75v3.5c0 0.412 0.338 0.75 0.75 0.75h4.5c0.412 0 0.75-0.338 0.75-0.75v-3.5c0-0.412-0.338-0.75-0.75-0.75zM12 10c0-0.551 0.449-1 1-1s1 0.449 1 1v1h-2v-1z"></path>
<path fill="#000000" d="M9 9.166c-0.324-0.055-0.658-0.097-1-0.125v-0.825c1.102-0.621 2-2.168 2-3.716 0-2.485 0-4.5-3-4.5s-3 2.015-3 4.5c0 1.548 0.898 3.095 2 3.716v0.825c-3.392 0.277-6 1.944-6 3.959h9v-3.834z"></path>
</svg>
