<?xml version="1.0" encoding="utf-8"?>
<!-- Generated by IcoMoon.io -->
<!DOCTYPE svg PUBLIC "-//W3C//DTD SVG 1.1//EN" "http://www.w3.org/Graphics/SVG/1.1/DTD/svg11.dtd">
<svg version="1.1" xmlns="http://www.w3.org/2000/svg" xmlns:xlink="http://www.w3.org/1999/xlink" width="18" height="16" viewBox="0 0 18 16">
<path fill="#000000" d="M12 12.041v-0.825c1.101-0.621 2-2.168 2-3.716 0-2.485 0-4.5-3-4.5s-3 2.015-3 4.5c0 1.548 0.898 3.095 2 3.716v0.825c-3.392 0.277-6 1.944-6 3.959h14c0-2.015-2.608-3.682-6-3.959z"></path>
<path fill="#000000" d="M3.242 9.625c-0.212 0.077-0.416 0.161-0.611 0.25h4.782c-0.038-0.083-0.075-0.166-0.109-0.25h-4.062z"></path>
<path fill="#000000" d="M0.425 11.625c-0.053 0.082-0.101 0.165-0.144 0.25h5.834c0.192-0.089 0.389-0.172 0.593-0.25h-6.284z"></path>
<path fill="#000000" d="M1.367 10.625c-0.105 0.081-0.204 0.164-0.299 0.25h6.933c-0.060-0.081-0.118-0.165-0.174-0.25h-6.461z"></path>
<path fill="#000000" d="M5.261 9.125c-0.424 0.062-0.833 0.146-1.222 0.25h3.17c-0.030-0.083-0.057-0.166-0.083-0.25h-1.864z"></path>
<path fill="#000000" d="M6 8.625v0.25h1.054c-0.022-0.083-0.041-0.166-0.059-0.25h-0.995z"></path>
<path fill="#000000" d="M5.851 8.125c0.049 0.032 0.099 0.063 0.149 0.091v0.159h0.947c-0.014-0.083-0.025-0.167-0.035-0.25h-1.062z"></path>
<path fill="#000000" d="M0.030 12.625c-0.013 0.083-0.022 0.166-0.027 0.25h4.501c0.102-0.085 0.209-0.169 0.321-0.25h-4.795z"></path>
<path fill="#000000" d="M1.719 10.375h5.955c-0.024-0.042-0.048-0.084-0.072-0.127-0.022-0.041-0.044-0.082-0.066-0.123h-5.402c-0.145 0.080-0.283 0.163-0.415 0.25z"></path>
<path fill="#000000" d="M4.005 3.625c-0.002 0.083-0.003 0.166-0.003 0.25h3.339c0.004-0.009 0.008-0.018 0.012-0.028 0.035-0.076 0.073-0.15 0.112-0.222h-3.46z"></path>
<path fill="#000000" d="M0.168 12.125c-0.032 0.082-0.060 0.166-0.083 0.25h5.109c0.136-0.087 0.277-0.17 0.423-0.25h-5.449z"></path>
<path fill="#000000" d="M4.643 0.875h4.713c-0.070-0.089-0.148-0.173-0.234-0.25h-4.245c-0.086 0.077-0.164 0.161-0.234 0.25z"></path>
<path fill="#000000" d="M0.602 11.375h6.845c0.256-0.076 0.519-0.145 0.787-0.204-0.013-0.015-0.025-0.030-0.038-0.046h-7.381c-0.076 0.082-0.147 0.165-0.213 0.25z"></path>
<path fill="#000000" d="M5.255 7.625c0.085 0.089 0.173 0.173 0.263 0.25h1.371c-0.006-0.083-0.010-0.167-0.012-0.25h-1.622z"></path>
<path fill="#000000" d="M4.848 7.125c0.060 0.086 0.123 0.17 0.188 0.25h1.84c0-0.084 0-0.167 0-0.25h-2.027z"></path>
<path fill="#000000" d="M4.255 1.625c-0.027 0.081-0.050 0.164-0.072 0.25h5.632c-0.021-0.086-0.045-0.169-0.072-0.25h-5.489z"></path>
<path fill="#000000" d="M4.13 2.125c-0.015 0.082-0.029 0.165-0.041 0.25h4.625c0.179-0.098 0.372-0.181 0.578-0.25h-5.162z"></path>
<path fill="#000000" d="M4.022 3.125c-0.004 0.082-0.008 0.166-0.010 0.25h3.605c0.058-0.087 0.12-0.17 0.185-0.25h-3.78z"></path>
<path fill="#000000" d="M4.059 2.625c-0.008 0.082-0.016 0.165-0.022 0.25h3.995c0.092-0.089 0.189-0.173 0.292-0.25h-4.265z"></path>
<path fill="#000000" d="M5.866 0.125c-0.243 0.062-0.455 0.146-0.638 0.25h3.544c-0.184-0.104-0.396-0.188-0.639-0.25h-2.266z"></path>
<path fill="#000000" d="M4.544 6.625c0.045 0.085 0.092 0.169 0.141 0.25h2.192c0.001-0.084 0.002-0.167 0.003-0.25h-2.336z"></path>
<path fill="#000000" d="M4.475 1.125c-0.046 0.080-0.088 0.163-0.125 0.25h5.3c-0.037-0.087-0.079-0.17-0.125-0.25h-5.050z"></path>
<path fill="#000000" d="M4.152 5.625c0.022 0.084 0.048 0.167 0.074 0.25h2.683c0.005-0.084 0.012-0.167 0.019-0.25h-2.777z"></path>
<path fill="#000000" d="M4.316 6.125c0.033 0.085 0.068 0.168 0.105 0.25h2.464c0.003-0.084 0.006-0.167 0.009-0.25h-2.579z"></path>
<path fill="#000000" d="M4 4.125c-0 0.083-0 0.166-0 0.25h3.155c0.025-0.085 0.053-0.168 0.084-0.25h-3.238z"></path>
<path fill="#000000" d="M4.002 4.625c0.003 0.083 0.008 0.167 0.016 0.25h3.014c0.016-0.084 0.035-0.168 0.055-0.25h-3.085z"></path>
<path fill="#000000" d="M4.048 5.125c0.013 0.084 0.027 0.167 0.045 0.25h2.862c0.010-0.084 0.021-0.167 0.034-0.25h-2.941z"></path>
</svg>
