<?xml version="1.0" encoding="utf-8"?>
<!-- Generated by IcoMoon.io -->
<!DOCTYPE svg PUBLIC "-//W3C//DTD SVG 1.1//EN" "http://www.w3.org/Graphics/SVG/1.1/DTD/svg11.dtd">
<svg version="1.1" xmlns="http://www.w3.org/2000/svg" xmlns:xlink="http://www.w3.org/1999/xlink" width="16" height="16" viewBox="0 0 16 16">
<path fill="#000000" d="M6 11.5c0-2.363 1.498-4.383 3.594-5.159 0.254-0.571 0.406-1.206 0.406-1.841 0-2.485 0-4.5-3-4.5s-3 2.015-3 4.5c0 1.548 0.898 3.095 2 3.716v0.825c-3.392 0.277-6 1.944-6 3.959h6.208c-0.135-0.477-0.208-0.98-0.208-1.5z"></path>
<path fill="#000000" d="M11.5 7c-2.485 0-4.5 2.015-4.5 4.5s2.015 4.5 4.5 4.5c2.485 0 4.5-2.015 4.5-4.5s-2.015-4.5-4.5-4.5zM13.898 13.102c0.22 0.22 0.22 0.576 0 0.795-0.11 0.11-0.254 0.165-0.398 0.165s-0.288-0.055-0.398-0.165l-1.602-1.602-1.602 1.602c-0.11 0.11-0.254 0.165-0.398 0.165s-0.288-0.055-0.398-0.165c-0.22-0.22-0.22-0.576 0-0.795l1.602-1.602-1.602-1.602c-0.22-0.22-0.22-0.576 0-0.795s0.576-0.22 0.795 0l1.602 1.602 1.602-1.602c0.22-0.22 0.576-0.22 0.795 0s0.22 0.576 0 0.795l-1.602 1.602 1.602 1.602z"></path>
</svg>
