<?xml version="1.0" encoding="utf-8"?>
<!-- Generated by IcoMoon.io -->
<!DOCTYPE svg PUBLIC "-//W3C//DTD SVG 1.1//EN" "http://www.w3.org/Graphics/SVG/1.1/DTD/svg11.dtd">
<svg version="1.1" xmlns="http://www.w3.org/2000/svg" xmlns:xlink="http://www.w3.org/1999/xlink" width="16" height="16" viewBox="0 0 16 16">
<path fill="#000000" d="M7.5 16h-6.977c-0.14 0-0.274-0.059-0.369-0.163s-0.141-0.242-0.129-0.382c0.11-1.22 0.585-2.363 1.373-3.305 0.697-0.832 1.59-1.452 2.602-1.809l0-0.475c-0.562-0.385-1.037-0.926-1.385-1.582-0.402-0.758-0.615-1.634-0.615-2.535 0-1.251 0.405-2.431 1.139-3.323 0.758-0.92 1.774-1.427 2.861-1.427 2.119 0 3.874 1.966 3.993 4.476 0.013 0.276-0.2 0.51-0.476 0.523s-0.51-0.2-0.523-0.476c-0.094-1.976-1.41-3.524-2.995-3.524-1.654 0-3 1.682-3 3.75 0 1.457 0.687 2.795 1.75 3.408 0.155 0.089 0.25 0.254 0.25 0.433l-0 1.116c0 0.224-0.149 0.42-0.364 0.481-0.967 0.274-1.822 0.828-2.471 1.604-0.538 0.643-0.901 1.397-1.064 2.208h6.4c0.276 0 0.5 0.224 0.5 0.5s-0.224 0.5-0.5 0.5z"></path>
<path fill="#000000" d="M11.5 16c-2.481 0-4.5-2.019-4.5-4.5s2.019-4.5 4.5-4.5 4.5 2.019 4.5 4.5-2.019 4.5-4.5 4.5zM11.5 8c-1.93 0-3.5 1.57-3.5 3.5s1.57 3.5 3.5 3.5 3.5-1.57 3.5-3.5-1.57-3.5-3.5-3.5z"></path>
<path fill="#000000" d="M12.207 11.5l1.646-1.646c0.195-0.195 0.195-0.512 0-0.707s-0.512-0.195-0.707 0l-1.646 1.646-1.646-1.646c-0.195-0.195-0.512-0.195-0.707 0s-0.195 0.512 0 0.707l1.646 1.646-1.646 1.646c-0.195 0.195-0.195 0.512 0 0.707 0.098 0.098 0.226 0.146 0.354 0.146s0.256-0.049 0.354-0.146l1.646-1.646 1.646 1.646c0.098 0.098 0.226 0.146 0.354 0.146s0.256-0.049 0.354-0.146c0.195-0.195 0.195-0.512 0-0.707l-1.646-1.646z"></path>
</svg>
