<?xml version="1.0" encoding="utf-8"?>
<!-- Generated by IcoMoon.io -->
<!DOCTYPE svg PUBLIC "-//W3C//DTD SVG 1.1//EN" "http://www.w3.org/Graphics/SVG/1.1/DTD/svg11.dtd">
<svg version="1.1" xmlns="http://www.w3.org/2000/svg" xmlns:xlink="http://www.w3.org/1999/xlink" width="16" height="16" viewBox="0 0 16 16">
<path fill="#000000" d="M15.854 1.146c-0.195-0.195-0.512-0.195-0.707 0l-4.146 4.146v-3.793c0-0.202-0.122-0.385-0.309-0.462s-0.402-0.035-0.545 0.108l-3.854 3.854h-1.793c-0.276 0-0.5 0.224-0.5 0.5v5c0 0.276 0.224 0.5 0.5 0.5h0.793l-3.146 3.146c-0.195 0.195-0.195 0.512 0 0.707 0.098 0.098 0.226 0.146 0.354 0.146s0.256-0.049 0.354-0.146l3.646-3.646 3.646 3.646c0.096 0.096 0.224 0.146 0.354 0.146 0.064 0 0.129-0.012 0.191-0.038 0.187-0.077 0.309-0.26 0.309-0.462v-7.793l4.854-4.854c0.195-0.195 0.195-0.512 0-0.707zM5 10v-4h1.5c0.133 0 0.26-0.053 0.354-0.146l3.146-3.146v3.586l-3.707 3.707h-1.293zM10 13.293l-2.793-2.793 2.793-2.793v5.586z"></path>
</svg>
