<?xml version="1.0" encoding="utf-8"?>
<!-- Generated by IcoMoon.io -->
<!DOCTYPE svg PUBLIC "-//W3C//DTD SVG 1.1//EN" "http://www.w3.org/Graphics/SVG/1.1/DTD/svg11.dtd">
<svg version="1.1" xmlns="http://www.w3.org/2000/svg" xmlns:xlink="http://www.w3.org/1999/xlink" width="16" height="16" viewBox="0 0 16 16">
<path fill="#000000" d="M10.5 5c-0.828 0-1.5-0.672-1.5-1.5s0.672-1.5 1.5-1.5 1.5 0.672 1.5 1.5c0 0.072-0.005 0.143-0.015 0.212l0.99 0.141c0.016-0.116 0.025-0.233 0.025-0.354 0-1.381-1.119-2.5-2.5-2.5s-2.5 1.119-2.5 2.5 1.119 2.5 2.5 2.5h5.5v-1h-5.5zM2 12c0 1.657 1.343 3 3 3s3-1.343 3-3c0-0.251-0.031-0.495-0.089-0.728l-0.971 0.243c0.039 0.155 0.060 0.318 0.060 0.485 0 1.105-0.895 2-2 2s-2-0.895-2-2 0.895-2 2-2h11v-1h-11c-1.657 0-3 1.343-3 3zM1 4.5c0-1.381 1.119-2.5 2.5-2.5s2.5 1.119 2.5 2.5c0 0.369-0.081 0.719-0.224 1.034l0.911 0.414c0.201-0.441 0.313-0.932 0.313-1.449 0-1.933-1.567-3.5-3.5-3.5s-3.5 1.567-3.5 3.5c0 1.933 1.567 3.5 3.5 3.5h12.5v-1h-12.5c-1.381 0-2.5-1.119-2.5-2.5z"></path>
</svg>
