<?xml version="1.0" encoding="utf-8"?>
<!-- Generated by IcoMoon.io -->
<!DOCTYPE svg PUBLIC "-//W3C//DTD SVG 1.1//EN" "http://www.w3.org/Graphics/SVG/1.1/DTD/svg11.dtd">
<svg version="1.1" xmlns="http://www.w3.org/2000/svg" xmlns:xlink="http://www.w3.org/1999/xlink" width="16" height="16" viewBox="0 0 16 16">
<path fill="#000000" d="M2.059 11.040c-0.006-0.027-0.012-0.055-0.017-0.082-1.161-0.216-2.042-1.235-2.042-2.457 0-1.228 0.89-2.251 2.059-2.46-0.039-0.176-0.059-0.357-0.059-0.54 0-1.378 1.122-2.5 2.5-2.5 0.218 0 0.434 0.029 0.643 0.084 0.388-1.208 1.522-2.084 2.857-2.084 1.354 0 2.514 0.907 2.88 2.158 0.359-0.104 0.735-0.158 1.12-0.158 2.206 0 4 1.794 4 4 0 0.921-0.309 1.794-0.879 2.502 0.549 0.685 0.879 1.554 0.879 2.498 0 2.206-1.794 4-4 4h-9.5c-1.379 0-2.5-1.121-2.5-2.5 0-1.228 0.89-2.251 2.059-2.46zM12 4c-0.813 0-1.574 0.32-2.143 0.9-0.193 0.197-0.51 0.2-0.707 0.007s-0.2-0.51-0.007-0.707c0.245-0.25 0.517-0.463 0.809-0.638-0.201-0.897-1.005-1.562-1.952-1.562-1.103 0-2 0.897-2 2 0 0.136 0.014 0.272 0.041 0.404 0.055 0.271-0.119 0.535-0.39 0.59-0.034 0.007-0.067 0.010-0.101 0.010-0.233 0-0.441-0.163-0.489-0.4-0.035-0.17-0.055-0.343-0.060-0.518-0.16-0.057-0.33-0.086-0.501-0.086-0.827 0-1.5 0.673-1.5 1.5 0 0.171 0.029 0.34 0.086 0.5h0.414c0.276 0 0.5 0.224 0.5 0.5s-0.224 0.5-0.5 0.5h-1c-0.827 0-1.5 0.673-1.5 1.5 0 0.676 0.449 1.249 1.065 1.435 0.257-1.107 1.251-1.936 2.435-1.936 0.218 0 0.434 0.029 0.643 0.084 0.388-1.208 1.522-2.084 2.857-2.084 1.354 0 2.514 0.907 2.88 2.158 0.359-0.104 0.735-0.158 1.12-0.158 0.899 0 1.73 0.298 2.399 0.801 0.39-0.517 0.601-1.143 0.601-1.801 0-1.654-1.346-3-3-3zM2.5 15h9.5c1.654 0 3-1.346 3-3s-1.346-3-3-3c-0.813 0-1.574 0.32-2.143 0.9-0.193 0.197-0.51 0.2-0.707 0.007s-0.2-0.51-0.007-0.707c0.245-0.25 0.517-0.463 0.809-0.638-0.201-0.897-1.005-1.562-1.952-1.562-1.103 0-2 0.897-2 2 0 0.136 0.014 0.272 0.041 0.404 0.055 0.271-0.119 0.535-0.39 0.59-0.034 0.007-0.067 0.010-0.101 0.010-0.233 0-0.441-0.163-0.489-0.4-0.035-0.17-0.055-0.343-0.060-0.518-0.16-0.057-0.33-0.086-0.501-0.086-0.827 0-1.5 0.673-1.5 1.5 0 0.171 0.029 0.34 0.086 0.5h0.414c0.276 0 0.5 0.224 0.5 0.5s-0.224 0.5-0.5 0.5h-1c-0.827 0-1.5 0.673-1.5 1.5s0.673 1.5 1.5 1.5z"></path>
</svg>
