<?xml version="1.0" encoding="utf-8"?>
<!-- Generated by IcoMoon.io -->
<!DOCTYPE svg PUBLIC "-//W3C//DTD SVG 1.1//EN" "http://www.w3.org/Graphics/SVG/1.1/DTD/svg11.dtd">
<svg version="1.1" xmlns="http://www.w3.org/2000/svg" xmlns:xlink="http://www.w3.org/1999/xlink" width="16" height="16" viewBox="0 0 16 16">
<path fill="#000000" d="M2.634 7.961c0.33-1.35 1.55-2.356 3-2.356 0.576 0 1.126 0.157 1.601 0.446 0.832-0.677 1.872-1.052 2.97-1.052 1.239 0 2.41 0.477 3.297 1.344 0.714 0.699 1.181 1.588 1.35 2.555 0.144 0.068 0.284 0.145 0.419 0.231 0.452-0.487 0.729-1.139 0.729-1.856 0-1.283-0.886-2.358-2.078-2.648-0.051-2.011-1.695-3.626-3.717-3.626-1.184 0-2.239 0.555-2.92 1.418-0.382-0.494-0.98-0.812-1.652-0.812-1.153 0-2.088 0.936-2.088 2.089 0 0.101 0.007 0.199 0.021 0.296-0.175-0.032-0.356-0.049-0.54-0.049-1.672-0-3.027 1.356-3.027 3.029 0 0.672 0.219 1.293 0.589 1.795 0.579-0.442 1.281-0.731 2.045-0.805z"></path>
<path fill="#000000" d="M13.922 9.626c1.192 0.29 2.078 1.365 2.078 2.648 0 1.504-1.217 2.723-2.719 2.726v0h-10.254c-1.672 0-3.027-1.356-3.027-3.029s1.355-3.029 3.027-3.029c0.184 0 0.365 0.017 0.54 0.049-0.014-0.097-0.021-0.196-0.021-0.296 0-1.154 0.935-2.089 2.088-2.089 0.672 0 1.27 0.318 1.652 0.812 0.681-0.863 1.735-1.418 2.92-1.418 2.022 0 3.666 1.615 3.717 3.626v0z"></path>
</svg>
