<?xml version="1.0" encoding="utf-8"?>
<!-- Generated by IcoMoon.io -->
<!DOCTYPE svg PUBLIC "-//W3C//DTD SVG 1.1//EN" "http://www.w3.org/Graphics/SVG/1.1/DTD/svg11.dtd">
<svg version="1.1" xmlns="http://www.w3.org/2000/svg" xmlns:xlink="http://www.w3.org/1999/xlink" width="16" height="16" viewBox="0 0 16 16">
<path fill="#000000" d="M2.129 0.629l1.871 1.871-2 2-1.871-1.871c-0.084 0.276-0.129 0.568-0.129 0.871 0 1.657 1.343 3 3 3 0.303 0 0.596-0.045 0.871-0.129l5.757 5.757c-0.084 0.276-0.129 0.568-0.129 0.871 0 1.657 1.343 3 3 3 0.303 0 0.596-0.045 0.871-0.129l-1.871-1.871 2-2 1.871 1.871c0.084-0.276 0.129-0.568 0.129-0.871 0-1.657-1.343-3-3-3-0.303 0-0.596 0.045-0.871 0.129l-5.757-5.757c0.084-0.276 0.129-0.568 0.129-0.871 0-1.657-1.343-3-3-3-0.303 0-0.596 0.045-0.871 0.129z"></path>
</svg>
